<?xml version="1.0" encoding="utf-8" standalone="no"?>
<!DOCTYPE svg PUBLIC "-//W3C//DTD SVG 1.1//EN"
  "http://www.w3.org/Graphics/SVG/1.1/DTD/svg11.dtd">
<svg xmlns:xlink="http://www.w3.org/1999/xlink" width="871.13625pt" height="480.433125pt" viewBox="0 0 871.13625 480.433125" xmlns="http://www.w3.org/2000/svg" version="1.1">
 <metadata>
  <rdf:RDF xmlns:dc="http://purl.org/dc/elements/1.1/" xmlns:cc="http://creativecommons.org/ns#" xmlns:rdf="http://www.w3.org/1999/02/22-rdf-syntax-ns#">
   <cc:Work>
    <dc:type rdf:resource="http://purl.org/dc/dcmitype/StillImage"/>
    <dc:date>2022-05-08T00:45:15.409213</dc:date>
    <dc:format>image/svg+xml</dc:format>
    <dc:creator>
     <cc:Agent>
      <dc:title>Matplotlib v3.5.1, https://matplotlib.org/</dc:title>
     </cc:Agent>
    </dc:creator>
   </cc:Work>
  </rdf:RDF>
 </metadata>
 <defs>
  <style type="text/css">*{stroke-linejoin: round; stroke-linecap: butt}</style>
 </defs>
 <g id="figure_1">
  <g id="patch_1">
   <path d="M 0 480.433125 
L 871.13625 480.433125 
L 871.13625 0 
L 0 0 
L 0 480.433125 
z
" style="fill: none"/>
  </g>
  <g id="axes_1">
   <g id="patch_2">
    <path d="M 82.73625 411.95625 
L 863.93625 411.95625 
L 863.93625 31.43625 
L 82.73625 31.43625 
z
" style="fill: #ffffff"/>
   </g>
   <g id="patch_3">
    <path d="M 118.245341 92572.70245 
L 120.612614 92572.70245 
L 120.612614 48.732614 
L 118.245341 48.732614 
z
" clip-path="url(#p35e769fd4d)" style="fill: #ff00ff"/>
   </g>
   <g id="patch_4">
    <path d="M 120.612614 92572.70245 
L 122.979886 92572.70245 
L 122.979886 250.106121 
L 120.612614 250.106121 
z
" clip-path="url(#p35e769fd4d)" style="fill: #ff00ff"/>
   </g>
   <g id="patch_5">
    <path d="M 122.979886 92572.70245 
L 125.347159 92572.70245 
L 125.347159 330.2302 
L 122.979886 330.2302 
z
" clip-path="url(#p35e769fd4d)" style="fill: #ff00ff"/>
   </g>
   <g id="patch_6">
    <path d="M 125.347159 92572.70245 
L 127.714432 92572.70245 
L 127.714432 92572.70245 
L 125.347159 92572.70245 
z
" clip-path="url(#p35e769fd4d)" style="fill: #ff00ff"/>
   </g>
   <g id="patch_7">
    <path d="M 127.714432 92572.70245 
L 130.081705 92572.70245 
L 130.081705 92572.70245 
L 127.714432 92572.70245 
z
" clip-path="url(#p35e769fd4d)" style="fill: #ff00ff"/>
   </g>
   <g id="patch_8">
    <path d="M 130.081705 92572.70245 
L 132.448977 92572.70245 
L 132.448977 92572.70245 
L 130.081705 92572.70245 
z
" clip-path="url(#p35e769fd4d)" style="fill: #ff00ff"/>
   </g>
   <g id="patch_9">
    <path d="M 132.448977 92572.70245 
L 134.81625 92572.70245 
L 134.81625 92572.70245 
L 132.448977 92572.70245 
z
" clip-path="url(#p35e769fd4d)" style="fill: #ff00ff"/>
   </g>
   <g id="patch_10">
    <path d="M 134.81625 92572.70245 
L 137.183523 92572.70245 
L 137.183523 92572.70245 
L 134.81625 92572.70245 
z
" clip-path="url(#p35e769fd4d)" style="fill: #ff00ff"/>
   </g>
   <g id="patch_11">
    <path d="M 137.183523 92572.70245 
L 139.550795 92572.70245 
L 139.550795 92572.70245 
L 137.183523 92572.70245 
z
" clip-path="url(#p35e769fd4d)" style="fill: #ff00ff"/>
   </g>
   <g id="patch_12">
    <path d="M 139.550795 92572.70245 
L 141.918068 92572.70245 
L 141.918068 92572.70245 
L 139.550795 92572.70245 
z
" clip-path="url(#p35e769fd4d)" style="fill: #ff00ff"/>
   </g>
   <g id="patch_13">
    <path d="M 141.918068 92572.70245 
L 144.285341 92572.70245 
L 144.285341 92572.70245 
L 141.918068 92572.70245 
z
" clip-path="url(#p35e769fd4d)" style="fill: #ff00ff"/>
   </g>
   <g id="patch_14">
    <path d="M 144.285341 92572.70245 
L 146.652614 92572.70245 
L 146.652614 92572.70245 
L 144.285341 92572.70245 
z
" clip-path="url(#p35e769fd4d)" style="fill: #ff00ff"/>
   </g>
   <g id="patch_15">
    <path d="M 146.652614 92572.70245 
L 149.019886 92572.70245 
L 149.019886 92572.70245 
L 146.652614 92572.70245 
z
" clip-path="url(#p35e769fd4d)" style="fill: #ff00ff"/>
   </g>
   <g id="patch_16">
    <path d="M 149.019886 92572.70245 
L 151.387159 92572.70245 
L 151.387159 92572.70245 
L 149.019886 92572.70245 
z
" clip-path="url(#p35e769fd4d)" style="fill: #ff00ff"/>
   </g>
   <g id="patch_17">
    <path d="M 151.387159 92572.70245 
L 153.754432 92572.70245 
L 153.754432 92572.70245 
L 151.387159 92572.70245 
z
" clip-path="url(#p35e769fd4d)" style="fill: #ff00ff"/>
   </g>
   <g id="patch_18">
    <path d="M 153.754432 92572.70245 
L 156.121705 92572.70245 
L 156.121705 92572.70245 
L 153.754432 92572.70245 
z
" clip-path="url(#p35e769fd4d)" style="fill: #ff00ff"/>
   </g>
   <g id="patch_19">
    <path d="M 156.121705 92572.70245 
L 158.488977 92572.70245 
L 158.488977 92572.70245 
L 156.121705 92572.70245 
z
" clip-path="url(#p35e769fd4d)" style="fill: #ff00ff"/>
   </g>
   <g id="patch_20">
    <path d="M 158.488977 92572.70245 
L 160.85625 92572.70245 
L 160.85625 92572.70245 
L 158.488977 92572.70245 
z
" clip-path="url(#p35e769fd4d)" style="fill: #ff00ff"/>
   </g>
   <g id="patch_21">
    <path d="M 160.85625 92572.70245 
L 163.223523 92572.70245 
L 163.223523 92572.70245 
L 160.85625 92572.70245 
z
" clip-path="url(#p35e769fd4d)" style="fill: #ff00ff"/>
   </g>
   <g id="patch_22">
    <path d="M 163.223523 92572.70245 
L 165.590795 92572.70245 
L 165.590795 92572.70245 
L 163.223523 92572.70245 
z
" clip-path="url(#p35e769fd4d)" style="fill: #ff00ff"/>
   </g>
   <g id="patch_23">
    <path d="M 165.590795 92572.70245 
L 167.958068 92572.70245 
L 167.958068 92572.70245 
L 165.590795 92572.70245 
z
" clip-path="url(#p35e769fd4d)" style="fill: #ff00ff"/>
   </g>
   <g id="patch_24">
    <path d="M 167.958068 92572.70245 
L 170.325341 92572.70245 
L 170.325341 92572.70245 
L 167.958068 92572.70245 
z
" clip-path="url(#p35e769fd4d)" style="fill: #ff00ff"/>
   </g>
   <g id="patch_25">
    <path d="M 170.325341 92572.70245 
L 172.692614 92572.70245 
L 172.692614 92572.70245 
L 170.325341 92572.70245 
z
" clip-path="url(#p35e769fd4d)" style="fill: #ff00ff"/>
   </g>
   <g id="patch_26">
    <path d="M 172.692614 92572.70245 
L 175.059886 92572.70245 
L 175.059886 92572.70245 
L 172.692614 92572.70245 
z
" clip-path="url(#p35e769fd4d)" style="fill: #ff00ff"/>
   </g>
   <g id="patch_27">
    <path d="M 175.059886 92572.70245 
L 177.427159 92572.70245 
L 177.427159 92572.70245 
L 175.059886 92572.70245 
z
" clip-path="url(#p35e769fd4d)" style="fill: #ff00ff"/>
   </g>
   <g id="patch_28">
    <path d="M 177.427159 92572.70245 
L 179.794432 92572.70245 
L 179.794432 92572.70245 
L 177.427159 92572.70245 
z
" clip-path="url(#p35e769fd4d)" style="fill: #ff00ff"/>
   </g>
   <g id="patch_29">
    <path d="M 179.794432 92572.70245 
L 182.161705 92572.70245 
L 182.161705 92572.70245 
L 179.794432 92572.70245 
z
" clip-path="url(#p35e769fd4d)" style="fill: #ff00ff"/>
   </g>
   <g id="patch_30">
    <path d="M 182.161705 92572.70245 
L 184.528977 92572.70245 
L 184.528977 92572.70245 
L 182.161705 92572.70245 
z
" clip-path="url(#p35e769fd4d)" style="fill: #ff00ff"/>
   </g>
   <g id="patch_31">
    <path d="M 184.528977 92572.70245 
L 186.89625 92572.70245 
L 186.89625 92572.70245 
L 184.528977 92572.70245 
z
" clip-path="url(#p35e769fd4d)" style="fill: #ff00ff"/>
   </g>
   <g id="patch_32">
    <path d="M 186.89625 92572.70245 
L 189.263523 92572.70245 
L 189.263523 92572.70245 
L 186.89625 92572.70245 
z
" clip-path="url(#p35e769fd4d)" style="fill: #ff00ff"/>
   </g>
   <g id="patch_33">
    <path d="M 189.263523 92572.70245 
L 191.630795 92572.70245 
L 191.630795 92572.70245 
L 189.263523 92572.70245 
z
" clip-path="url(#p35e769fd4d)" style="fill: #ff00ff"/>
   </g>
   <g id="patch_34">
    <path d="M 191.630795 92572.70245 
L 193.998068 92572.70245 
L 193.998068 92572.70245 
L 191.630795 92572.70245 
z
" clip-path="url(#p35e769fd4d)" style="fill: #ff00ff"/>
   </g>
   <g id="patch_35">
    <path d="M 193.998068 92572.70245 
L 196.365341 92572.70245 
L 196.365341 92572.70245 
L 193.998068 92572.70245 
z
" clip-path="url(#p35e769fd4d)" style="fill: #ff00ff"/>
   </g>
   <g id="patch_36">
    <path d="M 196.365341 92572.70245 
L 198.732614 92572.70245 
L 198.732614 92572.70245 
L 196.365341 92572.70245 
z
" clip-path="url(#p35e769fd4d)" style="fill: #ff00ff"/>
   </g>
   <g id="patch_37">
    <path d="M 198.732614 92572.70245 
L 201.099886 92572.70245 
L 201.099886 92572.70245 
L 198.732614 92572.70245 
z
" clip-path="url(#p35e769fd4d)" style="fill: #ff00ff"/>
   </g>
   <g id="patch_38">
    <path d="M 201.099886 92572.70245 
L 203.467159 92572.70245 
L 203.467159 92572.70245 
L 201.099886 92572.70245 
z
" clip-path="url(#p35e769fd4d)" style="fill: #ff00ff"/>
   </g>
   <g id="patch_39">
    <path d="M 203.467159 92572.70245 
L 205.834432 92572.70245 
L 205.834432 92572.70245 
L 203.467159 92572.70245 
z
" clip-path="url(#p35e769fd4d)" style="fill: #ff00ff"/>
   </g>
   <g id="patch_40">
    <path d="M 205.834432 92572.70245 
L 208.201705 92572.70245 
L 208.201705 92572.70245 
L 205.834432 92572.70245 
z
" clip-path="url(#p35e769fd4d)" style="fill: #ff00ff"/>
   </g>
   <g id="patch_41">
    <path d="M 208.201705 92572.70245 
L 210.568977 92572.70245 
L 210.568977 92572.70245 
L 208.201705 92572.70245 
z
" clip-path="url(#p35e769fd4d)" style="fill: #ff00ff"/>
   </g>
   <g id="patch_42">
    <path d="M 210.568977 92572.70245 
L 212.93625 92572.70245 
L 212.93625 92572.70245 
L 210.568977 92572.70245 
z
" clip-path="url(#p35e769fd4d)" style="fill: #ff00ff"/>
   </g>
   <g id="patch_43">
    <path d="M 212.93625 92572.70245 
L 215.303523 92572.70245 
L 215.303523 92572.70245 
L 212.93625 92572.70245 
z
" clip-path="url(#p35e769fd4d)" style="fill: #ff00ff"/>
   </g>
   <g id="patch_44">
    <path d="M 215.303523 92572.70245 
L 217.670795 92572.70245 
L 217.670795 92572.70245 
L 215.303523 92572.70245 
z
" clip-path="url(#p35e769fd4d)" style="fill: #ff00ff"/>
   </g>
   <g id="patch_45">
    <path d="M 217.670795 92572.70245 
L 220.038068 92572.70245 
L 220.038068 92572.70245 
L 217.670795 92572.70245 
z
" clip-path="url(#p35e769fd4d)" style="fill: #ff00ff"/>
   </g>
   <g id="patch_46">
    <path d="M 220.038068 92572.70245 
L 222.405341 92572.70245 
L 222.405341 92572.70245 
L 220.038068 92572.70245 
z
" clip-path="url(#p35e769fd4d)" style="fill: #ff00ff"/>
   </g>
   <g id="patch_47">
    <path d="M 222.405341 92572.70245 
L 224.772614 92572.70245 
L 224.772614 92572.70245 
L 222.405341 92572.70245 
z
" clip-path="url(#p35e769fd4d)" style="fill: #ff00ff"/>
   </g>
   <g id="patch_48">
    <path d="M 224.772614 92572.70245 
L 227.139886 92572.70245 
L 227.139886 92572.70245 
L 224.772614 92572.70245 
z
" clip-path="url(#p35e769fd4d)" style="fill: #ff00ff"/>
   </g>
   <g id="patch_49">
    <path d="M 227.139886 92572.70245 
L 229.507159 92572.70245 
L 229.507159 92572.70245 
L 227.139886 92572.70245 
z
" clip-path="url(#p35e769fd4d)" style="fill: #ff00ff"/>
   </g>
   <g id="patch_50">
    <path d="M 229.507159 92572.70245 
L 231.874432 92572.70245 
L 231.874432 92572.70245 
L 229.507159 92572.70245 
z
" clip-path="url(#p35e769fd4d)" style="fill: #ff00ff"/>
   </g>
   <g id="patch_51">
    <path d="M 231.874432 92572.70245 
L 234.241705 92572.70245 
L 234.241705 92572.70245 
L 231.874432 92572.70245 
z
" clip-path="url(#p35e769fd4d)" style="fill: #ff00ff"/>
   </g>
   <g id="patch_52">
    <path d="M 234.241705 92572.70245 
L 236.608977 92572.70245 
L 236.608977 92572.70245 
L 234.241705 92572.70245 
z
" clip-path="url(#p35e769fd4d)" style="fill: #ff00ff"/>
   </g>
   <g id="patch_53">
    <path d="M 236.608977 92572.70245 
L 238.97625 92572.70245 
L 238.97625 92572.70245 
L 236.608977 92572.70245 
z
" clip-path="url(#p35e769fd4d)" style="fill: #ff00ff"/>
   </g>
   <g id="patch_54">
    <path d="M 238.97625 92572.70245 
L 241.343523 92572.70245 
L 241.343523 92572.70245 
L 238.97625 92572.70245 
z
" clip-path="url(#p35e769fd4d)" style="fill: #ff00ff"/>
   </g>
   <g id="patch_55">
    <path d="M 241.343523 92572.70245 
L 243.710795 92572.70245 
L 243.710795 92572.70245 
L 241.343523 92572.70245 
z
" clip-path="url(#p35e769fd4d)" style="fill: #ff00ff"/>
   </g>
   <g id="patch_56">
    <path d="M 243.710795 92572.70245 
L 246.078068 92572.70245 
L 246.078068 92572.70245 
L 243.710795 92572.70245 
z
" clip-path="url(#p35e769fd4d)" style="fill: #ff00ff"/>
   </g>
   <g id="patch_57">
    <path d="M 246.078068 92572.70245 
L 248.445341 92572.70245 
L 248.445341 92572.70245 
L 246.078068 92572.70245 
z
" clip-path="url(#p35e769fd4d)" style="fill: #ff00ff"/>
   </g>
   <g id="patch_58">
    <path d="M 248.445341 92572.70245 
L 250.812614 92572.70245 
L 250.812614 92572.70245 
L 248.445341 92572.70245 
z
" clip-path="url(#p35e769fd4d)" style="fill: #ff00ff"/>
   </g>
   <g id="patch_59">
    <path d="M 250.812614 92572.70245 
L 253.179886 92572.70245 
L 253.179886 92572.70245 
L 250.812614 92572.70245 
z
" clip-path="url(#p35e769fd4d)" style="fill: #ff00ff"/>
   </g>
   <g id="patch_60">
    <path d="M 253.179886 92572.70245 
L 255.547159 92572.70245 
L 255.547159 92572.70245 
L 253.179886 92572.70245 
z
" clip-path="url(#p35e769fd4d)" style="fill: #ff00ff"/>
   </g>
   <g id="patch_61">
    <path d="M 255.547159 92572.70245 
L 257.914432 92572.70245 
L 257.914432 92572.70245 
L 255.547159 92572.70245 
z
" clip-path="url(#p35e769fd4d)" style="fill: #ff00ff"/>
   </g>
   <g id="patch_62">
    <path d="M 257.914432 92572.70245 
L 260.281705 92572.70245 
L 260.281705 92572.70245 
L 257.914432 92572.70245 
z
" clip-path="url(#p35e769fd4d)" style="fill: #ff00ff"/>
   </g>
   <g id="patch_63">
    <path d="M 260.281705 92572.70245 
L 262.648977 92572.70245 
L 262.648977 92572.70245 
L 260.281705 92572.70245 
z
" clip-path="url(#p35e769fd4d)" style="fill: #ff00ff"/>
   </g>
   <g id="patch_64">
    <path d="M 262.648977 92572.70245 
L 265.01625 92572.70245 
L 265.01625 92572.70245 
L 262.648977 92572.70245 
z
" clip-path="url(#p35e769fd4d)" style="fill: #ff00ff"/>
   </g>
   <g id="patch_65">
    <path d="M 265.01625 92572.70245 
L 267.383523 92572.70245 
L 267.383523 92572.70245 
L 265.01625 92572.70245 
z
" clip-path="url(#p35e769fd4d)" style="fill: #ff00ff"/>
   </g>
   <g id="patch_66">
    <path d="M 267.383523 92572.70245 
L 269.750795 92572.70245 
L 269.750795 92572.70245 
L 267.383523 92572.70245 
z
" clip-path="url(#p35e769fd4d)" style="fill: #ff00ff"/>
   </g>
   <g id="patch_67">
    <path d="M 269.750795 92572.70245 
L 272.118068 92572.70245 
L 272.118068 92572.70245 
L 269.750795 92572.70245 
z
" clip-path="url(#p35e769fd4d)" style="fill: #ff00ff"/>
   </g>
   <g id="patch_68">
    <path d="M 272.118068 92572.70245 
L 274.485341 92572.70245 
L 274.485341 92572.70245 
L 272.118068 92572.70245 
z
" clip-path="url(#p35e769fd4d)" style="fill: #ff00ff"/>
   </g>
   <g id="patch_69">
    <path d="M 274.485341 92572.70245 
L 276.852614 92572.70245 
L 276.852614 92572.70245 
L 274.485341 92572.70245 
z
" clip-path="url(#p35e769fd4d)" style="fill: #ff00ff"/>
   </g>
   <g id="patch_70">
    <path d="M 276.852614 92572.70245 
L 279.219886 92572.70245 
L 279.219886 92572.70245 
L 276.852614 92572.70245 
z
" clip-path="url(#p35e769fd4d)" style="fill: #ff00ff"/>
   </g>
   <g id="patch_71">
    <path d="M 279.219886 92572.70245 
L 281.587159 92572.70245 
L 281.587159 92572.70245 
L 279.219886 92572.70245 
z
" clip-path="url(#p35e769fd4d)" style="fill: #ff00ff"/>
   </g>
   <g id="patch_72">
    <path d="M 281.587159 92572.70245 
L 283.954432 92572.70245 
L 283.954432 92572.70245 
L 281.587159 92572.70245 
z
" clip-path="url(#p35e769fd4d)" style="fill: #ff00ff"/>
   </g>
   <g id="patch_73">
    <path d="M 283.954432 92572.70245 
L 286.321705 92572.70245 
L 286.321705 92572.70245 
L 283.954432 92572.70245 
z
" clip-path="url(#p35e769fd4d)" style="fill: #ff00ff"/>
   </g>
   <g id="patch_74">
    <path d="M 286.321705 92572.70245 
L 288.688977 92572.70245 
L 288.688977 92572.70245 
L 286.321705 92572.70245 
z
" clip-path="url(#p35e769fd4d)" style="fill: #ff00ff"/>
   </g>
   <g id="patch_75">
    <path d="M 288.688977 92572.70245 
L 291.05625 92572.70245 
L 291.05625 92572.70245 
L 288.688977 92572.70245 
z
" clip-path="url(#p35e769fd4d)" style="fill: #ff00ff"/>
   </g>
   <g id="patch_76">
    <path d="M 291.05625 92572.70245 
L 293.423523 92572.70245 
L 293.423523 92572.70245 
L 291.05625 92572.70245 
z
" clip-path="url(#p35e769fd4d)" style="fill: #ff00ff"/>
   </g>
   <g id="patch_77">
    <path d="M 293.423523 92572.70245 
L 295.790795 92572.70245 
L 295.790795 92572.70245 
L 293.423523 92572.70245 
z
" clip-path="url(#p35e769fd4d)" style="fill: #ff00ff"/>
   </g>
   <g id="patch_78">
    <path d="M 295.790795 92572.70245 
L 298.158068 92572.70245 
L 298.158068 92572.70245 
L 295.790795 92572.70245 
z
" clip-path="url(#p35e769fd4d)" style="fill: #ff00ff"/>
   </g>
   <g id="patch_79">
    <path d="M 298.158068 92572.70245 
L 300.525341 92572.70245 
L 300.525341 92572.70245 
L 298.158068 92572.70245 
z
" clip-path="url(#p35e769fd4d)" style="fill: #ff00ff"/>
   </g>
   <g id="patch_80">
    <path d="M 300.525341 92572.70245 
L 302.892614 92572.70245 
L 302.892614 92572.70245 
L 300.525341 92572.70245 
z
" clip-path="url(#p35e769fd4d)" style="fill: #ff00ff"/>
   </g>
   <g id="patch_81">
    <path d="M 302.892614 92572.70245 
L 305.259886 92572.70245 
L 305.259886 92572.70245 
L 302.892614 92572.70245 
z
" clip-path="url(#p35e769fd4d)" style="fill: #ff00ff"/>
   </g>
   <g id="patch_82">
    <path d="M 305.259886 92572.70245 
L 307.627159 92572.70245 
L 307.627159 92572.70245 
L 305.259886 92572.70245 
z
" clip-path="url(#p35e769fd4d)" style="fill: #ff00ff"/>
   </g>
   <g id="patch_83">
    <path d="M 307.627159 92572.70245 
L 309.994432 92572.70245 
L 309.994432 92572.70245 
L 307.627159 92572.70245 
z
" clip-path="url(#p35e769fd4d)" style="fill: #ff00ff"/>
   </g>
   <g id="patch_84">
    <path d="M 309.994432 92572.70245 
L 312.361705 92572.70245 
L 312.361705 92572.70245 
L 309.994432 92572.70245 
z
" clip-path="url(#p35e769fd4d)" style="fill: #ff00ff"/>
   </g>
   <g id="patch_85">
    <path d="M 312.361705 92572.70245 
L 314.728977 92572.70245 
L 314.728977 92572.70245 
L 312.361705 92572.70245 
z
" clip-path="url(#p35e769fd4d)" style="fill: #ff00ff"/>
   </g>
   <g id="patch_86">
    <path d="M 314.728977 92572.70245 
L 317.09625 92572.70245 
L 317.09625 92572.70245 
L 314.728977 92572.70245 
z
" clip-path="url(#p35e769fd4d)" style="fill: #ff00ff"/>
   </g>
   <g id="patch_87">
    <path d="M 317.09625 92572.70245 
L 319.463523 92572.70245 
L 319.463523 92572.70245 
L 317.09625 92572.70245 
z
" clip-path="url(#p35e769fd4d)" style="fill: #ff00ff"/>
   </g>
   <g id="patch_88">
    <path d="M 319.463523 92572.70245 
L 321.830795 92572.70245 
L 321.830795 92572.70245 
L 319.463523 92572.70245 
z
" clip-path="url(#p35e769fd4d)" style="fill: #ff00ff"/>
   </g>
   <g id="patch_89">
    <path d="M 321.830795 92572.70245 
L 324.198068 92572.70245 
L 324.198068 92572.70245 
L 321.830795 92572.70245 
z
" clip-path="url(#p35e769fd4d)" style="fill: #ff00ff"/>
   </g>
   <g id="patch_90">
    <path d="M 324.198068 92572.70245 
L 326.565341 92572.70245 
L 326.565341 92572.70245 
L 324.198068 92572.70245 
z
" clip-path="url(#p35e769fd4d)" style="fill: #ff00ff"/>
   </g>
   <g id="patch_91">
    <path d="M 326.565341 92572.70245 
L 328.932614 92572.70245 
L 328.932614 92572.70245 
L 326.565341 92572.70245 
z
" clip-path="url(#p35e769fd4d)" style="fill: #ff00ff"/>
   </g>
   <g id="patch_92">
    <path d="M 328.932614 92572.70245 
L 331.299886 92572.70245 
L 331.299886 92572.70245 
L 328.932614 92572.70245 
z
" clip-path="url(#p35e769fd4d)" style="fill: #ff00ff"/>
   </g>
   <g id="patch_93">
    <path d="M 331.299886 92572.70245 
L 333.667159 92572.70245 
L 333.667159 92572.70245 
L 331.299886 92572.70245 
z
" clip-path="url(#p35e769fd4d)" style="fill: #ff00ff"/>
   </g>
   <g id="patch_94">
    <path d="M 333.667159 92572.70245 
L 336.034432 92572.70245 
L 336.034432 92572.70245 
L 333.667159 92572.70245 
z
" clip-path="url(#p35e769fd4d)" style="fill: #ff00ff"/>
   </g>
   <g id="patch_95">
    <path d="M 336.034432 92572.70245 
L 338.401705 92572.70245 
L 338.401705 92572.70245 
L 336.034432 92572.70245 
z
" clip-path="url(#p35e769fd4d)" style="fill: #ff00ff"/>
   </g>
   <g id="patch_96">
    <path d="M 338.401705 92572.70245 
L 340.768977 92572.70245 
L 340.768977 92572.70245 
L 338.401705 92572.70245 
z
" clip-path="url(#p35e769fd4d)" style="fill: #ff00ff"/>
   </g>
   <g id="patch_97">
    <path d="M 340.768977 92572.70245 
L 343.13625 92572.70245 
L 343.13625 92572.70245 
L 340.768977 92572.70245 
z
" clip-path="url(#p35e769fd4d)" style="fill: #ff00ff"/>
   </g>
   <g id="patch_98">
    <path d="M 343.13625 92572.70245 
L 345.503523 92572.70245 
L 345.503523 92572.70245 
L 343.13625 92572.70245 
z
" clip-path="url(#p35e769fd4d)" style="fill: #ff00ff"/>
   </g>
   <g id="patch_99">
    <path d="M 345.503523 92572.70245 
L 347.870795 92572.70245 
L 347.870795 92572.70245 
L 345.503523 92572.70245 
z
" clip-path="url(#p35e769fd4d)" style="fill: #ff00ff"/>
   </g>
   <g id="patch_100">
    <path d="M 347.870795 92572.70245 
L 350.238068 92572.70245 
L 350.238068 92572.70245 
L 347.870795 92572.70245 
z
" clip-path="url(#p35e769fd4d)" style="fill: #ff00ff"/>
   </g>
   <g id="patch_101">
    <path d="M 350.238068 92572.70245 
L 352.605341 92572.70245 
L 352.605341 92572.70245 
L 350.238068 92572.70245 
z
" clip-path="url(#p35e769fd4d)" style="fill: #ff00ff"/>
   </g>
   <g id="patch_102">
    <path d="M 352.605341 92572.70245 
L 354.972614 92572.70245 
L 354.972614 92572.70245 
L 352.605341 92572.70245 
z
" clip-path="url(#p35e769fd4d)" style="fill: #ff00ff"/>
   </g>
   <g id="patch_103">
    <path d="M 354.972614 92572.70245 
L 357.339886 92572.70245 
L 357.339886 92572.70245 
L 354.972614 92572.70245 
z
" clip-path="url(#p35e769fd4d)" style="fill: #ff00ff"/>
   </g>
   <g id="patch_104">
    <path d="M 357.339886 92572.70245 
L 359.707159 92572.70245 
L 359.707159 92572.70245 
L 357.339886 92572.70245 
z
" clip-path="url(#p35e769fd4d)" style="fill: #ff00ff"/>
   </g>
   <g id="patch_105">
    <path d="M 359.707159 92572.70245 
L 362.074432 92572.70245 
L 362.074432 92572.70245 
L 359.707159 92572.70245 
z
" clip-path="url(#p35e769fd4d)" style="fill: #ff00ff"/>
   </g>
   <g id="patch_106">
    <path d="M 362.074432 92572.70245 
L 364.441705 92572.70245 
L 364.441705 92572.70245 
L 362.074432 92572.70245 
z
" clip-path="url(#p35e769fd4d)" style="fill: #ff00ff"/>
   </g>
   <g id="patch_107">
    <path d="M 364.441705 92572.70245 
L 366.808977 92572.70245 
L 366.808977 92572.70245 
L 364.441705 92572.70245 
z
" clip-path="url(#p35e769fd4d)" style="fill: #ff00ff"/>
   </g>
   <g id="patch_108">
    <path d="M 366.808977 92572.70245 
L 369.17625 92572.70245 
L 369.17625 92572.70245 
L 366.808977 92572.70245 
z
" clip-path="url(#p35e769fd4d)" style="fill: #ff00ff"/>
   </g>
   <g id="patch_109">
    <path d="M 369.17625 92572.70245 
L 371.543523 92572.70245 
L 371.543523 92572.70245 
L 369.17625 92572.70245 
z
" clip-path="url(#p35e769fd4d)" style="fill: #ff00ff"/>
   </g>
   <g id="patch_110">
    <path d="M 371.543523 92572.70245 
L 373.910795 92572.70245 
L 373.910795 92572.70245 
L 371.543523 92572.70245 
z
" clip-path="url(#p35e769fd4d)" style="fill: #ff00ff"/>
   </g>
   <g id="patch_111">
    <path d="M 373.910795 92572.70245 
L 376.278068 92572.70245 
L 376.278068 92572.70245 
L 373.910795 92572.70245 
z
" clip-path="url(#p35e769fd4d)" style="fill: #ff00ff"/>
   </g>
   <g id="patch_112">
    <path d="M 376.278068 92572.70245 
L 378.645341 92572.70245 
L 378.645341 92572.70245 
L 376.278068 92572.70245 
z
" clip-path="url(#p35e769fd4d)" style="fill: #ff00ff"/>
   </g>
   <g id="patch_113">
    <path d="M 378.645341 92572.70245 
L 381.012614 92572.70245 
L 381.012614 92572.70245 
L 378.645341 92572.70245 
z
" clip-path="url(#p35e769fd4d)" style="fill: #ff00ff"/>
   </g>
   <g id="patch_114">
    <path d="M 381.012614 92572.70245 
L 383.379886 92572.70245 
L 383.379886 92572.70245 
L 381.012614 92572.70245 
z
" clip-path="url(#p35e769fd4d)" style="fill: #ff00ff"/>
   </g>
   <g id="patch_115">
    <path d="M 383.379886 92572.70245 
L 385.747159 92572.70245 
L 385.747159 92572.70245 
L 383.379886 92572.70245 
z
" clip-path="url(#p35e769fd4d)" style="fill: #ff00ff"/>
   </g>
   <g id="patch_116">
    <path d="M 385.747159 92572.70245 
L 388.114432 92572.70245 
L 388.114432 92572.70245 
L 385.747159 92572.70245 
z
" clip-path="url(#p35e769fd4d)" style="fill: #ff00ff"/>
   </g>
   <g id="patch_117">
    <path d="M 388.114432 92572.70245 
L 390.481705 92572.70245 
L 390.481705 92572.70245 
L 388.114432 92572.70245 
z
" clip-path="url(#p35e769fd4d)" style="fill: #ff00ff"/>
   </g>
   <g id="patch_118">
    <path d="M 390.481705 92572.70245 
L 392.848977 92572.70245 
L 392.848977 92572.70245 
L 390.481705 92572.70245 
z
" clip-path="url(#p35e769fd4d)" style="fill: #ff00ff"/>
   </g>
   <g id="patch_119">
    <path d="M 392.848977 92572.70245 
L 395.21625 92572.70245 
L 395.21625 92572.70245 
L 392.848977 92572.70245 
z
" clip-path="url(#p35e769fd4d)" style="fill: #ff00ff"/>
   </g>
   <g id="patch_120">
    <path d="M 395.21625 92572.70245 
L 397.583523 92572.70245 
L 397.583523 92572.70245 
L 395.21625 92572.70245 
z
" clip-path="url(#p35e769fd4d)" style="fill: #ff00ff"/>
   </g>
   <g id="patch_121">
    <path d="M 397.583523 92572.70245 
L 399.950795 92572.70245 
L 399.950795 92572.70245 
L 397.583523 92572.70245 
z
" clip-path="url(#p35e769fd4d)" style="fill: #ff00ff"/>
   </g>
   <g id="patch_122">
    <path d="M 399.950795 92572.70245 
L 402.318068 92572.70245 
L 402.318068 92572.70245 
L 399.950795 92572.70245 
z
" clip-path="url(#p35e769fd4d)" style="fill: #ff00ff"/>
   </g>
   <g id="patch_123">
    <path d="M 402.318068 92572.70245 
L 404.685341 92572.70245 
L 404.685341 92572.70245 
L 402.318068 92572.70245 
z
" clip-path="url(#p35e769fd4d)" style="fill: #ff00ff"/>
   </g>
   <g id="patch_124">
    <path d="M 404.685341 92572.70245 
L 407.052614 92572.70245 
L 407.052614 394.659886 
L 404.685341 394.659886 
z
" clip-path="url(#p35e769fd4d)" style="fill: #ff00ff"/>
   </g>
   <g id="patch_125">
    <path d="M 407.052614 92572.70245 
L 409.419886 92572.70245 
L 409.419886 92572.70245 
L 407.052614 92572.70245 
z
" clip-path="url(#p35e769fd4d)" style="fill: #ff00ff"/>
   </g>
   <g id="patch_126">
    <path d="M 409.419886 92572.70245 
L 411.787159 92572.70245 
L 411.787159 92572.70245 
L 409.419886 92572.70245 
z
" clip-path="url(#p35e769fd4d)" style="fill: #ff00ff"/>
   </g>
   <g id="patch_127">
    <path d="M 411.787159 92572.70245 
L 414.154432 92572.70245 
L 414.154432 92572.70245 
L 411.787159 92572.70245 
z
" clip-path="url(#p35e769fd4d)" style="fill: #ff00ff"/>
   </g>
   <g id="patch_128">
    <path d="M 414.154432 92572.70245 
L 416.521705 92572.70245 
L 416.521705 92572.70245 
L 414.154432 92572.70245 
z
" clip-path="url(#p35e769fd4d)" style="fill: #ff00ff"/>
   </g>
   <g id="patch_129">
    <path d="M 416.521705 92572.70245 
L 418.888977 92572.70245 
L 418.888977 92572.70245 
L 416.521705 92572.70245 
z
" clip-path="url(#p35e769fd4d)" style="fill: #ff00ff"/>
   </g>
   <g id="patch_130">
    <path d="M 418.888977 92572.70245 
L 421.25625 92572.70245 
L 421.25625 92572.70245 
L 418.888977 92572.70245 
z
" clip-path="url(#p35e769fd4d)" style="fill: #ff00ff"/>
   </g>
   <g id="patch_131">
    <path d="M 421.25625 92572.70245 
L 423.623523 92572.70245 
L 423.623523 92572.70245 
L 421.25625 92572.70245 
z
" clip-path="url(#p35e769fd4d)" style="fill: #ff00ff"/>
   </g>
   <g id="patch_132">
    <path d="M 423.623523 92572.70245 
L 425.990795 92572.70245 
L 425.990795 92572.70245 
L 423.623523 92572.70245 
z
" clip-path="url(#p35e769fd4d)" style="fill: #ff00ff"/>
   </g>
   <g id="patch_133">
    <path d="M 425.990795 92572.70245 
L 428.358068 92572.70245 
L 428.358068 92572.70245 
L 425.990795 92572.70245 
z
" clip-path="url(#p35e769fd4d)" style="fill: #ff00ff"/>
   </g>
   <g id="patch_134">
    <path d="M 428.358068 92572.70245 
L 430.725341 92572.70245 
L 430.725341 92572.70245 
L 428.358068 92572.70245 
z
" clip-path="url(#p35e769fd4d)" style="fill: #ff00ff"/>
   </g>
   <g id="patch_135">
    <path d="M 430.725341 92572.70245 
L 433.092614 92572.70245 
L 433.092614 92572.70245 
L 430.725341 92572.70245 
z
" clip-path="url(#p35e769fd4d)" style="fill: #ff00ff"/>
   </g>
   <g id="patch_136">
    <path d="M 433.092614 92572.70245 
L 435.459886 92572.70245 
L 435.459886 92572.70245 
L 433.092614 92572.70245 
z
" clip-path="url(#p35e769fd4d)" style="fill: #ff00ff"/>
   </g>
   <g id="patch_137">
    <path d="M 435.459886 92572.70245 
L 437.827159 92572.70245 
L 437.827159 92572.70245 
L 435.459886 92572.70245 
z
" clip-path="url(#p35e769fd4d)" style="fill: #ff00ff"/>
   </g>
   <g id="patch_138">
    <path d="M 437.827159 92572.70245 
L 440.194432 92572.70245 
L 440.194432 92572.70245 
L 437.827159 92572.70245 
z
" clip-path="url(#p35e769fd4d)" style="fill: #ff00ff"/>
   </g>
   <g id="patch_139">
    <path d="M 440.194432 92572.70245 
L 442.561705 92572.70245 
L 442.561705 92572.70245 
L 440.194432 92572.70245 
z
" clip-path="url(#p35e769fd4d)" style="fill: #ff00ff"/>
   </g>
   <g id="patch_140">
    <path d="M 442.561705 92572.70245 
L 444.928977 92572.70245 
L 444.928977 92572.70245 
L 442.561705 92572.70245 
z
" clip-path="url(#p35e769fd4d)" style="fill: #ff00ff"/>
   </g>
   <g id="patch_141">
    <path d="M 444.928977 92572.70245 
L 447.29625 92572.70245 
L 447.29625 92572.70245 
L 444.928977 92572.70245 
z
" clip-path="url(#p35e769fd4d)" style="fill: #ff00ff"/>
   </g>
   <g id="patch_142">
    <path d="M 447.29625 92572.70245 
L 449.663523 92572.70245 
L 449.663523 92572.70245 
L 447.29625 92572.70245 
z
" clip-path="url(#p35e769fd4d)" style="fill: #ff00ff"/>
   </g>
   <g id="patch_143">
    <path d="M 449.663523 92572.70245 
L 452.030795 92572.70245 
L 452.030795 92572.70245 
L 449.663523 92572.70245 
z
" clip-path="url(#p35e769fd4d)" style="fill: #ff00ff"/>
   </g>
   <g id="patch_144">
    <path d="M 452.030795 92572.70245 
L 454.398068 92572.70245 
L 454.398068 92572.70245 
L 452.030795 92572.70245 
z
" clip-path="url(#p35e769fd4d)" style="fill: #ff00ff"/>
   </g>
   <g id="patch_145">
    <path d="M 454.398068 92572.70245 
L 456.765341 92572.70245 
L 456.765341 92572.70245 
L 454.398068 92572.70245 
z
" clip-path="url(#p35e769fd4d)" style="fill: #ff00ff"/>
   </g>
   <g id="patch_146">
    <path d="M 456.765341 92572.70245 
L 459.132614 92572.70245 
L 459.132614 92572.70245 
L 456.765341 92572.70245 
z
" clip-path="url(#p35e769fd4d)" style="fill: #ff00ff"/>
   </g>
   <g id="patch_147">
    <path d="M 459.132614 92572.70245 
L 461.499886 92572.70245 
L 461.499886 92572.70245 
L 459.132614 92572.70245 
z
" clip-path="url(#p35e769fd4d)" style="fill: #ff00ff"/>
   </g>
   <g id="patch_148">
    <path d="M 461.499886 92572.70245 
L 463.867159 92572.70245 
L 463.867159 92572.70245 
L 461.499886 92572.70245 
z
" clip-path="url(#p35e769fd4d)" style="fill: #ff00ff"/>
   </g>
   <g id="patch_149">
    <path d="M 463.867159 92572.70245 
L 466.234432 92572.70245 
L 466.234432 92572.70245 
L 463.867159 92572.70245 
z
" clip-path="url(#p35e769fd4d)" style="fill: #ff00ff"/>
   </g>
   <g id="patch_150">
    <path d="M 466.234432 92572.70245 
L 468.601705 92572.70245 
L 468.601705 92572.70245 
L 466.234432 92572.70245 
z
" clip-path="url(#p35e769fd4d)" style="fill: #ff00ff"/>
   </g>
   <g id="patch_151">
    <path d="M 468.601705 92572.70245 
L 470.968977 92572.70245 
L 470.968977 92572.70245 
L 468.601705 92572.70245 
z
" clip-path="url(#p35e769fd4d)" style="fill: #ff00ff"/>
   </g>
   <g id="patch_152">
    <path d="M 470.968977 92572.70245 
L 473.33625 92572.70245 
L 473.33625 92572.70245 
L 470.968977 92572.70245 
z
" clip-path="url(#p35e769fd4d)" style="fill: #ff00ff"/>
   </g>
   <g id="patch_153">
    <path d="M 473.33625 92572.70245 
L 475.703523 92572.70245 
L 475.703523 92572.70245 
L 473.33625 92572.70245 
z
" clip-path="url(#p35e769fd4d)" style="fill: #ff00ff"/>
   </g>
   <g id="patch_154">
    <path d="M 475.703523 92572.70245 
L 478.070795 92572.70245 
L 478.070795 92572.70245 
L 475.703523 92572.70245 
z
" clip-path="url(#p35e769fd4d)" style="fill: #ff00ff"/>
   </g>
   <g id="patch_155">
    <path d="M 478.070795 92572.70245 
L 480.438068 92572.70245 
L 480.438068 92572.70245 
L 478.070795 92572.70245 
z
" clip-path="url(#p35e769fd4d)" style="fill: #ff00ff"/>
   </g>
   <g id="patch_156">
    <path d="M 480.438068 92572.70245 
L 482.805341 92572.70245 
L 482.805341 92572.70245 
L 480.438068 92572.70245 
z
" clip-path="url(#p35e769fd4d)" style="fill: #ff00ff"/>
   </g>
   <g id="patch_157">
    <path d="M 482.805341 92572.70245 
L 485.172614 92572.70245 
L 485.172614 92572.70245 
L 482.805341 92572.70245 
z
" clip-path="url(#p35e769fd4d)" style="fill: #ff00ff"/>
   </g>
   <g id="patch_158">
    <path d="M 485.172614 92572.70245 
L 487.539886 92572.70245 
L 487.539886 92572.70245 
L 485.172614 92572.70245 
z
" clip-path="url(#p35e769fd4d)" style="fill: #ff00ff"/>
   </g>
   <g id="patch_159">
    <path d="M 487.539886 92572.70245 
L 489.907159 92572.70245 
L 489.907159 92572.70245 
L 487.539886 92572.70245 
z
" clip-path="url(#p35e769fd4d)" style="fill: #ff00ff"/>
   </g>
   <g id="patch_160">
    <path d="M 489.907159 92572.70245 
L 492.274432 92572.70245 
L 492.274432 92572.70245 
L 489.907159 92572.70245 
z
" clip-path="url(#p35e769fd4d)" style="fill: #ff00ff"/>
   </g>
   <g id="patch_161">
    <path d="M 492.274432 92572.70245 
L 494.641705 92572.70245 
L 494.641705 92572.70245 
L 492.274432 92572.70245 
z
" clip-path="url(#p35e769fd4d)" style="fill: #ff00ff"/>
   </g>
   <g id="patch_162">
    <path d="M 494.641705 92572.70245 
L 497.008977 92572.70245 
L 497.008977 92572.70245 
L 494.641705 92572.70245 
z
" clip-path="url(#p35e769fd4d)" style="fill: #ff00ff"/>
   </g>
   <g id="patch_163">
    <path d="M 497.008977 92572.70245 
L 499.37625 92572.70245 
L 499.37625 92572.70245 
L 497.008977 92572.70245 
z
" clip-path="url(#p35e769fd4d)" style="fill: #ff00ff"/>
   </g>
   <g id="patch_164">
    <path d="M 499.37625 92572.70245 
L 501.743523 92572.70245 
L 501.743523 92572.70245 
L 499.37625 92572.70245 
z
" clip-path="url(#p35e769fd4d)" style="fill: #ff00ff"/>
   </g>
   <g id="patch_165">
    <path d="M 501.743523 92572.70245 
L 504.110795 92572.70245 
L 504.110795 92572.70245 
L 501.743523 92572.70245 
z
" clip-path="url(#p35e769fd4d)" style="fill: #ff00ff"/>
   </g>
   <g id="patch_166">
    <path d="M 504.110795 92572.70245 
L 506.478068 92572.70245 
L 506.478068 92572.70245 
L 504.110795 92572.70245 
z
" clip-path="url(#p35e769fd4d)" style="fill: #ff00ff"/>
   </g>
   <g id="patch_167">
    <path d="M 506.478068 92572.70245 
L 508.845341 92572.70245 
L 508.845341 92572.70245 
L 506.478068 92572.70245 
z
" clip-path="url(#p35e769fd4d)" style="fill: #ff00ff"/>
   </g>
   <g id="patch_168">
    <path d="M 508.845341 92572.70245 
L 511.212614 92572.70245 
L 511.212614 92572.70245 
L 508.845341 92572.70245 
z
" clip-path="url(#p35e769fd4d)" style="fill: #ff00ff"/>
   </g>
   <g id="patch_169">
    <path d="M 511.212614 92572.70245 
L 513.579886 92572.70245 
L 513.579886 92572.70245 
L 511.212614 92572.70245 
z
" clip-path="url(#p35e769fd4d)" style="fill: #ff00ff"/>
   </g>
   <g id="patch_170">
    <path d="M 513.579886 92572.70245 
L 515.947159 92572.70245 
L 515.947159 92572.70245 
L 513.579886 92572.70245 
z
" clip-path="url(#p35e769fd4d)" style="fill: #ff00ff"/>
   </g>
   <g id="patch_171">
    <path d="M 515.947159 92572.70245 
L 518.314432 92572.70245 
L 518.314432 92572.70245 
L 515.947159 92572.70245 
z
" clip-path="url(#p35e769fd4d)" style="fill: #ff00ff"/>
   </g>
   <g id="patch_172">
    <path d="M 518.314432 92572.70245 
L 520.681705 92572.70245 
L 520.681705 92572.70245 
L 518.314432 92572.70245 
z
" clip-path="url(#p35e769fd4d)" style="fill: #ff00ff"/>
   </g>
   <g id="patch_173">
    <path d="M 520.681705 92572.70245 
L 523.048977 92572.70245 
L 523.048977 92572.70245 
L 520.681705 92572.70245 
z
" clip-path="url(#p35e769fd4d)" style="fill: #ff00ff"/>
   </g>
   <g id="patch_174">
    <path d="M 523.048977 92572.70245 
L 525.41625 92572.70245 
L 525.41625 92572.70245 
L 523.048977 92572.70245 
z
" clip-path="url(#p35e769fd4d)" style="fill: #ff00ff"/>
   </g>
   <g id="patch_175">
    <path d="M 525.41625 92572.70245 
L 527.783523 92572.70245 
L 527.783523 92572.70245 
L 525.41625 92572.70245 
z
" clip-path="url(#p35e769fd4d)" style="fill: #ff00ff"/>
   </g>
   <g id="patch_176">
    <path d="M 527.783523 92572.70245 
L 530.150795 92572.70245 
L 530.150795 92572.70245 
L 527.783523 92572.70245 
z
" clip-path="url(#p35e769fd4d)" style="fill: #ff00ff"/>
   </g>
   <g id="patch_177">
    <path d="M 530.150795 92572.70245 
L 532.518068 92572.70245 
L 532.518068 92572.70245 
L 530.150795 92572.70245 
z
" clip-path="url(#p35e769fd4d)" style="fill: #ff00ff"/>
   </g>
   <g id="patch_178">
    <path d="M 532.518068 92572.70245 
L 534.885341 92572.70245 
L 534.885341 92572.70245 
L 532.518068 92572.70245 
z
" clip-path="url(#p35e769fd4d)" style="fill: #ff00ff"/>
   </g>
   <g id="patch_179">
    <path d="M 534.885341 92572.70245 
L 537.252614 92572.70245 
L 537.252614 92572.70245 
L 534.885341 92572.70245 
z
" clip-path="url(#p35e769fd4d)" style="fill: #ff00ff"/>
   </g>
   <g id="patch_180">
    <path d="M 537.252614 92572.70245 
L 539.619886 92572.70245 
L 539.619886 92572.70245 
L 537.252614 92572.70245 
z
" clip-path="url(#p35e769fd4d)" style="fill: #ff00ff"/>
   </g>
   <g id="patch_181">
    <path d="M 539.619886 92572.70245 
L 541.987159 92572.70245 
L 541.987159 92572.70245 
L 539.619886 92572.70245 
z
" clip-path="url(#p35e769fd4d)" style="fill: #ff00ff"/>
   </g>
   <g id="patch_182">
    <path d="M 541.987159 92572.70245 
L 544.354432 92572.70245 
L 544.354432 92572.70245 
L 541.987159 92572.70245 
z
" clip-path="url(#p35e769fd4d)" style="fill: #ff00ff"/>
   </g>
   <g id="patch_183">
    <path d="M 544.354432 92572.70245 
L 546.721705 92572.70245 
L 546.721705 92572.70245 
L 544.354432 92572.70245 
z
" clip-path="url(#p35e769fd4d)" style="fill: #ff00ff"/>
   </g>
   <g id="patch_184">
    <path d="M 546.721705 92572.70245 
L 549.088977 92572.70245 
L 549.088977 92572.70245 
L 546.721705 92572.70245 
z
" clip-path="url(#p35e769fd4d)" style="fill: #ff00ff"/>
   </g>
   <g id="patch_185">
    <path d="M 549.088977 92572.70245 
L 551.45625 92572.70245 
L 551.45625 92572.70245 
L 549.088977 92572.70245 
z
" clip-path="url(#p35e769fd4d)" style="fill: #ff00ff"/>
   </g>
   <g id="patch_186">
    <path d="M 551.45625 92572.70245 
L 553.823523 92572.70245 
L 553.823523 92572.70245 
L 551.45625 92572.70245 
z
" clip-path="url(#p35e769fd4d)" style="fill: #ff00ff"/>
   </g>
   <g id="patch_187">
    <path d="M 553.823523 92572.70245 
L 556.190795 92572.70245 
L 556.190795 92572.70245 
L 553.823523 92572.70245 
z
" clip-path="url(#p35e769fd4d)" style="fill: #ff00ff"/>
   </g>
   <g id="patch_188">
    <path d="M 556.190795 92572.70245 
L 558.558068 92572.70245 
L 558.558068 92572.70245 
L 556.190795 92572.70245 
z
" clip-path="url(#p35e769fd4d)" style="fill: #ff00ff"/>
   </g>
   <g id="patch_189">
    <path d="M 558.558068 92572.70245 
L 560.925341 92572.70245 
L 560.925341 92572.70245 
L 558.558068 92572.70245 
z
" clip-path="url(#p35e769fd4d)" style="fill: #ff00ff"/>
   </g>
   <g id="patch_190">
    <path d="M 560.925341 92572.70245 
L 563.292614 92572.70245 
L 563.292614 92572.70245 
L 560.925341 92572.70245 
z
" clip-path="url(#p35e769fd4d)" style="fill: #ff00ff"/>
   </g>
   <g id="patch_191">
    <path d="M 563.292614 92572.70245 
L 565.659886 92572.70245 
L 565.659886 92572.70245 
L 563.292614 92572.70245 
z
" clip-path="url(#p35e769fd4d)" style="fill: #ff00ff"/>
   </g>
   <g id="patch_192">
    <path d="M 565.659886 92572.70245 
L 568.027159 92572.70245 
L 568.027159 92572.70245 
L 565.659886 92572.70245 
z
" clip-path="url(#p35e769fd4d)" style="fill: #ff00ff"/>
   </g>
   <g id="patch_193">
    <path d="M 568.027159 92572.70245 
L 570.394432 92572.70245 
L 570.394432 92572.70245 
L 568.027159 92572.70245 
z
" clip-path="url(#p35e769fd4d)" style="fill: #ff00ff"/>
   </g>
   <g id="patch_194">
    <path d="M 570.394432 92572.70245 
L 572.761705 92572.70245 
L 572.761705 92572.70245 
L 570.394432 92572.70245 
z
" clip-path="url(#p35e769fd4d)" style="fill: #ff00ff"/>
   </g>
   <g id="patch_195">
    <path d="M 572.761705 92572.70245 
L 575.128977 92572.70245 
L 575.128977 92572.70245 
L 572.761705 92572.70245 
z
" clip-path="url(#p35e769fd4d)" style="fill: #ff00ff"/>
   </g>
   <g id="patch_196">
    <path d="M 575.128977 92572.70245 
L 577.49625 92572.70245 
L 577.49625 92572.70245 
L 575.128977 92572.70245 
z
" clip-path="url(#p35e769fd4d)" style="fill: #ff00ff"/>
   </g>
   <g id="patch_197">
    <path d="M 577.49625 92572.70245 
L 579.863523 92572.70245 
L 579.863523 92572.70245 
L 577.49625 92572.70245 
z
" clip-path="url(#p35e769fd4d)" style="fill: #ff00ff"/>
   </g>
   <g id="patch_198">
    <path d="M 579.863523 92572.70245 
L 582.230795 92572.70245 
L 582.230795 92572.70245 
L 579.863523 92572.70245 
z
" clip-path="url(#p35e769fd4d)" style="fill: #ff00ff"/>
   </g>
   <g id="patch_199">
    <path d="M 582.230795 92572.70245 
L 584.598068 92572.70245 
L 584.598068 92572.70245 
L 582.230795 92572.70245 
z
" clip-path="url(#p35e769fd4d)" style="fill: #ff00ff"/>
   </g>
   <g id="patch_200">
    <path d="M 584.598068 92572.70245 
L 586.965341 92572.70245 
L 586.965341 92572.70245 
L 584.598068 92572.70245 
z
" clip-path="url(#p35e769fd4d)" style="fill: #ff00ff"/>
   </g>
   <g id="patch_201">
    <path d="M 586.965341 92572.70245 
L 589.332614 92572.70245 
L 589.332614 92572.70245 
L 586.965341 92572.70245 
z
" clip-path="url(#p35e769fd4d)" style="fill: #ff00ff"/>
   </g>
   <g id="patch_202">
    <path d="M 589.332614 92572.70245 
L 591.699886 92572.70245 
L 591.699886 92572.70245 
L 589.332614 92572.70245 
z
" clip-path="url(#p35e769fd4d)" style="fill: #ff00ff"/>
   </g>
   <g id="patch_203">
    <path d="M 591.699886 92572.70245 
L 594.067159 92572.70245 
L 594.067159 92572.70245 
L 591.699886 92572.70245 
z
" clip-path="url(#p35e769fd4d)" style="fill: #ff00ff"/>
   </g>
   <g id="patch_204">
    <path d="M 594.067159 92572.70245 
L 596.434432 92572.70245 
L 596.434432 92572.70245 
L 594.067159 92572.70245 
z
" clip-path="url(#p35e769fd4d)" style="fill: #ff00ff"/>
   </g>
   <g id="patch_205">
    <path d="M 596.434432 92572.70245 
L 598.801705 92572.70245 
L 598.801705 92572.70245 
L 596.434432 92572.70245 
z
" clip-path="url(#p35e769fd4d)" style="fill: #ff00ff"/>
   </g>
   <g id="patch_206">
    <path d="M 598.801705 92572.70245 
L 601.168977 92572.70245 
L 601.168977 92572.70245 
L 598.801705 92572.70245 
z
" clip-path="url(#p35e769fd4d)" style="fill: #ff00ff"/>
   </g>
   <g id="patch_207">
    <path d="M 601.168977 92572.70245 
L 603.53625 92572.70245 
L 603.53625 92572.70245 
L 601.168977 92572.70245 
z
" clip-path="url(#p35e769fd4d)" style="fill: #ff00ff"/>
   </g>
   <g id="patch_208">
    <path d="M 603.53625 92572.70245 
L 605.903523 92572.70245 
L 605.903523 92572.70245 
L 603.53625 92572.70245 
z
" clip-path="url(#p35e769fd4d)" style="fill: #ff00ff"/>
   </g>
   <g id="patch_209">
    <path d="M 605.903523 92572.70245 
L 608.270795 92572.70245 
L 608.270795 92572.70245 
L 605.903523 92572.70245 
z
" clip-path="url(#p35e769fd4d)" style="fill: #ff00ff"/>
   </g>
   <g id="patch_210">
    <path d="M 608.270795 92572.70245 
L 610.638068 92572.70245 
L 610.638068 92572.70245 
L 608.270795 92572.70245 
z
" clip-path="url(#p35e769fd4d)" style="fill: #ff00ff"/>
   </g>
   <g id="patch_211">
    <path d="M 610.638068 92572.70245 
L 613.005341 92572.70245 
L 613.005341 92572.70245 
L 610.638068 92572.70245 
z
" clip-path="url(#p35e769fd4d)" style="fill: #ff00ff"/>
   </g>
   <g id="patch_212">
    <path d="M 613.005341 92572.70245 
L 615.372614 92572.70245 
L 615.372614 92572.70245 
L 613.005341 92572.70245 
z
" clip-path="url(#p35e769fd4d)" style="fill: #ff00ff"/>
   </g>
   <g id="patch_213">
    <path d="M 615.372614 92572.70245 
L 617.739886 92572.70245 
L 617.739886 92572.70245 
L 615.372614 92572.70245 
z
" clip-path="url(#p35e769fd4d)" style="fill: #ff00ff"/>
   </g>
   <g id="patch_214">
    <path d="M 617.739886 92572.70245 
L 620.107159 92572.70245 
L 620.107159 92572.70245 
L 617.739886 92572.70245 
z
" clip-path="url(#p35e769fd4d)" style="fill: #ff00ff"/>
   </g>
   <g id="patch_215">
    <path d="M 620.107159 92572.70245 
L 622.474432 92572.70245 
L 622.474432 92572.70245 
L 620.107159 92572.70245 
z
" clip-path="url(#p35e769fd4d)" style="fill: #ff00ff"/>
   </g>
   <g id="patch_216">
    <path d="M 622.474432 92572.70245 
L 624.841705 92572.70245 
L 624.841705 394.659886 
L 622.474432 394.659886 
z
" clip-path="url(#p35e769fd4d)" style="fill: #ff00ff"/>
   </g>
   <g id="patch_217">
    <path d="M 624.841705 92572.70245 
L 627.208977 92572.70245 
L 627.208977 92572.70245 
L 624.841705 92572.70245 
z
" clip-path="url(#p35e769fd4d)" style="fill: #ff00ff"/>
   </g>
   <g id="patch_218">
    <path d="M 627.208977 92572.70245 
L 629.57625 92572.70245 
L 629.57625 92572.70245 
L 627.208977 92572.70245 
z
" clip-path="url(#p35e769fd4d)" style="fill: #ff00ff"/>
   </g>
   <g id="patch_219">
    <path d="M 629.57625 92572.70245 
L 631.943523 92572.70245 
L 631.943523 92572.70245 
L 629.57625 92572.70245 
z
" clip-path="url(#p35e769fd4d)" style="fill: #ff00ff"/>
   </g>
   <g id="patch_220">
    <path d="M 631.943523 92572.70245 
L 634.310795 92572.70245 
L 634.310795 92572.70245 
L 631.943523 92572.70245 
z
" clip-path="url(#p35e769fd4d)" style="fill: #ff00ff"/>
   </g>
   <g id="patch_221">
    <path d="M 634.310795 92572.70245 
L 636.678068 92572.70245 
L 636.678068 92572.70245 
L 634.310795 92572.70245 
z
" clip-path="url(#p35e769fd4d)" style="fill: #ff00ff"/>
   </g>
   <g id="patch_222">
    <path d="M 636.678068 92572.70245 
L 639.045341 92572.70245 
L 639.045341 92572.70245 
L 636.678068 92572.70245 
z
" clip-path="url(#p35e769fd4d)" style="fill: #ff00ff"/>
   </g>
   <g id="patch_223">
    <path d="M 639.045341 92572.70245 
L 641.412614 92572.70245 
L 641.412614 92572.70245 
L 639.045341 92572.70245 
z
" clip-path="url(#p35e769fd4d)" style="fill: #ff00ff"/>
   </g>
   <g id="patch_224">
    <path d="M 641.412614 92572.70245 
L 643.779886 92572.70245 
L 643.779886 92572.70245 
L 641.412614 92572.70245 
z
" clip-path="url(#p35e769fd4d)" style="fill: #ff00ff"/>
   </g>
   <g id="patch_225">
    <path d="M 643.779886 92572.70245 
L 646.147159 92572.70245 
L 646.147159 92572.70245 
L 643.779886 92572.70245 
z
" clip-path="url(#p35e769fd4d)" style="fill: #ff00ff"/>
   </g>
   <g id="patch_226">
    <path d="M 646.147159 92572.70245 
L 648.514432 92572.70245 
L 648.514432 92572.70245 
L 646.147159 92572.70245 
z
" clip-path="url(#p35e769fd4d)" style="fill: #ff00ff"/>
   </g>
   <g id="patch_227">
    <path d="M 648.514432 92572.70245 
L 650.881705 92572.70245 
L 650.881705 92572.70245 
L 648.514432 92572.70245 
z
" clip-path="url(#p35e769fd4d)" style="fill: #ff00ff"/>
   </g>
   <g id="patch_228">
    <path d="M 650.881705 92572.70245 
L 653.248977 92572.70245 
L 653.248977 92572.70245 
L 650.881705 92572.70245 
z
" clip-path="url(#p35e769fd4d)" style="fill: #ff00ff"/>
   </g>
   <g id="patch_229">
    <path d="M 653.248977 92572.70245 
L 655.61625 92572.70245 
L 655.61625 92572.70245 
L 653.248977 92572.70245 
z
" clip-path="url(#p35e769fd4d)" style="fill: #ff00ff"/>
   </g>
   <g id="patch_230">
    <path d="M 655.61625 92572.70245 
L 657.983523 92572.70245 
L 657.983523 92572.70245 
L 655.61625 92572.70245 
z
" clip-path="url(#p35e769fd4d)" style="fill: #ff00ff"/>
   </g>
   <g id="patch_231">
    <path d="M 657.983523 92572.70245 
L 660.350795 92572.70245 
L 660.350795 92572.70245 
L 657.983523 92572.70245 
z
" clip-path="url(#p35e769fd4d)" style="fill: #ff00ff"/>
   </g>
   <g id="patch_232">
    <path d="M 660.350795 92572.70245 
L 662.718068 92572.70245 
L 662.718068 92572.70245 
L 660.350795 92572.70245 
z
" clip-path="url(#p35e769fd4d)" style="fill: #ff00ff"/>
   </g>
   <g id="patch_233">
    <path d="M 662.718068 92572.70245 
L 665.085341 92572.70245 
L 665.085341 92572.70245 
L 662.718068 92572.70245 
z
" clip-path="url(#p35e769fd4d)" style="fill: #ff00ff"/>
   </g>
   <g id="patch_234">
    <path d="M 665.085341 92572.70245 
L 667.452614 92572.70245 
L 667.452614 92572.70245 
L 665.085341 92572.70245 
z
" clip-path="url(#p35e769fd4d)" style="fill: #ff00ff"/>
   </g>
   <g id="patch_235">
    <path d="M 667.452614 92572.70245 
L 669.819886 92572.70245 
L 669.819886 92572.70245 
L 667.452614 92572.70245 
z
" clip-path="url(#p35e769fd4d)" style="fill: #ff00ff"/>
   </g>
   <g id="patch_236">
    <path d="M 669.819886 92572.70245 
L 672.187159 92572.70245 
L 672.187159 92572.70245 
L 669.819886 92572.70245 
z
" clip-path="url(#p35e769fd4d)" style="fill: #ff00ff"/>
   </g>
   <g id="patch_237">
    <path d="M 672.187159 92572.70245 
L 674.554432 92572.70245 
L 674.554432 92572.70245 
L 672.187159 92572.70245 
z
" clip-path="url(#p35e769fd4d)" style="fill: #ff00ff"/>
   </g>
   <g id="patch_238">
    <path d="M 674.554432 92572.70245 
L 676.921705 92572.70245 
L 676.921705 92572.70245 
L 674.554432 92572.70245 
z
" clip-path="url(#p35e769fd4d)" style="fill: #ff00ff"/>
   </g>
   <g id="patch_239">
    <path d="M 676.921705 92572.70245 
L 679.288977 92572.70245 
L 679.288977 92572.70245 
L 676.921705 92572.70245 
z
" clip-path="url(#p35e769fd4d)" style="fill: #ff00ff"/>
   </g>
   <g id="patch_240">
    <path d="M 679.288977 92572.70245 
L 681.65625 92572.70245 
L 681.65625 92572.70245 
L 679.288977 92572.70245 
z
" clip-path="url(#p35e769fd4d)" style="fill: #ff00ff"/>
   </g>
   <g id="patch_241">
    <path d="M 681.65625 92572.70245 
L 684.023523 92572.70245 
L 684.023523 92572.70245 
L 681.65625 92572.70245 
z
" clip-path="url(#p35e769fd4d)" style="fill: #ff00ff"/>
   </g>
   <g id="patch_242">
    <path d="M 684.023523 92572.70245 
L 686.390795 92572.70245 
L 686.390795 92572.70245 
L 684.023523 92572.70245 
z
" clip-path="url(#p35e769fd4d)" style="fill: #ff00ff"/>
   </g>
   <g id="patch_243">
    <path d="M 686.390795 92572.70245 
L 688.758068 92572.70245 
L 688.758068 92572.70245 
L 686.390795 92572.70245 
z
" clip-path="url(#p35e769fd4d)" style="fill: #ff00ff"/>
   </g>
   <g id="patch_244">
    <path d="M 688.758068 92572.70245 
L 691.125341 92572.70245 
L 691.125341 92572.70245 
L 688.758068 92572.70245 
z
" clip-path="url(#p35e769fd4d)" style="fill: #ff00ff"/>
   </g>
   <g id="patch_245">
    <path d="M 691.125341 92572.70245 
L 693.492614 92572.70245 
L 693.492614 92572.70245 
L 691.125341 92572.70245 
z
" clip-path="url(#p35e769fd4d)" style="fill: #ff00ff"/>
   </g>
   <g id="patch_246">
    <path d="M 693.492614 92572.70245 
L 695.859886 92572.70245 
L 695.859886 394.659886 
L 693.492614 394.659886 
z
" clip-path="url(#p35e769fd4d)" style="fill: #ff00ff"/>
   </g>
   <g id="patch_247">
    <path d="M 695.859886 92572.70245 
L 698.227159 92572.70245 
L 698.227159 92572.70245 
L 695.859886 92572.70245 
z
" clip-path="url(#p35e769fd4d)" style="fill: #ff00ff"/>
   </g>
   <g id="patch_248">
    <path d="M 698.227159 92572.70245 
L 700.594432 92572.70245 
L 700.594432 92572.70245 
L 698.227159 92572.70245 
z
" clip-path="url(#p35e769fd4d)" style="fill: #ff00ff"/>
   </g>
   <g id="patch_249">
    <path d="M 700.594432 92572.70245 
L 702.961705 92572.70245 
L 702.961705 92572.70245 
L 700.594432 92572.70245 
z
" clip-path="url(#p35e769fd4d)" style="fill: #ff00ff"/>
   </g>
   <g id="patch_250">
    <path d="M 702.961705 92572.70245 
L 705.328977 92572.70245 
L 705.328977 92572.70245 
L 702.961705 92572.70245 
z
" clip-path="url(#p35e769fd4d)" style="fill: #ff00ff"/>
   </g>
   <g id="patch_251">
    <path d="M 705.328977 92572.70245 
L 707.69625 92572.70245 
L 707.69625 92572.70245 
L 705.328977 92572.70245 
z
" clip-path="url(#p35e769fd4d)" style="fill: #ff00ff"/>
   </g>
   <g id="patch_252">
    <path d="M 707.69625 92572.70245 
L 710.063523 92572.70245 
L 710.063523 92572.70245 
L 707.69625 92572.70245 
z
" clip-path="url(#p35e769fd4d)" style="fill: #ff00ff"/>
   </g>
   <g id="patch_253">
    <path d="M 710.063523 92572.70245 
L 712.430795 92572.70245 
L 712.430795 92572.70245 
L 710.063523 92572.70245 
z
" clip-path="url(#p35e769fd4d)" style="fill: #ff00ff"/>
   </g>
   <g id="patch_254">
    <path d="M 712.430795 92572.70245 
L 714.798068 92572.70245 
L 714.798068 92572.70245 
L 712.430795 92572.70245 
z
" clip-path="url(#p35e769fd4d)" style="fill: #ff00ff"/>
   </g>
   <g id="patch_255">
    <path d="M 714.798068 92572.70245 
L 717.165341 92572.70245 
L 717.165341 92572.70245 
L 714.798068 92572.70245 
z
" clip-path="url(#p35e769fd4d)" style="fill: #ff00ff"/>
   </g>
   <g id="patch_256">
    <path d="M 717.165341 92572.70245 
L 719.532614 92572.70245 
L 719.532614 92572.70245 
L 717.165341 92572.70245 
z
" clip-path="url(#p35e769fd4d)" style="fill: #ff00ff"/>
   </g>
   <g id="patch_257">
    <path d="M 719.532614 92572.70245 
L 721.899886 92572.70245 
L 721.899886 92572.70245 
L 719.532614 92572.70245 
z
" clip-path="url(#p35e769fd4d)" style="fill: #ff00ff"/>
   </g>
   <g id="patch_258">
    <path d="M 721.899886 92572.70245 
L 724.267159 92572.70245 
L 724.267159 92572.70245 
L 721.899886 92572.70245 
z
" clip-path="url(#p35e769fd4d)" style="fill: #ff00ff"/>
   </g>
   <g id="patch_259">
    <path d="M 724.267159 92572.70245 
L 726.634432 92572.70245 
L 726.634432 92572.70245 
L 724.267159 92572.70245 
z
" clip-path="url(#p35e769fd4d)" style="fill: #ff00ff"/>
   </g>
   <g id="patch_260">
    <path d="M 726.634432 92572.70245 
L 729.001705 92572.70245 
L 729.001705 92572.70245 
L 726.634432 92572.70245 
z
" clip-path="url(#p35e769fd4d)" style="fill: #ff00ff"/>
   </g>
   <g id="patch_261">
    <path d="M 729.001705 92572.70245 
L 731.368977 92572.70245 
L 731.368977 92572.70245 
L 729.001705 92572.70245 
z
" clip-path="url(#p35e769fd4d)" style="fill: #ff00ff"/>
   </g>
   <g id="patch_262">
    <path d="M 731.368977 92572.70245 
L 733.73625 92572.70245 
L 733.73625 92572.70245 
L 731.368977 92572.70245 
z
" clip-path="url(#p35e769fd4d)" style="fill: #ff00ff"/>
   </g>
   <g id="patch_263">
    <path d="M 733.73625 92572.70245 
L 736.103523 92572.70245 
L 736.103523 92572.70245 
L 733.73625 92572.70245 
z
" clip-path="url(#p35e769fd4d)" style="fill: #ff00ff"/>
   </g>
   <g id="patch_264">
    <path d="M 736.103523 92572.70245 
L 738.470795 92572.70245 
L 738.470795 92572.70245 
L 736.103523 92572.70245 
z
" clip-path="url(#p35e769fd4d)" style="fill: #ff00ff"/>
   </g>
   <g id="patch_265">
    <path d="M 738.470795 92572.70245 
L 740.838068 92572.70245 
L 740.838068 92572.70245 
L 738.470795 92572.70245 
z
" clip-path="url(#p35e769fd4d)" style="fill: #ff00ff"/>
   </g>
   <g id="patch_266">
    <path d="M 740.838068 92572.70245 
L 743.205341 92572.70245 
L 743.205341 92572.70245 
L 740.838068 92572.70245 
z
" clip-path="url(#p35e769fd4d)" style="fill: #ff00ff"/>
   </g>
   <g id="patch_267">
    <path d="M 743.205341 92572.70245 
L 745.572614 92572.70245 
L 745.572614 92572.70245 
L 743.205341 92572.70245 
z
" clip-path="url(#p35e769fd4d)" style="fill: #ff00ff"/>
   </g>
   <g id="patch_268">
    <path d="M 745.572614 92572.70245 
L 747.939886 92572.70245 
L 747.939886 92572.70245 
L 745.572614 92572.70245 
z
" clip-path="url(#p35e769fd4d)" style="fill: #ff00ff"/>
   </g>
   <g id="patch_269">
    <path d="M 747.939886 92572.70245 
L 750.307159 92572.70245 
L 750.307159 92572.70245 
L 747.939886 92572.70245 
z
" clip-path="url(#p35e769fd4d)" style="fill: #ff00ff"/>
   </g>
   <g id="patch_270">
    <path d="M 750.307159 92572.70245 
L 752.674432 92572.70245 
L 752.674432 92572.70245 
L 750.307159 92572.70245 
z
" clip-path="url(#p35e769fd4d)" style="fill: #ff00ff"/>
   </g>
   <g id="patch_271">
    <path d="M 752.674432 92572.70245 
L 755.041705 92572.70245 
L 755.041705 92572.70245 
L 752.674432 92572.70245 
z
" clip-path="url(#p35e769fd4d)" style="fill: #ff00ff"/>
   </g>
   <g id="patch_272">
    <path d="M 755.041705 92572.70245 
L 757.408977 92572.70245 
L 757.408977 92572.70245 
L 755.041705 92572.70245 
z
" clip-path="url(#p35e769fd4d)" style="fill: #ff00ff"/>
   </g>
   <g id="patch_273">
    <path d="M 757.408977 92572.70245 
L 759.77625 92572.70245 
L 759.77625 92572.70245 
L 757.408977 92572.70245 
z
" clip-path="url(#p35e769fd4d)" style="fill: #ff00ff"/>
   </g>
   <g id="patch_274">
    <path d="M 759.77625 92572.70245 
L 762.143523 92572.70245 
L 762.143523 92572.70245 
L 759.77625 92572.70245 
z
" clip-path="url(#p35e769fd4d)" style="fill: #ff00ff"/>
   </g>
   <g id="patch_275">
    <path d="M 762.143523 92572.70245 
L 764.510795 92572.70245 
L 764.510795 92572.70245 
L 762.143523 92572.70245 
z
" clip-path="url(#p35e769fd4d)" style="fill: #ff00ff"/>
   </g>
   <g id="patch_276">
    <path d="M 764.510795 92572.70245 
L 766.878068 92572.70245 
L 766.878068 92572.70245 
L 764.510795 92572.70245 
z
" clip-path="url(#p35e769fd4d)" style="fill: #ff00ff"/>
   </g>
   <g id="patch_277">
    <path d="M 766.878068 92572.70245 
L 769.245341 92572.70245 
L 769.245341 92572.70245 
L 766.878068 92572.70245 
z
" clip-path="url(#p35e769fd4d)" style="fill: #ff00ff"/>
   </g>
   <g id="patch_278">
    <path d="M 769.245341 92572.70245 
L 771.612614 92572.70245 
L 771.612614 92572.70245 
L 769.245341 92572.70245 
z
" clip-path="url(#p35e769fd4d)" style="fill: #ff00ff"/>
   </g>
   <g id="patch_279">
    <path d="M 771.612614 92572.70245 
L 773.979886 92572.70245 
L 773.979886 92572.70245 
L 771.612614 92572.70245 
z
" clip-path="url(#p35e769fd4d)" style="fill: #ff00ff"/>
   </g>
   <g id="patch_280">
    <path d="M 773.979886 92572.70245 
L 776.347159 92572.70245 
L 776.347159 92572.70245 
L 773.979886 92572.70245 
z
" clip-path="url(#p35e769fd4d)" style="fill: #ff00ff"/>
   </g>
   <g id="patch_281">
    <path d="M 776.347159 92572.70245 
L 778.714432 92572.70245 
L 778.714432 92572.70245 
L 776.347159 92572.70245 
z
" clip-path="url(#p35e769fd4d)" style="fill: #ff00ff"/>
   </g>
   <g id="patch_282">
    <path d="M 778.714432 92572.70245 
L 781.081705 92572.70245 
L 781.081705 92572.70245 
L 778.714432 92572.70245 
z
" clip-path="url(#p35e769fd4d)" style="fill: #ff00ff"/>
   </g>
   <g id="patch_283">
    <path d="M 781.081705 92572.70245 
L 783.448977 92572.70245 
L 783.448977 92572.70245 
L 781.081705 92572.70245 
z
" clip-path="url(#p35e769fd4d)" style="fill: #ff00ff"/>
   </g>
   <g id="patch_284">
    <path d="M 783.448977 92572.70245 
L 785.81625 92572.70245 
L 785.81625 92572.70245 
L 783.448977 92572.70245 
z
" clip-path="url(#p35e769fd4d)" style="fill: #ff00ff"/>
   </g>
   <g id="patch_285">
    <path d="M 785.81625 92572.70245 
L 788.183523 92572.70245 
L 788.183523 92572.70245 
L 785.81625 92572.70245 
z
" clip-path="url(#p35e769fd4d)" style="fill: #ff00ff"/>
   </g>
   <g id="patch_286">
    <path d="M 788.183523 92572.70245 
L 790.550795 92572.70245 
L 790.550795 92572.70245 
L 788.183523 92572.70245 
z
" clip-path="url(#p35e769fd4d)" style="fill: #ff00ff"/>
   </g>
   <g id="patch_287">
    <path d="M 790.550795 92572.70245 
L 792.918068 92572.70245 
L 792.918068 92572.70245 
L 790.550795 92572.70245 
z
" clip-path="url(#p35e769fd4d)" style="fill: #ff00ff"/>
   </g>
   <g id="patch_288">
    <path d="M 792.918068 92572.70245 
L 795.285341 92572.70245 
L 795.285341 92572.70245 
L 792.918068 92572.70245 
z
" clip-path="url(#p35e769fd4d)" style="fill: #ff00ff"/>
   </g>
   <g id="patch_289">
    <path d="M 795.285341 92572.70245 
L 797.652614 92572.70245 
L 797.652614 92572.70245 
L 795.285341 92572.70245 
z
" clip-path="url(#p35e769fd4d)" style="fill: #ff00ff"/>
   </g>
   <g id="patch_290">
    <path d="M 797.652614 92572.70245 
L 800.019886 92572.70245 
L 800.019886 92572.70245 
L 797.652614 92572.70245 
z
" clip-path="url(#p35e769fd4d)" style="fill: #ff00ff"/>
   </g>
   <g id="patch_291">
    <path d="M 800.019886 92572.70245 
L 802.387159 92572.70245 
L 802.387159 92572.70245 
L 800.019886 92572.70245 
z
" clip-path="url(#p35e769fd4d)" style="fill: #ff00ff"/>
   </g>
   <g id="patch_292">
    <path d="M 802.387159 92572.70245 
L 804.754432 92572.70245 
L 804.754432 92572.70245 
L 802.387159 92572.70245 
z
" clip-path="url(#p35e769fd4d)" style="fill: #ff00ff"/>
   </g>
   <g id="patch_293">
    <path d="M 804.754432 92572.70245 
L 807.121705 92572.70245 
L 807.121705 92572.70245 
L 804.754432 92572.70245 
z
" clip-path="url(#p35e769fd4d)" style="fill: #ff00ff"/>
   </g>
   <g id="patch_294">
    <path d="M 807.121705 92572.70245 
L 809.488977 92572.70245 
L 809.488977 92572.70245 
L 807.121705 92572.70245 
z
" clip-path="url(#p35e769fd4d)" style="fill: #ff00ff"/>
   </g>
   <g id="patch_295">
    <path d="M 809.488977 92572.70245 
L 811.85625 92572.70245 
L 811.85625 92572.70245 
L 809.488977 92572.70245 
z
" clip-path="url(#p35e769fd4d)" style="fill: #ff00ff"/>
   </g>
   <g id="patch_296">
    <path d="M 811.85625 92572.70245 
L 814.223523 92572.70245 
L 814.223523 92572.70245 
L 811.85625 92572.70245 
z
" clip-path="url(#p35e769fd4d)" style="fill: #ff00ff"/>
   </g>
   <g id="patch_297">
    <path d="M 814.223523 92572.70245 
L 816.590795 92572.70245 
L 816.590795 92572.70245 
L 814.223523 92572.70245 
z
" clip-path="url(#p35e769fd4d)" style="fill: #ff00ff"/>
   </g>
   <g id="patch_298">
    <path d="M 816.590795 92572.70245 
L 818.958068 92572.70245 
L 818.958068 92572.70245 
L 816.590795 92572.70245 
z
" clip-path="url(#p35e769fd4d)" style="fill: #ff00ff"/>
   </g>
   <g id="patch_299">
    <path d="M 818.958068 92572.70245 
L 821.325341 92572.70245 
L 821.325341 92572.70245 
L 818.958068 92572.70245 
z
" clip-path="url(#p35e769fd4d)" style="fill: #ff00ff"/>
   </g>
   <g id="patch_300">
    <path d="M 821.325341 92572.70245 
L 823.692614 92572.70245 
L 823.692614 92572.70245 
L 821.325341 92572.70245 
z
" clip-path="url(#p35e769fd4d)" style="fill: #ff00ff"/>
   </g>
   <g id="patch_301">
    <path d="M 823.692614 92572.70245 
L 826.059886 92572.70245 
L 826.059886 92572.70245 
L 823.692614 92572.70245 
z
" clip-path="url(#p35e769fd4d)" style="fill: #ff00ff"/>
   </g>
   <g id="patch_302">
    <path d="M 826.059886 92572.70245 
L 828.427159 92572.70245 
L 828.427159 394.659886 
L 826.059886 394.659886 
z
" clip-path="url(#p35e769fd4d)" style="fill: #ff00ff"/>
   </g>
   <g id="matplotlib.axis_1">
    <g id="xtick_1">
     <g id="line2d_1">
      <path d="M 118.245341 411.95625 
L 118.245341 31.43625 
" clip-path="url(#p35e769fd4d)" style="fill: none; stroke-dasharray: 2.96,1.28; stroke-dashoffset: 0; stroke: #b0b0b0; stroke-width: 0.8"/>
     </g>
     <g id="line2d_2">
      <defs>
       <path id="m66e12cd9b0" d="M 0 0 
L 0 17 
" style="stroke: #000000; stroke-width: 0.8"/>
      </defs>
      <g>
       <use xlink:href="#m66e12cd9b0" x="118.245341" y="411.95625" style="stroke: #000000; stroke-width: 0.8"/>
      </g>
     </g>
     <g id="text_1">
      <!-- 0 -->
      <g transform="translate(112.519091 446.133437)scale(0.18 -0.18)">
       <defs>
        <path id="DejaVuSans-30" d="M 2034 4250 
Q 1547 4250 1301 3770 
Q 1056 3291 1056 2328 
Q 1056 1369 1301 889 
Q 1547 409 2034 409 
Q 2525 409 2770 889 
Q 3016 1369 3016 2328 
Q 3016 3291 2770 3770 
Q 2525 4250 2034 4250 
z
M 2034 4750 
Q 2819 4750 3233 4129 
Q 3647 3509 3647 2328 
Q 3647 1150 3233 529 
Q 2819 -91 2034 -91 
Q 1250 -91 836 529 
Q 422 1150 422 2328 
Q 422 3509 836 4129 
Q 1250 4750 2034 4750 
z
" transform="scale(0.015625)"/>
       </defs>
       <use xlink:href="#DejaVuSans-30"/>
      </g>
     </g>
    </g>
    <g id="xtick_2">
     <g id="line2d_3">
      <path d="M 211.936874 411.95625 
L 211.936874 31.43625 
" clip-path="url(#p35e769fd4d)" style="fill: none; stroke-dasharray: 2.96,1.28; stroke-dashoffset: 0; stroke: #b0b0b0; stroke-width: 0.8"/>
     </g>
     <g id="line2d_4">
      <g>
       <use xlink:href="#m66e12cd9b0" x="211.936874" y="411.95625" style="stroke: #000000; stroke-width: 0.8"/>
      </g>
     </g>
     <g id="text_2">
      <!-- 50 -->
      <g transform="translate(200.484374 446.133437)scale(0.18 -0.18)">
       <defs>
        <path id="DejaVuSans-35" d="M 691 4666 
L 3169 4666 
L 3169 4134 
L 1269 4134 
L 1269 2991 
Q 1406 3038 1543 3061 
Q 1681 3084 1819 3084 
Q 2600 3084 3056 2656 
Q 3513 2228 3513 1497 
Q 3513 744 3044 326 
Q 2575 -91 1722 -91 
Q 1428 -91 1123 -41 
Q 819 9 494 109 
L 494 744 
Q 775 591 1075 516 
Q 1375 441 1709 441 
Q 2250 441 2565 725 
Q 2881 1009 2881 1497 
Q 2881 1984 2565 2268 
Q 2250 2553 1709 2553 
Q 1456 2553 1204 2497 
Q 953 2441 691 2322 
L 691 4666 
z
" transform="scale(0.015625)"/>
       </defs>
       <use xlink:href="#DejaVuSans-35"/>
       <use xlink:href="#DejaVuSans-30" x="63.623047"/>
      </g>
     </g>
    </g>
    <g id="xtick_3">
     <g id="line2d_5">
      <path d="M 305.628406 411.95625 
L 305.628406 31.43625 
" clip-path="url(#p35e769fd4d)" style="fill: none; stroke-dasharray: 2.96,1.28; stroke-dashoffset: 0; stroke: #b0b0b0; stroke-width: 0.8"/>
     </g>
     <g id="line2d_6">
      <g>
       <use xlink:href="#m66e12cd9b0" x="305.628406" y="411.95625" style="stroke: #000000; stroke-width: 0.8"/>
      </g>
     </g>
     <g id="text_3">
      <!-- 100 -->
      <g transform="translate(288.449656 446.133437)scale(0.18 -0.18)">
       <defs>
        <path id="DejaVuSans-31" d="M 794 531 
L 1825 531 
L 1825 4091 
L 703 3866 
L 703 4441 
L 1819 4666 
L 2450 4666 
L 2450 531 
L 3481 531 
L 3481 0 
L 794 0 
L 794 531 
z
" transform="scale(0.015625)"/>
       </defs>
       <use xlink:href="#DejaVuSans-31"/>
       <use xlink:href="#DejaVuSans-30" x="63.623047"/>
       <use xlink:href="#DejaVuSans-30" x="127.246094"/>
      </g>
     </g>
    </g>
    <g id="xtick_4">
     <g id="line2d_7">
      <path d="M 399.319939 411.95625 
L 399.319939 31.43625 
" clip-path="url(#p35e769fd4d)" style="fill: none; stroke-dasharray: 2.96,1.28; stroke-dashoffset: 0; stroke: #b0b0b0; stroke-width: 0.8"/>
     </g>
     <g id="line2d_8">
      <g>
       <use xlink:href="#m66e12cd9b0" x="399.319939" y="411.95625" style="stroke: #000000; stroke-width: 0.8"/>
      </g>
     </g>
     <g id="text_4">
      <!-- 150 -->
      <g transform="translate(382.141189 446.133437)scale(0.18 -0.18)">
       <use xlink:href="#DejaVuSans-31"/>
       <use xlink:href="#DejaVuSans-35" x="63.623047"/>
       <use xlink:href="#DejaVuSans-30" x="127.246094"/>
      </g>
     </g>
    </g>
    <g id="xtick_5">
     <g id="line2d_9">
      <path d="M 493.011472 411.95625 
L 493.011472 31.43625 
" clip-path="url(#p35e769fd4d)" style="fill: none; stroke-dasharray: 2.96,1.28; stroke-dashoffset: 0; stroke: #b0b0b0; stroke-width: 0.8"/>
     </g>
     <g id="line2d_10">
      <g>
       <use xlink:href="#m66e12cd9b0" x="493.011472" y="411.95625" style="stroke: #000000; stroke-width: 0.8"/>
      </g>
     </g>
     <g id="text_5">
      <!-- 200 -->
      <g transform="translate(475.832722 446.133437)scale(0.18 -0.18)">
       <defs>
        <path id="DejaVuSans-32" d="M 1228 531 
L 3431 531 
L 3431 0 
L 469 0 
L 469 531 
Q 828 903 1448 1529 
Q 2069 2156 2228 2338 
Q 2531 2678 2651 2914 
Q 2772 3150 2772 3378 
Q 2772 3750 2511 3984 
Q 2250 4219 1831 4219 
Q 1534 4219 1204 4116 
Q 875 4013 500 3803 
L 500 4441 
Q 881 4594 1212 4672 
Q 1544 4750 1819 4750 
Q 2544 4750 2975 4387 
Q 3406 4025 3406 3419 
Q 3406 3131 3298 2873 
Q 3191 2616 2906 2266 
Q 2828 2175 2409 1742 
Q 1991 1309 1228 531 
z
" transform="scale(0.015625)"/>
       </defs>
       <use xlink:href="#DejaVuSans-32"/>
       <use xlink:href="#DejaVuSans-30" x="63.623047"/>
       <use xlink:href="#DejaVuSans-30" x="127.246094"/>
      </g>
     </g>
    </g>
    <g id="xtick_6">
     <g id="line2d_11">
      <path d="M 586.703005 411.95625 
L 586.703005 31.43625 
" clip-path="url(#p35e769fd4d)" style="fill: none; stroke-dasharray: 2.96,1.28; stroke-dashoffset: 0; stroke: #b0b0b0; stroke-width: 0.8"/>
     </g>
     <g id="line2d_12">
      <g>
       <use xlink:href="#m66e12cd9b0" x="586.703005" y="411.95625" style="stroke: #000000; stroke-width: 0.8"/>
      </g>
     </g>
     <g id="text_6">
      <!-- 250 -->
      <g transform="translate(569.524255 446.133437)scale(0.18 -0.18)">
       <use xlink:href="#DejaVuSans-32"/>
       <use xlink:href="#DejaVuSans-35" x="63.623047"/>
       <use xlink:href="#DejaVuSans-30" x="127.246094"/>
      </g>
     </g>
    </g>
    <g id="xtick_7">
     <g id="line2d_13">
      <path d="M 680.394537 411.95625 
L 680.394537 31.43625 
" clip-path="url(#p35e769fd4d)" style="fill: none; stroke-dasharray: 2.96,1.28; stroke-dashoffset: 0; stroke: #b0b0b0; stroke-width: 0.8"/>
     </g>
     <g id="line2d_14">
      <g>
       <use xlink:href="#m66e12cd9b0" x="680.394537" y="411.95625" style="stroke: #000000; stroke-width: 0.8"/>
      </g>
     </g>
     <g id="text_7">
      <!-- 300 -->
      <g transform="translate(663.215787 446.133437)scale(0.18 -0.18)">
       <defs>
        <path id="DejaVuSans-33" d="M 2597 2516 
Q 3050 2419 3304 2112 
Q 3559 1806 3559 1356 
Q 3559 666 3084 287 
Q 2609 -91 1734 -91 
Q 1441 -91 1130 -33 
Q 819 25 488 141 
L 488 750 
Q 750 597 1062 519 
Q 1375 441 1716 441 
Q 2309 441 2620 675 
Q 2931 909 2931 1356 
Q 2931 1769 2642 2001 
Q 2353 2234 1838 2234 
L 1294 2234 
L 1294 2753 
L 1863 2753 
Q 2328 2753 2575 2939 
Q 2822 3125 2822 3475 
Q 2822 3834 2567 4026 
Q 2313 4219 1838 4219 
Q 1578 4219 1281 4162 
Q 984 4106 628 3988 
L 628 4550 
Q 988 4650 1302 4700 
Q 1616 4750 1894 4750 
Q 2613 4750 3031 4423 
Q 3450 4097 3450 3541 
Q 3450 3153 3228 2886 
Q 3006 2619 2597 2516 
z
" transform="scale(0.015625)"/>
       </defs>
       <use xlink:href="#DejaVuSans-33"/>
       <use xlink:href="#DejaVuSans-30" x="63.623047"/>
       <use xlink:href="#DejaVuSans-30" x="127.246094"/>
      </g>
     </g>
    </g>
    <g id="xtick_8">
     <g id="line2d_15">
      <path d="M 774.08607 411.95625 
L 774.08607 31.43625 
" clip-path="url(#p35e769fd4d)" style="fill: none; stroke-dasharray: 2.96,1.28; stroke-dashoffset: 0; stroke: #b0b0b0; stroke-width: 0.8"/>
     </g>
     <g id="line2d_16">
      <g>
       <use xlink:href="#m66e12cd9b0" x="774.08607" y="411.95625" style="stroke: #000000; stroke-width: 0.8"/>
      </g>
     </g>
     <g id="text_8">
      <!-- 350 -->
      <g transform="translate(756.90732 446.133437)scale(0.18 -0.18)">
       <use xlink:href="#DejaVuSans-33"/>
       <use xlink:href="#DejaVuSans-35" x="63.623047"/>
       <use xlink:href="#DejaVuSans-30" x="127.246094"/>
      </g>
     </g>
    </g>
    <g id="text_9">
     <!-- InDegree -->
     <g transform="translate(427.655 469.07375)scale(0.2 -0.2)">
      <defs>
       <path id="DejaVuSans-49" d="M 628 4666 
L 1259 4666 
L 1259 0 
L 628 0 
L 628 4666 
z
" transform="scale(0.015625)"/>
       <path id="DejaVuSans-6e" d="M 3513 2113 
L 3513 0 
L 2938 0 
L 2938 2094 
Q 2938 2591 2744 2837 
Q 2550 3084 2163 3084 
Q 1697 3084 1428 2787 
Q 1159 2491 1159 1978 
L 1159 0 
L 581 0 
L 581 3500 
L 1159 3500 
L 1159 2956 
Q 1366 3272 1645 3428 
Q 1925 3584 2291 3584 
Q 2894 3584 3203 3211 
Q 3513 2838 3513 2113 
z
" transform="scale(0.015625)"/>
       <path id="DejaVuSans-44" d="M 1259 4147 
L 1259 519 
L 2022 519 
Q 2988 519 3436 956 
Q 3884 1394 3884 2338 
Q 3884 3275 3436 3711 
Q 2988 4147 2022 4147 
L 1259 4147 
z
M 628 4666 
L 1925 4666 
Q 3281 4666 3915 4102 
Q 4550 3538 4550 2338 
Q 4550 1131 3912 565 
Q 3275 0 1925 0 
L 628 0 
L 628 4666 
z
" transform="scale(0.015625)"/>
       <path id="DejaVuSans-65" d="M 3597 1894 
L 3597 1613 
L 953 1613 
Q 991 1019 1311 708 
Q 1631 397 2203 397 
Q 2534 397 2845 478 
Q 3156 559 3463 722 
L 3463 178 
Q 3153 47 2828 -22 
Q 2503 -91 2169 -91 
Q 1331 -91 842 396 
Q 353 884 353 1716 
Q 353 2575 817 3079 
Q 1281 3584 2069 3584 
Q 2775 3584 3186 3129 
Q 3597 2675 3597 1894 
z
M 3022 2063 
Q 3016 2534 2758 2815 
Q 2500 3097 2075 3097 
Q 1594 3097 1305 2825 
Q 1016 2553 972 2059 
L 3022 2063 
z
" transform="scale(0.015625)"/>
       <path id="DejaVuSans-67" d="M 2906 1791 
Q 2906 2416 2648 2759 
Q 2391 3103 1925 3103 
Q 1463 3103 1205 2759 
Q 947 2416 947 1791 
Q 947 1169 1205 825 
Q 1463 481 1925 481 
Q 2391 481 2648 825 
Q 2906 1169 2906 1791 
z
M 3481 434 
Q 3481 -459 3084 -895 
Q 2688 -1331 1869 -1331 
Q 1566 -1331 1297 -1286 
Q 1028 -1241 775 -1147 
L 775 -588 
Q 1028 -725 1275 -790 
Q 1522 -856 1778 -856 
Q 2344 -856 2625 -561 
Q 2906 -266 2906 331 
L 2906 616 
Q 2728 306 2450 153 
Q 2172 0 1784 0 
Q 1141 0 747 490 
Q 353 981 353 1791 
Q 353 2603 747 3093 
Q 1141 3584 1784 3584 
Q 2172 3584 2450 3431 
Q 2728 3278 2906 2969 
L 2906 3500 
L 3481 3500 
L 3481 434 
z
" transform="scale(0.015625)"/>
       <path id="DejaVuSans-72" d="M 2631 2963 
Q 2534 3019 2420 3045 
Q 2306 3072 2169 3072 
Q 1681 3072 1420 2755 
Q 1159 2438 1159 1844 
L 1159 0 
L 581 0 
L 581 3500 
L 1159 3500 
L 1159 2956 
Q 1341 3275 1631 3429 
Q 1922 3584 2338 3584 
Q 2397 3584 2469 3576 
Q 2541 3569 2628 3553 
L 2631 2963 
z
" transform="scale(0.015625)"/>
      </defs>
      <use xlink:href="#DejaVuSans-49"/>
      <use xlink:href="#DejaVuSans-6e" x="29.492188"/>
      <use xlink:href="#DejaVuSans-44" x="92.871094"/>
      <use xlink:href="#DejaVuSans-65" x="169.873047"/>
      <use xlink:href="#DejaVuSans-67" x="231.396484"/>
      <use xlink:href="#DejaVuSans-72" x="294.873047"/>
      <use xlink:href="#DejaVuSans-65" x="333.736328"/>
      <use xlink:href="#DejaVuSans-65" x="395.259766"/>
     </g>
    </g>
   </g>
   <g id="matplotlib.axis_2">
    <g id="ytick_1">
     <g id="line2d_17">
      <path d="M 82.73625 394.659886 
L 863.93625 394.659886 
" clip-path="url(#p35e769fd4d)" style="fill: none; stroke-dasharray: 2.96,1.28; stroke-dashoffset: 0; stroke: #b0b0b0; stroke-width: 0.8"/>
     </g>
     <g id="line2d_18">
      <defs>
       <path id="m5243375da3" d="M 0 0 
L -17 0 
" style="stroke: #000000; stroke-width: 0.8"/>
      </defs>
      <g>
       <use xlink:href="#m5243375da3" x="82.73625" y="394.659886" style="stroke: #000000; stroke-width: 0.8"/>
      </g>
     </g>
     <g id="text_10">
      <!-- $\mathdefault{10^{0}}$ -->
      <g transform="translate(30.55625 401.49848)scale(0.18 -0.18)">
       <use xlink:href="#DejaVuSans-31" transform="translate(0 0.765625)"/>
       <use xlink:href="#DejaVuSans-30" transform="translate(63.623047 0.765625)"/>
       <use xlink:href="#DejaVuSans-30" transform="translate(128.203125 39.046875)scale(0.7)"/>
      </g>
     </g>
    </g>
    <g id="ytick_2">
     <g id="line2d_19">
      <path d="M 82.73625 302.481844 
L 863.93625 302.481844 
" clip-path="url(#p35e769fd4d)" style="fill: none; stroke-dasharray: 2.96,1.28; stroke-dashoffset: 0; stroke: #b0b0b0; stroke-width: 0.8"/>
     </g>
     <g id="line2d_20">
      <g>
       <use xlink:href="#m5243375da3" x="82.73625" y="302.481844" style="stroke: #000000; stroke-width: 0.8"/>
      </g>
     </g>
     <g id="text_11">
      <!-- $\mathdefault{10^{1}}$ -->
      <g transform="translate(30.55625 309.320438)scale(0.18 -0.18)">
       <use xlink:href="#DejaVuSans-31" transform="translate(0 0.684375)"/>
       <use xlink:href="#DejaVuSans-30" transform="translate(63.623047 0.684375)"/>
       <use xlink:href="#DejaVuSans-31" transform="translate(128.203125 38.965625)scale(0.7)"/>
      </g>
     </g>
    </g>
    <g id="ytick_3">
     <g id="line2d_21">
      <path d="M 82.73625 210.303801 
L 863.93625 210.303801 
" clip-path="url(#p35e769fd4d)" style="fill: none; stroke-dasharray: 2.96,1.28; stroke-dashoffset: 0; stroke: #b0b0b0; stroke-width: 0.8"/>
     </g>
     <g id="line2d_22">
      <g>
       <use xlink:href="#m5243375da3" x="82.73625" y="210.303801" style="stroke: #000000; stroke-width: 0.8"/>
      </g>
     </g>
     <g id="text_12">
      <!-- $\mathdefault{10^{2}}$ -->
      <g transform="translate(30.55625 217.142395)scale(0.18 -0.18)">
       <use xlink:href="#DejaVuSans-31" transform="translate(0 0.765625)"/>
       <use xlink:href="#DejaVuSans-30" transform="translate(63.623047 0.765625)"/>
       <use xlink:href="#DejaVuSans-32" transform="translate(128.203125 39.046875)scale(0.7)"/>
      </g>
     </g>
    </g>
    <g id="ytick_4">
     <g id="line2d_23">
      <path d="M 82.73625 118.125759 
L 863.93625 118.125759 
" clip-path="url(#p35e769fd4d)" style="fill: none; stroke-dasharray: 2.96,1.28; stroke-dashoffset: 0; stroke: #b0b0b0; stroke-width: 0.8"/>
     </g>
     <g id="line2d_24">
      <g>
       <use xlink:href="#m5243375da3" x="82.73625" y="118.125759" style="stroke: #000000; stroke-width: 0.8"/>
      </g>
     </g>
     <g id="text_13">
      <!-- $\mathdefault{10^{3}}$ -->
      <g transform="translate(30.55625 124.964352)scale(0.18 -0.18)">
       <use xlink:href="#DejaVuSans-31" transform="translate(0 0.765625)"/>
       <use xlink:href="#DejaVuSans-30" transform="translate(63.623047 0.765625)"/>
       <use xlink:href="#DejaVuSans-33" transform="translate(128.203125 39.046875)scale(0.7)"/>
      </g>
     </g>
    </g>
    <g id="ytick_5">
     <g id="line2d_25">
      <defs>
       <path id="m39a47f3c40" d="M 0 0 
L -7 0 
" style="stroke: #000000; stroke-width: 0.6"/>
      </defs>
      <g>
       <use xlink:href="#m39a47f3c40" x="82.73625" y="408.938446" style="stroke: #000000; stroke-width: 0.6"/>
      </g>
     </g>
    </g>
    <g id="ytick_6">
     <g id="line2d_26">
      <g>
       <use xlink:href="#m39a47f3c40" x="82.73625" y="403.592862" style="stroke: #000000; stroke-width: 0.6"/>
      </g>
     </g>
    </g>
    <g id="ytick_7">
     <g id="line2d_27">
      <g>
       <use xlink:href="#m39a47f3c40" x="82.73625" y="398.877722" style="stroke: #000000; stroke-width: 0.6"/>
      </g>
     </g>
    </g>
    <g id="ytick_8">
     <g id="line2d_28">
      <g>
       <use xlink:href="#m39a47f3c40" x="82.73625" y="366.911531" style="stroke: #000000; stroke-width: 0.6"/>
      </g>
     </g>
    </g>
    <g id="ytick_9">
     <g id="line2d_29">
      <g>
       <use xlink:href="#m39a47f3c40" x="82.73625" y="350.679783" style="stroke: #000000; stroke-width: 0.6"/>
      </g>
     </g>
    </g>
    <g id="ytick_10">
     <g id="line2d_30">
      <g>
       <use xlink:href="#m39a47f3c40" x="82.73625" y="339.163175" style="stroke: #000000; stroke-width: 0.6"/>
      </g>
     </g>
    </g>
    <g id="ytick_11">
     <g id="line2d_31">
      <g>
       <use xlink:href="#m39a47f3c40" x="82.73625" y="330.2302" style="stroke: #000000; stroke-width: 0.6"/>
      </g>
     </g>
    </g>
    <g id="ytick_12">
     <g id="line2d_32">
      <g>
       <use xlink:href="#m39a47f3c40" x="82.73625" y="322.931427" style="stroke: #000000; stroke-width: 0.6"/>
      </g>
     </g>
    </g>
    <g id="ytick_13">
     <g id="line2d_33">
      <g>
       <use xlink:href="#m39a47f3c40" x="82.73625" y="316.760403" style="stroke: #000000; stroke-width: 0.6"/>
      </g>
     </g>
    </g>
    <g id="ytick_14">
     <g id="line2d_34">
      <g>
       <use xlink:href="#m39a47f3c40" x="82.73625" y="311.414819" style="stroke: #000000; stroke-width: 0.6"/>
      </g>
     </g>
    </g>
    <g id="ytick_15">
     <g id="line2d_35">
      <g>
       <use xlink:href="#m39a47f3c40" x="82.73625" y="306.69968" style="stroke: #000000; stroke-width: 0.6"/>
      </g>
     </g>
    </g>
    <g id="ytick_16">
     <g id="line2d_36">
      <g>
       <use xlink:href="#m39a47f3c40" x="82.73625" y="274.733488" style="stroke: #000000; stroke-width: 0.6"/>
      </g>
     </g>
    </g>
    <g id="ytick_17">
     <g id="line2d_37">
      <g>
       <use xlink:href="#m39a47f3c40" x="82.73625" y="258.50174" style="stroke: #000000; stroke-width: 0.6"/>
      </g>
     </g>
    </g>
    <g id="ytick_18">
     <g id="line2d_38">
      <g>
       <use xlink:href="#m39a47f3c40" x="82.73625" y="246.985132" style="stroke: #000000; stroke-width: 0.6"/>
      </g>
     </g>
    </g>
    <g id="ytick_19">
     <g id="line2d_39">
      <g>
       <use xlink:href="#m39a47f3c40" x="82.73625" y="238.052157" style="stroke: #000000; stroke-width: 0.6"/>
      </g>
     </g>
    </g>
    <g id="ytick_20">
     <g id="line2d_40">
      <g>
       <use xlink:href="#m39a47f3c40" x="82.73625" y="230.753385" style="stroke: #000000; stroke-width: 0.6"/>
      </g>
     </g>
    </g>
    <g id="ytick_21">
     <g id="line2d_41">
      <g>
       <use xlink:href="#m39a47f3c40" x="82.73625" y="224.582361" style="stroke: #000000; stroke-width: 0.6"/>
      </g>
     </g>
    </g>
    <g id="ytick_22">
     <g id="line2d_42">
      <g>
       <use xlink:href="#m39a47f3c40" x="82.73625" y="219.236777" style="stroke: #000000; stroke-width: 0.6"/>
      </g>
     </g>
    </g>
    <g id="ytick_23">
     <g id="line2d_43">
      <g>
       <use xlink:href="#m39a47f3c40" x="82.73625" y="214.521637" style="stroke: #000000; stroke-width: 0.6"/>
      </g>
     </g>
    </g>
    <g id="ytick_24">
     <g id="line2d_44">
      <g>
       <use xlink:href="#m39a47f3c40" x="82.73625" y="182.555445" style="stroke: #000000; stroke-width: 0.6"/>
      </g>
     </g>
    </g>
    <g id="ytick_25">
     <g id="line2d_45">
      <g>
       <use xlink:href="#m39a47f3c40" x="82.73625" y="166.323698" style="stroke: #000000; stroke-width: 0.6"/>
      </g>
     </g>
    </g>
    <g id="ytick_26">
     <g id="line2d_46">
      <g>
       <use xlink:href="#m39a47f3c40" x="82.73625" y="154.80709" style="stroke: #000000; stroke-width: 0.6"/>
      </g>
     </g>
    </g>
    <g id="ytick_27">
     <g id="line2d_47">
      <g>
       <use xlink:href="#m39a47f3c40" x="82.73625" y="145.874114" style="stroke: #000000; stroke-width: 0.6"/>
      </g>
     </g>
    </g>
    <g id="ytick_28">
     <g id="line2d_48">
      <g>
       <use xlink:href="#m39a47f3c40" x="82.73625" y="138.575342" style="stroke: #000000; stroke-width: 0.6"/>
      </g>
     </g>
    </g>
    <g id="ytick_29">
     <g id="line2d_49">
      <g>
       <use xlink:href="#m39a47f3c40" x="82.73625" y="132.404318" style="stroke: #000000; stroke-width: 0.6"/>
      </g>
     </g>
    </g>
    <g id="ytick_30">
     <g id="line2d_50">
      <g>
       <use xlink:href="#m39a47f3c40" x="82.73625" y="127.058734" style="stroke: #000000; stroke-width: 0.6"/>
      </g>
     </g>
    </g>
    <g id="ytick_31">
     <g id="line2d_51">
      <g>
       <use xlink:href="#m39a47f3c40" x="82.73625" y="122.343595" style="stroke: #000000; stroke-width: 0.6"/>
      </g>
     </g>
    </g>
    <g id="ytick_32">
     <g id="line2d_52">
      <g>
       <use xlink:href="#m39a47f3c40" x="82.73625" y="90.377403" style="stroke: #000000; stroke-width: 0.6"/>
      </g>
     </g>
    </g>
    <g id="ytick_33">
     <g id="line2d_53">
      <g>
       <use xlink:href="#m39a47f3c40" x="82.73625" y="74.145655" style="stroke: #000000; stroke-width: 0.6"/>
      </g>
     </g>
    </g>
    <g id="ytick_34">
     <g id="line2d_54">
      <g>
       <use xlink:href="#m39a47f3c40" x="82.73625" y="62.629047" style="stroke: #000000; stroke-width: 0.6"/>
      </g>
     </g>
    </g>
    <g id="ytick_35">
     <g id="line2d_55">
      <g>
       <use xlink:href="#m39a47f3c40" x="82.73625" y="53.696072" style="stroke: #000000; stroke-width: 0.6"/>
      </g>
     </g>
    </g>
    <g id="ytick_36">
     <g id="line2d_56">
      <g>
       <use xlink:href="#m39a47f3c40" x="82.73625" y="46.3973" style="stroke: #000000; stroke-width: 0.6"/>
      </g>
     </g>
    </g>
    <g id="ytick_37">
     <g id="line2d_57">
      <g>
       <use xlink:href="#m39a47f3c40" x="82.73625" y="40.226276" style="stroke: #000000; stroke-width: 0.6"/>
      </g>
     </g>
    </g>
    <g id="ytick_38">
     <g id="line2d_58">
      <g>
       <use xlink:href="#m39a47f3c40" x="82.73625" y="34.880691" style="stroke: #000000; stroke-width: 0.6"/>
      </g>
     </g>
    </g>
    <g id="text_14">
     <!-- Occurence -->
     <g transform="translate(22.396875 274.930625)rotate(-90)scale(0.2 -0.2)">
      <defs>
       <path id="DejaVuSans-4f" d="M 2522 4238 
Q 1834 4238 1429 3725 
Q 1025 3213 1025 2328 
Q 1025 1447 1429 934 
Q 1834 422 2522 422 
Q 3209 422 3611 934 
Q 4013 1447 4013 2328 
Q 4013 3213 3611 3725 
Q 3209 4238 2522 4238 
z
M 2522 4750 
Q 3503 4750 4090 4092 
Q 4678 3434 4678 2328 
Q 4678 1225 4090 567 
Q 3503 -91 2522 -91 
Q 1538 -91 948 565 
Q 359 1222 359 2328 
Q 359 3434 948 4092 
Q 1538 4750 2522 4750 
z
" transform="scale(0.015625)"/>
       <path id="DejaVuSans-63" d="M 3122 3366 
L 3122 2828 
Q 2878 2963 2633 3030 
Q 2388 3097 2138 3097 
Q 1578 3097 1268 2742 
Q 959 2388 959 1747 
Q 959 1106 1268 751 
Q 1578 397 2138 397 
Q 2388 397 2633 464 
Q 2878 531 3122 666 
L 3122 134 
Q 2881 22 2623 -34 
Q 2366 -91 2075 -91 
Q 1284 -91 818 406 
Q 353 903 353 1747 
Q 353 2603 823 3093 
Q 1294 3584 2113 3584 
Q 2378 3584 2631 3529 
Q 2884 3475 3122 3366 
z
" transform="scale(0.015625)"/>
       <path id="DejaVuSans-75" d="M 544 1381 
L 544 3500 
L 1119 3500 
L 1119 1403 
Q 1119 906 1312 657 
Q 1506 409 1894 409 
Q 2359 409 2629 706 
Q 2900 1003 2900 1516 
L 2900 3500 
L 3475 3500 
L 3475 0 
L 2900 0 
L 2900 538 
Q 2691 219 2414 64 
Q 2138 -91 1772 -91 
Q 1169 -91 856 284 
Q 544 659 544 1381 
z
M 1991 3584 
L 1991 3584 
z
" transform="scale(0.015625)"/>
      </defs>
      <use xlink:href="#DejaVuSans-4f"/>
      <use xlink:href="#DejaVuSans-63" x="78.710938"/>
      <use xlink:href="#DejaVuSans-63" x="133.691406"/>
      <use xlink:href="#DejaVuSans-75" x="188.671875"/>
      <use xlink:href="#DejaVuSans-72" x="252.050781"/>
      <use xlink:href="#DejaVuSans-65" x="290.914062"/>
      <use xlink:href="#DejaVuSans-6e" x="352.4375"/>
      <use xlink:href="#DejaVuSans-63" x="415.816406"/>
      <use xlink:href="#DejaVuSans-65" x="470.796875"/>
     </g>
    </g>
   </g>
   <g id="patch_303">
    <path d="M 82.73625 411.95625 
L 82.73625 31.43625 
" style="fill: none; stroke: #000000; stroke-width: 0.8; stroke-linejoin: miter; stroke-linecap: square"/>
   </g>
   <g id="patch_304">
    <path d="M 863.93625 411.95625 
L 863.93625 31.43625 
" style="fill: none; stroke: #000000; stroke-width: 0.8; stroke-linejoin: miter; stroke-linecap: square"/>
   </g>
   <g id="patch_305">
    <path d="M 82.73625 411.95625 
L 863.93625 411.95625 
" style="fill: none; stroke: #000000; stroke-width: 0.8; stroke-linejoin: miter; stroke-linecap: square"/>
   </g>
   <g id="patch_306">
    <path d="M 82.73625 31.43625 
L 863.93625 31.43625 
" style="fill: none; stroke: #000000; stroke-width: 0.8; stroke-linejoin: miter; stroke-linecap: square"/>
   </g>
   <g id="text_15">
    <!-- Component Connections Untill a Given Year -->
    <g transform="translate(211.8675 25.43625)scale(0.24 -0.24)">
     <defs>
      <path id="DejaVuSans-43" d="M 4122 4306 
L 4122 3641 
Q 3803 3938 3442 4084 
Q 3081 4231 2675 4231 
Q 1875 4231 1450 3742 
Q 1025 3253 1025 2328 
Q 1025 1406 1450 917 
Q 1875 428 2675 428 
Q 3081 428 3442 575 
Q 3803 722 4122 1019 
L 4122 359 
Q 3791 134 3420 21 
Q 3050 -91 2638 -91 
Q 1578 -91 968 557 
Q 359 1206 359 2328 
Q 359 3453 968 4101 
Q 1578 4750 2638 4750 
Q 3056 4750 3426 4639 
Q 3797 4528 4122 4306 
z
" transform="scale(0.015625)"/>
      <path id="DejaVuSans-6f" d="M 1959 3097 
Q 1497 3097 1228 2736 
Q 959 2375 959 1747 
Q 959 1119 1226 758 
Q 1494 397 1959 397 
Q 2419 397 2687 759 
Q 2956 1122 2956 1747 
Q 2956 2369 2687 2733 
Q 2419 3097 1959 3097 
z
M 1959 3584 
Q 2709 3584 3137 3096 
Q 3566 2609 3566 1747 
Q 3566 888 3137 398 
Q 2709 -91 1959 -91 
Q 1206 -91 779 398 
Q 353 888 353 1747 
Q 353 2609 779 3096 
Q 1206 3584 1959 3584 
z
" transform="scale(0.015625)"/>
      <path id="DejaVuSans-6d" d="M 3328 2828 
Q 3544 3216 3844 3400 
Q 4144 3584 4550 3584 
Q 5097 3584 5394 3201 
Q 5691 2819 5691 2113 
L 5691 0 
L 5113 0 
L 5113 2094 
Q 5113 2597 4934 2840 
Q 4756 3084 4391 3084 
Q 3944 3084 3684 2787 
Q 3425 2491 3425 1978 
L 3425 0 
L 2847 0 
L 2847 2094 
Q 2847 2600 2669 2842 
Q 2491 3084 2119 3084 
Q 1678 3084 1418 2786 
Q 1159 2488 1159 1978 
L 1159 0 
L 581 0 
L 581 3500 
L 1159 3500 
L 1159 2956 
Q 1356 3278 1631 3431 
Q 1906 3584 2284 3584 
Q 2666 3584 2933 3390 
Q 3200 3197 3328 2828 
z
" transform="scale(0.015625)"/>
      <path id="DejaVuSans-70" d="M 1159 525 
L 1159 -1331 
L 581 -1331 
L 581 3500 
L 1159 3500 
L 1159 2969 
Q 1341 3281 1617 3432 
Q 1894 3584 2278 3584 
Q 2916 3584 3314 3078 
Q 3713 2572 3713 1747 
Q 3713 922 3314 415 
Q 2916 -91 2278 -91 
Q 1894 -91 1617 61 
Q 1341 213 1159 525 
z
M 3116 1747 
Q 3116 2381 2855 2742 
Q 2594 3103 2138 3103 
Q 1681 3103 1420 2742 
Q 1159 2381 1159 1747 
Q 1159 1113 1420 752 
Q 1681 391 2138 391 
Q 2594 391 2855 752 
Q 3116 1113 3116 1747 
z
" transform="scale(0.015625)"/>
      <path id="DejaVuSans-74" d="M 1172 4494 
L 1172 3500 
L 2356 3500 
L 2356 3053 
L 1172 3053 
L 1172 1153 
Q 1172 725 1289 603 
Q 1406 481 1766 481 
L 2356 481 
L 2356 0 
L 1766 0 
Q 1100 0 847 248 
Q 594 497 594 1153 
L 594 3053 
L 172 3053 
L 172 3500 
L 594 3500 
L 594 4494 
L 1172 4494 
z
" transform="scale(0.015625)"/>
      <path id="DejaVuSans-20" transform="scale(0.015625)"/>
      <path id="DejaVuSans-69" d="M 603 3500 
L 1178 3500 
L 1178 0 
L 603 0 
L 603 3500 
z
M 603 4863 
L 1178 4863 
L 1178 4134 
L 603 4134 
L 603 4863 
z
" transform="scale(0.015625)"/>
      <path id="DejaVuSans-73" d="M 2834 3397 
L 2834 2853 
Q 2591 2978 2328 3040 
Q 2066 3103 1784 3103 
Q 1356 3103 1142 2972 
Q 928 2841 928 2578 
Q 928 2378 1081 2264 
Q 1234 2150 1697 2047 
L 1894 2003 
Q 2506 1872 2764 1633 
Q 3022 1394 3022 966 
Q 3022 478 2636 193 
Q 2250 -91 1575 -91 
Q 1294 -91 989 -36 
Q 684 19 347 128 
L 347 722 
Q 666 556 975 473 
Q 1284 391 1588 391 
Q 1994 391 2212 530 
Q 2431 669 2431 922 
Q 2431 1156 2273 1281 
Q 2116 1406 1581 1522 
L 1381 1569 
Q 847 1681 609 1914 
Q 372 2147 372 2553 
Q 372 3047 722 3315 
Q 1072 3584 1716 3584 
Q 2034 3584 2315 3537 
Q 2597 3491 2834 3397 
z
" transform="scale(0.015625)"/>
      <path id="DejaVuSans-55" d="M 556 4666 
L 1191 4666 
L 1191 1831 
Q 1191 1081 1462 751 
Q 1734 422 2344 422 
Q 2950 422 3222 751 
Q 3494 1081 3494 1831 
L 3494 4666 
L 4128 4666 
L 4128 1753 
Q 4128 841 3676 375 
Q 3225 -91 2344 -91 
Q 1459 -91 1007 375 
Q 556 841 556 1753 
L 556 4666 
z
" transform="scale(0.015625)"/>
      <path id="DejaVuSans-6c" d="M 603 4863 
L 1178 4863 
L 1178 0 
L 603 0 
L 603 4863 
z
" transform="scale(0.015625)"/>
      <path id="DejaVuSans-61" d="M 2194 1759 
Q 1497 1759 1228 1600 
Q 959 1441 959 1056 
Q 959 750 1161 570 
Q 1363 391 1709 391 
Q 2188 391 2477 730 
Q 2766 1069 2766 1631 
L 2766 1759 
L 2194 1759 
z
M 3341 1997 
L 3341 0 
L 2766 0 
L 2766 531 
Q 2569 213 2275 61 
Q 1981 -91 1556 -91 
Q 1019 -91 701 211 
Q 384 513 384 1019 
Q 384 1609 779 1909 
Q 1175 2209 1959 2209 
L 2766 2209 
L 2766 2266 
Q 2766 2663 2505 2880 
Q 2244 3097 1772 3097 
Q 1472 3097 1187 3025 
Q 903 2953 641 2809 
L 641 3341 
Q 956 3463 1253 3523 
Q 1550 3584 1831 3584 
Q 2591 3584 2966 3190 
Q 3341 2797 3341 1997 
z
" transform="scale(0.015625)"/>
      <path id="DejaVuSans-47" d="M 3809 666 
L 3809 1919 
L 2778 1919 
L 2778 2438 
L 4434 2438 
L 4434 434 
Q 4069 175 3628 42 
Q 3188 -91 2688 -91 
Q 1594 -91 976 548 
Q 359 1188 359 2328 
Q 359 3472 976 4111 
Q 1594 4750 2688 4750 
Q 3144 4750 3555 4637 
Q 3966 4525 4313 4306 
L 4313 3634 
Q 3963 3931 3569 4081 
Q 3175 4231 2741 4231 
Q 1884 4231 1454 3753 
Q 1025 3275 1025 2328 
Q 1025 1384 1454 906 
Q 1884 428 2741 428 
Q 3075 428 3337 486 
Q 3600 544 3809 666 
z
" transform="scale(0.015625)"/>
      <path id="DejaVuSans-76" d="M 191 3500 
L 800 3500 
L 1894 563 
L 2988 3500 
L 3597 3500 
L 2284 0 
L 1503 0 
L 191 3500 
z
" transform="scale(0.015625)"/>
      <path id="DejaVuSans-59" d="M -13 4666 
L 666 4666 
L 1959 2747 
L 3244 4666 
L 3922 4666 
L 2272 2222 
L 2272 0 
L 1638 0 
L 1638 2222 
L -13 4666 
z
" transform="scale(0.015625)"/>
     </defs>
     <use xlink:href="#DejaVuSans-43"/>
     <use xlink:href="#DejaVuSans-6f" x="69.824219"/>
     <use xlink:href="#DejaVuSans-6d" x="131.005859"/>
     <use xlink:href="#DejaVuSans-70" x="228.417969"/>
     <use xlink:href="#DejaVuSans-6f" x="291.894531"/>
     <use xlink:href="#DejaVuSans-6e" x="353.076172"/>
     <use xlink:href="#DejaVuSans-65" x="416.455078"/>
     <use xlink:href="#DejaVuSans-6e" x="477.978516"/>
     <use xlink:href="#DejaVuSans-74" x="541.357422"/>
     <use xlink:href="#DejaVuSans-20" x="580.566406"/>
     <use xlink:href="#DejaVuSans-43" x="612.353516"/>
     <use xlink:href="#DejaVuSans-6f" x="682.177734"/>
     <use xlink:href="#DejaVuSans-6e" x="743.359375"/>
     <use xlink:href="#DejaVuSans-6e" x="806.738281"/>
     <use xlink:href="#DejaVuSans-65" x="870.117188"/>
     <use xlink:href="#DejaVuSans-63" x="931.640625"/>
     <use xlink:href="#DejaVuSans-74" x="986.621094"/>
     <use xlink:href="#DejaVuSans-69" x="1025.830078"/>
     <use xlink:href="#DejaVuSans-6f" x="1053.613281"/>
     <use xlink:href="#DejaVuSans-6e" x="1114.794922"/>
     <use xlink:href="#DejaVuSans-73" x="1178.173828"/>
     <use xlink:href="#DejaVuSans-20" x="1230.273438"/>
     <use xlink:href="#DejaVuSans-55" x="1262.060547"/>
     <use xlink:href="#DejaVuSans-6e" x="1335.253906"/>
     <use xlink:href="#DejaVuSans-74" x="1398.632812"/>
     <use xlink:href="#DejaVuSans-69" x="1437.841797"/>
     <use xlink:href="#DejaVuSans-6c" x="1465.625"/>
     <use xlink:href="#DejaVuSans-6c" x="1493.408203"/>
     <use xlink:href="#DejaVuSans-20" x="1521.191406"/>
     <use xlink:href="#DejaVuSans-61" x="1552.978516"/>
     <use xlink:href="#DejaVuSans-20" x="1614.257812"/>
     <use xlink:href="#DejaVuSans-47" x="1646.044922"/>
     <use xlink:href="#DejaVuSans-69" x="1723.535156"/>
     <use xlink:href="#DejaVuSans-76" x="1751.318359"/>
     <use xlink:href="#DejaVuSans-65" x="1810.498047"/>
     <use xlink:href="#DejaVuSans-6e" x="1872.021484"/>
     <use xlink:href="#DejaVuSans-20" x="1935.400391"/>
     <use xlink:href="#DejaVuSans-59" x="1967.1875"/>
     <use xlink:href="#DejaVuSans-65" x="2015.021484"/>
     <use xlink:href="#DejaVuSans-61" x="2076.544922"/>
     <use xlink:href="#DejaVuSans-72" x="2137.824219"/>
    </g>
   </g>
  </g>
 </g>
 <defs>
  <clipPath id="p35e769fd4d">
   <rect x="82.73625" y="31.43625" width="781.2" height="380.52"/>
  </clipPath>
 </defs>
</svg>
