<?xml version="1.0" encoding="utf-8" standalone="no"?>
<!DOCTYPE svg PUBLIC "-//W3C//DTD SVG 1.1//EN"
  "http://www.w3.org/Graphics/SVG/1.1/DTD/svg11.dtd">
<svg xmlns:xlink="http://www.w3.org/1999/xlink" width="871.13625pt" height="480.433125pt" viewBox="0 0 871.13625 480.433125" xmlns="http://www.w3.org/2000/svg" version="1.1">
 <metadata>
  <rdf:RDF xmlns:dc="http://purl.org/dc/elements/1.1/" xmlns:cc="http://creativecommons.org/ns#" xmlns:rdf="http://www.w3.org/1999/02/22-rdf-syntax-ns#">
   <cc:Work>
    <dc:type rdf:resource="http://purl.org/dc/dcmitype/StillImage"/>
    <dc:date>2022-05-08T00:46:18.378314</dc:date>
    <dc:format>image/svg+xml</dc:format>
    <dc:creator>
     <cc:Agent>
      <dc:title>Matplotlib v3.5.1, https://matplotlib.org/</dc:title>
     </cc:Agent>
    </dc:creator>
   </cc:Work>
  </rdf:RDF>
 </metadata>
 <defs>
  <style type="text/css">*{stroke-linejoin: round; stroke-linecap: butt}</style>
 </defs>
 <g id="figure_1">
  <g id="patch_1">
   <path d="M 0 480.433125 
L 871.13625 480.433125 
L 871.13625 0 
L 0 0 
L 0 480.433125 
z
" style="fill: none"/>
  </g>
  <g id="axes_1">
   <g id="patch_2">
    <path d="M 82.73625 411.95625 
L 863.93625 411.95625 
L 863.93625 31.43625 
L 82.73625 31.43625 
z
" style="fill: #ffffff"/>
   </g>
   <g id="patch_3">
    <path d="M 118.245341 111847.349498 
L 125.347159 111847.349498 
L 125.347159 48.732614 
L 118.245341 48.732614 
z
" clip-path="url(#pa06104a7cc)" style="fill: #ff00ff"/>
   </g>
   <g id="patch_4">
    <path d="M 125.347159 111847.349498 
L 132.448977 111847.349498 
L 132.448977 111847.349498 
L 125.347159 111847.349498 
z
" clip-path="url(#pa06104a7cc)" style="fill: #ff00ff"/>
   </g>
   <g id="patch_5">
    <path d="M 132.448977 111847.349498 
L 139.550795 111847.349498 
L 139.550795 111847.349498 
L 132.448977 111847.349498 
z
" clip-path="url(#pa06104a7cc)" style="fill: #ff00ff"/>
   </g>
   <g id="patch_6">
    <path d="M 139.550795 111847.349498 
L 146.652614 111847.349498 
L 146.652614 111847.349498 
L 139.550795 111847.349498 
z
" clip-path="url(#pa06104a7cc)" style="fill: #ff00ff"/>
   </g>
   <g id="patch_7">
    <path d="M 146.652614 111847.349498 
L 153.754432 111847.349498 
L 153.754432 111847.349498 
L 146.652614 111847.349498 
z
" clip-path="url(#pa06104a7cc)" style="fill: #ff00ff"/>
   </g>
   <g id="patch_8">
    <path d="M 153.754432 111847.349498 
L 160.85625 111847.349498 
L 160.85625 111847.349498 
L 153.754432 111847.349498 
z
" clip-path="url(#pa06104a7cc)" style="fill: #ff00ff"/>
   </g>
   <g id="patch_9">
    <path d="M 160.85625 111847.349498 
L 167.958068 111847.349498 
L 167.958068 111847.349498 
L 160.85625 111847.349498 
z
" clip-path="url(#pa06104a7cc)" style="fill: #ff00ff"/>
   </g>
   <g id="patch_10">
    <path d="M 167.958068 111847.349498 
L 175.059886 111847.349498 
L 175.059886 111847.349498 
L 167.958068 111847.349498 
z
" clip-path="url(#pa06104a7cc)" style="fill: #ff00ff"/>
   </g>
   <g id="patch_11">
    <path d="M 175.059886 111847.349498 
L 182.161705 111847.349498 
L 182.161705 111847.349498 
L 175.059886 111847.349498 
z
" clip-path="url(#pa06104a7cc)" style="fill: #ff00ff"/>
   </g>
   <g id="patch_12">
    <path d="M 182.161705 111847.349498 
L 189.263523 111847.349498 
L 189.263523 111847.349498 
L 182.161705 111847.349498 
z
" clip-path="url(#pa06104a7cc)" style="fill: #ff00ff"/>
   </g>
   <g id="patch_13">
    <path d="M 189.263523 111847.349498 
L 196.365341 111847.349498 
L 196.365341 111847.349498 
L 189.263523 111847.349498 
z
" clip-path="url(#pa06104a7cc)" style="fill: #ff00ff"/>
   </g>
   <g id="patch_14">
    <path d="M 196.365341 111847.349498 
L 203.467159 111847.349498 
L 203.467159 111847.349498 
L 196.365341 111847.349498 
z
" clip-path="url(#pa06104a7cc)" style="fill: #ff00ff"/>
   </g>
   <g id="patch_15">
    <path d="M 203.467159 111847.349498 
L 210.568977 111847.349498 
L 210.568977 132.074468 
L 203.467159 132.074468 
z
" clip-path="url(#pa06104a7cc)" style="fill: #ff00ff"/>
   </g>
   <g id="patch_16">
    <path d="M 210.568977 111847.349498 
L 217.670795 111847.349498 
L 217.670795 111847.349498 
L 210.568977 111847.349498 
z
" clip-path="url(#pa06104a7cc)" style="fill: #ff00ff"/>
   </g>
   <g id="patch_17">
    <path d="M 217.670795 111847.349498 
L 224.772614 111847.349498 
L 224.772614 111847.349498 
L 217.670795 111847.349498 
z
" clip-path="url(#pa06104a7cc)" style="fill: #ff00ff"/>
   </g>
   <g id="patch_18">
    <path d="M 224.772614 111847.349498 
L 231.874432 111847.349498 
L 231.874432 111847.349498 
L 224.772614 111847.349498 
z
" clip-path="url(#pa06104a7cc)" style="fill: #ff00ff"/>
   </g>
   <g id="patch_19">
    <path d="M 231.874432 111847.349498 
L 238.97625 111847.349498 
L 238.97625 111847.349498 
L 231.874432 111847.349498 
z
" clip-path="url(#pa06104a7cc)" style="fill: #ff00ff"/>
   </g>
   <g id="patch_20">
    <path d="M 238.97625 111847.349498 
L 246.078068 111847.349498 
L 246.078068 111847.349498 
L 238.97625 111847.349498 
z
" clip-path="url(#pa06104a7cc)" style="fill: #ff00ff"/>
   </g>
   <g id="patch_21">
    <path d="M 246.078068 111847.349498 
L 253.179886 111847.349498 
L 253.179886 111847.349498 
L 246.078068 111847.349498 
z
" clip-path="url(#pa06104a7cc)" style="fill: #ff00ff"/>
   </g>
   <g id="patch_22">
    <path d="M 253.179886 111847.349498 
L 260.281705 111847.349498 
L 260.281705 228.443614 
L 253.179886 228.443614 
z
" clip-path="url(#pa06104a7cc)" style="fill: #ff00ff"/>
   </g>
   <g id="patch_23">
    <path d="M 260.281705 111847.349498 
L 267.383523 111847.349498 
L 267.383523 111847.349498 
L 260.281705 111847.349498 
z
" clip-path="url(#pa06104a7cc)" style="fill: #ff00ff"/>
   </g>
   <g id="patch_24">
    <path d="M 267.383523 111847.349498 
L 274.485341 111847.349498 
L 274.485341 111847.349498 
L 267.383523 111847.349498 
z
" clip-path="url(#pa06104a7cc)" style="fill: #ff00ff"/>
   </g>
   <g id="patch_25">
    <path d="M 274.485341 111847.349498 
L 281.587159 111847.349498 
L 281.587159 111847.349498 
L 274.485341 111847.349498 
z
" clip-path="url(#pa06104a7cc)" style="fill: #ff00ff"/>
   </g>
   <g id="patch_26">
    <path d="M 281.587159 111847.349498 
L 288.688977 111847.349498 
L 288.688977 111847.349498 
L 281.587159 111847.349498 
z
" clip-path="url(#pa06104a7cc)" style="fill: #ff00ff"/>
   </g>
   <g id="patch_27">
    <path d="M 288.688977 111847.349498 
L 295.790795 111847.349498 
L 295.790795 263.581352 
L 288.688977 263.581352 
z
" clip-path="url(#pa06104a7cc)" style="fill: #ff00ff"/>
   </g>
   <g id="patch_28">
    <path d="M 295.790795 111847.349498 
L 302.892614 111847.349498 
L 302.892614 111847.349498 
L 295.790795 111847.349498 
z
" clip-path="url(#pa06104a7cc)" style="fill: #ff00ff"/>
   </g>
   <g id="patch_29">
    <path d="M 302.892614 111847.349498 
L 309.994432 111847.349498 
L 309.994432 111847.349498 
L 302.892614 111847.349498 
z
" clip-path="url(#pa06104a7cc)" style="fill: #ff00ff"/>
   </g>
   <g id="patch_30">
    <path d="M 309.994432 111847.349498 
L 317.09625 111847.349498 
L 317.09625 111847.349498 
L 309.994432 111847.349498 
z
" clip-path="url(#pa06104a7cc)" style="fill: #ff00ff"/>
   </g>
   <g id="patch_31">
    <path d="M 317.09625 111847.349498 
L 324.198068 111847.349498 
L 324.198068 327.558681 
L 317.09625 327.558681 
z
" clip-path="url(#pa06104a7cc)" style="fill: #ff00ff"/>
   </g>
   <g id="patch_32">
    <path d="M 324.198068 111847.349498 
L 331.299886 111847.349498 
L 331.299886 111847.349498 
L 324.198068 111847.349498 
z
" clip-path="url(#pa06104a7cc)" style="fill: #ff00ff"/>
   </g>
   <g id="patch_33">
    <path d="M 331.299886 111847.349498 
L 338.401705 111847.349498 
L 338.401705 111847.349498 
L 331.299886 111847.349498 
z
" clip-path="url(#pa06104a7cc)" style="fill: #ff00ff"/>
   </g>
   <g id="patch_34">
    <path d="M 338.401705 111847.349498 
L 345.503523 111847.349498 
L 345.503523 394.659886 
L 338.401705 394.659886 
z
" clip-path="url(#pa06104a7cc)" style="fill: #ff00ff"/>
   </g>
   <g id="patch_35">
    <path d="M 345.503523 111847.349498 
L 352.605341 111847.349498 
L 352.605341 111847.349498 
L 345.503523 111847.349498 
z
" clip-path="url(#pa06104a7cc)" style="fill: #ff00ff"/>
   </g>
   <g id="patch_36">
    <path d="M 352.605341 111847.349498 
L 359.707159 111847.349498 
L 359.707159 111847.349498 
L 352.605341 111847.349498 
z
" clip-path="url(#pa06104a7cc)" style="fill: #ff00ff"/>
   </g>
   <g id="patch_37">
    <path d="M 359.707159 111847.349498 
L 366.808977 111847.349498 
L 366.808977 111847.349498 
L 359.707159 111847.349498 
z
" clip-path="url(#pa06104a7cc)" style="fill: #ff00ff"/>
   </g>
   <g id="patch_38">
    <path d="M 366.808977 111847.349498 
L 373.910795 111847.349498 
L 373.910795 111847.349498 
L 366.808977 111847.349498 
z
" clip-path="url(#pa06104a7cc)" style="fill: #ff00ff"/>
   </g>
   <g id="patch_39">
    <path d="M 373.910795 111847.349498 
L 381.012614 111847.349498 
L 381.012614 111847.349498 
L 373.910795 111847.349498 
z
" clip-path="url(#pa06104a7cc)" style="fill: #ff00ff"/>
   </g>
   <g id="patch_40">
    <path d="M 381.012614 111847.349498 
L 388.114432 111847.349498 
L 388.114432 111847.349498 
L 381.012614 111847.349498 
z
" clip-path="url(#pa06104a7cc)" style="fill: #ff00ff"/>
   </g>
   <g id="patch_41">
    <path d="M 388.114432 111847.349498 
L 395.21625 111847.349498 
L 395.21625 394.659886 
L 388.114432 394.659886 
z
" clip-path="url(#pa06104a7cc)" style="fill: #ff00ff"/>
   </g>
   <g id="patch_42">
    <path d="M 395.21625 111847.349498 
L 402.318068 111847.349498 
L 402.318068 111847.349498 
L 395.21625 111847.349498 
z
" clip-path="url(#pa06104a7cc)" style="fill: #ff00ff"/>
   </g>
   <g id="patch_43">
    <path d="M 402.318068 111847.349498 
L 409.419886 111847.349498 
L 409.419886 111847.349498 
L 402.318068 111847.349498 
z
" clip-path="url(#pa06104a7cc)" style="fill: #ff00ff"/>
   </g>
   <g id="patch_44">
    <path d="M 409.419886 111847.349498 
L 416.521705 111847.349498 
L 416.521705 111847.349498 
L 409.419886 111847.349498 
z
" clip-path="url(#pa06104a7cc)" style="fill: #ff00ff"/>
   </g>
   <g id="patch_45">
    <path d="M 416.521705 111847.349498 
L 423.623523 111847.349498 
L 423.623523 111847.349498 
L 416.521705 111847.349498 
z
" clip-path="url(#pa06104a7cc)" style="fill: #ff00ff"/>
   </g>
   <g id="patch_46">
    <path d="M 423.623523 111847.349498 
L 430.725341 111847.349498 
L 430.725341 111847.349498 
L 423.623523 111847.349498 
z
" clip-path="url(#pa06104a7cc)" style="fill: #ff00ff"/>
   </g>
   <g id="patch_47">
    <path d="M 430.725341 111847.349498 
L 437.827159 111847.349498 
L 437.827159 111847.349498 
L 430.725341 111847.349498 
z
" clip-path="url(#pa06104a7cc)" style="fill: #ff00ff"/>
   </g>
   <g id="patch_48">
    <path d="M 437.827159 111847.349498 
L 444.928977 111847.349498 
L 444.928977 111847.349498 
L 437.827159 111847.349498 
z
" clip-path="url(#pa06104a7cc)" style="fill: #ff00ff"/>
   </g>
   <g id="patch_49">
    <path d="M 444.928977 111847.349498 
L 452.030795 111847.349498 
L 452.030795 111847.349498 
L 444.928977 111847.349498 
z
" clip-path="url(#pa06104a7cc)" style="fill: #ff00ff"/>
   </g>
   <g id="patch_50">
    <path d="M 452.030795 111847.349498 
L 459.132614 111847.349498 
L 459.132614 111847.349498 
L 452.030795 111847.349498 
z
" clip-path="url(#pa06104a7cc)" style="fill: #ff00ff"/>
   </g>
   <g id="patch_51">
    <path d="M 459.132614 111847.349498 
L 466.234432 111847.349498 
L 466.234432 111847.349498 
L 459.132614 111847.349498 
z
" clip-path="url(#pa06104a7cc)" style="fill: #ff00ff"/>
   </g>
   <g id="patch_52">
    <path d="M 466.234432 111847.349498 
L 473.33625 111847.349498 
L 473.33625 111847.349498 
L 466.234432 111847.349498 
z
" clip-path="url(#pa06104a7cc)" style="fill: #ff00ff"/>
   </g>
   <g id="patch_53">
    <path d="M 473.33625 111847.349498 
L 480.438068 111847.349498 
L 480.438068 111847.349498 
L 473.33625 111847.349498 
z
" clip-path="url(#pa06104a7cc)" style="fill: #ff00ff"/>
   </g>
   <g id="patch_54">
    <path d="M 480.438068 111847.349498 
L 487.539886 111847.349498 
L 487.539886 111847.349498 
L 480.438068 111847.349498 
z
" clip-path="url(#pa06104a7cc)" style="fill: #ff00ff"/>
   </g>
   <g id="patch_55">
    <path d="M 487.539886 111847.349498 
L 494.641705 111847.349498 
L 494.641705 111847.349498 
L 487.539886 111847.349498 
z
" clip-path="url(#pa06104a7cc)" style="fill: #ff00ff"/>
   </g>
   <g id="patch_56">
    <path d="M 494.641705 111847.349498 
L 501.743523 111847.349498 
L 501.743523 111847.349498 
L 494.641705 111847.349498 
z
" clip-path="url(#pa06104a7cc)" style="fill: #ff00ff"/>
   </g>
   <g id="patch_57">
    <path d="M 501.743523 111847.349498 
L 508.845341 111847.349498 
L 508.845341 111847.349498 
L 501.743523 111847.349498 
z
" clip-path="url(#pa06104a7cc)" style="fill: #ff00ff"/>
   </g>
   <g id="patch_58">
    <path d="M 508.845341 111847.349498 
L 515.947159 111847.349498 
L 515.947159 111847.349498 
L 508.845341 111847.349498 
z
" clip-path="url(#pa06104a7cc)" style="fill: #ff00ff"/>
   </g>
   <g id="patch_59">
    <path d="M 515.947159 111847.349498 
L 523.048977 111847.349498 
L 523.048977 111847.349498 
L 515.947159 111847.349498 
z
" clip-path="url(#pa06104a7cc)" style="fill: #ff00ff"/>
   </g>
   <g id="patch_60">
    <path d="M 523.048977 111847.349498 
L 530.150795 111847.349498 
L 530.150795 111847.349498 
L 523.048977 111847.349498 
z
" clip-path="url(#pa06104a7cc)" style="fill: #ff00ff"/>
   </g>
   <g id="patch_61">
    <path d="M 530.150795 111847.349498 
L 537.252614 111847.349498 
L 537.252614 111847.349498 
L 530.150795 111847.349498 
z
" clip-path="url(#pa06104a7cc)" style="fill: #ff00ff"/>
   </g>
   <g id="patch_62">
    <path d="M 537.252614 111847.349498 
L 544.354432 111847.349498 
L 544.354432 111847.349498 
L 537.252614 111847.349498 
z
" clip-path="url(#pa06104a7cc)" style="fill: #ff00ff"/>
   </g>
   <g id="patch_63">
    <path d="M 544.354432 111847.349498 
L 551.45625 111847.349498 
L 551.45625 111847.349498 
L 544.354432 111847.349498 
z
" clip-path="url(#pa06104a7cc)" style="fill: #ff00ff"/>
   </g>
   <g id="patch_64">
    <path d="M 551.45625 111847.349498 
L 558.558068 111847.349498 
L 558.558068 111847.349498 
L 551.45625 111847.349498 
z
" clip-path="url(#pa06104a7cc)" style="fill: #ff00ff"/>
   </g>
   <g id="patch_65">
    <path d="M 558.558068 111847.349498 
L 565.659886 111847.349498 
L 565.659886 111847.349498 
L 558.558068 111847.349498 
z
" clip-path="url(#pa06104a7cc)" style="fill: #ff00ff"/>
   </g>
   <g id="patch_66">
    <path d="M 565.659886 111847.349498 
L 572.761705 111847.349498 
L 572.761705 111847.349498 
L 565.659886 111847.349498 
z
" clip-path="url(#pa06104a7cc)" style="fill: #ff00ff"/>
   </g>
   <g id="patch_67">
    <path d="M 572.761705 111847.349498 
L 579.863523 111847.349498 
L 579.863523 111847.349498 
L 572.761705 111847.349498 
z
" clip-path="url(#pa06104a7cc)" style="fill: #ff00ff"/>
   </g>
   <g id="patch_68">
    <path d="M 579.863523 111847.349498 
L 586.965341 111847.349498 
L 586.965341 111847.349498 
L 579.863523 111847.349498 
z
" clip-path="url(#pa06104a7cc)" style="fill: #ff00ff"/>
   </g>
   <g id="patch_69">
    <path d="M 586.965341 111847.349498 
L 594.067159 111847.349498 
L 594.067159 111847.349498 
L 586.965341 111847.349498 
z
" clip-path="url(#pa06104a7cc)" style="fill: #ff00ff"/>
   </g>
   <g id="patch_70">
    <path d="M 594.067159 111847.349498 
L 601.168977 111847.349498 
L 601.168977 111847.349498 
L 594.067159 111847.349498 
z
" clip-path="url(#pa06104a7cc)" style="fill: #ff00ff"/>
   </g>
   <g id="patch_71">
    <path d="M 601.168977 111847.349498 
L 608.270795 111847.349498 
L 608.270795 111847.349498 
L 601.168977 111847.349498 
z
" clip-path="url(#pa06104a7cc)" style="fill: #ff00ff"/>
   </g>
   <g id="patch_72">
    <path d="M 608.270795 111847.349498 
L 615.372614 111847.349498 
L 615.372614 111847.349498 
L 608.270795 111847.349498 
z
" clip-path="url(#pa06104a7cc)" style="fill: #ff00ff"/>
   </g>
   <g id="patch_73">
    <path d="M 615.372614 111847.349498 
L 622.474432 111847.349498 
L 622.474432 111847.349498 
L 615.372614 111847.349498 
z
" clip-path="url(#pa06104a7cc)" style="fill: #ff00ff"/>
   </g>
   <g id="patch_74">
    <path d="M 622.474432 111847.349498 
L 629.57625 111847.349498 
L 629.57625 111847.349498 
L 622.474432 111847.349498 
z
" clip-path="url(#pa06104a7cc)" style="fill: #ff00ff"/>
   </g>
   <g id="patch_75">
    <path d="M 629.57625 111847.349498 
L 636.678068 111847.349498 
L 636.678068 111847.349498 
L 629.57625 111847.349498 
z
" clip-path="url(#pa06104a7cc)" style="fill: #ff00ff"/>
   </g>
   <g id="patch_76">
    <path d="M 636.678068 111847.349498 
L 643.779886 111847.349498 
L 643.779886 111847.349498 
L 636.678068 111847.349498 
z
" clip-path="url(#pa06104a7cc)" style="fill: #ff00ff"/>
   </g>
   <g id="patch_77">
    <path d="M 643.779886 111847.349498 
L 650.881705 111847.349498 
L 650.881705 111847.349498 
L 643.779886 111847.349498 
z
" clip-path="url(#pa06104a7cc)" style="fill: #ff00ff"/>
   </g>
   <g id="patch_78">
    <path d="M 650.881705 111847.349498 
L 657.983523 111847.349498 
L 657.983523 111847.349498 
L 650.881705 111847.349498 
z
" clip-path="url(#pa06104a7cc)" style="fill: #ff00ff"/>
   </g>
   <g id="patch_79">
    <path d="M 657.983523 111847.349498 
L 665.085341 111847.349498 
L 665.085341 111847.349498 
L 657.983523 111847.349498 
z
" clip-path="url(#pa06104a7cc)" style="fill: #ff00ff"/>
   </g>
   <g id="patch_80">
    <path d="M 665.085341 111847.349498 
L 672.187159 111847.349498 
L 672.187159 111847.349498 
L 665.085341 111847.349498 
z
" clip-path="url(#pa06104a7cc)" style="fill: #ff00ff"/>
   </g>
   <g id="patch_81">
    <path d="M 672.187159 111847.349498 
L 679.288977 111847.349498 
L 679.288977 111847.349498 
L 672.187159 111847.349498 
z
" clip-path="url(#pa06104a7cc)" style="fill: #ff00ff"/>
   </g>
   <g id="patch_82">
    <path d="M 679.288977 111847.349498 
L 686.390795 111847.349498 
L 686.390795 111847.349498 
L 679.288977 111847.349498 
z
" clip-path="url(#pa06104a7cc)" style="fill: #ff00ff"/>
   </g>
   <g id="patch_83">
    <path d="M 686.390795 111847.349498 
L 693.492614 111847.349498 
L 693.492614 111847.349498 
L 686.390795 111847.349498 
z
" clip-path="url(#pa06104a7cc)" style="fill: #ff00ff"/>
   </g>
   <g id="patch_84">
    <path d="M 693.492614 111847.349498 
L 700.594432 111847.349498 
L 700.594432 111847.349498 
L 693.492614 111847.349498 
z
" clip-path="url(#pa06104a7cc)" style="fill: #ff00ff"/>
   </g>
   <g id="patch_85">
    <path d="M 700.594432 111847.349498 
L 707.69625 111847.349498 
L 707.69625 111847.349498 
L 700.594432 111847.349498 
z
" clip-path="url(#pa06104a7cc)" style="fill: #ff00ff"/>
   </g>
   <g id="patch_86">
    <path d="M 707.69625 111847.349498 
L 714.798068 111847.349498 
L 714.798068 111847.349498 
L 707.69625 111847.349498 
z
" clip-path="url(#pa06104a7cc)" style="fill: #ff00ff"/>
   </g>
   <g id="patch_87">
    <path d="M 714.798068 111847.349498 
L 721.899886 111847.349498 
L 721.899886 111847.349498 
L 714.798068 111847.349498 
z
" clip-path="url(#pa06104a7cc)" style="fill: #ff00ff"/>
   </g>
   <g id="patch_88">
    <path d="M 721.899886 111847.349498 
L 729.001705 111847.349498 
L 729.001705 394.659886 
L 721.899886 394.659886 
z
" clip-path="url(#pa06104a7cc)" style="fill: #ff00ff"/>
   </g>
   <g id="patch_89">
    <path d="M 729.001705 111847.349498 
L 736.103523 111847.349498 
L 736.103523 111847.349498 
L 729.001705 111847.349498 
z
" clip-path="url(#pa06104a7cc)" style="fill: #ff00ff"/>
   </g>
   <g id="patch_90">
    <path d="M 736.103523 111847.349498 
L 743.205341 111847.349498 
L 743.205341 111847.349498 
L 736.103523 111847.349498 
z
" clip-path="url(#pa06104a7cc)" style="fill: #ff00ff"/>
   </g>
   <g id="patch_91">
    <path d="M 743.205341 111847.349498 
L 750.307159 111847.349498 
L 750.307159 111847.349498 
L 743.205341 111847.349498 
z
" clip-path="url(#pa06104a7cc)" style="fill: #ff00ff"/>
   </g>
   <g id="patch_92">
    <path d="M 750.307159 111847.349498 
L 757.408977 111847.349498 
L 757.408977 111847.349498 
L 750.307159 111847.349498 
z
" clip-path="url(#pa06104a7cc)" style="fill: #ff00ff"/>
   </g>
   <g id="patch_93">
    <path d="M 757.408977 111847.349498 
L 764.510795 111847.349498 
L 764.510795 111847.349498 
L 757.408977 111847.349498 
z
" clip-path="url(#pa06104a7cc)" style="fill: #ff00ff"/>
   </g>
   <g id="patch_94">
    <path d="M 764.510795 111847.349498 
L 771.612614 111847.349498 
L 771.612614 111847.349498 
L 764.510795 111847.349498 
z
" clip-path="url(#pa06104a7cc)" style="fill: #ff00ff"/>
   </g>
   <g id="patch_95">
    <path d="M 771.612614 111847.349498 
L 778.714432 111847.349498 
L 778.714432 111847.349498 
L 771.612614 111847.349498 
z
" clip-path="url(#pa06104a7cc)" style="fill: #ff00ff"/>
   </g>
   <g id="patch_96">
    <path d="M 778.714432 111847.349498 
L 785.81625 111847.349498 
L 785.81625 111847.349498 
L 778.714432 111847.349498 
z
" clip-path="url(#pa06104a7cc)" style="fill: #ff00ff"/>
   </g>
   <g id="patch_97">
    <path d="M 785.81625 111847.349498 
L 792.918068 111847.349498 
L 792.918068 111847.349498 
L 785.81625 111847.349498 
z
" clip-path="url(#pa06104a7cc)" style="fill: #ff00ff"/>
   </g>
   <g id="patch_98">
    <path d="M 792.918068 111847.349498 
L 800.019886 111847.349498 
L 800.019886 111847.349498 
L 792.918068 111847.349498 
z
" clip-path="url(#pa06104a7cc)" style="fill: #ff00ff"/>
   </g>
   <g id="patch_99">
    <path d="M 800.019886 111847.349498 
L 807.121705 111847.349498 
L 807.121705 111847.349498 
L 800.019886 111847.349498 
z
" clip-path="url(#pa06104a7cc)" style="fill: #ff00ff"/>
   </g>
   <g id="patch_100">
    <path d="M 807.121705 111847.349498 
L 814.223523 111847.349498 
L 814.223523 394.659886 
L 807.121705 394.659886 
z
" clip-path="url(#pa06104a7cc)" style="fill: #ff00ff"/>
   </g>
   <g id="patch_101">
    <path d="M 814.223523 111847.349498 
L 821.325341 111847.349498 
L 821.325341 111847.349498 
L 814.223523 111847.349498 
z
" clip-path="url(#pa06104a7cc)" style="fill: #ff00ff"/>
   </g>
   <g id="patch_102">
    <path d="M 821.325341 111847.349498 
L 828.427159 111847.349498 
L 828.427159 394.659886 
L 821.325341 394.659886 
z
" clip-path="url(#pa06104a7cc)" style="fill: #ff00ff"/>
   </g>
   <g id="matplotlib.axis_1">
    <g id="xtick_1">
     <g id="line2d_1">
      <path d="M 118.245341 411.95625 
L 118.245341 31.43625 
" clip-path="url(#pa06104a7cc)" style="fill: none; stroke-dasharray: 2.96,1.28; stroke-dashoffset: 0; stroke: #b0b0b0; stroke-width: 0.8"/>
     </g>
     <g id="line2d_2">
      <defs>
       <path id="m13f4e096bc" d="M 0 0 
L 0 17 
" style="stroke: #000000; stroke-width: 0.8"/>
      </defs>
      <g>
       <use xlink:href="#m13f4e096bc" x="118.245341" y="411.95625" style="stroke: #000000; stroke-width: 0.8"/>
      </g>
     </g>
     <g id="text_1">
      <!-- $\mathdefault{10^{0}}$ -->
      <g transform="translate(102.405341 446.133437)scale(0.18 -0.18)">
       <defs>
        <path id="DejaVuSans-31" d="M 794 531 
L 1825 531 
L 1825 4091 
L 703 3866 
L 703 4441 
L 1819 4666 
L 2450 4666 
L 2450 531 
L 3481 531 
L 3481 0 
L 794 0 
L 794 531 
z
" transform="scale(0.015625)"/>
        <path id="DejaVuSans-30" d="M 2034 4250 
Q 1547 4250 1301 3770 
Q 1056 3291 1056 2328 
Q 1056 1369 1301 889 
Q 1547 409 2034 409 
Q 2525 409 2770 889 
Q 3016 1369 3016 2328 
Q 3016 3291 2770 3770 
Q 2525 4250 2034 4250 
z
M 2034 4750 
Q 2819 4750 3233 4129 
Q 3647 3509 3647 2328 
Q 3647 1150 3233 529 
Q 2819 -91 2034 -91 
Q 1250 -91 836 529 
Q 422 1150 422 2328 
Q 422 3509 836 4129 
Q 1250 4750 2034 4750 
z
" transform="scale(0.015625)"/>
       </defs>
       <use xlink:href="#DejaVuSans-31" transform="translate(0 0.765625)"/>
       <use xlink:href="#DejaVuSans-30" transform="translate(63.623047 0.765625)"/>
       <use xlink:href="#DejaVuSans-30" transform="translate(128.203125 39.046875)scale(0.7)"/>
      </g>
     </g>
    </g>
    <g id="xtick_2">
     <g id="line2d_3">
      <path d="M 408.452107 411.95625 
L 408.452107 31.43625 
" clip-path="url(#pa06104a7cc)" style="fill: none; stroke-dasharray: 2.96,1.28; stroke-dashoffset: 0; stroke: #b0b0b0; stroke-width: 0.8"/>
     </g>
     <g id="line2d_4">
      <g>
       <use xlink:href="#m13f4e096bc" x="408.452107" y="411.95625" style="stroke: #000000; stroke-width: 0.8"/>
      </g>
     </g>
     <g id="text_2">
      <!-- $\mathdefault{10^{1}}$ -->
      <g transform="translate(392.612107 446.133437)scale(0.18 -0.18)">
       <use xlink:href="#DejaVuSans-31" transform="translate(0 0.684375)"/>
       <use xlink:href="#DejaVuSans-30" transform="translate(63.623047 0.684375)"/>
       <use xlink:href="#DejaVuSans-31" transform="translate(128.203125 38.965625)scale(0.7)"/>
      </g>
     </g>
    </g>
    <g id="xtick_3">
     <g id="line2d_5">
      <path d="M 698.658873 411.95625 
L 698.658873 31.43625 
" clip-path="url(#pa06104a7cc)" style="fill: none; stroke-dasharray: 2.96,1.28; stroke-dashoffset: 0; stroke: #b0b0b0; stroke-width: 0.8"/>
     </g>
     <g id="line2d_6">
      <g>
       <use xlink:href="#m13f4e096bc" x="698.658873" y="411.95625" style="stroke: #000000; stroke-width: 0.8"/>
      </g>
     </g>
     <g id="text_3">
      <!-- $\mathdefault{10^{2}}$ -->
      <g transform="translate(682.818873 446.133437)scale(0.18 -0.18)">
       <defs>
        <path id="DejaVuSans-32" d="M 1228 531 
L 3431 531 
L 3431 0 
L 469 0 
L 469 531 
Q 828 903 1448 1529 
Q 2069 2156 2228 2338 
Q 2531 2678 2651 2914 
Q 2772 3150 2772 3378 
Q 2772 3750 2511 3984 
Q 2250 4219 1831 4219 
Q 1534 4219 1204 4116 
Q 875 4013 500 3803 
L 500 4441 
Q 881 4594 1212 4672 
Q 1544 4750 1819 4750 
Q 2544 4750 2975 4387 
Q 3406 4025 3406 3419 
Q 3406 3131 3298 2873 
Q 3191 2616 2906 2266 
Q 2828 2175 2409 1742 
Q 1991 1309 1228 531 
z
" transform="scale(0.015625)"/>
       </defs>
       <use xlink:href="#DejaVuSans-31" transform="translate(0 0.765625)"/>
       <use xlink:href="#DejaVuSans-30" transform="translate(63.623047 0.765625)"/>
       <use xlink:href="#DejaVuSans-32" transform="translate(128.203125 39.046875)scale(0.7)"/>
      </g>
     </g>
    </g>
    <g id="xtick_4">
     <g id="line2d_7">
      <defs>
       <path id="m8f0b4f6dc9" d="M 0 0 
L 0 7 
" style="stroke: #000000; stroke-width: 0.6"/>
      </defs>
      <g>
       <use xlink:href="#m8f0b4f6dc9" x="90.121399" y="411.95625" style="stroke: #000000; stroke-width: 0.6"/>
      </g>
     </g>
    </g>
    <g id="xtick_5">
     <g id="line2d_8">
      <g>
       <use xlink:href="#m8f0b4f6dc9" x="104.966208" y="411.95625" style="stroke: #000000; stroke-width: 0.6"/>
      </g>
     </g>
    </g>
    <g id="xtick_6">
     <g id="line2d_9">
      <g>
       <use xlink:href="#m8f0b4f6dc9" x="205.606282" y="411.95625" style="stroke: #000000; stroke-width: 0.6"/>
      </g>
     </g>
    </g>
    <g id="xtick_7">
     <g id="line2d_10">
      <g>
       <use xlink:href="#m8f0b4f6dc9" x="256.709157" y="411.95625" style="stroke: #000000; stroke-width: 0.6"/>
      </g>
     </g>
    </g>
    <g id="xtick_8">
     <g id="line2d_11">
      <g>
       <use xlink:href="#m8f0b4f6dc9" x="292.967224" y="411.95625" style="stroke: #000000; stroke-width: 0.6"/>
      </g>
     </g>
    </g>
    <g id="xtick_9">
     <g id="line2d_12">
      <g>
       <use xlink:href="#m8f0b4f6dc9" x="321.091165" y="411.95625" style="stroke: #000000; stroke-width: 0.6"/>
      </g>
     </g>
    </g>
    <g id="xtick_10">
     <g id="line2d_13">
      <g>
       <use xlink:href="#m8f0b4f6dc9" x="344.070099" y="411.95625" style="stroke: #000000; stroke-width: 0.6"/>
      </g>
     </g>
    </g>
    <g id="xtick_11">
     <g id="line2d_14">
      <g>
       <use xlink:href="#m8f0b4f6dc9" x="363.49851" y="411.95625" style="stroke: #000000; stroke-width: 0.6"/>
      </g>
     </g>
    </g>
    <g id="xtick_12">
     <g id="line2d_15">
      <g>
       <use xlink:href="#m8f0b4f6dc9" x="380.328165" y="411.95625" style="stroke: #000000; stroke-width: 0.6"/>
      </g>
     </g>
    </g>
    <g id="xtick_13">
     <g id="line2d_16">
      <g>
       <use xlink:href="#m8f0b4f6dc9" x="395.172974" y="411.95625" style="stroke: #000000; stroke-width: 0.6"/>
      </g>
     </g>
    </g>
    <g id="xtick_14">
     <g id="line2d_17">
      <g>
       <use xlink:href="#m8f0b4f6dc9" x="495.813048" y="411.95625" style="stroke: #000000; stroke-width: 0.6"/>
      </g>
     </g>
    </g>
    <g id="xtick_15">
     <g id="line2d_18">
      <g>
       <use xlink:href="#m8f0b4f6dc9" x="546.915923" y="411.95625" style="stroke: #000000; stroke-width: 0.6"/>
      </g>
     </g>
    </g>
    <g id="xtick_16">
     <g id="line2d_19">
      <g>
       <use xlink:href="#m8f0b4f6dc9" x="583.17399" y="411.95625" style="stroke: #000000; stroke-width: 0.6"/>
      </g>
     </g>
    </g>
    <g id="xtick_17">
     <g id="line2d_20">
      <g>
       <use xlink:href="#m8f0b4f6dc9" x="611.297931" y="411.95625" style="stroke: #000000; stroke-width: 0.6"/>
      </g>
     </g>
    </g>
    <g id="xtick_18">
     <g id="line2d_21">
      <g>
       <use xlink:href="#m8f0b4f6dc9" x="634.276865" y="411.95625" style="stroke: #000000; stroke-width: 0.6"/>
      </g>
     </g>
    </g>
    <g id="xtick_19">
     <g id="line2d_22">
      <g>
       <use xlink:href="#m8f0b4f6dc9" x="653.705276" y="411.95625" style="stroke: #000000; stroke-width: 0.6"/>
      </g>
     </g>
    </g>
    <g id="xtick_20">
     <g id="line2d_23">
      <g>
       <use xlink:href="#m8f0b4f6dc9" x="670.534931" y="411.95625" style="stroke: #000000; stroke-width: 0.6"/>
      </g>
     </g>
    </g>
    <g id="xtick_21">
     <g id="line2d_24">
      <g>
       <use xlink:href="#m8f0b4f6dc9" x="685.37974" y="411.95625" style="stroke: #000000; stroke-width: 0.6"/>
      </g>
     </g>
    </g>
    <g id="xtick_22">
     <g id="line2d_25">
      <g>
       <use xlink:href="#m8f0b4f6dc9" x="786.019814" y="411.95625" style="stroke: #000000; stroke-width: 0.6"/>
      </g>
     </g>
    </g>
    <g id="xtick_23">
     <g id="line2d_26">
      <g>
       <use xlink:href="#m8f0b4f6dc9" x="837.122689" y="411.95625" style="stroke: #000000; stroke-width: 0.6"/>
      </g>
     </g>
    </g>
    <g id="text_4">
     <!-- InDegree -->
     <g transform="translate(427.655 469.07375)scale(0.2 -0.2)">
      <defs>
       <path id="DejaVuSans-49" d="M 628 4666 
L 1259 4666 
L 1259 0 
L 628 0 
L 628 4666 
z
" transform="scale(0.015625)"/>
       <path id="DejaVuSans-6e" d="M 3513 2113 
L 3513 0 
L 2938 0 
L 2938 2094 
Q 2938 2591 2744 2837 
Q 2550 3084 2163 3084 
Q 1697 3084 1428 2787 
Q 1159 2491 1159 1978 
L 1159 0 
L 581 0 
L 581 3500 
L 1159 3500 
L 1159 2956 
Q 1366 3272 1645 3428 
Q 1925 3584 2291 3584 
Q 2894 3584 3203 3211 
Q 3513 2838 3513 2113 
z
" transform="scale(0.015625)"/>
       <path id="DejaVuSans-44" d="M 1259 4147 
L 1259 519 
L 2022 519 
Q 2988 519 3436 956 
Q 3884 1394 3884 2338 
Q 3884 3275 3436 3711 
Q 2988 4147 2022 4147 
L 1259 4147 
z
M 628 4666 
L 1925 4666 
Q 3281 4666 3915 4102 
Q 4550 3538 4550 2338 
Q 4550 1131 3912 565 
Q 3275 0 1925 0 
L 628 0 
L 628 4666 
z
" transform="scale(0.015625)"/>
       <path id="DejaVuSans-65" d="M 3597 1894 
L 3597 1613 
L 953 1613 
Q 991 1019 1311 708 
Q 1631 397 2203 397 
Q 2534 397 2845 478 
Q 3156 559 3463 722 
L 3463 178 
Q 3153 47 2828 -22 
Q 2503 -91 2169 -91 
Q 1331 -91 842 396 
Q 353 884 353 1716 
Q 353 2575 817 3079 
Q 1281 3584 2069 3584 
Q 2775 3584 3186 3129 
Q 3597 2675 3597 1894 
z
M 3022 2063 
Q 3016 2534 2758 2815 
Q 2500 3097 2075 3097 
Q 1594 3097 1305 2825 
Q 1016 2553 972 2059 
L 3022 2063 
z
" transform="scale(0.015625)"/>
       <path id="DejaVuSans-67" d="M 2906 1791 
Q 2906 2416 2648 2759 
Q 2391 3103 1925 3103 
Q 1463 3103 1205 2759 
Q 947 2416 947 1791 
Q 947 1169 1205 825 
Q 1463 481 1925 481 
Q 2391 481 2648 825 
Q 2906 1169 2906 1791 
z
M 3481 434 
Q 3481 -459 3084 -895 
Q 2688 -1331 1869 -1331 
Q 1566 -1331 1297 -1286 
Q 1028 -1241 775 -1147 
L 775 -588 
Q 1028 -725 1275 -790 
Q 1522 -856 1778 -856 
Q 2344 -856 2625 -561 
Q 2906 -266 2906 331 
L 2906 616 
Q 2728 306 2450 153 
Q 2172 0 1784 0 
Q 1141 0 747 490 
Q 353 981 353 1791 
Q 353 2603 747 3093 
Q 1141 3584 1784 3584 
Q 2172 3584 2450 3431 
Q 2728 3278 2906 2969 
L 2906 3500 
L 3481 3500 
L 3481 434 
z
" transform="scale(0.015625)"/>
       <path id="DejaVuSans-72" d="M 2631 2963 
Q 2534 3019 2420 3045 
Q 2306 3072 2169 3072 
Q 1681 3072 1420 2755 
Q 1159 2438 1159 1844 
L 1159 0 
L 581 0 
L 581 3500 
L 1159 3500 
L 1159 2956 
Q 1341 3275 1631 3429 
Q 1922 3584 2338 3584 
Q 2397 3584 2469 3576 
Q 2541 3569 2628 3553 
L 2631 2963 
z
" transform="scale(0.015625)"/>
      </defs>
      <use xlink:href="#DejaVuSans-49"/>
      <use xlink:href="#DejaVuSans-6e" x="29.492188"/>
      <use xlink:href="#DejaVuSans-44" x="92.871094"/>
      <use xlink:href="#DejaVuSans-65" x="169.873047"/>
      <use xlink:href="#DejaVuSans-67" x="231.396484"/>
      <use xlink:href="#DejaVuSans-72" x="294.873047"/>
      <use xlink:href="#DejaVuSans-65" x="333.736328"/>
      <use xlink:href="#DejaVuSans-65" x="395.259766"/>
     </g>
    </g>
   </g>
   <g id="matplotlib.axis_2">
    <g id="ytick_1">
     <g id="line2d_27">
      <path d="M 82.73625 394.659886 
L 863.93625 394.659886 
" clip-path="url(#pa06104a7cc)" style="fill: none; stroke-dasharray: 2.96,1.28; stroke-dashoffset: 0; stroke: #b0b0b0; stroke-width: 0.8"/>
     </g>
     <g id="line2d_28">
      <defs>
       <path id="mf0a20e294d" d="M 0 0 
L -17 0 
" style="stroke: #000000; stroke-width: 0.8"/>
      </defs>
      <g>
       <use xlink:href="#mf0a20e294d" x="82.73625" y="394.659886" style="stroke: #000000; stroke-width: 0.8"/>
      </g>
     </g>
     <g id="text_5">
      <!-- $\mathdefault{10^{0}}$ -->
      <g transform="translate(30.55625 401.49848)scale(0.18 -0.18)">
       <use xlink:href="#DejaVuSans-31" transform="translate(0 0.765625)"/>
       <use xlink:href="#DejaVuSans-30" transform="translate(63.623047 0.765625)"/>
       <use xlink:href="#DejaVuSans-30" transform="translate(128.203125 39.046875)scale(0.7)"/>
      </g>
     </g>
    </g>
    <g id="ytick_2">
     <g id="line2d_29">
      <path d="M 82.73625 283.207197 
L 863.93625 283.207197 
" clip-path="url(#pa06104a7cc)" style="fill: none; stroke-dasharray: 2.96,1.28; stroke-dashoffset: 0; stroke: #b0b0b0; stroke-width: 0.8"/>
     </g>
     <g id="line2d_30">
      <g>
       <use xlink:href="#mf0a20e294d" x="82.73625" y="283.207197" style="stroke: #000000; stroke-width: 0.8"/>
      </g>
     </g>
     <g id="text_6">
      <!-- $\mathdefault{10^{1}}$ -->
      <g transform="translate(30.55625 290.045791)scale(0.18 -0.18)">
       <use xlink:href="#DejaVuSans-31" transform="translate(0 0.684375)"/>
       <use xlink:href="#DejaVuSans-30" transform="translate(63.623047 0.684375)"/>
       <use xlink:href="#DejaVuSans-31" transform="translate(128.203125 38.965625)scale(0.7)"/>
      </g>
     </g>
    </g>
    <g id="ytick_3">
     <g id="line2d_31">
      <path d="M 82.73625 171.754507 
L 863.93625 171.754507 
" clip-path="url(#pa06104a7cc)" style="fill: none; stroke-dasharray: 2.96,1.28; stroke-dashoffset: 0; stroke: #b0b0b0; stroke-width: 0.8"/>
     </g>
     <g id="line2d_32">
      <g>
       <use xlink:href="#mf0a20e294d" x="82.73625" y="171.754507" style="stroke: #000000; stroke-width: 0.8"/>
      </g>
     </g>
     <g id="text_7">
      <!-- $\mathdefault{10^{2}}$ -->
      <g transform="translate(30.55625 178.593101)scale(0.18 -0.18)">
       <use xlink:href="#DejaVuSans-31" transform="translate(0 0.765625)"/>
       <use xlink:href="#DejaVuSans-30" transform="translate(63.623047 0.765625)"/>
       <use xlink:href="#DejaVuSans-32" transform="translate(128.203125 39.046875)scale(0.7)"/>
      </g>
     </g>
    </g>
    <g id="ytick_4">
     <g id="line2d_33">
      <path d="M 82.73625 60.301818 
L 863.93625 60.301818 
" clip-path="url(#pa06104a7cc)" style="fill: none; stroke-dasharray: 2.96,1.28; stroke-dashoffset: 0; stroke: #b0b0b0; stroke-width: 0.8"/>
     </g>
     <g id="line2d_34">
      <g>
       <use xlink:href="#mf0a20e294d" x="82.73625" y="60.301818" style="stroke: #000000; stroke-width: 0.8"/>
      </g>
     </g>
     <g id="text_8">
      <!-- $\mathdefault{10^{3}}$ -->
      <g transform="translate(30.55625 67.140411)scale(0.18 -0.18)">
       <defs>
        <path id="DejaVuSans-33" d="M 2597 2516 
Q 3050 2419 3304 2112 
Q 3559 1806 3559 1356 
Q 3559 666 3084 287 
Q 2609 -91 1734 -91 
Q 1441 -91 1130 -33 
Q 819 25 488 141 
L 488 750 
Q 750 597 1062 519 
Q 1375 441 1716 441 
Q 2309 441 2620 675 
Q 2931 909 2931 1356 
Q 2931 1769 2642 2001 
Q 2353 2234 1838 2234 
L 1294 2234 
L 1294 2753 
L 1863 2753 
Q 2328 2753 2575 2939 
Q 2822 3125 2822 3475 
Q 2822 3834 2567 4026 
Q 2313 4219 1838 4219 
Q 1578 4219 1281 4162 
Q 984 4106 628 3988 
L 628 4550 
Q 988 4650 1302 4700 
Q 1616 4750 1894 4750 
Q 2613 4750 3031 4423 
Q 3450 4097 3450 3541 
Q 3450 3153 3228 2886 
Q 3006 2619 2597 2516 
z
" transform="scale(0.015625)"/>
       </defs>
       <use xlink:href="#DejaVuSans-31" transform="translate(0 0.765625)"/>
       <use xlink:href="#DejaVuSans-30" transform="translate(63.623047 0.765625)"/>
       <use xlink:href="#DejaVuSans-33" transform="translate(128.203125 39.046875)scale(0.7)"/>
      </g>
     </g>
    </g>
    <g id="ytick_5">
     <g id="line2d_35">
      <defs>
       <path id="mdd63279a7d" d="M 0 0 
L -7 0 
" style="stroke: #000000; stroke-width: 0.6"/>
      </defs>
      <g>
       <use xlink:href="#mdd63279a7d" x="82.73625" y="411.924126" style="stroke: #000000; stroke-width: 0.6"/>
      </g>
     </g>
    </g>
    <g id="ytick_6">
     <g id="line2d_36">
      <g>
       <use xlink:href="#mdd63279a7d" x="82.73625" y="405.460768" style="stroke: #000000; stroke-width: 0.6"/>
      </g>
     </g>
    </g>
    <g id="ytick_7">
     <g id="line2d_37">
      <g>
       <use xlink:href="#mdd63279a7d" x="82.73625" y="399.759682" style="stroke: #000000; stroke-width: 0.6"/>
      </g>
     </g>
    </g>
    <g id="ytick_8">
     <g id="line2d_38">
      <g>
       <use xlink:href="#mdd63279a7d" x="82.73625" y="361.109284" style="stroke: #000000; stroke-width: 0.6"/>
      </g>
     </g>
    </g>
    <g id="ytick_9">
     <g id="line2d_39">
      <g>
       <use xlink:href="#mdd63279a7d" x="82.73625" y="341.483439" style="stroke: #000000; stroke-width: 0.6"/>
      </g>
     </g>
    </g>
    <g id="ytick_10">
     <g id="line2d_40">
      <g>
       <use xlink:href="#mdd63279a7d" x="82.73625" y="327.558681" style="stroke: #000000; stroke-width: 0.6"/>
      </g>
     </g>
    </g>
    <g id="ytick_11">
     <g id="line2d_41">
      <g>
       <use xlink:href="#mdd63279a7d" x="82.73625" y="316.757799" style="stroke: #000000; stroke-width: 0.6"/>
      </g>
     </g>
    </g>
    <g id="ytick_12">
     <g id="line2d_42">
      <g>
       <use xlink:href="#mdd63279a7d" x="82.73625" y="307.932837" style="stroke: #000000; stroke-width: 0.6"/>
      </g>
     </g>
    </g>
    <g id="ytick_13">
     <g id="line2d_43">
      <g>
       <use xlink:href="#mdd63279a7d" x="82.73625" y="300.471437" style="stroke: #000000; stroke-width: 0.6"/>
      </g>
     </g>
    </g>
    <g id="ytick_14">
     <g id="line2d_44">
      <g>
       <use xlink:href="#mdd63279a7d" x="82.73625" y="294.008078" style="stroke: #000000; stroke-width: 0.6"/>
      </g>
     </g>
    </g>
    <g id="ytick_15">
     <g id="line2d_45">
      <g>
       <use xlink:href="#mdd63279a7d" x="82.73625" y="288.306992" style="stroke: #000000; stroke-width: 0.6"/>
      </g>
     </g>
    </g>
    <g id="ytick_16">
     <g id="line2d_46">
      <g>
       <use xlink:href="#mdd63279a7d" x="82.73625" y="249.656594" style="stroke: #000000; stroke-width: 0.6"/>
      </g>
     </g>
    </g>
    <g id="ytick_17">
     <g id="line2d_47">
      <g>
       <use xlink:href="#mdd63279a7d" x="82.73625" y="230.03075" style="stroke: #000000; stroke-width: 0.6"/>
      </g>
     </g>
    </g>
    <g id="ytick_18">
     <g id="line2d_48">
      <g>
       <use xlink:href="#mdd63279a7d" x="82.73625" y="216.105991" style="stroke: #000000; stroke-width: 0.6"/>
      </g>
     </g>
    </g>
    <g id="ytick_19">
     <g id="line2d_49">
      <g>
       <use xlink:href="#mdd63279a7d" x="82.73625" y="205.30511" style="stroke: #000000; stroke-width: 0.6"/>
      </g>
     </g>
    </g>
    <g id="ytick_20">
     <g id="line2d_50">
      <g>
       <use xlink:href="#mdd63279a7d" x="82.73625" y="196.480147" style="stroke: #000000; stroke-width: 0.6"/>
      </g>
     </g>
    </g>
    <g id="ytick_21">
     <g id="line2d_51">
      <g>
       <use xlink:href="#mdd63279a7d" x="82.73625" y="189.018747" style="stroke: #000000; stroke-width: 0.6"/>
      </g>
     </g>
    </g>
    <g id="ytick_22">
     <g id="line2d_52">
      <g>
       <use xlink:href="#mdd63279a7d" x="82.73625" y="182.555389" style="stroke: #000000; stroke-width: 0.6"/>
      </g>
     </g>
    </g>
    <g id="ytick_23">
     <g id="line2d_53">
      <g>
       <use xlink:href="#mdd63279a7d" x="82.73625" y="176.854303" style="stroke: #000000; stroke-width: 0.6"/>
      </g>
     </g>
    </g>
    <g id="ytick_24">
     <g id="line2d_54">
      <g>
       <use xlink:href="#mdd63279a7d" x="82.73625" y="138.203904" style="stroke: #000000; stroke-width: 0.6"/>
      </g>
     </g>
    </g>
    <g id="ytick_25">
     <g id="line2d_55">
      <g>
       <use xlink:href="#mdd63279a7d" x="82.73625" y="118.57806" style="stroke: #000000; stroke-width: 0.6"/>
      </g>
     </g>
    </g>
    <g id="ytick_26">
     <g id="line2d_56">
      <g>
       <use xlink:href="#mdd63279a7d" x="82.73625" y="104.653302" style="stroke: #000000; stroke-width: 0.6"/>
      </g>
     </g>
    </g>
    <g id="ytick_27">
     <g id="line2d_57">
      <g>
       <use xlink:href="#mdd63279a7d" x="82.73625" y="93.85242" style="stroke: #000000; stroke-width: 0.6"/>
      </g>
     </g>
    </g>
    <g id="ytick_28">
     <g id="line2d_58">
      <g>
       <use xlink:href="#mdd63279a7d" x="82.73625" y="85.027457" style="stroke: #000000; stroke-width: 0.6"/>
      </g>
     </g>
    </g>
    <g id="ytick_29">
     <g id="line2d_59">
      <g>
       <use xlink:href="#mdd63279a7d" x="82.73625" y="77.566058" style="stroke: #000000; stroke-width: 0.6"/>
      </g>
     </g>
    </g>
    <g id="ytick_30">
     <g id="line2d_60">
      <g>
       <use xlink:href="#mdd63279a7d" x="82.73625" y="71.102699" style="stroke: #000000; stroke-width: 0.6"/>
      </g>
     </g>
    </g>
    <g id="ytick_31">
     <g id="line2d_61">
      <g>
       <use xlink:href="#mdd63279a7d" x="82.73625" y="65.401613" style="stroke: #000000; stroke-width: 0.6"/>
      </g>
     </g>
    </g>
    <g id="text_9">
     <!-- Occurence -->
     <g transform="translate(22.396875 274.930625)rotate(-90)scale(0.2 -0.2)">
      <defs>
       <path id="DejaVuSans-4f" d="M 2522 4238 
Q 1834 4238 1429 3725 
Q 1025 3213 1025 2328 
Q 1025 1447 1429 934 
Q 1834 422 2522 422 
Q 3209 422 3611 934 
Q 4013 1447 4013 2328 
Q 4013 3213 3611 3725 
Q 3209 4238 2522 4238 
z
M 2522 4750 
Q 3503 4750 4090 4092 
Q 4678 3434 4678 2328 
Q 4678 1225 4090 567 
Q 3503 -91 2522 -91 
Q 1538 -91 948 565 
Q 359 1222 359 2328 
Q 359 3434 948 4092 
Q 1538 4750 2522 4750 
z
" transform="scale(0.015625)"/>
       <path id="DejaVuSans-63" d="M 3122 3366 
L 3122 2828 
Q 2878 2963 2633 3030 
Q 2388 3097 2138 3097 
Q 1578 3097 1268 2742 
Q 959 2388 959 1747 
Q 959 1106 1268 751 
Q 1578 397 2138 397 
Q 2388 397 2633 464 
Q 2878 531 3122 666 
L 3122 134 
Q 2881 22 2623 -34 
Q 2366 -91 2075 -91 
Q 1284 -91 818 406 
Q 353 903 353 1747 
Q 353 2603 823 3093 
Q 1294 3584 2113 3584 
Q 2378 3584 2631 3529 
Q 2884 3475 3122 3366 
z
" transform="scale(0.015625)"/>
       <path id="DejaVuSans-75" d="M 544 1381 
L 544 3500 
L 1119 3500 
L 1119 1403 
Q 1119 906 1312 657 
Q 1506 409 1894 409 
Q 2359 409 2629 706 
Q 2900 1003 2900 1516 
L 2900 3500 
L 3475 3500 
L 3475 0 
L 2900 0 
L 2900 538 
Q 2691 219 2414 64 
Q 2138 -91 1772 -91 
Q 1169 -91 856 284 
Q 544 659 544 1381 
z
M 1991 3584 
L 1991 3584 
z
" transform="scale(0.015625)"/>
      </defs>
      <use xlink:href="#DejaVuSans-4f"/>
      <use xlink:href="#DejaVuSans-63" x="78.710938"/>
      <use xlink:href="#DejaVuSans-63" x="133.691406"/>
      <use xlink:href="#DejaVuSans-75" x="188.671875"/>
      <use xlink:href="#DejaVuSans-72" x="252.050781"/>
      <use xlink:href="#DejaVuSans-65" x="290.914062"/>
      <use xlink:href="#DejaVuSans-6e" x="352.4375"/>
      <use xlink:href="#DejaVuSans-63" x="415.816406"/>
      <use xlink:href="#DejaVuSans-65" x="470.796875"/>
     </g>
    </g>
   </g>
   <g id="patch_103">
    <path d="M 82.73625 411.95625 
L 82.73625 31.43625 
" style="fill: none; stroke: #000000; stroke-width: 0.8; stroke-linejoin: miter; stroke-linecap: square"/>
   </g>
   <g id="patch_104">
    <path d="M 863.93625 411.95625 
L 863.93625 31.43625 
" style="fill: none; stroke: #000000; stroke-width: 0.8; stroke-linejoin: miter; stroke-linecap: square"/>
   </g>
   <g id="patch_105">
    <path d="M 82.73625 411.95625 
L 863.93625 411.95625 
" style="fill: none; stroke: #000000; stroke-width: 0.8; stroke-linejoin: miter; stroke-linecap: square"/>
   </g>
   <g id="patch_106">
    <path d="M 82.73625 31.43625 
L 863.93625 31.43625 
" style="fill: none; stroke: #000000; stroke-width: 0.8; stroke-linejoin: miter; stroke-linecap: square"/>
   </g>
   <g id="text_10">
    <!-- Component Connections Between Time Steps -->
    <g transform="translate(198.8175 25.43625)scale(0.24 -0.24)">
     <defs>
      <path id="DejaVuSans-43" d="M 4122 4306 
L 4122 3641 
Q 3803 3938 3442 4084 
Q 3081 4231 2675 4231 
Q 1875 4231 1450 3742 
Q 1025 3253 1025 2328 
Q 1025 1406 1450 917 
Q 1875 428 2675 428 
Q 3081 428 3442 575 
Q 3803 722 4122 1019 
L 4122 359 
Q 3791 134 3420 21 
Q 3050 -91 2638 -91 
Q 1578 -91 968 557 
Q 359 1206 359 2328 
Q 359 3453 968 4101 
Q 1578 4750 2638 4750 
Q 3056 4750 3426 4639 
Q 3797 4528 4122 4306 
z
" transform="scale(0.015625)"/>
      <path id="DejaVuSans-6f" d="M 1959 3097 
Q 1497 3097 1228 2736 
Q 959 2375 959 1747 
Q 959 1119 1226 758 
Q 1494 397 1959 397 
Q 2419 397 2687 759 
Q 2956 1122 2956 1747 
Q 2956 2369 2687 2733 
Q 2419 3097 1959 3097 
z
M 1959 3584 
Q 2709 3584 3137 3096 
Q 3566 2609 3566 1747 
Q 3566 888 3137 398 
Q 2709 -91 1959 -91 
Q 1206 -91 779 398 
Q 353 888 353 1747 
Q 353 2609 779 3096 
Q 1206 3584 1959 3584 
z
" transform="scale(0.015625)"/>
      <path id="DejaVuSans-6d" d="M 3328 2828 
Q 3544 3216 3844 3400 
Q 4144 3584 4550 3584 
Q 5097 3584 5394 3201 
Q 5691 2819 5691 2113 
L 5691 0 
L 5113 0 
L 5113 2094 
Q 5113 2597 4934 2840 
Q 4756 3084 4391 3084 
Q 3944 3084 3684 2787 
Q 3425 2491 3425 1978 
L 3425 0 
L 2847 0 
L 2847 2094 
Q 2847 2600 2669 2842 
Q 2491 3084 2119 3084 
Q 1678 3084 1418 2786 
Q 1159 2488 1159 1978 
L 1159 0 
L 581 0 
L 581 3500 
L 1159 3500 
L 1159 2956 
Q 1356 3278 1631 3431 
Q 1906 3584 2284 3584 
Q 2666 3584 2933 3390 
Q 3200 3197 3328 2828 
z
" transform="scale(0.015625)"/>
      <path id="DejaVuSans-70" d="M 1159 525 
L 1159 -1331 
L 581 -1331 
L 581 3500 
L 1159 3500 
L 1159 2969 
Q 1341 3281 1617 3432 
Q 1894 3584 2278 3584 
Q 2916 3584 3314 3078 
Q 3713 2572 3713 1747 
Q 3713 922 3314 415 
Q 2916 -91 2278 -91 
Q 1894 -91 1617 61 
Q 1341 213 1159 525 
z
M 3116 1747 
Q 3116 2381 2855 2742 
Q 2594 3103 2138 3103 
Q 1681 3103 1420 2742 
Q 1159 2381 1159 1747 
Q 1159 1113 1420 752 
Q 1681 391 2138 391 
Q 2594 391 2855 752 
Q 3116 1113 3116 1747 
z
" transform="scale(0.015625)"/>
      <path id="DejaVuSans-74" d="M 1172 4494 
L 1172 3500 
L 2356 3500 
L 2356 3053 
L 1172 3053 
L 1172 1153 
Q 1172 725 1289 603 
Q 1406 481 1766 481 
L 2356 481 
L 2356 0 
L 1766 0 
Q 1100 0 847 248 
Q 594 497 594 1153 
L 594 3053 
L 172 3053 
L 172 3500 
L 594 3500 
L 594 4494 
L 1172 4494 
z
" transform="scale(0.015625)"/>
      <path id="DejaVuSans-20" transform="scale(0.015625)"/>
      <path id="DejaVuSans-69" d="M 603 3500 
L 1178 3500 
L 1178 0 
L 603 0 
L 603 3500 
z
M 603 4863 
L 1178 4863 
L 1178 4134 
L 603 4134 
L 603 4863 
z
" transform="scale(0.015625)"/>
      <path id="DejaVuSans-73" d="M 2834 3397 
L 2834 2853 
Q 2591 2978 2328 3040 
Q 2066 3103 1784 3103 
Q 1356 3103 1142 2972 
Q 928 2841 928 2578 
Q 928 2378 1081 2264 
Q 1234 2150 1697 2047 
L 1894 2003 
Q 2506 1872 2764 1633 
Q 3022 1394 3022 966 
Q 3022 478 2636 193 
Q 2250 -91 1575 -91 
Q 1294 -91 989 -36 
Q 684 19 347 128 
L 347 722 
Q 666 556 975 473 
Q 1284 391 1588 391 
Q 1994 391 2212 530 
Q 2431 669 2431 922 
Q 2431 1156 2273 1281 
Q 2116 1406 1581 1522 
L 1381 1569 
Q 847 1681 609 1914 
Q 372 2147 372 2553 
Q 372 3047 722 3315 
Q 1072 3584 1716 3584 
Q 2034 3584 2315 3537 
Q 2597 3491 2834 3397 
z
" transform="scale(0.015625)"/>
      <path id="DejaVuSans-42" d="M 1259 2228 
L 1259 519 
L 2272 519 
Q 2781 519 3026 730 
Q 3272 941 3272 1375 
Q 3272 1813 3026 2020 
Q 2781 2228 2272 2228 
L 1259 2228 
z
M 1259 4147 
L 1259 2741 
L 2194 2741 
Q 2656 2741 2882 2914 
Q 3109 3088 3109 3444 
Q 3109 3797 2882 3972 
Q 2656 4147 2194 4147 
L 1259 4147 
z
M 628 4666 
L 2241 4666 
Q 2963 4666 3353 4366 
Q 3744 4066 3744 3513 
Q 3744 3084 3544 2831 
Q 3344 2578 2956 2516 
Q 3422 2416 3680 2098 
Q 3938 1781 3938 1306 
Q 3938 681 3513 340 
Q 3088 0 2303 0 
L 628 0 
L 628 4666 
z
" transform="scale(0.015625)"/>
      <path id="DejaVuSans-77" d="M 269 3500 
L 844 3500 
L 1563 769 
L 2278 3500 
L 2956 3500 
L 3675 769 
L 4391 3500 
L 4966 3500 
L 4050 0 
L 3372 0 
L 2619 2869 
L 1863 0 
L 1184 0 
L 269 3500 
z
" transform="scale(0.015625)"/>
      <path id="DejaVuSans-54" d="M -19 4666 
L 3928 4666 
L 3928 4134 
L 2272 4134 
L 2272 0 
L 1638 0 
L 1638 4134 
L -19 4134 
L -19 4666 
z
" transform="scale(0.015625)"/>
      <path id="DejaVuSans-53" d="M 3425 4513 
L 3425 3897 
Q 3066 4069 2747 4153 
Q 2428 4238 2131 4238 
Q 1616 4238 1336 4038 
Q 1056 3838 1056 3469 
Q 1056 3159 1242 3001 
Q 1428 2844 1947 2747 
L 2328 2669 
Q 3034 2534 3370 2195 
Q 3706 1856 3706 1288 
Q 3706 609 3251 259 
Q 2797 -91 1919 -91 
Q 1588 -91 1214 -16 
Q 841 59 441 206 
L 441 856 
Q 825 641 1194 531 
Q 1563 422 1919 422 
Q 2459 422 2753 634 
Q 3047 847 3047 1241 
Q 3047 1584 2836 1778 
Q 2625 1972 2144 2069 
L 1759 2144 
Q 1053 2284 737 2584 
Q 422 2884 422 3419 
Q 422 4038 858 4394 
Q 1294 4750 2059 4750 
Q 2388 4750 2728 4690 
Q 3069 4631 3425 4513 
z
" transform="scale(0.015625)"/>
     </defs>
     <use xlink:href="#DejaVuSans-43"/>
     <use xlink:href="#DejaVuSans-6f" x="69.824219"/>
     <use xlink:href="#DejaVuSans-6d" x="131.005859"/>
     <use xlink:href="#DejaVuSans-70" x="228.417969"/>
     <use xlink:href="#DejaVuSans-6f" x="291.894531"/>
     <use xlink:href="#DejaVuSans-6e" x="353.076172"/>
     <use xlink:href="#DejaVuSans-65" x="416.455078"/>
     <use xlink:href="#DejaVuSans-6e" x="477.978516"/>
     <use xlink:href="#DejaVuSans-74" x="541.357422"/>
     <use xlink:href="#DejaVuSans-20" x="580.566406"/>
     <use xlink:href="#DejaVuSans-43" x="612.353516"/>
     <use xlink:href="#DejaVuSans-6f" x="682.177734"/>
     <use xlink:href="#DejaVuSans-6e" x="743.359375"/>
     <use xlink:href="#DejaVuSans-6e" x="806.738281"/>
     <use xlink:href="#DejaVuSans-65" x="870.117188"/>
     <use xlink:href="#DejaVuSans-63" x="931.640625"/>
     <use xlink:href="#DejaVuSans-74" x="986.621094"/>
     <use xlink:href="#DejaVuSans-69" x="1025.830078"/>
     <use xlink:href="#DejaVuSans-6f" x="1053.613281"/>
     <use xlink:href="#DejaVuSans-6e" x="1114.794922"/>
     <use xlink:href="#DejaVuSans-73" x="1178.173828"/>
     <use xlink:href="#DejaVuSans-20" x="1230.273438"/>
     <use xlink:href="#DejaVuSans-42" x="1262.060547"/>
     <use xlink:href="#DejaVuSans-65" x="1330.664062"/>
     <use xlink:href="#DejaVuSans-74" x="1392.1875"/>
     <use xlink:href="#DejaVuSans-77" x="1431.396484"/>
     <use xlink:href="#DejaVuSans-65" x="1513.183594"/>
     <use xlink:href="#DejaVuSans-65" x="1574.707031"/>
     <use xlink:href="#DejaVuSans-6e" x="1636.230469"/>
     <use xlink:href="#DejaVuSans-20" x="1699.609375"/>
     <use xlink:href="#DejaVuSans-54" x="1731.396484"/>
     <use xlink:href="#DejaVuSans-69" x="1789.355469"/>
     <use xlink:href="#DejaVuSans-6d" x="1817.138672"/>
     <use xlink:href="#DejaVuSans-65" x="1914.550781"/>
     <use xlink:href="#DejaVuSans-20" x="1976.074219"/>
     <use xlink:href="#DejaVuSans-53" x="2007.861328"/>
     <use xlink:href="#DejaVuSans-74" x="2071.337891"/>
     <use xlink:href="#DejaVuSans-65" x="2110.546875"/>
     <use xlink:href="#DejaVuSans-70" x="2172.070312"/>
     <use xlink:href="#DejaVuSans-73" x="2235.546875"/>
    </g>
   </g>
  </g>
 </g>
 <defs>
  <clipPath id="pa06104a7cc">
   <rect x="82.73625" y="31.43625" width="781.2" height="380.52"/>
  </clipPath>
 </defs>
</svg>
