<?xml version="1.0" encoding="utf-8" standalone="no"?>
<!DOCTYPE svg PUBLIC "-//W3C//DTD SVG 1.1//EN"
  "http://www.w3.org/Graphics/SVG/1.1/DTD/svg11.dtd">
<svg xmlns:xlink="http://www.w3.org/1999/xlink" width="1034.138477pt" height="492.787875pt" viewBox="0 0 1034.138477 492.787875" xmlns="http://www.w3.org/2000/svg" version="1.1">
 <metadata>
  <rdf:RDF xmlns:dc="http://purl.org/dc/elements/1.1/" xmlns:cc="http://creativecommons.org/ns#" xmlns:rdf="http://www.w3.org/1999/02/22-rdf-syntax-ns#">
   <cc:Work>
    <dc:type rdf:resource="http://purl.org/dc/dcmitype/StillImage"/>
    <dc:date>2022-05-08T17:31:51.912152</dc:date>
    <dc:format>image/svg+xml</dc:format>
    <dc:creator>
     <cc:Agent>
      <dc:title>Matplotlib v3.5.1, https://matplotlib.org/</dc:title>
     </cc:Agent>
    </dc:creator>
   </cc:Work>
  </rdf:RDF>
 </metadata>
 <defs>
  <style type="text/css">*{stroke-linejoin: round; stroke-linecap: butt}</style>
 </defs>
 <g id="figure_1">
  <g id="patch_1">
   <path d="M 0 492.787875 
L 1034.138477 492.787875 
L 1034.138477 0 
L 0 0 
L 0 492.787875 
z
" style="fill: none"/>
  </g>
  <g id="axes_1">
   <g id="patch_2">
    <path d="M 82.73625 424.311 
L 494.769453 424.311 
L 494.769453 58.311 
L 82.73625 58.311 
z
" style="fill: #ffffff"/>
   </g>
   <g id="patch_3">
    <path d="M 101.465032 424.311 
L 112.503505 424.311 
L 112.503505 84.717068 
L 101.465032 84.717068 
z
" clip-path="url(#pab367e2448)" style="fill: #ff00ff"/>
   </g>
   <g id="patch_4">
    <path d="M 112.503505 424.311 
L 112.532572 424.311 
L 112.532572 424.311 
L 112.503505 424.311 
z
" clip-path="url(#pab367e2448)" style="fill: #ff00ff"/>
   </g>
   <g id="patch_5">
    <path d="M 112.532572 424.311 
L 112.564137 424.311 
L 112.564137 424.311 
L 112.532572 424.311 
z
" clip-path="url(#pab367e2448)" style="fill: #ff00ff"/>
   </g>
   <g id="patch_6">
    <path d="M 112.564137 424.311 
L 112.598413 424.311 
L 112.598413 424.311 
L 112.564137 424.311 
z
" clip-path="url(#pab367e2448)" style="fill: #ff00ff"/>
   </g>
   <g id="patch_7">
    <path d="M 112.598413 424.311 
L 112.635633 424.311 
L 112.635633 424.311 
L 112.598413 424.311 
z
" clip-path="url(#pab367e2448)" style="fill: #ff00ff"/>
   </g>
   <g id="patch_8">
    <path d="M 112.635633 424.311 
L 112.676051 424.311 
L 112.676051 424.311 
L 112.635633 424.311 
z
" clip-path="url(#pab367e2448)" style="fill: #ff00ff"/>
   </g>
   <g id="patch_9">
    <path d="M 112.676051 424.311 
L 112.719941 424.311 
L 112.719941 424.311 
L 112.676051 424.311 
z
" clip-path="url(#pab367e2448)" style="fill: #ff00ff"/>
   </g>
   <g id="patch_10">
    <path d="M 112.719941 424.311 
L 112.767601 424.311 
L 112.767601 424.311 
L 112.719941 424.311 
z
" clip-path="url(#pab367e2448)" style="fill: #ff00ff"/>
   </g>
   <g id="patch_11">
    <path d="M 112.767601 424.311 
L 112.819356 424.311 
L 112.819356 424.311 
L 112.767601 424.311 
z
" clip-path="url(#pab367e2448)" style="fill: #ff00ff"/>
   </g>
   <g id="patch_12">
    <path d="M 112.819356 424.311 
L 112.875557 424.311 
L 112.875557 424.311 
L 112.819356 424.311 
z
" clip-path="url(#pab367e2448)" style="fill: #ff00ff"/>
   </g>
   <g id="patch_13">
    <path d="M 112.875557 424.311 
L 112.936585 424.311 
L 112.936585 424.311 
L 112.875557 424.311 
z
" clip-path="url(#pab367e2448)" style="fill: #ff00ff"/>
   </g>
   <g id="patch_14">
    <path d="M 112.936585 424.311 
L 113.002856 424.311 
L 113.002856 424.311 
L 112.936585 424.311 
z
" clip-path="url(#pab367e2448)" style="fill: #ff00ff"/>
   </g>
   <g id="patch_15">
    <path d="M 113.002856 424.311 
L 113.07482 424.311 
L 113.07482 424.311 
L 113.002856 424.311 
z
" clip-path="url(#pab367e2448)" style="fill: #ff00ff"/>
   </g>
   <g id="patch_16">
    <path d="M 113.07482 424.311 
L 113.152967 424.311 
L 113.152967 424.311 
L 113.07482 424.311 
z
" clip-path="url(#pab367e2448)" style="fill: #ff00ff"/>
   </g>
   <g id="patch_17">
    <path d="M 113.152967 424.311 
L 113.237826 424.311 
L 113.237826 424.311 
L 113.152967 424.311 
z
" clip-path="url(#pab367e2448)" style="fill: #ff00ff"/>
   </g>
   <g id="patch_18">
    <path d="M 113.237826 424.311 
L 113.329975 424.311 
L 113.329975 424.311 
L 113.237826 424.311 
z
" clip-path="url(#pab367e2448)" style="fill: #ff00ff"/>
   </g>
   <g id="patch_19">
    <path d="M 113.329975 424.311 
L 113.43004 424.311 
L 113.43004 424.311 
L 113.329975 424.311 
z
" clip-path="url(#pab367e2448)" style="fill: #ff00ff"/>
   </g>
   <g id="patch_20">
    <path d="M 113.43004 424.311 
L 113.538702 424.311 
L 113.538702 424.311 
L 113.43004 424.311 
z
" clip-path="url(#pab367e2448)" style="fill: #ff00ff"/>
   </g>
   <g id="patch_21">
    <path d="M 113.538702 424.311 
L 113.656698 424.311 
L 113.656698 424.311 
L 113.538702 424.311 
z
" clip-path="url(#pab367e2448)" style="fill: #ff00ff"/>
   </g>
   <g id="patch_22">
    <path d="M 113.656698 424.311 
L 113.78483 424.311 
L 113.78483 424.311 
L 113.656698 424.311 
z
" clip-path="url(#pab367e2448)" style="fill: #ff00ff"/>
   </g>
   <g id="patch_23">
    <path d="M 113.78483 424.311 
L 113.92397 424.311 
L 113.92397 424.311 
L 113.78483 424.311 
z
" clip-path="url(#pab367e2448)" style="fill: #ff00ff"/>
   </g>
   <g id="patch_24">
    <path d="M 113.92397 424.311 
L 114.075062 424.311 
L 114.075062 424.311 
L 113.92397 424.311 
z
" clip-path="url(#pab367e2448)" style="fill: #ff00ff"/>
   </g>
   <g id="patch_25">
    <path d="M 114.075062 424.311 
L 114.239134 424.311 
L 114.239134 424.311 
L 114.075062 424.311 
z
" clip-path="url(#pab367e2448)" style="fill: #ff00ff"/>
   </g>
   <g id="patch_26">
    <path d="M 114.239134 424.311 
L 114.417301 424.311 
L 114.417301 424.311 
L 114.239134 424.311 
z
" clip-path="url(#pab367e2448)" style="fill: #ff00ff"/>
   </g>
   <g id="patch_27">
    <path d="M 114.417301 424.311 
L 114.610773 424.311 
L 114.610773 424.311 
L 114.417301 424.311 
z
" clip-path="url(#pab367e2448)" style="fill: #ff00ff"/>
   </g>
   <g id="patch_28">
    <path d="M 114.610773 424.311 
L 114.820865 424.311 
L 114.820865 424.311 
L 114.610773 424.311 
z
" clip-path="url(#pab367e2448)" style="fill: #ff00ff"/>
   </g>
   <g id="patch_29">
    <path d="M 114.820865 424.311 
L 115.049005 424.311 
L 115.049005 424.311 
L 114.820865 424.311 
z
" clip-path="url(#pab367e2448)" style="fill: #ff00ff"/>
   </g>
   <g id="patch_30">
    <path d="M 115.049005 424.311 
L 115.296743 424.311 
L 115.296743 424.311 
L 115.049005 424.311 
z
" clip-path="url(#pab367e2448)" style="fill: #ff00ff"/>
   </g>
   <g id="patch_31">
    <path d="M 115.296743 424.311 
L 115.565764 424.311 
L 115.565764 424.311 
L 115.296743 424.311 
z
" clip-path="url(#pab367e2448)" style="fill: #ff00ff"/>
   </g>
   <g id="patch_32">
    <path d="M 115.565764 424.311 
L 115.857894 424.311 
L 115.857894 424.311 
L 115.565764 424.311 
z
" clip-path="url(#pab367e2448)" style="fill: #ff00ff"/>
   </g>
   <g id="patch_33">
    <path d="M 115.857894 424.311 
L 116.17512 424.311 
L 116.17512 424.311 
L 115.857894 424.311 
z
" clip-path="url(#pab367e2448)" style="fill: #ff00ff"/>
   </g>
   <g id="patch_34">
    <path d="M 116.17512 424.311 
L 116.519597 424.311 
L 116.519597 424.311 
L 116.17512 424.311 
z
" clip-path="url(#pab367e2448)" style="fill: #ff00ff"/>
   </g>
   <g id="patch_35">
    <path d="M 116.519597 424.311 
L 116.893667 424.311 
L 116.893667 424.311 
L 116.519597 424.311 
z
" clip-path="url(#pab367e2448)" style="fill: #ff00ff"/>
   </g>
   <g id="patch_36">
    <path d="M 116.893667 424.311 
L 117.299871 424.311 
L 117.299871 424.311 
L 116.893667 424.311 
z
" clip-path="url(#pab367e2448)" style="fill: #ff00ff"/>
   </g>
   <g id="patch_37">
    <path d="M 117.299871 424.311 
L 117.74097 424.311 
L 117.74097 424.311 
L 117.299871 424.311 
z
" clip-path="url(#pab367e2448)" style="fill: #ff00ff"/>
   </g>
   <g id="patch_38">
    <path d="M 117.74097 424.311 
L 118.219962 424.311 
L 118.219962 424.311 
L 117.74097 424.311 
z
" clip-path="url(#pab367e2448)" style="fill: #ff00ff"/>
   </g>
   <g id="patch_39">
    <path d="M 118.219962 424.311 
L 118.740101 424.311 
L 118.740101 424.311 
L 118.219962 424.311 
z
" clip-path="url(#pab367e2448)" style="fill: #ff00ff"/>
   </g>
   <g id="patch_40">
    <path d="M 118.740101 424.311 
L 119.304923 424.311 
L 119.304923 424.311 
L 118.740101 424.311 
z
" clip-path="url(#pab367e2448)" style="fill: #ff00ff"/>
   </g>
   <g id="patch_41">
    <path d="M 119.304923 424.311 
L 119.918266 424.311 
L 119.918266 424.311 
L 119.304923 424.311 
z
" clip-path="url(#pab367e2448)" style="fill: #ff00ff"/>
   </g>
   <g id="patch_42">
    <path d="M 119.918266 424.311 
L 120.584298 424.311 
L 120.584298 424.311 
L 119.918266 424.311 
z
" clip-path="url(#pab367e2448)" style="fill: #ff00ff"/>
   </g>
   <g id="patch_43">
    <path d="M 120.584298 424.311 
L 121.307545 424.311 
L 121.307545 424.311 
L 120.584298 424.311 
z
" clip-path="url(#pab367e2448)" style="fill: #ff00ff"/>
   </g>
   <g id="patch_44">
    <path d="M 121.307545 424.311 
L 122.092923 424.311 
L 122.092923 424.311 
L 121.307545 424.311 
z
" clip-path="url(#pab367e2448)" style="fill: #ff00ff"/>
   </g>
   <g id="patch_45">
    <path d="M 122.092923 424.311 
L 122.945769 424.311 
L 122.945769 424.311 
L 122.092923 424.311 
z
" clip-path="url(#pab367e2448)" style="fill: #ff00ff"/>
   </g>
   <g id="patch_46">
    <path d="M 122.945769 424.311 
L 123.871879 424.311 
L 123.871879 424.311 
L 122.945769 424.311 
z
" clip-path="url(#pab367e2448)" style="fill: #ff00ff"/>
   </g>
   <g id="patch_47">
    <path d="M 123.871879 424.311 
L 124.877546 424.311 
L 124.877546 424.311 
L 123.871879 424.311 
z
" clip-path="url(#pab367e2448)" style="fill: #ff00ff"/>
   </g>
   <g id="patch_48">
    <path d="M 124.877546 424.311 
L 125.969605 424.311 
L 125.969605 424.311 
L 124.877546 424.311 
z
" clip-path="url(#pab367e2448)" style="fill: #ff00ff"/>
   </g>
   <g id="patch_49">
    <path d="M 125.969605 424.311 
L 127.155477 424.311 
L 127.155477 424.311 
L 125.969605 424.311 
z
" clip-path="url(#pab367e2448)" style="fill: #ff00ff"/>
   </g>
   <g id="patch_50">
    <path d="M 127.155477 424.311 
L 128.443221 424.311 
L 128.443221 424.311 
L 127.155477 424.311 
z
" clip-path="url(#pab367e2448)" style="fill: #ff00ff"/>
   </g>
   <g id="patch_51">
    <path d="M 128.443221 424.311 
L 129.841589 424.311 
L 129.841589 424.311 
L 128.443221 424.311 
z
" clip-path="url(#pab367e2448)" style="fill: #ff00ff"/>
   </g>
   <g id="patch_52">
    <path d="M 129.841589 424.311 
L 131.360084 424.311 
L 131.360084 424.311 
L 129.841589 424.311 
z
" clip-path="url(#pab367e2448)" style="fill: #ff00ff"/>
   </g>
   <g id="patch_53">
    <path d="M 131.360084 424.311 
L 133.009024 424.311 
L 133.009024 424.311 
L 131.360084 424.311 
z
" clip-path="url(#pab367e2448)" style="fill: #ff00ff"/>
   </g>
   <g id="patch_54">
    <path d="M 133.009024 424.311 
L 134.799617 424.311 
L 134.799617 424.311 
L 133.009024 424.311 
z
" clip-path="url(#pab367e2448)" style="fill: #ff00ff"/>
   </g>
   <g id="patch_55">
    <path d="M 134.799617 424.311 
L 136.744031 424.311 
L 136.744031 424.311 
L 134.799617 424.311 
z
" clip-path="url(#pab367e2448)" style="fill: #ff00ff"/>
   </g>
   <g id="patch_56">
    <path d="M 136.744031 424.311 
L 138.85548 424.311 
L 138.85548 424.311 
L 136.744031 424.311 
z
" clip-path="url(#pab367e2448)" style="fill: #ff00ff"/>
   </g>
   <g id="patch_57">
    <path d="M 138.85548 424.311 
L 141.148312 424.311 
L 141.148312 424.311 
L 138.85548 424.311 
z
" clip-path="url(#pab367e2448)" style="fill: #ff00ff"/>
   </g>
   <g id="patch_58">
    <path d="M 141.148312 424.311 
L 143.63811 424.311 
L 143.63811 424.311 
L 141.148312 424.311 
z
" clip-path="url(#pab367e2448)" style="fill: #ff00ff"/>
   </g>
   <g id="patch_59">
    <path d="M 143.63811 424.311 
L 146.341795 424.311 
L 146.341795 424.311 
L 143.63811 424.311 
z
" clip-path="url(#pab367e2448)" style="fill: #ff00ff"/>
   </g>
   <g id="patch_60">
    <path d="M 146.341795 424.311 
L 149.277738 424.311 
L 149.277738 424.311 
L 146.341795 424.311 
z
" clip-path="url(#pab367e2448)" style="fill: #ff00ff"/>
   </g>
   <g id="patch_61">
    <path d="M 149.277738 424.311 
L 152.465895 424.311 
L 152.465895 424.311 
L 149.277738 424.311 
z
" clip-path="url(#pab367e2448)" style="fill: #ff00ff"/>
   </g>
   <g id="patch_62">
    <path d="M 152.465895 424.311 
L 155.927929 424.311 
L 155.927929 424.311 
L 152.465895 424.311 
z
" clip-path="url(#pab367e2448)" style="fill: #ff00ff"/>
   </g>
   <g id="patch_63">
    <path d="M 155.927929 424.311 
L 159.687369 424.311 
L 159.687369 424.311 
L 155.927929 424.311 
z
" clip-path="url(#pab367e2448)" style="fill: #ff00ff"/>
   </g>
   <g id="patch_64">
    <path d="M 159.687369 424.311 
L 163.769764 424.311 
L 163.769764 424.311 
L 159.687369 424.311 
z
" clip-path="url(#pab367e2448)" style="fill: #ff00ff"/>
   </g>
   <g id="patch_65">
    <path d="M 163.769764 424.311 
L 168.202857 424.311 
L 168.202857 424.311 
L 163.769764 424.311 
z
" clip-path="url(#pab367e2448)" style="fill: #ff00ff"/>
   </g>
   <g id="patch_66">
    <path d="M 168.202857 424.311 
L 173.016774 424.311 
L 173.016774 424.311 
L 168.202857 424.311 
z
" clip-path="url(#pab367e2448)" style="fill: #ff00ff"/>
   </g>
   <g id="patch_67">
    <path d="M 173.016774 424.311 
L 178.244231 424.311 
L 178.244231 424.311 
L 173.016774 424.311 
z
" clip-path="url(#pab367e2448)" style="fill: #ff00ff"/>
   </g>
   <g id="patch_68">
    <path d="M 178.244231 424.311 
L 183.920752 424.311 
L 183.920752 424.311 
L 178.244231 424.311 
z
" clip-path="url(#pab367e2448)" style="fill: #ff00ff"/>
   </g>
   <g id="patch_69">
    <path d="M 183.920752 424.311 
L 190.084915 424.311 
L 190.084915 424.311 
L 183.920752 424.311 
z
" clip-path="url(#pab367e2448)" style="fill: #ff00ff"/>
   </g>
   <g id="patch_70">
    <path d="M 190.084915 424.311 
L 196.778609 424.311 
L 196.778609 424.311 
L 190.084915 424.311 
z
" clip-path="url(#pab367e2448)" style="fill: #ff00ff"/>
   </g>
   <g id="patch_71">
    <path d="M 196.778609 424.311 
L 204.047325 424.311 
L 204.047325 424.311 
L 196.778609 424.311 
z
" clip-path="url(#pab367e2448)" style="fill: #ff00ff"/>
   </g>
   <g id="patch_72">
    <path d="M 204.047325 424.311 
L 211.94046 424.311 
L 211.94046 424.311 
L 204.047325 424.311 
z
" clip-path="url(#pab367e2448)" style="fill: #ff00ff"/>
   </g>
   <g id="patch_73">
    <path d="M 211.94046 424.311 
L 220.511654 424.311 
L 220.511654 75.739571 
L 211.94046 75.739571 
z
" clip-path="url(#pab367e2448)" style="fill: #ff00ff"/>
   </g>
   <g id="patch_74">
    <path d="M 220.511654 424.311 
L 229.819156 424.311 
L 229.819156 424.311 
L 220.511654 424.311 
z
" clip-path="url(#pab367e2448)" style="fill: #ff00ff"/>
   </g>
   <g id="patch_75">
    <path d="M 229.819156 424.311 
L 239.926218 424.311 
L 239.926218 424.311 
L 229.819156 424.311 
z
" clip-path="url(#pab367e2448)" style="fill: #ff00ff"/>
   </g>
   <g id="patch_76">
    <path d="M 239.926218 424.311 
L 250.901527 424.311 
L 250.901527 424.311 
L 239.926218 424.311 
z
" clip-path="url(#pab367e2448)" style="fill: #ff00ff"/>
   </g>
   <g id="patch_77">
    <path d="M 250.901527 424.311 
L 262.819669 424.311 
L 262.819669 424.311 
L 250.901527 424.311 
z
" clip-path="url(#pab367e2448)" style="fill: #ff00ff"/>
   </g>
   <g id="patch_78">
    <path d="M 262.819669 424.311 
L 275.761639 424.311 
L 275.761639 424.311 
L 262.819669 424.311 
z
" clip-path="url(#pab367e2448)" style="fill: #ff00ff"/>
   </g>
   <g id="patch_79">
    <path d="M 275.761639 424.311 
L 289.815388 424.311 
L 289.815388 424.311 
L 275.761639 424.311 
z
" clip-path="url(#pab367e2448)" style="fill: #ff00ff"/>
   </g>
   <g id="patch_80">
    <path d="M 289.815388 424.311 
L 305.076424 424.311 
L 305.076424 424.311 
L 289.815388 424.311 
z
" clip-path="url(#pab367e2448)" style="fill: #ff00ff"/>
   </g>
   <g id="patch_81">
    <path d="M 305.076424 424.311 
L 321.648458 424.311 
L 321.648458 424.311 
L 305.076424 424.311 
z
" clip-path="url(#pab367e2448)" style="fill: #ff00ff"/>
   </g>
   <g id="patch_82">
    <path d="M 321.648458 424.311 
L 331.275673 424.311 
L 331.275673 121.52755 
L 321.648458 121.52755 
z
" clip-path="url(#pab367e2448)" style="fill: #ff00ff"/>
   </g>
   <g id="patch_83">
    <path d="M 331.275673 424.311 
L 338.169245 424.311 
L 338.169245 424.311 
L 331.275673 424.311 
z
" clip-path="url(#pab367e2448)" style="fill: #ff00ff"/>
   </g>
   <g id="patch_84">
    <path d="M 338.169245 424.311 
L 345.062816 424.311 
L 345.062816 424.311 
L 338.169245 424.311 
z
" clip-path="url(#pab367e2448)" style="fill: #ff00ff"/>
   </g>
   <g id="patch_85">
    <path d="M 345.062816 424.311 
L 351.956387 424.311 
L 351.956387 424.311 
L 345.062816 424.311 
z
" clip-path="url(#pab367e2448)" style="fill: #ff00ff"/>
   </g>
   <g id="patch_86">
    <path d="M 351.956387 424.311 
L 358.849959 424.311 
L 358.849959 424.311 
L 351.956387 424.311 
z
" clip-path="url(#pab367e2448)" style="fill: #ff00ff"/>
   </g>
   <g id="patch_87">
    <path d="M 358.849959 424.311 
L 365.74353 424.311 
L 365.74353 180.896561 
L 358.849959 180.896561 
z
" clip-path="url(#pab367e2448)" style="fill: #ff00ff"/>
   </g>
   <g id="patch_88">
    <path d="M 365.74353 424.311 
L 372.637101 424.311 
L 372.637101 424.311 
L 365.74353 424.311 
z
" clip-path="url(#pab367e2448)" style="fill: #ff00ff"/>
   </g>
   <g id="patch_89">
    <path d="M 372.637101 424.311 
L 379.530673 424.311 
L 379.530673 424.311 
L 372.637101 424.311 
z
" clip-path="url(#pab367e2448)" style="fill: #ff00ff"/>
   </g>
   <g id="patch_90">
    <path d="M 379.530673 424.311 
L 386.424244 424.311 
L 386.424244 180.896561 
L 379.530673 180.896561 
z
" clip-path="url(#pab367e2448)" style="fill: #ff00ff"/>
   </g>
   <g id="patch_91">
    <path d="M 386.424244 424.311 
L 393.317815 424.311 
L 393.317815 424.311 
L 386.424244 424.311 
z
" clip-path="url(#pab367e2448)" style="fill: #ff00ff"/>
   </g>
   <g id="patch_92">
    <path d="M 393.317815 424.311 
L 400.211387 424.311 
L 400.211387 424.311 
L 393.317815 424.311 
z
" clip-path="url(#pab367e2448)" style="fill: #ff00ff"/>
   </g>
   <g id="patch_93">
    <path d="M 400.211387 424.311 
L 407.104958 424.311 
L 407.104958 211.1382 
L 400.211387 211.1382 
z
" clip-path="url(#pab367e2448)" style="fill: #ff00ff"/>
   </g>
   <g id="patch_94">
    <path d="M 407.104958 424.311 
L 413.998529 424.311 
L 413.998529 424.311 
L 407.104958 424.311 
z
" clip-path="url(#pab367e2448)" style="fill: #ff00ff"/>
   </g>
   <g id="patch_95">
    <path d="M 413.998529 424.311 
L 420.892101 424.311 
L 420.892101 264.142215 
L 413.998529 264.142215 
z
" clip-path="url(#pab367e2448)" style="fill: #ff00ff"/>
   </g>
   <g id="patch_96">
    <path d="M 420.892101 424.311 
L 427.785672 424.311 
L 427.785672 424.311 
L 420.892101 424.311 
z
" clip-path="url(#pab367e2448)" style="fill: #ff00ff"/>
   </g>
   <g id="patch_97">
    <path d="M 427.785672 424.311 
L 434.679243 424.311 
L 434.679243 248.595875 
L 427.785672 248.595875 
z
" clip-path="url(#pab367e2448)" style="fill: #ff00ff"/>
   </g>
   <g id="patch_98">
    <path d="M 434.679243 424.311 
L 441.572815 424.311 
L 441.572815 424.311 
L 434.679243 424.311 
z
" clip-path="url(#pab367e2448)" style="fill: #ff00ff"/>
   </g>
   <g id="patch_99">
    <path d="M 441.572815 424.311 
L 448.466386 424.311 
L 448.466386 355.182275 
L 441.572815 355.182275 
z
" clip-path="url(#pab367e2448)" style="fill: #ff00ff"/>
   </g>
   <g id="patch_100">
    <path d="M 448.466386 424.311 
L 455.359957 424.311 
L 455.359957 264.142215 
L 448.466386 264.142215 
z
" clip-path="url(#pab367e2448)" style="fill: #ff00ff"/>
   </g>
   <g id="patch_101">
    <path d="M 455.359957 424.311 
L 462.253529 424.311 
L 462.253529 424.311 
L 455.359957 424.311 
z
" clip-path="url(#pab367e2448)" style="fill: #ff00ff"/>
   </g>
   <g id="patch_102">
    <path d="M 462.253529 424.311 
L 469.1471 424.311 
L 469.1471 355.182275 
L 462.253529 355.182275 
z
" clip-path="url(#pab367e2448)" style="fill: #ff00ff"/>
   </g>
   <g id="patch_103">
    <path d="M 469.1471 424.311 
L 476.040671 424.311 
L 476.040671 286.053551 
L 469.1471 286.053551 
z
" clip-path="url(#pab367e2448)" style="fill: #ff00ff"/>
   </g>
   <g id="matplotlib.axis_1">
    <g id="xtick_1">
     <g id="line2d_1">
      <path d="M 112.165138 424.311 
L 112.165138 58.311 
" clip-path="url(#pab367e2448)" style="fill: none; stroke-dasharray: 2.96,1.28; stroke-dashoffset: 0; stroke: #b0b0b0; stroke-width: 0.8"/>
     </g>
     <g id="line2d_2">
      <defs>
       <path id="m61c21623db" d="M 0 0 
L 0 17 
" style="stroke: #000000; stroke-width: 0.8"/>
      </defs>
      <g>
       <use xlink:href="#m61c21623db" x="112.165138" y="424.311" style="stroke: #000000; stroke-width: 0.8"/>
      </g>
     </g>
     <g id="text_1">
      <!-- $\mathdefault{0}$ -->
      <g transform="translate(106.405138 458.488187)scale(0.18 -0.18)">
       <defs>
        <path id="DejaVuSans-30" d="M 2034 4250 
Q 1547 4250 1301 3770 
Q 1056 3291 1056 2328 
Q 1056 1369 1301 889 
Q 1547 409 2034 409 
Q 2525 409 2770 889 
Q 3016 1369 3016 2328 
Q 3016 3291 2770 3770 
Q 2525 4250 2034 4250 
z
M 2034 4750 
Q 2819 4750 3233 4129 
Q 3647 3509 3647 2328 
Q 3647 1150 3233 529 
Q 2819 -91 2034 -91 
Q 1250 -91 836 529 
Q 422 1150 422 2328 
Q 422 3509 836 4129 
Q 1250 4750 2034 4750 
z
" transform="scale(0.015625)"/>
       </defs>
       <use xlink:href="#DejaVuSans-30" transform="translate(0 0.78125)"/>
      </g>
     </g>
    </g>
    <g id="xtick_2">
     <g id="line2d_3">
      <path d="M 219.166197 424.311 
L 219.166197 58.311 
" clip-path="url(#pab367e2448)" style="fill: none; stroke-dasharray: 2.96,1.28; stroke-dashoffset: 0; stroke: #b0b0b0; stroke-width: 0.8"/>
     </g>
     <g id="line2d_4">
      <g>
       <use xlink:href="#m61c21623db" x="219.166197" y="424.311" style="stroke: #000000; stroke-width: 0.8"/>
      </g>
     </g>
     <g id="text_2">
      <!-- $\mathdefault{10^{0}}$ -->
      <g transform="translate(203.326197 458.488187)scale(0.18 -0.18)">
       <defs>
        <path id="DejaVuSans-31" d="M 794 531 
L 1825 531 
L 1825 4091 
L 703 3866 
L 703 4441 
L 1819 4666 
L 2450 4666 
L 2450 531 
L 3481 531 
L 3481 0 
L 794 0 
L 794 531 
z
" transform="scale(0.015625)"/>
       </defs>
       <use xlink:href="#DejaVuSans-31" transform="translate(0 0.765625)"/>
       <use xlink:href="#DejaVuSans-30" transform="translate(63.623047 0.765625)"/>
       <use xlink:href="#DejaVuSans-30" transform="translate(128.203125 39.046875)scale(0.7)"/>
      </g>
     </g>
    </g>
    <g id="xtick_3">
     <g id="line2d_5">
      <path d="M 460.790212 424.311 
L 460.790212 58.311 
" clip-path="url(#pab367e2448)" style="fill: none; stroke-dasharray: 2.96,1.28; stroke-dashoffset: 0; stroke: #b0b0b0; stroke-width: 0.8"/>
     </g>
     <g id="line2d_6">
      <g>
       <use xlink:href="#m61c21623db" x="460.790212" y="424.311" style="stroke: #000000; stroke-width: 0.8"/>
      </g>
     </g>
     <g id="text_3">
      <!-- $\mathdefault{10^{1}}$ -->
      <g transform="translate(444.950212 458.488187)scale(0.18 -0.18)">
       <use xlink:href="#DejaVuSans-31" transform="translate(0 0.684375)"/>
       <use xlink:href="#DejaVuSans-30" transform="translate(63.623047 0.684375)"/>
       <use xlink:href="#DejaVuSans-31" transform="translate(128.203125 38.965625)scale(0.7)"/>
      </g>
     </g>
    </g>
    <g id="text_4">
     <!-- InDegree -->
     <g transform="translate(243.071602 481.4285)scale(0.2 -0.2)">
      <defs>
       <path id="DejaVuSans-49" d="M 628 4666 
L 1259 4666 
L 1259 0 
L 628 0 
L 628 4666 
z
" transform="scale(0.015625)"/>
       <path id="DejaVuSans-6e" d="M 3513 2113 
L 3513 0 
L 2938 0 
L 2938 2094 
Q 2938 2591 2744 2837 
Q 2550 3084 2163 3084 
Q 1697 3084 1428 2787 
Q 1159 2491 1159 1978 
L 1159 0 
L 581 0 
L 581 3500 
L 1159 3500 
L 1159 2956 
Q 1366 3272 1645 3428 
Q 1925 3584 2291 3584 
Q 2894 3584 3203 3211 
Q 3513 2838 3513 2113 
z
" transform="scale(0.015625)"/>
       <path id="DejaVuSans-44" d="M 1259 4147 
L 1259 519 
L 2022 519 
Q 2988 519 3436 956 
Q 3884 1394 3884 2338 
Q 3884 3275 3436 3711 
Q 2988 4147 2022 4147 
L 1259 4147 
z
M 628 4666 
L 1925 4666 
Q 3281 4666 3915 4102 
Q 4550 3538 4550 2338 
Q 4550 1131 3912 565 
Q 3275 0 1925 0 
L 628 0 
L 628 4666 
z
" transform="scale(0.015625)"/>
       <path id="DejaVuSans-65" d="M 3597 1894 
L 3597 1613 
L 953 1613 
Q 991 1019 1311 708 
Q 1631 397 2203 397 
Q 2534 397 2845 478 
Q 3156 559 3463 722 
L 3463 178 
Q 3153 47 2828 -22 
Q 2503 -91 2169 -91 
Q 1331 -91 842 396 
Q 353 884 353 1716 
Q 353 2575 817 3079 
Q 1281 3584 2069 3584 
Q 2775 3584 3186 3129 
Q 3597 2675 3597 1894 
z
M 3022 2063 
Q 3016 2534 2758 2815 
Q 2500 3097 2075 3097 
Q 1594 3097 1305 2825 
Q 1016 2553 972 2059 
L 3022 2063 
z
" transform="scale(0.015625)"/>
       <path id="DejaVuSans-67" d="M 2906 1791 
Q 2906 2416 2648 2759 
Q 2391 3103 1925 3103 
Q 1463 3103 1205 2759 
Q 947 2416 947 1791 
Q 947 1169 1205 825 
Q 1463 481 1925 481 
Q 2391 481 2648 825 
Q 2906 1169 2906 1791 
z
M 3481 434 
Q 3481 -459 3084 -895 
Q 2688 -1331 1869 -1331 
Q 1566 -1331 1297 -1286 
Q 1028 -1241 775 -1147 
L 775 -588 
Q 1028 -725 1275 -790 
Q 1522 -856 1778 -856 
Q 2344 -856 2625 -561 
Q 2906 -266 2906 331 
L 2906 616 
Q 2728 306 2450 153 
Q 2172 0 1784 0 
Q 1141 0 747 490 
Q 353 981 353 1791 
Q 353 2603 747 3093 
Q 1141 3584 1784 3584 
Q 2172 3584 2450 3431 
Q 2728 3278 2906 2969 
L 2906 3500 
L 3481 3500 
L 3481 434 
z
" transform="scale(0.015625)"/>
       <path id="DejaVuSans-72" d="M 2631 2963 
Q 2534 3019 2420 3045 
Q 2306 3072 2169 3072 
Q 1681 3072 1420 2755 
Q 1159 2438 1159 1844 
L 1159 0 
L 581 0 
L 581 3500 
L 1159 3500 
L 1159 2956 
Q 1341 3275 1631 3429 
Q 1922 3584 2338 3584 
Q 2397 3584 2469 3576 
Q 2541 3569 2628 3553 
L 2631 2963 
z
" transform="scale(0.015625)"/>
      </defs>
      <use xlink:href="#DejaVuSans-49"/>
      <use xlink:href="#DejaVuSans-6e" x="29.492188"/>
      <use xlink:href="#DejaVuSans-44" x="92.871094"/>
      <use xlink:href="#DejaVuSans-65" x="169.873047"/>
      <use xlink:href="#DejaVuSans-67" x="231.396484"/>
      <use xlink:href="#DejaVuSans-72" x="294.873047"/>
      <use xlink:href="#DejaVuSans-65" x="333.736328"/>
      <use xlink:href="#DejaVuSans-65" x="395.259766"/>
     </g>
    </g>
   </g>
   <g id="matplotlib.axis_2">
    <g id="ytick_1">
     <g id="line2d_7">
      <path d="M 82.73625 424.311 
L 494.769453 424.311 
" clip-path="url(#pab367e2448)" style="fill: none; stroke-dasharray: 2.96,1.28; stroke-dashoffset: 0; stroke: #b0b0b0; stroke-width: 0.8"/>
     </g>
     <g id="line2d_8">
      <defs>
       <path id="m63a2bc6d82" d="M 0 0 
L -17 0 
" style="stroke: #000000; stroke-width: 0.8"/>
      </defs>
      <g>
       <use xlink:href="#m63a2bc6d82" x="82.73625" y="424.311" style="stroke: #000000; stroke-width: 0.8"/>
      </g>
     </g>
     <g id="text_5">
      <!-- $\mathdefault{0}$ -->
      <g transform="translate(50.71625 431.149594)scale(0.18 -0.18)">
       <use xlink:href="#DejaVuSans-30" transform="translate(0 0.78125)"/>
      </g>
     </g>
    </g>
    <g id="ytick_2">
     <g id="line2d_9">
      <path d="M 82.73625 355.182275 
L 494.769453 355.182275 
" clip-path="url(#pab367e2448)" style="fill: none; stroke-dasharray: 2.96,1.28; stroke-dashoffset: 0; stroke: #b0b0b0; stroke-width: 0.8"/>
     </g>
     <g id="line2d_10">
      <g>
       <use xlink:href="#m63a2bc6d82" x="82.73625" y="355.182275" style="stroke: #000000; stroke-width: 0.8"/>
      </g>
     </g>
     <g id="text_6">
      <!-- $\mathdefault{10^{0}}$ -->
      <g transform="translate(30.55625 362.020869)scale(0.18 -0.18)">
       <use xlink:href="#DejaVuSans-31" transform="translate(0 0.765625)"/>
       <use xlink:href="#DejaVuSans-30" transform="translate(63.623047 0.765625)"/>
       <use xlink:href="#DejaVuSans-30" transform="translate(128.203125 39.046875)scale(0.7)"/>
      </g>
     </g>
    </g>
    <g id="ytick_3">
     <g id="line2d_11">
      <path d="M 82.73625 199.079522 
L 494.769453 199.079522 
" clip-path="url(#pab367e2448)" style="fill: none; stroke-dasharray: 2.96,1.28; stroke-dashoffset: 0; stroke: #b0b0b0; stroke-width: 0.8"/>
     </g>
     <g id="line2d_12">
      <g>
       <use xlink:href="#m63a2bc6d82" x="82.73625" y="199.079522" style="stroke: #000000; stroke-width: 0.8"/>
      </g>
     </g>
     <g id="text_7">
      <!-- $\mathdefault{10^{1}}$ -->
      <g transform="translate(30.55625 205.918115)scale(0.18 -0.18)">
       <use xlink:href="#DejaVuSans-31" transform="translate(0 0.684375)"/>
       <use xlink:href="#DejaVuSans-30" transform="translate(63.623047 0.684375)"/>
       <use xlink:href="#DejaVuSans-31" transform="translate(128.203125 38.965625)scale(0.7)"/>
      </g>
     </g>
    </g>
    <g id="ytick_4">
     <g id="line2d_13">
      <path d="M 82.73625 74.647817 
L 494.769453 74.647817 
" clip-path="url(#pab367e2448)" style="fill: none; stroke-dasharray: 2.96,1.28; stroke-dashoffset: 0; stroke: #b0b0b0; stroke-width: 0.8"/>
     </g>
     <g id="line2d_14">
      <g>
       <use xlink:href="#m63a2bc6d82" x="82.73625" y="74.647817" style="stroke: #000000; stroke-width: 0.8"/>
      </g>
     </g>
     <g id="text_8">
      <!-- $\mathdefault{10^{2}}$ -->
      <g transform="translate(30.55625 81.486411)scale(0.18 -0.18)">
       <defs>
        <path id="DejaVuSans-32" d="M 1228 531 
L 3431 531 
L 3431 0 
L 469 0 
L 469 531 
Q 828 903 1448 1529 
Q 2069 2156 2228 2338 
Q 2531 2678 2651 2914 
Q 2772 3150 2772 3378 
Q 2772 3750 2511 3984 
Q 2250 4219 1831 4219 
Q 1534 4219 1204 4116 
Q 875 4013 500 3803 
L 500 4441 
Q 881 4594 1212 4672 
Q 1544 4750 1819 4750 
Q 2544 4750 2975 4387 
Q 3406 4025 3406 3419 
Q 3406 3131 3298 2873 
Q 3191 2616 2906 2266 
Q 2828 2175 2409 1742 
Q 1991 1309 1228 531 
z
" transform="scale(0.015625)"/>
       </defs>
       <use xlink:href="#DejaVuSans-31" transform="translate(0 0.765625)"/>
       <use xlink:href="#DejaVuSans-30" transform="translate(63.623047 0.765625)"/>
       <use xlink:href="#DejaVuSans-32" transform="translate(128.203125 39.046875)scale(0.7)"/>
      </g>
     </g>
    </g>
    <g id="text_9">
     <!-- Occurence -->
     <g transform="translate(22.396875 294.545375)rotate(-90)scale(0.2 -0.2)">
      <defs>
       <path id="DejaVuSans-4f" d="M 2522 4238 
Q 1834 4238 1429 3725 
Q 1025 3213 1025 2328 
Q 1025 1447 1429 934 
Q 1834 422 2522 422 
Q 3209 422 3611 934 
Q 4013 1447 4013 2328 
Q 4013 3213 3611 3725 
Q 3209 4238 2522 4238 
z
M 2522 4750 
Q 3503 4750 4090 4092 
Q 4678 3434 4678 2328 
Q 4678 1225 4090 567 
Q 3503 -91 2522 -91 
Q 1538 -91 948 565 
Q 359 1222 359 2328 
Q 359 3434 948 4092 
Q 1538 4750 2522 4750 
z
" transform="scale(0.015625)"/>
       <path id="DejaVuSans-63" d="M 3122 3366 
L 3122 2828 
Q 2878 2963 2633 3030 
Q 2388 3097 2138 3097 
Q 1578 3097 1268 2742 
Q 959 2388 959 1747 
Q 959 1106 1268 751 
Q 1578 397 2138 397 
Q 2388 397 2633 464 
Q 2878 531 3122 666 
L 3122 134 
Q 2881 22 2623 -34 
Q 2366 -91 2075 -91 
Q 1284 -91 818 406 
Q 353 903 353 1747 
Q 353 2603 823 3093 
Q 1294 3584 2113 3584 
Q 2378 3584 2631 3529 
Q 2884 3475 3122 3366 
z
" transform="scale(0.015625)"/>
       <path id="DejaVuSans-75" d="M 544 1381 
L 544 3500 
L 1119 3500 
L 1119 1403 
Q 1119 906 1312 657 
Q 1506 409 1894 409 
Q 2359 409 2629 706 
Q 2900 1003 2900 1516 
L 2900 3500 
L 3475 3500 
L 3475 0 
L 2900 0 
L 2900 538 
Q 2691 219 2414 64 
Q 2138 -91 1772 -91 
Q 1169 -91 856 284 
Q 544 659 544 1381 
z
M 1991 3584 
L 1991 3584 
z
" transform="scale(0.015625)"/>
      </defs>
      <use xlink:href="#DejaVuSans-4f"/>
      <use xlink:href="#DejaVuSans-63" x="78.710938"/>
      <use xlink:href="#DejaVuSans-63" x="133.691406"/>
      <use xlink:href="#DejaVuSans-75" x="188.671875"/>
      <use xlink:href="#DejaVuSans-72" x="252.050781"/>
      <use xlink:href="#DejaVuSans-65" x="290.914062"/>
      <use xlink:href="#DejaVuSans-6e" x="352.4375"/>
      <use xlink:href="#DejaVuSans-63" x="415.816406"/>
      <use xlink:href="#DejaVuSans-65" x="470.796875"/>
     </g>
    </g>
   </g>
   <g id="patch_104">
    <path d="M 82.73625 424.311 
L 82.73625 58.311 
" style="fill: none; stroke: #000000; stroke-width: 0.8; stroke-linejoin: miter; stroke-linecap: square"/>
   </g>
   <g id="patch_105">
    <path d="M 494.769453 424.311 
L 494.769453 58.311 
" style="fill: none; stroke: #000000; stroke-width: 0.8; stroke-linejoin: miter; stroke-linecap: square"/>
   </g>
   <g id="patch_106">
    <path d="M 82.73625 424.311 
L 494.769453 424.311 
" style="fill: none; stroke: #000000; stroke-width: 0.8; stroke-linejoin: miter; stroke-linecap: square"/>
   </g>
   <g id="patch_107">
    <path d="M 82.73625 58.311 
L 494.769453 58.311 
" style="fill: none; stroke: #000000; stroke-width: 0.8; stroke-linejoin: miter; stroke-linecap: square"/>
   </g>
   <g id="text_10">
    <!-- Fast Greedy Communities' Connections  -->
    <g transform="translate(49.167227 25.43625)scale(0.24 -0.24)">
     <defs>
      <path id="DejaVuSans-46" d="M 628 4666 
L 3309 4666 
L 3309 4134 
L 1259 4134 
L 1259 2759 
L 3109 2759 
L 3109 2228 
L 1259 2228 
L 1259 0 
L 628 0 
L 628 4666 
z
" transform="scale(0.015625)"/>
      <path id="DejaVuSans-61" d="M 2194 1759 
Q 1497 1759 1228 1600 
Q 959 1441 959 1056 
Q 959 750 1161 570 
Q 1363 391 1709 391 
Q 2188 391 2477 730 
Q 2766 1069 2766 1631 
L 2766 1759 
L 2194 1759 
z
M 3341 1997 
L 3341 0 
L 2766 0 
L 2766 531 
Q 2569 213 2275 61 
Q 1981 -91 1556 -91 
Q 1019 -91 701 211 
Q 384 513 384 1019 
Q 384 1609 779 1909 
Q 1175 2209 1959 2209 
L 2766 2209 
L 2766 2266 
Q 2766 2663 2505 2880 
Q 2244 3097 1772 3097 
Q 1472 3097 1187 3025 
Q 903 2953 641 2809 
L 641 3341 
Q 956 3463 1253 3523 
Q 1550 3584 1831 3584 
Q 2591 3584 2966 3190 
Q 3341 2797 3341 1997 
z
" transform="scale(0.015625)"/>
      <path id="DejaVuSans-73" d="M 2834 3397 
L 2834 2853 
Q 2591 2978 2328 3040 
Q 2066 3103 1784 3103 
Q 1356 3103 1142 2972 
Q 928 2841 928 2578 
Q 928 2378 1081 2264 
Q 1234 2150 1697 2047 
L 1894 2003 
Q 2506 1872 2764 1633 
Q 3022 1394 3022 966 
Q 3022 478 2636 193 
Q 2250 -91 1575 -91 
Q 1294 -91 989 -36 
Q 684 19 347 128 
L 347 722 
Q 666 556 975 473 
Q 1284 391 1588 391 
Q 1994 391 2212 530 
Q 2431 669 2431 922 
Q 2431 1156 2273 1281 
Q 2116 1406 1581 1522 
L 1381 1569 
Q 847 1681 609 1914 
Q 372 2147 372 2553 
Q 372 3047 722 3315 
Q 1072 3584 1716 3584 
Q 2034 3584 2315 3537 
Q 2597 3491 2834 3397 
z
" transform="scale(0.015625)"/>
      <path id="DejaVuSans-74" d="M 1172 4494 
L 1172 3500 
L 2356 3500 
L 2356 3053 
L 1172 3053 
L 1172 1153 
Q 1172 725 1289 603 
Q 1406 481 1766 481 
L 2356 481 
L 2356 0 
L 1766 0 
Q 1100 0 847 248 
Q 594 497 594 1153 
L 594 3053 
L 172 3053 
L 172 3500 
L 594 3500 
L 594 4494 
L 1172 4494 
z
" transform="scale(0.015625)"/>
      <path id="DejaVuSans-20" transform="scale(0.015625)"/>
      <path id="DejaVuSans-47" d="M 3809 666 
L 3809 1919 
L 2778 1919 
L 2778 2438 
L 4434 2438 
L 4434 434 
Q 4069 175 3628 42 
Q 3188 -91 2688 -91 
Q 1594 -91 976 548 
Q 359 1188 359 2328 
Q 359 3472 976 4111 
Q 1594 4750 2688 4750 
Q 3144 4750 3555 4637 
Q 3966 4525 4313 4306 
L 4313 3634 
Q 3963 3931 3569 4081 
Q 3175 4231 2741 4231 
Q 1884 4231 1454 3753 
Q 1025 3275 1025 2328 
Q 1025 1384 1454 906 
Q 1884 428 2741 428 
Q 3075 428 3337 486 
Q 3600 544 3809 666 
z
" transform="scale(0.015625)"/>
      <path id="DejaVuSans-64" d="M 2906 2969 
L 2906 4863 
L 3481 4863 
L 3481 0 
L 2906 0 
L 2906 525 
Q 2725 213 2448 61 
Q 2172 -91 1784 -91 
Q 1150 -91 751 415 
Q 353 922 353 1747 
Q 353 2572 751 3078 
Q 1150 3584 1784 3584 
Q 2172 3584 2448 3432 
Q 2725 3281 2906 2969 
z
M 947 1747 
Q 947 1113 1208 752 
Q 1469 391 1925 391 
Q 2381 391 2643 752 
Q 2906 1113 2906 1747 
Q 2906 2381 2643 2742 
Q 2381 3103 1925 3103 
Q 1469 3103 1208 2742 
Q 947 2381 947 1747 
z
" transform="scale(0.015625)"/>
      <path id="DejaVuSans-79" d="M 2059 -325 
Q 1816 -950 1584 -1140 
Q 1353 -1331 966 -1331 
L 506 -1331 
L 506 -850 
L 844 -850 
Q 1081 -850 1212 -737 
Q 1344 -625 1503 -206 
L 1606 56 
L 191 3500 
L 800 3500 
L 1894 763 
L 2988 3500 
L 3597 3500 
L 2059 -325 
z
" transform="scale(0.015625)"/>
      <path id="DejaVuSans-43" d="M 4122 4306 
L 4122 3641 
Q 3803 3938 3442 4084 
Q 3081 4231 2675 4231 
Q 1875 4231 1450 3742 
Q 1025 3253 1025 2328 
Q 1025 1406 1450 917 
Q 1875 428 2675 428 
Q 3081 428 3442 575 
Q 3803 722 4122 1019 
L 4122 359 
Q 3791 134 3420 21 
Q 3050 -91 2638 -91 
Q 1578 -91 968 557 
Q 359 1206 359 2328 
Q 359 3453 968 4101 
Q 1578 4750 2638 4750 
Q 3056 4750 3426 4639 
Q 3797 4528 4122 4306 
z
" transform="scale(0.015625)"/>
      <path id="DejaVuSans-6f" d="M 1959 3097 
Q 1497 3097 1228 2736 
Q 959 2375 959 1747 
Q 959 1119 1226 758 
Q 1494 397 1959 397 
Q 2419 397 2687 759 
Q 2956 1122 2956 1747 
Q 2956 2369 2687 2733 
Q 2419 3097 1959 3097 
z
M 1959 3584 
Q 2709 3584 3137 3096 
Q 3566 2609 3566 1747 
Q 3566 888 3137 398 
Q 2709 -91 1959 -91 
Q 1206 -91 779 398 
Q 353 888 353 1747 
Q 353 2609 779 3096 
Q 1206 3584 1959 3584 
z
" transform="scale(0.015625)"/>
      <path id="DejaVuSans-6d" d="M 3328 2828 
Q 3544 3216 3844 3400 
Q 4144 3584 4550 3584 
Q 5097 3584 5394 3201 
Q 5691 2819 5691 2113 
L 5691 0 
L 5113 0 
L 5113 2094 
Q 5113 2597 4934 2840 
Q 4756 3084 4391 3084 
Q 3944 3084 3684 2787 
Q 3425 2491 3425 1978 
L 3425 0 
L 2847 0 
L 2847 2094 
Q 2847 2600 2669 2842 
Q 2491 3084 2119 3084 
Q 1678 3084 1418 2786 
Q 1159 2488 1159 1978 
L 1159 0 
L 581 0 
L 581 3500 
L 1159 3500 
L 1159 2956 
Q 1356 3278 1631 3431 
Q 1906 3584 2284 3584 
Q 2666 3584 2933 3390 
Q 3200 3197 3328 2828 
z
" transform="scale(0.015625)"/>
      <path id="DejaVuSans-69" d="M 603 3500 
L 1178 3500 
L 1178 0 
L 603 0 
L 603 3500 
z
M 603 4863 
L 1178 4863 
L 1178 4134 
L 603 4134 
L 603 4863 
z
" transform="scale(0.015625)"/>
      <path id="DejaVuSans-27" d="M 1147 4666 
L 1147 2931 
L 616 2931 
L 616 4666 
L 1147 4666 
z
" transform="scale(0.015625)"/>
     </defs>
     <use xlink:href="#DejaVuSans-46"/>
     <use xlink:href="#DejaVuSans-61" x="48.394531"/>
     <use xlink:href="#DejaVuSans-73" x="109.673828"/>
     <use xlink:href="#DejaVuSans-74" x="161.773438"/>
     <use xlink:href="#DejaVuSans-20" x="200.982422"/>
     <use xlink:href="#DejaVuSans-47" x="232.769531"/>
     <use xlink:href="#DejaVuSans-72" x="310.259766"/>
     <use xlink:href="#DejaVuSans-65" x="349.123047"/>
     <use xlink:href="#DejaVuSans-65" x="410.646484"/>
     <use xlink:href="#DejaVuSans-64" x="472.169922"/>
     <use xlink:href="#DejaVuSans-79" x="535.646484"/>
     <use xlink:href="#DejaVuSans-20" x="594.826172"/>
     <use xlink:href="#DejaVuSans-43" x="626.613281"/>
     <use xlink:href="#DejaVuSans-6f" x="696.4375"/>
     <use xlink:href="#DejaVuSans-6d" x="757.619141"/>
     <use xlink:href="#DejaVuSans-6d" x="855.03125"/>
     <use xlink:href="#DejaVuSans-75" x="952.443359"/>
     <use xlink:href="#DejaVuSans-6e" x="1015.822266"/>
     <use xlink:href="#DejaVuSans-69" x="1079.201172"/>
     <use xlink:href="#DejaVuSans-74" x="1106.984375"/>
     <use xlink:href="#DejaVuSans-69" x="1146.193359"/>
     <use xlink:href="#DejaVuSans-65" x="1173.976562"/>
     <use xlink:href="#DejaVuSans-73" x="1235.5"/>
     <use xlink:href="#DejaVuSans-27" x="1287.599609"/>
     <use xlink:href="#DejaVuSans-20" x="1315.089844"/>
     <use xlink:href="#DejaVuSans-43" x="1346.876953"/>
     <use xlink:href="#DejaVuSans-6f" x="1416.701172"/>
     <use xlink:href="#DejaVuSans-6e" x="1477.882812"/>
     <use xlink:href="#DejaVuSans-6e" x="1541.261719"/>
     <use xlink:href="#DejaVuSans-65" x="1604.640625"/>
     <use xlink:href="#DejaVuSans-63" x="1666.164062"/>
     <use xlink:href="#DejaVuSans-74" x="1721.144531"/>
     <use xlink:href="#DejaVuSans-69" x="1760.353516"/>
     <use xlink:href="#DejaVuSans-6f" x="1788.136719"/>
     <use xlink:href="#DejaVuSans-6e" x="1849.318359"/>
     <use xlink:href="#DejaVuSans-73" x="1912.697266"/>
     <use xlink:href="#DejaVuSans-20" x="1964.796875"/>
    </g>
    <!-- 2 Year Interval, Ascedants -->
    <g transform="translate(132.522227 52.311)scale(0.24 -0.24)">
     <defs>
      <path id="DejaVuSans-59" d="M -13 4666 
L 666 4666 
L 1959 2747 
L 3244 4666 
L 3922 4666 
L 2272 2222 
L 2272 0 
L 1638 0 
L 1638 2222 
L -13 4666 
z
" transform="scale(0.015625)"/>
      <path id="DejaVuSans-76" d="M 191 3500 
L 800 3500 
L 1894 563 
L 2988 3500 
L 3597 3500 
L 2284 0 
L 1503 0 
L 191 3500 
z
" transform="scale(0.015625)"/>
      <path id="DejaVuSans-6c" d="M 603 4863 
L 1178 4863 
L 1178 0 
L 603 0 
L 603 4863 
z
" transform="scale(0.015625)"/>
      <path id="DejaVuSans-2c" d="M 750 794 
L 1409 794 
L 1409 256 
L 897 -744 
L 494 -744 
L 750 256 
L 750 794 
z
" transform="scale(0.015625)"/>
      <path id="DejaVuSans-41" d="M 2188 4044 
L 1331 1722 
L 3047 1722 
L 2188 4044 
z
M 1831 4666 
L 2547 4666 
L 4325 0 
L 3669 0 
L 3244 1197 
L 1141 1197 
L 716 0 
L 50 0 
L 1831 4666 
z
" transform="scale(0.015625)"/>
     </defs>
     <use xlink:href="#DejaVuSans-32"/>
     <use xlink:href="#DejaVuSans-20" x="63.623047"/>
     <use xlink:href="#DejaVuSans-59" x="95.410156"/>
     <use xlink:href="#DejaVuSans-65" x="143.244141"/>
     <use xlink:href="#DejaVuSans-61" x="204.767578"/>
     <use xlink:href="#DejaVuSans-72" x="266.046875"/>
     <use xlink:href="#DejaVuSans-20" x="307.160156"/>
     <use xlink:href="#DejaVuSans-49" x="338.947266"/>
     <use xlink:href="#DejaVuSans-6e" x="368.439453"/>
     <use xlink:href="#DejaVuSans-74" x="431.818359"/>
     <use xlink:href="#DejaVuSans-65" x="471.027344"/>
     <use xlink:href="#DejaVuSans-72" x="532.550781"/>
     <use xlink:href="#DejaVuSans-76" x="573.664062"/>
     <use xlink:href="#DejaVuSans-61" x="632.84375"/>
     <use xlink:href="#DejaVuSans-6c" x="694.123047"/>
     <use xlink:href="#DejaVuSans-2c" x="721.90625"/>
     <use xlink:href="#DejaVuSans-20" x="753.693359"/>
     <use xlink:href="#DejaVuSans-41" x="785.480469"/>
     <use xlink:href="#DejaVuSans-73" x="853.888672"/>
     <use xlink:href="#DejaVuSans-63" x="905.988281"/>
     <use xlink:href="#DejaVuSans-65" x="960.96875"/>
     <use xlink:href="#DejaVuSans-64" x="1022.492188"/>
     <use xlink:href="#DejaVuSans-61" x="1085.96875"/>
     <use xlink:href="#DejaVuSans-6e" x="1147.248047"/>
     <use xlink:href="#DejaVuSans-74" x="1210.626953"/>
     <use xlink:href="#DejaVuSans-73" x="1249.835938"/>
    </g>
   </g>
  </g>
  <g id="axes_2">
   <g id="patch_108">
    <path d="M 581.33625 424.311 
L 993.369453 424.311 
L 993.369453 58.311 
L 581.33625 58.311 
z
" style="fill: #ffffff"/>
   </g>
   <g id="patch_109">
    <path d="M 600.065032 166412.626277 
L 611.103505 166412.626277 
L 611.103505 82.464065 
L 600.065032 82.464065 
z
" clip-path="url(#p440463c55f)" style="fill: #ff00ff"/>
   </g>
   <g id="patch_110">
    <path d="M 611.103505 166412.626277 
L 611.132572 166412.626277 
L 611.132572 166412.626277 
L 611.103505 166412.626277 
z
" clip-path="url(#p440463c55f)" style="fill: #ff00ff"/>
   </g>
   <g id="patch_111">
    <path d="M 611.132572 166412.626277 
L 611.164137 166412.626277 
L 611.164137 166412.626277 
L 611.132572 166412.626277 
z
" clip-path="url(#p440463c55f)" style="fill: #ff00ff"/>
   </g>
   <g id="patch_112">
    <path d="M 611.164137 166412.626277 
L 611.198413 166412.626277 
L 611.198413 166412.626277 
L 611.164137 166412.626277 
z
" clip-path="url(#p440463c55f)" style="fill: #ff00ff"/>
   </g>
   <g id="patch_113">
    <path d="M 611.198413 166412.626277 
L 611.235633 166412.626277 
L 611.235633 166412.626277 
L 611.198413 166412.626277 
z
" clip-path="url(#p440463c55f)" style="fill: #ff00ff"/>
   </g>
   <g id="patch_114">
    <path d="M 611.235633 166412.626277 
L 611.276051 166412.626277 
L 611.276051 166412.626277 
L 611.235633 166412.626277 
z
" clip-path="url(#p440463c55f)" style="fill: #ff00ff"/>
   </g>
   <g id="patch_115">
    <path d="M 611.276051 166412.626277 
L 611.319941 166412.626277 
L 611.319941 166412.626277 
L 611.276051 166412.626277 
z
" clip-path="url(#p440463c55f)" style="fill: #ff00ff"/>
   </g>
   <g id="patch_116">
    <path d="M 611.319941 166412.626277 
L 611.367601 166412.626277 
L 611.367601 166412.626277 
L 611.319941 166412.626277 
z
" clip-path="url(#p440463c55f)" style="fill: #ff00ff"/>
   </g>
   <g id="patch_117">
    <path d="M 611.367601 166412.626277 
L 611.419356 166412.626277 
L 611.419356 166412.626277 
L 611.367601 166412.626277 
z
" clip-path="url(#p440463c55f)" style="fill: #ff00ff"/>
   </g>
   <g id="patch_118">
    <path d="M 611.419356 166412.626277 
L 611.475557 166412.626277 
L 611.475557 166412.626277 
L 611.419356 166412.626277 
z
" clip-path="url(#p440463c55f)" style="fill: #ff00ff"/>
   </g>
   <g id="patch_119">
    <path d="M 611.475557 166412.626277 
L 611.536585 166412.626277 
L 611.536585 166412.626277 
L 611.475557 166412.626277 
z
" clip-path="url(#p440463c55f)" style="fill: #ff00ff"/>
   </g>
   <g id="patch_120">
    <path d="M 611.536585 166412.626277 
L 611.602856 166412.626277 
L 611.602856 166412.626277 
L 611.536585 166412.626277 
z
" clip-path="url(#p440463c55f)" style="fill: #ff00ff"/>
   </g>
   <g id="patch_121">
    <path d="M 611.602856 166412.626277 
L 611.67482 166412.626277 
L 611.67482 166412.626277 
L 611.602856 166412.626277 
z
" clip-path="url(#p440463c55f)" style="fill: #ff00ff"/>
   </g>
   <g id="patch_122">
    <path d="M 611.67482 166412.626277 
L 611.752967 166412.626277 
L 611.752967 166412.626277 
L 611.67482 166412.626277 
z
" clip-path="url(#p440463c55f)" style="fill: #ff00ff"/>
   </g>
   <g id="patch_123">
    <path d="M 611.752967 166412.626277 
L 611.837826 166412.626277 
L 611.837826 166412.626277 
L 611.752967 166412.626277 
z
" clip-path="url(#p440463c55f)" style="fill: #ff00ff"/>
   </g>
   <g id="patch_124">
    <path d="M 611.837826 166412.626277 
L 611.929975 166412.626277 
L 611.929975 166412.626277 
L 611.837826 166412.626277 
z
" clip-path="url(#p440463c55f)" style="fill: #ff00ff"/>
   </g>
   <g id="patch_125">
    <path d="M 611.929975 166412.626277 
L 612.03004 166412.626277 
L 612.03004 166412.626277 
L 611.929975 166412.626277 
z
" clip-path="url(#p440463c55f)" style="fill: #ff00ff"/>
   </g>
   <g id="patch_126">
    <path d="M 612.03004 166412.626277 
L 612.138702 166412.626277 
L 612.138702 166412.626277 
L 612.03004 166412.626277 
z
" clip-path="url(#p440463c55f)" style="fill: #ff00ff"/>
   </g>
   <g id="patch_127">
    <path d="M 612.138702 166412.626277 
L 612.256698 166412.626277 
L 612.256698 166412.626277 
L 612.138702 166412.626277 
z
" clip-path="url(#p440463c55f)" style="fill: #ff00ff"/>
   </g>
   <g id="patch_128">
    <path d="M 612.256698 166412.626277 
L 612.38483 166412.626277 
L 612.38483 166412.626277 
L 612.256698 166412.626277 
z
" clip-path="url(#p440463c55f)" style="fill: #ff00ff"/>
   </g>
   <g id="patch_129">
    <path d="M 612.38483 166412.626277 
L 612.52397 166412.626277 
L 612.52397 166412.626277 
L 612.38483 166412.626277 
z
" clip-path="url(#p440463c55f)" style="fill: #ff00ff"/>
   </g>
   <g id="patch_130">
    <path d="M 612.52397 166412.626277 
L 612.675062 166412.626277 
L 612.675062 166412.626277 
L 612.52397 166412.626277 
z
" clip-path="url(#p440463c55f)" style="fill: #ff00ff"/>
   </g>
   <g id="patch_131">
    <path d="M 612.675062 166412.626277 
L 612.839134 166412.626277 
L 612.839134 166412.626277 
L 612.675062 166412.626277 
z
" clip-path="url(#p440463c55f)" style="fill: #ff00ff"/>
   </g>
   <g id="patch_132">
    <path d="M 612.839134 166412.626277 
L 613.017301 166412.626277 
L 613.017301 166412.626277 
L 612.839134 166412.626277 
z
" clip-path="url(#p440463c55f)" style="fill: #ff00ff"/>
   </g>
   <g id="patch_133">
    <path d="M 613.017301 166412.626277 
L 613.210773 166412.626277 
L 613.210773 166412.626277 
L 613.017301 166412.626277 
z
" clip-path="url(#p440463c55f)" style="fill: #ff00ff"/>
   </g>
   <g id="patch_134">
    <path d="M 613.210773 166412.626277 
L 613.420865 166412.626277 
L 613.420865 166412.626277 
L 613.210773 166412.626277 
z
" clip-path="url(#p440463c55f)" style="fill: #ff00ff"/>
   </g>
   <g id="patch_135">
    <path d="M 613.420865 166412.626277 
L 613.649005 166412.626277 
L 613.649005 166412.626277 
L 613.420865 166412.626277 
z
" clip-path="url(#p440463c55f)" style="fill: #ff00ff"/>
   </g>
   <g id="patch_136">
    <path d="M 613.649005 166412.626277 
L 613.896743 166412.626277 
L 613.896743 166412.626277 
L 613.649005 166412.626277 
z
" clip-path="url(#p440463c55f)" style="fill: #ff00ff"/>
   </g>
   <g id="patch_137">
    <path d="M 613.896743 166412.626277 
L 614.165764 166412.626277 
L 614.165764 166412.626277 
L 613.896743 166412.626277 
z
" clip-path="url(#p440463c55f)" style="fill: #ff00ff"/>
   </g>
   <g id="patch_138">
    <path d="M 614.165764 166412.626277 
L 614.457894 166412.626277 
L 614.457894 166412.626277 
L 614.165764 166412.626277 
z
" clip-path="url(#p440463c55f)" style="fill: #ff00ff"/>
   </g>
   <g id="patch_139">
    <path d="M 614.457894 166412.626277 
L 614.77512 166412.626277 
L 614.77512 166412.626277 
L 614.457894 166412.626277 
z
" clip-path="url(#p440463c55f)" style="fill: #ff00ff"/>
   </g>
   <g id="patch_140">
    <path d="M 614.77512 166412.626277 
L 615.119597 166412.626277 
L 615.119597 166412.626277 
L 614.77512 166412.626277 
z
" clip-path="url(#p440463c55f)" style="fill: #ff00ff"/>
   </g>
   <g id="patch_141">
    <path d="M 615.119597 166412.626277 
L 615.493667 166412.626277 
L 615.493667 166412.626277 
L 615.119597 166412.626277 
z
" clip-path="url(#p440463c55f)" style="fill: #ff00ff"/>
   </g>
   <g id="patch_142">
    <path d="M 615.493667 166412.626277 
L 615.899871 166412.626277 
L 615.899871 166412.626277 
L 615.493667 166412.626277 
z
" clip-path="url(#p440463c55f)" style="fill: #ff00ff"/>
   </g>
   <g id="patch_143">
    <path d="M 615.899871 166412.626277 
L 616.34097 166412.626277 
L 616.34097 166412.626277 
L 615.899871 166412.626277 
z
" clip-path="url(#p440463c55f)" style="fill: #ff00ff"/>
   </g>
   <g id="patch_144">
    <path d="M 616.34097 166412.626277 
L 616.819962 166412.626277 
L 616.819962 166412.626277 
L 616.34097 166412.626277 
z
" clip-path="url(#p440463c55f)" style="fill: #ff00ff"/>
   </g>
   <g id="patch_145">
    <path d="M 616.819962 166412.626277 
L 617.340101 166412.626277 
L 617.340101 166412.626277 
L 616.819962 166412.626277 
z
" clip-path="url(#p440463c55f)" style="fill: #ff00ff"/>
   </g>
   <g id="patch_146">
    <path d="M 617.340101 166412.626277 
L 617.904923 166412.626277 
L 617.904923 166412.626277 
L 617.340101 166412.626277 
z
" clip-path="url(#p440463c55f)" style="fill: #ff00ff"/>
   </g>
   <g id="patch_147">
    <path d="M 617.904923 166412.626277 
L 618.518266 166412.626277 
L 618.518266 166412.626277 
L 617.904923 166412.626277 
z
" clip-path="url(#p440463c55f)" style="fill: #ff00ff"/>
   </g>
   <g id="patch_148">
    <path d="M 618.518266 166412.626277 
L 619.184298 166412.626277 
L 619.184298 166412.626277 
L 618.518266 166412.626277 
z
" clip-path="url(#p440463c55f)" style="fill: #ff00ff"/>
   </g>
   <g id="patch_149">
    <path d="M 619.184298 166412.626277 
L 619.907545 166412.626277 
L 619.907545 166412.626277 
L 619.184298 166412.626277 
z
" clip-path="url(#p440463c55f)" style="fill: #ff00ff"/>
   </g>
   <g id="patch_150">
    <path d="M 619.907545 166412.626277 
L 620.692923 166412.626277 
L 620.692923 166412.626277 
L 619.907545 166412.626277 
z
" clip-path="url(#p440463c55f)" style="fill: #ff00ff"/>
   </g>
   <g id="patch_151">
    <path d="M 620.692923 166412.626277 
L 621.545769 166412.626277 
L 621.545769 166412.626277 
L 620.692923 166412.626277 
z
" clip-path="url(#p440463c55f)" style="fill: #ff00ff"/>
   </g>
   <g id="patch_152">
    <path d="M 621.545769 166412.626277 
L 622.471879 166412.626277 
L 622.471879 166412.626277 
L 621.545769 166412.626277 
z
" clip-path="url(#p440463c55f)" style="fill: #ff00ff"/>
   </g>
   <g id="patch_153">
    <path d="M 622.471879 166412.626277 
L 623.477546 166412.626277 
L 623.477546 166412.626277 
L 622.471879 166412.626277 
z
" clip-path="url(#p440463c55f)" style="fill: #ff00ff"/>
   </g>
   <g id="patch_154">
    <path d="M 623.477546 166412.626277 
L 624.569605 166412.626277 
L 624.569605 166412.626277 
L 623.477546 166412.626277 
z
" clip-path="url(#p440463c55f)" style="fill: #ff00ff"/>
   </g>
   <g id="patch_155">
    <path d="M 624.569605 166412.626277 
L 625.755477 166412.626277 
L 625.755477 166412.626277 
L 624.569605 166412.626277 
z
" clip-path="url(#p440463c55f)" style="fill: #ff00ff"/>
   </g>
   <g id="patch_156">
    <path d="M 625.755477 166412.626277 
L 627.043221 166412.626277 
L 627.043221 166412.626277 
L 625.755477 166412.626277 
z
" clip-path="url(#p440463c55f)" style="fill: #ff00ff"/>
   </g>
   <g id="patch_157">
    <path d="M 627.043221 166412.626277 
L 628.441589 166412.626277 
L 628.441589 166412.626277 
L 627.043221 166412.626277 
z
" clip-path="url(#p440463c55f)" style="fill: #ff00ff"/>
   </g>
   <g id="patch_158">
    <path d="M 628.441589 166412.626277 
L 629.960084 166412.626277 
L 629.960084 166412.626277 
L 628.441589 166412.626277 
z
" clip-path="url(#p440463c55f)" style="fill: #ff00ff"/>
   </g>
   <g id="patch_159">
    <path d="M 629.960084 166412.626277 
L 631.609024 166412.626277 
L 631.609024 166412.626277 
L 629.960084 166412.626277 
z
" clip-path="url(#p440463c55f)" style="fill: #ff00ff"/>
   </g>
   <g id="patch_160">
    <path d="M 631.609024 166412.626277 
L 633.399617 166412.626277 
L 633.399617 166412.626277 
L 631.609024 166412.626277 
z
" clip-path="url(#p440463c55f)" style="fill: #ff00ff"/>
   </g>
   <g id="patch_161">
    <path d="M 633.399617 166412.626277 
L 635.344031 166412.626277 
L 635.344031 166412.626277 
L 633.399617 166412.626277 
z
" clip-path="url(#p440463c55f)" style="fill: #ff00ff"/>
   </g>
   <g id="patch_162">
    <path d="M 635.344031 166412.626277 
L 637.45548 166412.626277 
L 637.45548 166412.626277 
L 635.344031 166412.626277 
z
" clip-path="url(#p440463c55f)" style="fill: #ff00ff"/>
   </g>
   <g id="patch_163">
    <path d="M 637.45548 166412.626277 
L 639.748312 166412.626277 
L 639.748312 166412.626277 
L 637.45548 166412.626277 
z
" clip-path="url(#p440463c55f)" style="fill: #ff00ff"/>
   </g>
   <g id="patch_164">
    <path d="M 639.748312 166412.626277 
L 642.23811 166412.626277 
L 642.23811 166412.626277 
L 639.748312 166412.626277 
z
" clip-path="url(#p440463c55f)" style="fill: #ff00ff"/>
   </g>
   <g id="patch_165">
    <path d="M 642.23811 166412.626277 
L 644.941795 166412.626277 
L 644.941795 166412.626277 
L 642.23811 166412.626277 
z
" clip-path="url(#p440463c55f)" style="fill: #ff00ff"/>
   </g>
   <g id="patch_166">
    <path d="M 644.941795 166412.626277 
L 647.877738 166412.626277 
L 647.877738 166412.626277 
L 644.941795 166412.626277 
z
" clip-path="url(#p440463c55f)" style="fill: #ff00ff"/>
   </g>
   <g id="patch_167">
    <path d="M 647.877738 166412.626277 
L 651.065895 166412.626277 
L 651.065895 166412.626277 
L 647.877738 166412.626277 
z
" clip-path="url(#p440463c55f)" style="fill: #ff00ff"/>
   </g>
   <g id="patch_168">
    <path d="M 651.065895 166412.626277 
L 654.527929 166412.626277 
L 654.527929 166412.626277 
L 651.065895 166412.626277 
z
" clip-path="url(#p440463c55f)" style="fill: #ff00ff"/>
   </g>
   <g id="patch_169">
    <path d="M 654.527929 166412.626277 
L 658.287369 166412.626277 
L 658.287369 166412.626277 
L 654.527929 166412.626277 
z
" clip-path="url(#p440463c55f)" style="fill: #ff00ff"/>
   </g>
   <g id="patch_170">
    <path d="M 658.287369 166412.626277 
L 662.369764 166412.626277 
L 662.369764 166412.626277 
L 658.287369 166412.626277 
z
" clip-path="url(#p440463c55f)" style="fill: #ff00ff"/>
   </g>
   <g id="patch_171">
    <path d="M 662.369764 166412.626277 
L 666.802857 166412.626277 
L 666.802857 166412.626277 
L 662.369764 166412.626277 
z
" clip-path="url(#p440463c55f)" style="fill: #ff00ff"/>
   </g>
   <g id="patch_172">
    <path d="M 666.802857 166412.626277 
L 671.616774 166412.626277 
L 671.616774 166412.626277 
L 666.802857 166412.626277 
z
" clip-path="url(#p440463c55f)" style="fill: #ff00ff"/>
   </g>
   <g id="patch_173">
    <path d="M 671.616774 166412.626277 
L 676.844231 166412.626277 
L 676.844231 166412.626277 
L 671.616774 166412.626277 
z
" clip-path="url(#p440463c55f)" style="fill: #ff00ff"/>
   </g>
   <g id="patch_174">
    <path d="M 676.844231 166412.626277 
L 682.520752 166412.626277 
L 682.520752 166412.626277 
L 676.844231 166412.626277 
z
" clip-path="url(#p440463c55f)" style="fill: #ff00ff"/>
   </g>
   <g id="patch_175">
    <path d="M 682.520752 166412.626277 
L 688.684915 166412.626277 
L 688.684915 166412.626277 
L 682.520752 166412.626277 
z
" clip-path="url(#p440463c55f)" style="fill: #ff00ff"/>
   </g>
   <g id="patch_176">
    <path d="M 688.684915 166412.626277 
L 695.378609 166412.626277 
L 695.378609 166412.626277 
L 688.684915 166412.626277 
z
" clip-path="url(#p440463c55f)" style="fill: #ff00ff"/>
   </g>
   <g id="patch_177">
    <path d="M 695.378609 166412.626277 
L 702.647325 166412.626277 
L 702.647325 166412.626277 
L 695.378609 166412.626277 
z
" clip-path="url(#p440463c55f)" style="fill: #ff00ff"/>
   </g>
   <g id="patch_178">
    <path d="M 702.647325 166412.626277 
L 710.54046 166412.626277 
L 710.54046 166412.626277 
L 702.647325 166412.626277 
z
" clip-path="url(#p440463c55f)" style="fill: #ff00ff"/>
   </g>
   <g id="patch_179">
    <path d="M 710.54046 166412.626277 
L 719.111654 166412.626277 
L 719.111654 74.947364 
L 710.54046 74.947364 
z
" clip-path="url(#p440463c55f)" style="fill: #ff00ff"/>
   </g>
   <g id="patch_180">
    <path d="M 719.111654 166412.626277 
L 728.419156 166412.626277 
L 728.419156 166412.626277 
L 719.111654 166412.626277 
z
" clip-path="url(#p440463c55f)" style="fill: #ff00ff"/>
   </g>
   <g id="patch_181">
    <path d="M 728.419156 166412.626277 
L 738.526218 166412.626277 
L 738.526218 166412.626277 
L 728.419156 166412.626277 
z
" clip-path="url(#p440463c55f)" style="fill: #ff00ff"/>
   </g>
   <g id="patch_182">
    <path d="M 738.526218 166412.626277 
L 749.501527 166412.626277 
L 749.501527 166412.626277 
L 738.526218 166412.626277 
z
" clip-path="url(#p440463c55f)" style="fill: #ff00ff"/>
   </g>
   <g id="patch_183">
    <path d="M 749.501527 166412.626277 
L 761.419669 166412.626277 
L 761.419669 166412.626277 
L 749.501527 166412.626277 
z
" clip-path="url(#p440463c55f)" style="fill: #ff00ff"/>
   </g>
   <g id="patch_184">
    <path d="M 761.419669 166412.626277 
L 774.361639 166412.626277 
L 774.361639 166412.626277 
L 761.419669 166412.626277 
z
" clip-path="url(#p440463c55f)" style="fill: #ff00ff"/>
   </g>
   <g id="patch_185">
    <path d="M 774.361639 166412.626277 
L 788.415388 166412.626277 
L 788.415388 166412.626277 
L 774.361639 166412.626277 
z
" clip-path="url(#p440463c55f)" style="fill: #ff00ff"/>
   </g>
   <g id="patch_186">
    <path d="M 788.415388 166412.626277 
L 803.676424 166412.626277 
L 803.676424 166412.626277 
L 788.415388 166412.626277 
z
" clip-path="url(#p440463c55f)" style="fill: #ff00ff"/>
   </g>
   <g id="patch_187">
    <path d="M 803.676424 166412.626277 
L 820.248458 166412.626277 
L 820.248458 166412.626277 
L 803.676424 166412.626277 
z
" clip-path="url(#p440463c55f)" style="fill: #ff00ff"/>
   </g>
   <g id="patch_188">
    <path d="M 820.248458 166412.626277 
L 829.875673 166412.626277 
L 829.875673 170.061164 
L 820.248458 170.061164 
z
" clip-path="url(#p440463c55f)" style="fill: #ff00ff"/>
   </g>
   <g id="patch_189">
    <path d="M 829.875673 166412.626277 
L 836.769245 166412.626277 
L 836.769245 166412.626277 
L 829.875673 166412.626277 
z
" clip-path="url(#p440463c55f)" style="fill: #ff00ff"/>
   </g>
   <g id="patch_190">
    <path d="M 836.769245 166412.626277 
L 843.662816 166412.626277 
L 843.662816 166412.626277 
L 836.769245 166412.626277 
z
" clip-path="url(#p440463c55f)" style="fill: #ff00ff"/>
   </g>
   <g id="patch_191">
    <path d="M 843.662816 166412.626277 
L 850.556387 166412.626277 
L 850.556387 166412.626277 
L 843.662816 166412.626277 
z
" clip-path="url(#p440463c55f)" style="fill: #ff00ff"/>
   </g>
   <g id="patch_192">
    <path d="M 850.556387 166412.626277 
L 857.449959 166412.626277 
L 857.449959 166412.626277 
L 850.556387 166412.626277 
z
" clip-path="url(#p440463c55f)" style="fill: #ff00ff"/>
   </g>
   <g id="patch_193">
    <path d="M 857.449959 166412.626277 
L 864.34353 166412.626277 
L 864.34353 203.414023 
L 857.449959 203.414023 
z
" clip-path="url(#p440463c55f)" style="fill: #ff00ff"/>
   </g>
   <g id="patch_194">
    <path d="M 864.34353 166412.626277 
L 871.237101 166412.626277 
L 871.237101 166412.626277 
L 864.34353 166412.626277 
z
" clip-path="url(#p440463c55f)" style="fill: #ff00ff"/>
   </g>
   <g id="patch_195">
    <path d="M 871.237101 166412.626277 
L 878.130673 166412.626277 
L 878.130673 166412.626277 
L 871.237101 166412.626277 
z
" clip-path="url(#p440463c55f)" style="fill: #ff00ff"/>
   </g>
   <g id="patch_196">
    <path d="M 878.130673 166412.626277 
L 885.024244 166412.626277 
L 885.024244 222.754524 
L 878.130673 222.754524 
z
" clip-path="url(#p440463c55f)" style="fill: #ff00ff"/>
   </g>
   <g id="patch_197">
    <path d="M 885.024244 166412.626277 
L 891.917815 166412.626277 
L 891.917815 166412.626277 
L 885.024244 166412.626277 
z
" clip-path="url(#p440463c55f)" style="fill: #ff00ff"/>
   </g>
   <g id="patch_198">
    <path d="M 891.917815 166412.626277 
L 898.811387 166412.626277 
L 898.811387 166412.626277 
L 891.917815 166412.626277 
z
" clip-path="url(#p440463c55f)" style="fill: #ff00ff"/>
   </g>
   <g id="patch_199">
    <path d="M 898.811387 166412.626277 
L 905.704958 166412.626277 
L 905.704958 257.757227 
L 898.811387 257.757227 
z
" clip-path="url(#p440463c55f)" style="fill: #ff00ff"/>
   </g>
   <g id="patch_200">
    <path d="M 905.704958 166412.626277 
L 912.598529 166412.626277 
L 912.598529 166412.626277 
L 905.704958 166412.626277 
z
" clip-path="url(#p440463c55f)" style="fill: #ff00ff"/>
   </g>
   <g id="patch_201">
    <path d="M 912.598529 166412.626277 
L 919.492101 166412.626277 
L 919.492101 267.384177 
L 912.598529 267.384177 
z
" clip-path="url(#p440463c55f)" style="fill: #ff00ff"/>
   </g>
   <g id="patch_202">
    <path d="M 919.492101 166412.626277 
L 926.385672 166412.626277 
L 926.385672 166412.626277 
L 919.492101 166412.626277 
z
" clip-path="url(#p440463c55f)" style="fill: #ff00ff"/>
   </g>
   <g id="patch_203">
    <path d="M 926.385672 166412.626277 
L 933.279243 166412.626277 
L 933.279243 307.729697 
L 926.385672 307.729697 
z
" clip-path="url(#p440463c55f)" style="fill: #ff00ff"/>
   </g>
   <g id="patch_204">
    <path d="M 933.279243 166412.626277 
L 940.172815 166412.626277 
L 940.172815 166412.626277 
L 933.279243 166412.626277 
z
" clip-path="url(#p440463c55f)" style="fill: #ff00ff"/>
   </g>
   <g id="patch_205">
    <path d="M 940.172815 166412.626277 
L 947.066386 166412.626277 
L 947.066386 166412.626277 
L 940.172815 166412.626277 
z
" clip-path="url(#p440463c55f)" style="fill: #ff00ff"/>
   </g>
   <g id="patch_206">
    <path d="M 947.066386 166412.626277 
L 953.959957 166412.626277 
L 953.959957 166412.626277 
L 947.066386 166412.626277 
z
" clip-path="url(#p440463c55f)" style="fill: #ff00ff"/>
   </g>
   <g id="patch_207">
    <path d="M 953.959957 166412.626277 
L 960.853529 166412.626277 
L 960.853529 407.674636 
L 953.959957 407.674636 
z
" clip-path="url(#p440463c55f)" style="fill: #ff00ff"/>
   </g>
   <g id="patch_208">
    <path d="M 960.853529 166412.626277 
L 967.7471 166412.626277 
L 967.7471 407.674636 
L 960.853529 407.674636 
z
" clip-path="url(#p440463c55f)" style="fill: #ff00ff"/>
   </g>
   <g id="patch_209">
    <path d="M 967.7471 166412.626277 
L 974.640671 166412.626277 
L 974.640671 407.674636 
L 967.7471 407.674636 
z
" clip-path="url(#p440463c55f)" style="fill: #ff00ff"/>
   </g>
   <g id="matplotlib.axis_3">
    <g id="xtick_4">
     <g id="line2d_15">
      <path d="M 610.765138 424.311 
L 610.765138 58.311 
" clip-path="url(#p440463c55f)" style="fill: none; stroke-dasharray: 2.96,1.28; stroke-dashoffset: 0; stroke: #b0b0b0; stroke-width: 0.8"/>
     </g>
     <g id="line2d_16">
      <g>
       <use xlink:href="#m61c21623db" x="610.765138" y="424.311" style="stroke: #000000; stroke-width: 0.8"/>
      </g>
     </g>
     <g id="text_11">
      <!-- $\mathdefault{0}$ -->
      <g transform="translate(605.005138 458.488187)scale(0.18 -0.18)">
       <use xlink:href="#DejaVuSans-30" transform="translate(0 0.78125)"/>
      </g>
     </g>
    </g>
    <g id="xtick_5">
     <g id="line2d_17">
      <path d="M 717.766197 424.311 
L 717.766197 58.311 
" clip-path="url(#p440463c55f)" style="fill: none; stroke-dasharray: 2.96,1.28; stroke-dashoffset: 0; stroke: #b0b0b0; stroke-width: 0.8"/>
     </g>
     <g id="line2d_18">
      <g>
       <use xlink:href="#m61c21623db" x="717.766197" y="424.311" style="stroke: #000000; stroke-width: 0.8"/>
      </g>
     </g>
     <g id="text_12">
      <!-- $\mathdefault{10^{0}}$ -->
      <g transform="translate(701.926197 458.488187)scale(0.18 -0.18)">
       <use xlink:href="#DejaVuSans-31" transform="translate(0 0.765625)"/>
       <use xlink:href="#DejaVuSans-30" transform="translate(63.623047 0.765625)"/>
       <use xlink:href="#DejaVuSans-30" transform="translate(128.203125 39.046875)scale(0.7)"/>
      </g>
     </g>
    </g>
    <g id="xtick_6">
     <g id="line2d_19">
      <path d="M 959.390212 424.311 
L 959.390212 58.311 
" clip-path="url(#p440463c55f)" style="fill: none; stroke-dasharray: 2.96,1.28; stroke-dashoffset: 0; stroke: #b0b0b0; stroke-width: 0.8"/>
     </g>
     <g id="line2d_20">
      <g>
       <use xlink:href="#m61c21623db" x="959.390212" y="424.311" style="stroke: #000000; stroke-width: 0.8"/>
      </g>
     </g>
     <g id="text_13">
      <!-- $\mathdefault{10^{1}}$ -->
      <g transform="translate(943.550212 458.488187)scale(0.18 -0.18)">
       <use xlink:href="#DejaVuSans-31" transform="translate(0 0.684375)"/>
       <use xlink:href="#DejaVuSans-30" transform="translate(63.623047 0.684375)"/>
       <use xlink:href="#DejaVuSans-31" transform="translate(128.203125 38.965625)scale(0.7)"/>
      </g>
     </g>
    </g>
    <g id="text_14">
     <!-- OutDegree -->
     <g transform="translate(732.829414 481.4285)scale(0.2 -0.2)">
      <use xlink:href="#DejaVuSans-4f"/>
      <use xlink:href="#DejaVuSans-75" x="78.710938"/>
      <use xlink:href="#DejaVuSans-74" x="142.089844"/>
      <use xlink:href="#DejaVuSans-44" x="181.298828"/>
      <use xlink:href="#DejaVuSans-65" x="258.300781"/>
      <use xlink:href="#DejaVuSans-67" x="319.824219"/>
      <use xlink:href="#DejaVuSans-72" x="383.300781"/>
      <use xlink:href="#DejaVuSans-65" x="422.164062"/>
      <use xlink:href="#DejaVuSans-65" x="483.6875"/>
     </g>
    </g>
   </g>
   <g id="matplotlib.axis_4">
    <g id="ytick_5">
     <g id="line2d_21">
      <path d="M 581.33625 407.674636 
L 993.369453 407.674636 
" clip-path="url(#p440463c55f)" style="fill: none; stroke-dasharray: 2.96,1.28; stroke-dashoffset: 0; stroke: #b0b0b0; stroke-width: 0.8"/>
     </g>
     <g id="line2d_22">
      <g>
       <use xlink:href="#m63a2bc6d82" x="581.33625" y="407.674636" style="stroke: #000000; stroke-width: 0.8"/>
      </g>
     </g>
     <g id="text_15">
      <!-- $\mathdefault{10^{0}}$ -->
      <g transform="translate(529.15625 414.51323)scale(0.18 -0.18)">
       <use xlink:href="#DejaVuSans-31" transform="translate(0 0.765625)"/>
       <use xlink:href="#DejaVuSans-30" transform="translate(63.623047 0.765625)"/>
       <use xlink:href="#DejaVuSans-30" transform="translate(128.203125 39.046875)scale(0.7)"/>
      </g>
     </g>
    </g>
    <g id="ytick_6">
     <g id="line2d_23">
      <path d="M 581.33625 241.669685 
L 993.369453 241.669685 
" clip-path="url(#p440463c55f)" style="fill: none; stroke-dasharray: 2.96,1.28; stroke-dashoffset: 0; stroke: #b0b0b0; stroke-width: 0.8"/>
     </g>
     <g id="line2d_24">
      <g>
       <use xlink:href="#m63a2bc6d82" x="581.33625" y="241.669685" style="stroke: #000000; stroke-width: 0.8"/>
      </g>
     </g>
     <g id="text_16">
      <!-- $\mathdefault{10^{1}}$ -->
      <g transform="translate(529.15625 248.508278)scale(0.18 -0.18)">
       <use xlink:href="#DejaVuSans-31" transform="translate(0 0.684375)"/>
       <use xlink:href="#DejaVuSans-30" transform="translate(63.623047 0.684375)"/>
       <use xlink:href="#DejaVuSans-31" transform="translate(128.203125 38.965625)scale(0.7)"/>
      </g>
     </g>
    </g>
    <g id="ytick_7">
     <g id="line2d_25">
      <path d="M 581.33625 75.664733 
L 993.369453 75.664733 
" clip-path="url(#p440463c55f)" style="fill: none; stroke-dasharray: 2.96,1.28; stroke-dashoffset: 0; stroke: #b0b0b0; stroke-width: 0.8"/>
     </g>
     <g id="line2d_26">
      <g>
       <use xlink:href="#m63a2bc6d82" x="581.33625" y="75.664733" style="stroke: #000000; stroke-width: 0.8"/>
      </g>
     </g>
     <g id="text_17">
      <!-- $\mathdefault{10^{2}}$ -->
      <g transform="translate(529.15625 82.503327)scale(0.18 -0.18)">
       <use xlink:href="#DejaVuSans-31" transform="translate(0 0.765625)"/>
       <use xlink:href="#DejaVuSans-30" transform="translate(63.623047 0.765625)"/>
       <use xlink:href="#DejaVuSans-32" transform="translate(128.203125 39.046875)scale(0.7)"/>
      </g>
     </g>
    </g>
    <g id="ytick_8">
     <g id="line2d_27">
      <defs>
       <path id="m51cf2a5978" d="M 0 0 
L -7 0 
" style="stroke: #000000; stroke-width: 0.6"/>
      </defs>
      <g>
       <use xlink:href="#m51cf2a5978" x="581.33625" y="423.762178" style="stroke: #000000; stroke-width: 0.6"/>
      </g>
     </g>
    </g>
    <g id="ytick_9">
     <g id="line2d_28">
      <g>
       <use xlink:href="#m51cf2a5978" x="581.33625" y="415.270606" style="stroke: #000000; stroke-width: 0.6"/>
      </g>
     </g>
    </g>
    <g id="ytick_10">
     <g id="line2d_29">
      <g>
       <use xlink:href="#m51cf2a5978" x="581.33625" y="357.702166" style="stroke: #000000; stroke-width: 0.6"/>
      </g>
     </g>
    </g>
    <g id="ytick_11">
     <g id="line2d_30">
      <g>
       <use xlink:href="#m51cf2a5978" x="581.33625" y="328.470146" style="stroke: #000000; stroke-width: 0.6"/>
      </g>
     </g>
    </g>
    <g id="ytick_12">
     <g id="line2d_31">
      <g>
       <use xlink:href="#m51cf2a5978" x="581.33625" y="307.729697" style="stroke: #000000; stroke-width: 0.6"/>
      </g>
     </g>
    </g>
    <g id="ytick_13">
     <g id="line2d_32">
      <g>
       <use xlink:href="#m51cf2a5978" x="581.33625" y="291.642155" style="stroke: #000000; stroke-width: 0.6"/>
      </g>
     </g>
    </g>
    <g id="ytick_14">
     <g id="line2d_33">
      <g>
       <use xlink:href="#m51cf2a5978" x="581.33625" y="278.497676" style="stroke: #000000; stroke-width: 0.6"/>
      </g>
     </g>
    </g>
    <g id="ytick_15">
     <g id="line2d_34">
      <g>
       <use xlink:href="#m51cf2a5978" x="581.33625" y="267.384177" style="stroke: #000000; stroke-width: 0.6"/>
      </g>
     </g>
    </g>
    <g id="ytick_16">
     <g id="line2d_35">
      <g>
       <use xlink:href="#m51cf2a5978" x="581.33625" y="257.757227" style="stroke: #000000; stroke-width: 0.6"/>
      </g>
     </g>
    </g>
    <g id="ytick_17">
     <g id="line2d_36">
      <g>
       <use xlink:href="#m51cf2a5978" x="581.33625" y="249.265655" style="stroke: #000000; stroke-width: 0.6"/>
      </g>
     </g>
    </g>
    <g id="ytick_18">
     <g id="line2d_37">
      <g>
       <use xlink:href="#m51cf2a5978" x="581.33625" y="191.697215" style="stroke: #000000; stroke-width: 0.6"/>
      </g>
     </g>
    </g>
    <g id="ytick_19">
     <g id="line2d_38">
      <g>
       <use xlink:href="#m51cf2a5978" x="581.33625" y="162.465194" style="stroke: #000000; stroke-width: 0.6"/>
      </g>
     </g>
    </g>
    <g id="ytick_20">
     <g id="line2d_39">
      <g>
       <use xlink:href="#m51cf2a5978" x="581.33625" y="141.724745" style="stroke: #000000; stroke-width: 0.6"/>
      </g>
     </g>
    </g>
    <g id="ytick_21">
     <g id="line2d_40">
      <g>
       <use xlink:href="#m51cf2a5978" x="581.33625" y="125.637203" style="stroke: #000000; stroke-width: 0.6"/>
      </g>
     </g>
    </g>
    <g id="ytick_22">
     <g id="line2d_41">
      <g>
       <use xlink:href="#m51cf2a5978" x="581.33625" y="112.492724" style="stroke: #000000; stroke-width: 0.6"/>
      </g>
     </g>
    </g>
    <g id="ytick_23">
     <g id="line2d_42">
      <g>
       <use xlink:href="#m51cf2a5978" x="581.33625" y="101.379225" style="stroke: #000000; stroke-width: 0.6"/>
      </g>
     </g>
    </g>
    <g id="ytick_24">
     <g id="line2d_43">
      <g>
       <use xlink:href="#m51cf2a5978" x="581.33625" y="91.752275" style="stroke: #000000; stroke-width: 0.6"/>
      </g>
     </g>
    </g>
    <g id="ytick_25">
     <g id="line2d_44">
      <g>
       <use xlink:href="#m51cf2a5978" x="581.33625" y="83.260703" style="stroke: #000000; stroke-width: 0.6"/>
      </g>
     </g>
    </g>
    <g id="text_18">
     <!-- Occurence -->
     <g transform="translate(520.996875 294.545375)rotate(-90)scale(0.2 -0.2)">
      <use xlink:href="#DejaVuSans-4f"/>
      <use xlink:href="#DejaVuSans-63" x="78.710938"/>
      <use xlink:href="#DejaVuSans-63" x="133.691406"/>
      <use xlink:href="#DejaVuSans-75" x="188.671875"/>
      <use xlink:href="#DejaVuSans-72" x="252.050781"/>
      <use xlink:href="#DejaVuSans-65" x="290.914062"/>
      <use xlink:href="#DejaVuSans-6e" x="352.4375"/>
      <use xlink:href="#DejaVuSans-63" x="415.816406"/>
      <use xlink:href="#DejaVuSans-65" x="470.796875"/>
     </g>
    </g>
   </g>
   <g id="patch_210">
    <path d="M 581.33625 424.311 
L 581.33625 58.311 
" style="fill: none; stroke: #000000; stroke-width: 0.8; stroke-linejoin: miter; stroke-linecap: square"/>
   </g>
   <g id="patch_211">
    <path d="M 993.369453 424.311 
L 993.369453 58.311 
" style="fill: none; stroke: #000000; stroke-width: 0.8; stroke-linejoin: miter; stroke-linecap: square"/>
   </g>
   <g id="patch_212">
    <path d="M 581.33625 424.311 
L 993.369453 424.311 
" style="fill: none; stroke: #000000; stroke-width: 0.8; stroke-linejoin: miter; stroke-linecap: square"/>
   </g>
   <g id="patch_213">
    <path d="M 581.33625 58.311 
L 993.369453 58.311 
" style="fill: none; stroke: #000000; stroke-width: 0.8; stroke-linejoin: miter; stroke-linecap: square"/>
   </g>
   <g id="text_19">
    <!-- Fast Greedy Communities' Connections  -->
    <g transform="translate(547.767227 25.43625)scale(0.24 -0.24)">
     <use xlink:href="#DejaVuSans-46"/>
     <use xlink:href="#DejaVuSans-61" x="48.394531"/>
     <use xlink:href="#DejaVuSans-73" x="109.673828"/>
     <use xlink:href="#DejaVuSans-74" x="161.773438"/>
     <use xlink:href="#DejaVuSans-20" x="200.982422"/>
     <use xlink:href="#DejaVuSans-47" x="232.769531"/>
     <use xlink:href="#DejaVuSans-72" x="310.259766"/>
     <use xlink:href="#DejaVuSans-65" x="349.123047"/>
     <use xlink:href="#DejaVuSans-65" x="410.646484"/>
     <use xlink:href="#DejaVuSans-64" x="472.169922"/>
     <use xlink:href="#DejaVuSans-79" x="535.646484"/>
     <use xlink:href="#DejaVuSans-20" x="594.826172"/>
     <use xlink:href="#DejaVuSans-43" x="626.613281"/>
     <use xlink:href="#DejaVuSans-6f" x="696.4375"/>
     <use xlink:href="#DejaVuSans-6d" x="757.619141"/>
     <use xlink:href="#DejaVuSans-6d" x="855.03125"/>
     <use xlink:href="#DejaVuSans-75" x="952.443359"/>
     <use xlink:href="#DejaVuSans-6e" x="1015.822266"/>
     <use xlink:href="#DejaVuSans-69" x="1079.201172"/>
     <use xlink:href="#DejaVuSans-74" x="1106.984375"/>
     <use xlink:href="#DejaVuSans-69" x="1146.193359"/>
     <use xlink:href="#DejaVuSans-65" x="1173.976562"/>
     <use xlink:href="#DejaVuSans-73" x="1235.5"/>
     <use xlink:href="#DejaVuSans-27" x="1287.599609"/>
     <use xlink:href="#DejaVuSans-20" x="1315.089844"/>
     <use xlink:href="#DejaVuSans-43" x="1346.876953"/>
     <use xlink:href="#DejaVuSans-6f" x="1416.701172"/>
     <use xlink:href="#DejaVuSans-6e" x="1477.882812"/>
     <use xlink:href="#DejaVuSans-6e" x="1541.261719"/>
     <use xlink:href="#DejaVuSans-65" x="1604.640625"/>
     <use xlink:href="#DejaVuSans-63" x="1666.164062"/>
     <use xlink:href="#DejaVuSans-74" x="1721.144531"/>
     <use xlink:href="#DejaVuSans-69" x="1760.353516"/>
     <use xlink:href="#DejaVuSans-6f" x="1788.136719"/>
     <use xlink:href="#DejaVuSans-6e" x="1849.318359"/>
     <use xlink:href="#DejaVuSans-73" x="1912.697266"/>
     <use xlink:href="#DejaVuSans-20" x="1964.796875"/>
    </g>
    <!-- 2 Year Interval, Descendants -->
    <g transform="translate(615.102227 52.311)scale(0.24 -0.24)">
     <use xlink:href="#DejaVuSans-32"/>
     <use xlink:href="#DejaVuSans-20" x="63.623047"/>
     <use xlink:href="#DejaVuSans-59" x="95.410156"/>
     <use xlink:href="#DejaVuSans-65" x="143.244141"/>
     <use xlink:href="#DejaVuSans-61" x="204.767578"/>
     <use xlink:href="#DejaVuSans-72" x="266.046875"/>
     <use xlink:href="#DejaVuSans-20" x="307.160156"/>
     <use xlink:href="#DejaVuSans-49" x="338.947266"/>
     <use xlink:href="#DejaVuSans-6e" x="368.439453"/>
     <use xlink:href="#DejaVuSans-74" x="431.818359"/>
     <use xlink:href="#DejaVuSans-65" x="471.027344"/>
     <use xlink:href="#DejaVuSans-72" x="532.550781"/>
     <use xlink:href="#DejaVuSans-76" x="573.664062"/>
     <use xlink:href="#DejaVuSans-61" x="632.84375"/>
     <use xlink:href="#DejaVuSans-6c" x="694.123047"/>
     <use xlink:href="#DejaVuSans-2c" x="721.90625"/>
     <use xlink:href="#DejaVuSans-20" x="753.693359"/>
     <use xlink:href="#DejaVuSans-44" x="785.480469"/>
     <use xlink:href="#DejaVuSans-65" x="862.482422"/>
     <use xlink:href="#DejaVuSans-73" x="924.005859"/>
     <use xlink:href="#DejaVuSans-63" x="976.105469"/>
     <use xlink:href="#DejaVuSans-65" x="1031.085938"/>
     <use xlink:href="#DejaVuSans-6e" x="1092.609375"/>
     <use xlink:href="#DejaVuSans-64" x="1155.988281"/>
     <use xlink:href="#DejaVuSans-61" x="1219.464844"/>
     <use xlink:href="#DejaVuSans-6e" x="1280.744141"/>
     <use xlink:href="#DejaVuSans-74" x="1344.123047"/>
     <use xlink:href="#DejaVuSans-73" x="1383.332031"/>
    </g>
   </g>
  </g>
 </g>
 <defs>
  <clipPath id="pab367e2448">
   <rect x="82.73625" y="58.311" width="412.033203" height="366"/>
  </clipPath>
  <clipPath id="p440463c55f">
   <rect x="581.33625" y="58.311" width="412.033203" height="366"/>
  </clipPath>
 </defs>
</svg>
