<?xml version="1.0" encoding="utf-8" standalone="no"?>
<!DOCTYPE svg PUBLIC "-//W3C//DTD SVG 1.1//EN"
  "http://www.w3.org/Graphics/SVG/1.1/DTD/svg11.dtd">
<svg xmlns:xlink="http://www.w3.org/1999/xlink" width="1012.069102pt" height="492.787875pt" viewBox="0 0 1012.069102 492.787875" xmlns="http://www.w3.org/2000/svg" version="1.1">
 <metadata>
  <rdf:RDF xmlns:dc="http://purl.org/dc/elements/1.1/" xmlns:cc="http://creativecommons.org/ns#" xmlns:rdf="http://www.w3.org/1999/02/22-rdf-syntax-ns#">
   <cc:Work>
    <dc:type rdf:resource="http://purl.org/dc/dcmitype/StillImage"/>
    <dc:date>2022-05-08T18:47:39.169765</dc:date>
    <dc:format>image/svg+xml</dc:format>
    <dc:creator>
     <cc:Agent>
      <dc:title>Matplotlib v3.5.1, https://matplotlib.org/</dc:title>
     </cc:Agent>
    </dc:creator>
   </cc:Work>
  </rdf:RDF>
 </metadata>
 <defs>
  <style type="text/css">*{stroke-linejoin: round; stroke-linecap: butt}</style>
 </defs>
 <g id="figure_1">
  <g id="patch_1">
   <path d="M 0 492.787875 
L 1012.069102 492.787875 
L 1012.069102 0 
L 0 0 
L 0 492.787875 
z
" style="fill: none"/>
  </g>
  <g id="axes_1">
   <g id="patch_2">
    <path d="M 82.73625 424.311 
L 494.894453 424.311 
L 494.894453 58.311 
L 82.73625 58.311 
z
" style="fill: #ffffff"/>
   </g>
   <g id="patch_3">
    <path d="M 101.470714 424.311 
L 113.61184 424.311 
L 113.61184 143.847449 
L 101.470714 143.847449 
z
" clip-path="url(#p3a61265a16)" style="fill: #ff00ff"/>
   </g>
   <g id="patch_4">
    <path d="M 113.61184 424.311 
L 113.642175 424.311 
L 113.642175 424.311 
L 113.61184 424.311 
z
" clip-path="url(#p3a61265a16)" style="fill: #ff00ff"/>
   </g>
   <g id="patch_5">
    <path d="M 113.642175 424.311 
L 113.674984 424.311 
L 113.674984 424.311 
L 113.642175 424.311 
z
" clip-path="url(#p3a61265a16)" style="fill: #ff00ff"/>
   </g>
   <g id="patch_6">
    <path d="M 113.674984 424.311 
L 113.710466 424.311 
L 113.710466 424.311 
L 113.674984 424.311 
z
" clip-path="url(#p3a61265a16)" style="fill: #ff00ff"/>
   </g>
   <g id="patch_7">
    <path d="M 113.710466 424.311 
L 113.748841 424.311 
L 113.748841 424.311 
L 113.710466 424.311 
z
" clip-path="url(#p3a61265a16)" style="fill: #ff00ff"/>
   </g>
   <g id="patch_8">
    <path d="M 113.748841 424.311 
L 113.790344 424.311 
L 113.790344 424.311 
L 113.748841 424.311 
z
" clip-path="url(#p3a61265a16)" style="fill: #ff00ff"/>
   </g>
   <g id="patch_9">
    <path d="M 113.790344 424.311 
L 113.83523 424.311 
L 113.83523 424.311 
L 113.790344 424.311 
z
" clip-path="url(#p3a61265a16)" style="fill: #ff00ff"/>
   </g>
   <g id="patch_10">
    <path d="M 113.83523 424.311 
L 113.883774 424.311 
L 113.883774 424.311 
L 113.83523 424.311 
z
" clip-path="url(#p3a61265a16)" style="fill: #ff00ff"/>
   </g>
   <g id="patch_11">
    <path d="M 113.883774 424.311 
L 113.936275 424.311 
L 113.936275 424.311 
L 113.883774 424.311 
z
" clip-path="url(#p3a61265a16)" style="fill: #ff00ff"/>
   </g>
   <g id="patch_12">
    <path d="M 113.936275 424.311 
L 113.993056 424.311 
L 113.993056 424.311 
L 113.936275 424.311 
z
" clip-path="url(#p3a61265a16)" style="fill: #ff00ff"/>
   </g>
   <g id="patch_13">
    <path d="M 113.993056 424.311 
L 114.054465 424.311 
L 114.054465 424.311 
L 113.993056 424.311 
z
" clip-path="url(#p3a61265a16)" style="fill: #ff00ff"/>
   </g>
   <g id="patch_14">
    <path d="M 114.054465 424.311 
L 114.120879 424.311 
L 114.120879 424.311 
L 114.054465 424.311 
z
" clip-path="url(#p3a61265a16)" style="fill: #ff00ff"/>
   </g>
   <g id="patch_15">
    <path d="M 114.120879 424.311 
L 114.192707 424.311 
L 114.192707 424.311 
L 114.120879 424.311 
z
" clip-path="url(#p3a61265a16)" style="fill: #ff00ff"/>
   </g>
   <g id="patch_16">
    <path d="M 114.192707 424.311 
L 114.27039 424.311 
L 114.27039 424.311 
L 114.192707 424.311 
z
" clip-path="url(#p3a61265a16)" style="fill: #ff00ff"/>
   </g>
   <g id="patch_17">
    <path d="M 114.27039 424.311 
L 114.354405 424.311 
L 114.354405 424.311 
L 114.27039 424.311 
z
" clip-path="url(#p3a61265a16)" style="fill: #ff00ff"/>
   </g>
   <g id="patch_18">
    <path d="M 114.354405 424.311 
L 114.445268 424.311 
L 114.445268 424.311 
L 114.354405 424.311 
z
" clip-path="url(#p3a61265a16)" style="fill: #ff00ff"/>
   </g>
   <g id="patch_19">
    <path d="M 114.445268 424.311 
L 114.543537 424.311 
L 114.543537 424.311 
L 114.445268 424.311 
z
" clip-path="url(#p3a61265a16)" style="fill: #ff00ff"/>
   </g>
   <g id="patch_20">
    <path d="M 114.543537 424.311 
L 114.649816 424.311 
L 114.649816 424.311 
L 114.543537 424.311 
z
" clip-path="url(#p3a61265a16)" style="fill: #ff00ff"/>
   </g>
   <g id="patch_21">
    <path d="M 114.649816 424.311 
L 114.764758 424.311 
L 114.764758 424.311 
L 114.649816 424.311 
z
" clip-path="url(#p3a61265a16)" style="fill: #ff00ff"/>
   </g>
   <g id="patch_22">
    <path d="M 114.764758 424.311 
L 114.889069 424.311 
L 114.889069 424.311 
L 114.764758 424.311 
z
" clip-path="url(#p3a61265a16)" style="fill: #ff00ff"/>
   </g>
   <g id="patch_23">
    <path d="M 114.889069 424.311 
L 115.023513 424.311 
L 115.023513 424.311 
L 114.889069 424.311 
z
" clip-path="url(#p3a61265a16)" style="fill: #ff00ff"/>
   </g>
   <g id="patch_24">
    <path d="M 115.023513 424.311 
L 115.168915 424.311 
L 115.168915 424.311 
L 115.023513 424.311 
z
" clip-path="url(#p3a61265a16)" style="fill: #ff00ff"/>
   </g>
   <g id="patch_25">
    <path d="M 115.168915 424.311 
L 115.32617 424.311 
L 115.32617 424.311 
L 115.168915 424.311 
z
" clip-path="url(#p3a61265a16)" style="fill: #ff00ff"/>
   </g>
   <g id="patch_26">
    <path d="M 115.32617 424.311 
L 115.496242 424.311 
L 115.496242 424.311 
L 115.32617 424.311 
z
" clip-path="url(#p3a61265a16)" style="fill: #ff00ff"/>
   </g>
   <g id="patch_27">
    <path d="M 115.496242 424.311 
L 115.680177 424.311 
L 115.680177 424.311 
L 115.496242 424.311 
z
" clip-path="url(#p3a61265a16)" style="fill: #ff00ff"/>
   </g>
   <g id="patch_28">
    <path d="M 115.680177 424.311 
L 115.879105 424.311 
L 115.879105 424.311 
L 115.680177 424.311 
z
" clip-path="url(#p3a61265a16)" style="fill: #ff00ff"/>
   </g>
   <g id="patch_29">
    <path d="M 115.879105 424.311 
L 116.094247 424.311 
L 116.094247 424.311 
L 115.879105 424.311 
z
" clip-path="url(#p3a61265a16)" style="fill: #ff00ff"/>
   </g>
   <g id="patch_30">
    <path d="M 116.094247 424.311 
L 116.326926 424.311 
L 116.326926 424.311 
L 116.094247 424.311 
z
" clip-path="url(#p3a61265a16)" style="fill: #ff00ff"/>
   </g>
   <g id="patch_31">
    <path d="M 116.326926 424.311 
L 116.578571 424.311 
L 116.578571 424.311 
L 116.326926 424.311 
z
" clip-path="url(#p3a61265a16)" style="fill: #ff00ff"/>
   </g>
   <g id="patch_32">
    <path d="M 116.578571 424.311 
L 116.850728 424.311 
L 116.850728 424.311 
L 116.578571 424.311 
z
" clip-path="url(#p3a61265a16)" style="fill: #ff00ff"/>
   </g>
   <g id="patch_33">
    <path d="M 116.850728 424.311 
L 117.145068 424.311 
L 117.145068 424.311 
L 116.850728 424.311 
z
" clip-path="url(#p3a61265a16)" style="fill: #ff00ff"/>
   </g>
   <g id="patch_34">
    <path d="M 117.145068 424.311 
L 117.4634 424.311 
L 117.4634 424.311 
L 117.145068 424.311 
z
" clip-path="url(#p3a61265a16)" style="fill: #ff00ff"/>
   </g>
   <g id="patch_35">
    <path d="M 117.4634 424.311 
L 117.80768 424.311 
L 117.80768 424.311 
L 117.4634 424.311 
z
" clip-path="url(#p3a61265a16)" style="fill: #ff00ff"/>
   </g>
   <g id="patch_36">
    <path d="M 117.80768 424.311 
L 118.180023 424.311 
L 118.180023 424.311 
L 117.80768 424.311 
z
" clip-path="url(#p3a61265a16)" style="fill: #ff00ff"/>
   </g>
   <g id="patch_37">
    <path d="M 118.180023 424.311 
L 118.582715 424.311 
L 118.582715 424.311 
L 118.180023 424.311 
z
" clip-path="url(#p3a61265a16)" style="fill: #ff00ff"/>
   </g>
   <g id="patch_38">
    <path d="M 118.582715 424.311 
L 119.018231 424.311 
L 119.018231 424.311 
L 118.582715 424.311 
z
" clip-path="url(#p3a61265a16)" style="fill: #ff00ff"/>
   </g>
   <g id="patch_39">
    <path d="M 119.018231 424.311 
L 119.489247 424.311 
L 119.489247 424.311 
L 119.018231 424.311 
z
" clip-path="url(#p3a61265a16)" style="fill: #ff00ff"/>
   </g>
   <g id="patch_40">
    <path d="M 119.489247 424.311 
L 119.998655 424.311 
L 119.998655 424.311 
L 119.489247 424.311 
z
" clip-path="url(#p3a61265a16)" style="fill: #ff00ff"/>
   </g>
   <g id="patch_41">
    <path d="M 119.998655 424.311 
L 120.549586 424.311 
L 120.549586 424.311 
L 119.998655 424.311 
z
" clip-path="url(#p3a61265a16)" style="fill: #ff00ff"/>
   </g>
   <g id="patch_42">
    <path d="M 120.549586 424.311 
L 121.145423 424.311 
L 121.145423 424.311 
L 120.549586 424.311 
z
" clip-path="url(#p3a61265a16)" style="fill: #ff00ff"/>
   </g>
   <g id="patch_43">
    <path d="M 121.145423 424.311 
L 121.789828 424.311 
L 121.789828 424.311 
L 121.145423 424.311 
z
" clip-path="url(#p3a61265a16)" style="fill: #ff00ff"/>
   </g>
   <g id="patch_44">
    <path d="M 121.789828 424.311 
L 122.486759 424.311 
L 122.486759 424.311 
L 121.789828 424.311 
z
" clip-path="url(#p3a61265a16)" style="fill: #ff00ff"/>
   </g>
   <g id="patch_45">
    <path d="M 122.486759 424.311 
L 123.240497 424.311 
L 123.240497 424.311 
L 122.486759 424.311 
z
" clip-path="url(#p3a61265a16)" style="fill: #ff00ff"/>
   </g>
   <g id="patch_46">
    <path d="M 123.240497 424.311 
L 124.055674 424.311 
L 124.055674 424.311 
L 123.240497 424.311 
z
" clip-path="url(#p3a61265a16)" style="fill: #ff00ff"/>
   </g>
   <g id="patch_47">
    <path d="M 124.055674 424.311 
L 124.937296 424.311 
L 124.937296 424.311 
L 124.055674 424.311 
z
" clip-path="url(#p3a61265a16)" style="fill: #ff00ff"/>
   </g>
   <g id="patch_48">
    <path d="M 124.937296 424.311 
L 125.890779 424.311 
L 125.890779 424.311 
L 124.937296 424.311 
z
" clip-path="url(#p3a61265a16)" style="fill: #ff00ff"/>
   </g>
   <g id="patch_49">
    <path d="M 125.890779 424.311 
L 126.921983 424.311 
L 126.921983 424.311 
L 125.890779 424.311 
z
" clip-path="url(#p3a61265a16)" style="fill: #ff00ff"/>
   </g>
   <g id="patch_50">
    <path d="M 126.921983 424.311 
L 128.03724 424.311 
L 128.03724 424.311 
L 126.921983 424.311 
z
" clip-path="url(#p3a61265a16)" style="fill: #ff00ff"/>
   </g>
   <g id="patch_51">
    <path d="M 128.03724 424.311 
L 129.243403 424.311 
L 129.243403 424.311 
L 128.03724 424.311 
z
" clip-path="url(#p3a61265a16)" style="fill: #ff00ff"/>
   </g>
   <g id="patch_52">
    <path d="M 129.243403 424.311 
L 130.547881 424.311 
L 130.547881 424.311 
L 129.243403 424.311 
z
" clip-path="url(#p3a61265a16)" style="fill: #ff00ff"/>
   </g>
   <g id="patch_53">
    <path d="M 130.547881 424.311 
L 131.958689 424.311 
L 131.958689 424.311 
L 130.547881 424.311 
z
" clip-path="url(#p3a61265a16)" style="fill: #ff00ff"/>
   </g>
   <g id="patch_54">
    <path d="M 131.958689 424.311 
L 133.484493 424.311 
L 133.484493 424.311 
L 131.958689 424.311 
z
" clip-path="url(#p3a61265a16)" style="fill: #ff00ff"/>
   </g>
   <g id="patch_55">
    <path d="M 133.484493 424.311 
L 135.134666 424.311 
L 135.134666 424.311 
L 133.484493 424.311 
z
" clip-path="url(#p3a61265a16)" style="fill: #ff00ff"/>
   </g>
   <g id="patch_56">
    <path d="M 135.134666 424.311 
L 136.919347 424.311 
L 136.919347 424.311 
L 135.134666 424.311 
z
" clip-path="url(#p3a61265a16)" style="fill: #ff00ff"/>
   </g>
   <g id="patch_57">
    <path d="M 136.919347 424.311 
L 138.849498 424.311 
L 138.849498 424.311 
L 136.919347 424.311 
z
" clip-path="url(#p3a61265a16)" style="fill: #ff00ff"/>
   </g>
   <g id="patch_58">
    <path d="M 138.849498 424.311 
L 140.936978 424.311 
L 140.936978 424.311 
L 138.849498 424.311 
z
" clip-path="url(#p3a61265a16)" style="fill: #ff00ff"/>
   </g>
   <g id="patch_59">
    <path d="M 140.936978 424.311 
L 143.194611 424.311 
L 143.194611 424.311 
L 140.936978 424.311 
z
" clip-path="url(#p3a61265a16)" style="fill: #ff00ff"/>
   </g>
   <g id="patch_60">
    <path d="M 143.194611 424.311 
L 145.636265 424.311 
L 145.636265 424.311 
L 143.194611 424.311 
z
" clip-path="url(#p3a61265a16)" style="fill: #ff00ff"/>
   </g>
   <g id="patch_61">
    <path d="M 145.636265 424.311 
L 148.27694 424.311 
L 148.27694 424.311 
L 145.636265 424.311 
z
" clip-path="url(#p3a61265a16)" style="fill: #ff00ff"/>
   </g>
   <g id="patch_62">
    <path d="M 148.27694 424.311 
L 151.132859 424.311 
L 151.132859 424.311 
L 148.27694 424.311 
z
" clip-path="url(#p3a61265a16)" style="fill: #ff00ff"/>
   </g>
   <g id="patch_63">
    <path d="M 151.132859 424.311 
L 154.221567 424.311 
L 154.221567 424.311 
L 151.132859 424.311 
z
" clip-path="url(#p3a61265a16)" style="fill: #ff00ff"/>
   </g>
   <g id="patch_64">
    <path d="M 154.221567 424.311 
L 157.562038 424.311 
L 157.562038 424.311 
L 154.221567 424.311 
z
" clip-path="url(#p3a61265a16)" style="fill: #ff00ff"/>
   </g>
   <g id="patch_65">
    <path d="M 157.562038 424.311 
L 161.174793 424.311 
L 161.174793 424.311 
L 157.562038 424.311 
z
" clip-path="url(#p3a61265a16)" style="fill: #ff00ff"/>
   </g>
   <g id="patch_66">
    <path d="M 161.174793 424.311 
L 165.082028 424.311 
L 165.082028 424.311 
L 161.174793 424.311 
z
" clip-path="url(#p3a61265a16)" style="fill: #ff00ff"/>
   </g>
   <g id="patch_67">
    <path d="M 165.082028 424.311 
L 169.307745 424.311 
L 169.307745 424.311 
L 165.082028 424.311 
z
" clip-path="url(#p3a61265a16)" style="fill: #ff00ff"/>
   </g>
   <g id="patch_68">
    <path d="M 169.307745 424.311 
L 173.877904 424.311 
L 173.877904 424.311 
L 169.307745 424.311 
z
" clip-path="url(#p3a61265a16)" style="fill: #ff00ff"/>
   </g>
   <g id="patch_69">
    <path d="M 173.877904 424.311 
L 178.820581 424.311 
L 178.820581 424.311 
L 173.877904 424.311 
z
" clip-path="url(#p3a61265a16)" style="fill: #ff00ff"/>
   </g>
   <g id="patch_70">
    <path d="M 178.820581 424.311 
L 184.166139 424.311 
L 184.166139 424.311 
L 178.820581 424.311 
z
" clip-path="url(#p3a61265a16)" style="fill: #ff00ff"/>
   </g>
   <g id="patch_71">
    <path d="M 184.166139 424.311 
L 189.947419 424.311 
L 189.947419 424.311 
L 184.166139 424.311 
z
" clip-path="url(#p3a61265a16)" style="fill: #ff00ff"/>
   </g>
   <g id="patch_72">
    <path d="M 189.947419 424.311 
L 196.199937 424.311 
L 196.199937 424.311 
L 189.947419 424.311 
z
" clip-path="url(#p3a61265a16)" style="fill: #ff00ff"/>
   </g>
   <g id="patch_73">
    <path d="M 196.199937 424.311 
L 202.962102 424.311 
L 202.962102 424.311 
L 196.199937 424.311 
z
" clip-path="url(#p3a61265a16)" style="fill: #ff00ff"/>
   </g>
   <g id="patch_74">
    <path d="M 202.962102 424.311 
L 210.275458 424.311 
L 210.275458 424.311 
L 202.962102 424.311 
z
" clip-path="url(#p3a61265a16)" style="fill: #ff00ff"/>
   </g>
   <g id="patch_75">
    <path d="M 210.275458 424.311 
L 218.184932 424.311 
L 218.184932 424.311 
L 210.275458 424.311 
z
" clip-path="url(#p3a61265a16)" style="fill: #ff00ff"/>
   </g>
   <g id="patch_76">
    <path d="M 218.184932 424.311 
L 226.739114 424.311 
L 226.739114 424.311 
L 218.184932 424.311 
z
" clip-path="url(#p3a61265a16)" style="fill: #ff00ff"/>
   </g>
   <g id="patch_77">
    <path d="M 226.739114 424.311 
L 235.990556 424.311 
L 235.990556 75.739571 
L 226.739114 75.739571 
z
" clip-path="url(#p3a61265a16)" style="fill: #ff00ff"/>
   </g>
   <g id="patch_78">
    <path d="M 235.990556 424.311 
L 245.996091 424.311 
L 245.996091 424.311 
L 235.990556 424.311 
z
" clip-path="url(#p3a61265a16)" style="fill: #ff00ff"/>
   </g>
   <g id="patch_79">
    <path d="M 245.996091 424.311 
L 256.817185 424.311 
L 256.817185 424.311 
L 245.996091 424.311 
z
" clip-path="url(#p3a61265a16)" style="fill: #ff00ff"/>
   </g>
   <g id="patch_80">
    <path d="M 256.817185 424.311 
L 268.520317 424.311 
L 268.520317 424.311 
L 256.817185 424.311 
z
" clip-path="url(#p3a61265a16)" style="fill: #ff00ff"/>
   </g>
   <g id="patch_81">
    <path d="M 268.520317 424.311 
L 281.177382 424.311 
L 281.177382 424.311 
L 268.520317 424.311 
z
" clip-path="url(#p3a61265a16)" style="fill: #ff00ff"/>
   </g>
   <g id="patch_82">
    <path d="M 281.177382 424.311 
L 294.866136 424.311 
L 294.866136 424.311 
L 281.177382 424.311 
z
" clip-path="url(#p3a61265a16)" style="fill: #ff00ff"/>
   </g>
   <g id="patch_83">
    <path d="M 294.866136 424.311 
L 309.670672 424.311 
L 309.670672 424.311 
L 294.866136 424.311 
z
" clip-path="url(#p3a61265a16)" style="fill: #ff00ff"/>
   </g>
   <g id="patch_84">
    <path d="M 309.670672 424.311 
L 325.681939 424.311 
L 325.681939 424.311 
L 309.670672 424.311 
z
" clip-path="url(#p3a61265a16)" style="fill: #ff00ff"/>
   </g>
   <g id="patch_85">
    <path d="M 325.681939 424.311 
L 342.998298 424.311 
L 342.998298 424.311 
L 325.681939 424.311 
z
" clip-path="url(#p3a61265a16)" style="fill: #ff00ff"/>
   </g>
   <g id="patch_86">
    <path d="M 342.998298 424.311 
L 353.604464 424.311 
L 353.604464 133.230961 
L 342.998298 133.230961 
z
" clip-path="url(#p3a61265a16)" style="fill: #ff00ff"/>
   </g>
   <g id="patch_87">
    <path d="M 353.604464 424.311 
L 360.813613 424.311 
L 360.813613 424.311 
L 353.604464 424.311 
z
" clip-path="url(#p3a61265a16)" style="fill: #ff00ff"/>
   </g>
   <g id="patch_88">
    <path d="M 360.813613 424.311 
L 368.022761 424.311 
L 368.022761 424.311 
L 360.813613 424.311 
z
" clip-path="url(#p3a61265a16)" style="fill: #ff00ff"/>
   </g>
   <g id="patch_89">
    <path d="M 368.022761 424.311 
L 375.23191 424.311 
L 375.23191 424.311 
L 368.022761 424.311 
z
" clip-path="url(#p3a61265a16)" style="fill: #ff00ff"/>
   </g>
   <g id="patch_90">
    <path d="M 375.23191 424.311 
L 382.441058 424.311 
L 382.441058 424.311 
L 375.23191 424.311 
z
" clip-path="url(#p3a61265a16)" style="fill: #ff00ff"/>
   </g>
   <g id="patch_91">
    <path d="M 382.441058 424.311 
L 389.650207 424.311 
L 389.650207 177.449048 
L 382.441058 177.449048 
z
" clip-path="url(#p3a61265a16)" style="fill: #ff00ff"/>
   </g>
   <g id="patch_92">
    <path d="M 389.650207 424.311 
L 396.859355 424.311 
L 396.859355 424.311 
L 389.650207 424.311 
z
" clip-path="url(#p3a61265a16)" style="fill: #ff00ff"/>
   </g>
   <g id="patch_93">
    <path d="M 396.859355 424.311 
L 404.068504 424.311 
L 404.068504 424.311 
L 396.859355 424.311 
z
" clip-path="url(#p3a61265a16)" style="fill: #ff00ff"/>
   </g>
   <g id="patch_94">
    <path d="M 404.068504 424.311 
L 411.277652 424.311 
L 411.277652 424.311 
L 404.068504 424.311 
z
" clip-path="url(#p3a61265a16)" style="fill: #ff00ff"/>
   </g>
   <g id="patch_95">
    <path d="M 411.277652 424.311 
L 418.486801 424.311 
L 418.486801 222.943709 
L 411.277652 222.943709 
z
" clip-path="url(#p3a61265a16)" style="fill: #ff00ff"/>
   </g>
   <g id="patch_96">
    <path d="M 418.486801 424.311 
L 425.69595 424.311 
L 425.69595 424.311 
L 418.486801 424.311 
z
" clip-path="url(#p3a61265a16)" style="fill: #ff00ff"/>
   </g>
   <g id="patch_97">
    <path d="M 425.69595 424.311 
L 432.905098 424.311 
L 432.905098 424.311 
L 425.69595 424.311 
z
" clip-path="url(#p3a61265a16)" style="fill: #ff00ff"/>
   </g>
   <g id="patch_98">
    <path d="M 432.905098 424.311 
L 440.114247 424.311 
L 440.114247 257.898909 
L 432.905098 257.898909 
z
" clip-path="url(#p3a61265a16)" style="fill: #ff00ff"/>
   </g>
   <g id="patch_99">
    <path d="M 440.114247 424.311 
L 447.323395 424.311 
L 447.323395 424.311 
L 440.114247 424.311 
z
" clip-path="url(#p3a61265a16)" style="fill: #ff00ff"/>
   </g>
   <g id="patch_100">
    <path d="M 447.323395 424.311 
L 454.532544 424.311 
L 454.532544 294.484026 
L 447.323395 294.484026 
z
" clip-path="url(#p3a61265a16)" style="fill: #ff00ff"/>
   </g>
   <g id="patch_101">
    <path d="M 454.532544 424.311 
L 461.741692 424.311 
L 461.741692 424.311 
L 454.532544 424.311 
z
" clip-path="url(#p3a61265a16)" style="fill: #ff00ff"/>
   </g>
   <g id="patch_102">
    <path d="M 461.741692 424.311 
L 468.950841 424.311 
L 468.950841 322.159598 
L 461.741692 322.159598 
z
" clip-path="url(#p3a61265a16)" style="fill: #ff00ff"/>
   </g>
   <g id="patch_103">
    <path d="M 468.950841 424.311 
L 476.159989 424.311 
L 476.159989 424.311 
L 468.950841 424.311 
z
" clip-path="url(#p3a61265a16)" style="fill: #ff00ff"/>
   </g>
   <g id="matplotlib.axis_1">
    <g id="xtick_1">
     <g id="line2d_1">
      <path d="M 113.239672 424.311 
L 113.239672 58.311 
" clip-path="url(#p3a61265a16)" style="fill: none; stroke-dasharray: 2.96,1.28; stroke-dashoffset: 0; stroke: #b0b0b0; stroke-width: 0.8"/>
     </g>
     <g id="line2d_2">
      <defs>
       <path id="m687f289da1" d="M 0 0 
L 0 17 
" style="stroke: #000000; stroke-width: 0.8"/>
      </defs>
      <g>
       <use xlink:href="#m687f289da1" x="113.239672" y="424.311" style="stroke: #000000; stroke-width: 0.8"/>
      </g>
     </g>
     <g id="text_1">
      <!-- $\mathdefault{0}$ -->
      <g transform="translate(107.479672 458.488187)scale(0.18 -0.18)">
       <defs>
        <path id="DejaVuSans-30" d="M 2034 4250 
Q 1547 4250 1301 3770 
Q 1056 3291 1056 2328 
Q 1056 1369 1301 889 
Q 1547 409 2034 409 
Q 2525 409 2770 889 
Q 3016 1369 3016 2328 
Q 3016 3291 2770 3770 
Q 2525 4250 2034 4250 
z
M 2034 4750 
Q 2819 4750 3233 4129 
Q 3647 3509 3647 2328 
Q 3647 1150 3233 529 
Q 2819 -91 2034 -91 
Q 1250 -91 836 529 
Q 422 1150 422 2328 
Q 422 3509 836 4129 
Q 1250 4750 2034 4750 
z
" transform="scale(0.015625)"/>
       </defs>
       <use xlink:href="#DejaVuSans-30" transform="translate(0 0.78125)"/>
      </g>
     </g>
    </g>
    <g id="xtick_2">
     <g id="line2d_3">
      <path d="M 230.929259 424.311 
L 230.929259 58.311 
" clip-path="url(#p3a61265a16)" style="fill: none; stroke-dasharray: 2.96,1.28; stroke-dashoffset: 0; stroke: #b0b0b0; stroke-width: 0.8"/>
     </g>
     <g id="line2d_4">
      <g>
       <use xlink:href="#m687f289da1" x="230.929259" y="424.311" style="stroke: #000000; stroke-width: 0.8"/>
      </g>
     </g>
     <g id="text_2">
      <!-- $\mathdefault{10^{0}}$ -->
      <g transform="translate(215.089259 458.488187)scale(0.18 -0.18)">
       <defs>
        <path id="DejaVuSans-31" d="M 794 531 
L 1825 531 
L 1825 4091 
L 703 3866 
L 703 4441 
L 1819 4666 
L 2450 4666 
L 2450 531 
L 3481 531 
L 3481 0 
L 794 0 
L 794 531 
z
" transform="scale(0.015625)"/>
       </defs>
       <use xlink:href="#DejaVuSans-31" transform="translate(0 0.765625)"/>
       <use xlink:href="#DejaVuSans-30" transform="translate(63.623047 0.765625)"/>
       <use xlink:href="#DejaVuSans-30" transform="translate(128.203125 39.046875)scale(0.7)"/>
      </g>
     </g>
    </g>
    <g id="text_3">
     <!-- InDegree -->
     <g transform="translate(243.134102 481.4285)scale(0.2 -0.2)">
      <defs>
       <path id="DejaVuSans-49" d="M 628 4666 
L 1259 4666 
L 1259 0 
L 628 0 
L 628 4666 
z
" transform="scale(0.015625)"/>
       <path id="DejaVuSans-6e" d="M 3513 2113 
L 3513 0 
L 2938 0 
L 2938 2094 
Q 2938 2591 2744 2837 
Q 2550 3084 2163 3084 
Q 1697 3084 1428 2787 
Q 1159 2491 1159 1978 
L 1159 0 
L 581 0 
L 581 3500 
L 1159 3500 
L 1159 2956 
Q 1366 3272 1645 3428 
Q 1925 3584 2291 3584 
Q 2894 3584 3203 3211 
Q 3513 2838 3513 2113 
z
" transform="scale(0.015625)"/>
       <path id="DejaVuSans-44" d="M 1259 4147 
L 1259 519 
L 2022 519 
Q 2988 519 3436 956 
Q 3884 1394 3884 2338 
Q 3884 3275 3436 3711 
Q 2988 4147 2022 4147 
L 1259 4147 
z
M 628 4666 
L 1925 4666 
Q 3281 4666 3915 4102 
Q 4550 3538 4550 2338 
Q 4550 1131 3912 565 
Q 3275 0 1925 0 
L 628 0 
L 628 4666 
z
" transform="scale(0.015625)"/>
       <path id="DejaVuSans-65" d="M 3597 1894 
L 3597 1613 
L 953 1613 
Q 991 1019 1311 708 
Q 1631 397 2203 397 
Q 2534 397 2845 478 
Q 3156 559 3463 722 
L 3463 178 
Q 3153 47 2828 -22 
Q 2503 -91 2169 -91 
Q 1331 -91 842 396 
Q 353 884 353 1716 
Q 353 2575 817 3079 
Q 1281 3584 2069 3584 
Q 2775 3584 3186 3129 
Q 3597 2675 3597 1894 
z
M 3022 2063 
Q 3016 2534 2758 2815 
Q 2500 3097 2075 3097 
Q 1594 3097 1305 2825 
Q 1016 2553 972 2059 
L 3022 2063 
z
" transform="scale(0.015625)"/>
       <path id="DejaVuSans-67" d="M 2906 1791 
Q 2906 2416 2648 2759 
Q 2391 3103 1925 3103 
Q 1463 3103 1205 2759 
Q 947 2416 947 1791 
Q 947 1169 1205 825 
Q 1463 481 1925 481 
Q 2391 481 2648 825 
Q 2906 1169 2906 1791 
z
M 3481 434 
Q 3481 -459 3084 -895 
Q 2688 -1331 1869 -1331 
Q 1566 -1331 1297 -1286 
Q 1028 -1241 775 -1147 
L 775 -588 
Q 1028 -725 1275 -790 
Q 1522 -856 1778 -856 
Q 2344 -856 2625 -561 
Q 2906 -266 2906 331 
L 2906 616 
Q 2728 306 2450 153 
Q 2172 0 1784 0 
Q 1141 0 747 490 
Q 353 981 353 1791 
Q 353 2603 747 3093 
Q 1141 3584 1784 3584 
Q 2172 3584 2450 3431 
Q 2728 3278 2906 2969 
L 2906 3500 
L 3481 3500 
L 3481 434 
z
" transform="scale(0.015625)"/>
       <path id="DejaVuSans-72" d="M 2631 2963 
Q 2534 3019 2420 3045 
Q 2306 3072 2169 3072 
Q 1681 3072 1420 2755 
Q 1159 2438 1159 1844 
L 1159 0 
L 581 0 
L 581 3500 
L 1159 3500 
L 1159 2956 
Q 1341 3275 1631 3429 
Q 1922 3584 2338 3584 
Q 2397 3584 2469 3576 
Q 2541 3569 2628 3553 
L 2631 2963 
z
" transform="scale(0.015625)"/>
      </defs>
      <use xlink:href="#DejaVuSans-49"/>
      <use xlink:href="#DejaVuSans-6e" x="29.492188"/>
      <use xlink:href="#DejaVuSans-44" x="92.871094"/>
      <use xlink:href="#DejaVuSans-65" x="169.873047"/>
      <use xlink:href="#DejaVuSans-67" x="231.396484"/>
      <use xlink:href="#DejaVuSans-72" x="294.873047"/>
      <use xlink:href="#DejaVuSans-65" x="333.736328"/>
      <use xlink:href="#DejaVuSans-65" x="395.259766"/>
     </g>
    </g>
   </g>
   <g id="matplotlib.axis_2">
    <g id="ytick_1">
     <g id="line2d_5">
      <path d="M 82.73625 424.311 
L 494.894453 424.311 
" clip-path="url(#p3a61265a16)" style="fill: none; stroke-dasharray: 2.96,1.28; stroke-dashoffset: 0; stroke: #b0b0b0; stroke-width: 0.8"/>
     </g>
     <g id="line2d_6">
      <defs>
       <path id="me3f7af5527" d="M 0 0 
L -17 0 
" style="stroke: #000000; stroke-width: 0.8"/>
      </defs>
      <g>
       <use xlink:href="#me3f7af5527" x="82.73625" y="424.311" style="stroke: #000000; stroke-width: 0.8"/>
      </g>
     </g>
     <g id="text_4">
      <!-- $\mathdefault{0}$ -->
      <g transform="translate(50.71625 431.149594)scale(0.18 -0.18)">
       <use xlink:href="#DejaVuSans-30" transform="translate(0 0.78125)"/>
      </g>
     </g>
    </g>
    <g id="ytick_2">
     <g id="line2d_7">
      <path d="M 82.73625 373.235299 
L 494.894453 373.235299 
" clip-path="url(#p3a61265a16)" style="fill: none; stroke-dasharray: 2.96,1.28; stroke-dashoffset: 0; stroke: #b0b0b0; stroke-width: 0.8"/>
     </g>
     <g id="line2d_8">
      <g>
       <use xlink:href="#me3f7af5527" x="82.73625" y="373.235299" style="stroke: #000000; stroke-width: 0.8"/>
      </g>
     </g>
     <g id="text_5">
      <!-- $\mathdefault{10^{0}}$ -->
      <g transform="translate(30.55625 380.073893)scale(0.18 -0.18)">
       <use xlink:href="#DejaVuSans-31" transform="translate(0 0.765625)"/>
       <use xlink:href="#DejaVuSans-30" transform="translate(63.623047 0.765625)"/>
       <use xlink:href="#DejaVuSans-30" transform="translate(128.203125 39.046875)scale(0.7)"/>
      </g>
     </g>
    </g>
    <g id="ytick_3">
     <g id="line2d_9">
      <path d="M 82.73625 257.898909 
L 494.894453 257.898909 
" clip-path="url(#p3a61265a16)" style="fill: none; stroke-dasharray: 2.96,1.28; stroke-dashoffset: 0; stroke: #b0b0b0; stroke-width: 0.8"/>
     </g>
     <g id="line2d_10">
      <g>
       <use xlink:href="#me3f7af5527" x="82.73625" y="257.898909" style="stroke: #000000; stroke-width: 0.8"/>
      </g>
     </g>
     <g id="text_6">
      <!-- $\mathdefault{10^{1}}$ -->
      <g transform="translate(30.55625 264.737503)scale(0.18 -0.18)">
       <use xlink:href="#DejaVuSans-31" transform="translate(0 0.684375)"/>
       <use xlink:href="#DejaVuSans-30" transform="translate(63.623047 0.684375)"/>
       <use xlink:href="#DejaVuSans-31" transform="translate(128.203125 38.965625)scale(0.7)"/>
      </g>
     </g>
    </g>
    <g id="ytick_4">
     <g id="line2d_11">
      <path d="M 82.73625 165.962648 
L 494.894453 165.962648 
" clip-path="url(#p3a61265a16)" style="fill: none; stroke-dasharray: 2.96,1.28; stroke-dashoffset: 0; stroke: #b0b0b0; stroke-width: 0.8"/>
     </g>
     <g id="line2d_12">
      <g>
       <use xlink:href="#me3f7af5527" x="82.73625" y="165.962648" style="stroke: #000000; stroke-width: 0.8"/>
      </g>
     </g>
     <g id="text_7">
      <!-- $\mathdefault{10^{2}}$ -->
      <g transform="translate(30.55625 172.801241)scale(0.18 -0.18)">
       <defs>
        <path id="DejaVuSans-32" d="M 1228 531 
L 3431 531 
L 3431 0 
L 469 0 
L 469 531 
Q 828 903 1448 1529 
Q 2069 2156 2228 2338 
Q 2531 2678 2651 2914 
Q 2772 3150 2772 3378 
Q 2772 3750 2511 3984 
Q 2250 4219 1831 4219 
Q 1534 4219 1204 4116 
Q 875 4013 500 3803 
L 500 4441 
Q 881 4594 1212 4672 
Q 1544 4750 1819 4750 
Q 2544 4750 2975 4387 
Q 3406 4025 3406 3419 
Q 3406 3131 3298 2873 
Q 3191 2616 2906 2266 
Q 2828 2175 2409 1742 
Q 1991 1309 1228 531 
z
" transform="scale(0.015625)"/>
       </defs>
       <use xlink:href="#DejaVuSans-31" transform="translate(0 0.765625)"/>
       <use xlink:href="#DejaVuSans-30" transform="translate(63.623047 0.765625)"/>
       <use xlink:href="#DejaVuSans-32" transform="translate(128.203125 39.046875)scale(0.7)"/>
      </g>
     </g>
    </g>
    <g id="ytick_5">
     <g id="line2d_13">
      <path d="M 82.73625 74.026386 
L 494.894453 74.026386 
" clip-path="url(#p3a61265a16)" style="fill: none; stroke-dasharray: 2.96,1.28; stroke-dashoffset: 0; stroke: #b0b0b0; stroke-width: 0.8"/>
     </g>
     <g id="line2d_14">
      <g>
       <use xlink:href="#me3f7af5527" x="82.73625" y="74.026386" style="stroke: #000000; stroke-width: 0.8"/>
      </g>
     </g>
     <g id="text_8">
      <!-- $\mathdefault{10^{3}}$ -->
      <g transform="translate(30.55625 80.86498)scale(0.18 -0.18)">
       <defs>
        <path id="DejaVuSans-33" d="M 2597 2516 
Q 3050 2419 3304 2112 
Q 3559 1806 3559 1356 
Q 3559 666 3084 287 
Q 2609 -91 1734 -91 
Q 1441 -91 1130 -33 
Q 819 25 488 141 
L 488 750 
Q 750 597 1062 519 
Q 1375 441 1716 441 
Q 2309 441 2620 675 
Q 2931 909 2931 1356 
Q 2931 1769 2642 2001 
Q 2353 2234 1838 2234 
L 1294 2234 
L 1294 2753 
L 1863 2753 
Q 2328 2753 2575 2939 
Q 2822 3125 2822 3475 
Q 2822 3834 2567 4026 
Q 2313 4219 1838 4219 
Q 1578 4219 1281 4162 
Q 984 4106 628 3988 
L 628 4550 
Q 988 4650 1302 4700 
Q 1616 4750 1894 4750 
Q 2613 4750 3031 4423 
Q 3450 4097 3450 3541 
Q 3450 3153 3228 2886 
Q 3006 2619 2597 2516 
z
" transform="scale(0.015625)"/>
       </defs>
       <use xlink:href="#DejaVuSans-31" transform="translate(0 0.765625)"/>
       <use xlink:href="#DejaVuSans-30" transform="translate(63.623047 0.765625)"/>
       <use xlink:href="#DejaVuSans-33" transform="translate(128.203125 39.046875)scale(0.7)"/>
      </g>
     </g>
    </g>
    <g id="text_9">
     <!-- Occurence -->
     <g transform="translate(22.396875 294.545375)rotate(-90)scale(0.2 -0.2)">
      <defs>
       <path id="DejaVuSans-4f" d="M 2522 4238 
Q 1834 4238 1429 3725 
Q 1025 3213 1025 2328 
Q 1025 1447 1429 934 
Q 1834 422 2522 422 
Q 3209 422 3611 934 
Q 4013 1447 4013 2328 
Q 4013 3213 3611 3725 
Q 3209 4238 2522 4238 
z
M 2522 4750 
Q 3503 4750 4090 4092 
Q 4678 3434 4678 2328 
Q 4678 1225 4090 567 
Q 3503 -91 2522 -91 
Q 1538 -91 948 565 
Q 359 1222 359 2328 
Q 359 3434 948 4092 
Q 1538 4750 2522 4750 
z
" transform="scale(0.015625)"/>
       <path id="DejaVuSans-63" d="M 3122 3366 
L 3122 2828 
Q 2878 2963 2633 3030 
Q 2388 3097 2138 3097 
Q 1578 3097 1268 2742 
Q 959 2388 959 1747 
Q 959 1106 1268 751 
Q 1578 397 2138 397 
Q 2388 397 2633 464 
Q 2878 531 3122 666 
L 3122 134 
Q 2881 22 2623 -34 
Q 2366 -91 2075 -91 
Q 1284 -91 818 406 
Q 353 903 353 1747 
Q 353 2603 823 3093 
Q 1294 3584 2113 3584 
Q 2378 3584 2631 3529 
Q 2884 3475 3122 3366 
z
" transform="scale(0.015625)"/>
       <path id="DejaVuSans-75" d="M 544 1381 
L 544 3500 
L 1119 3500 
L 1119 1403 
Q 1119 906 1312 657 
Q 1506 409 1894 409 
Q 2359 409 2629 706 
Q 2900 1003 2900 1516 
L 2900 3500 
L 3475 3500 
L 3475 0 
L 2900 0 
L 2900 538 
Q 2691 219 2414 64 
Q 2138 -91 1772 -91 
Q 1169 -91 856 284 
Q 544 659 544 1381 
z
M 1991 3584 
L 1991 3584 
z
" transform="scale(0.015625)"/>
      </defs>
      <use xlink:href="#DejaVuSans-4f"/>
      <use xlink:href="#DejaVuSans-63" x="78.710938"/>
      <use xlink:href="#DejaVuSans-63" x="133.691406"/>
      <use xlink:href="#DejaVuSans-75" x="188.671875"/>
      <use xlink:href="#DejaVuSans-72" x="252.050781"/>
      <use xlink:href="#DejaVuSans-65" x="290.914062"/>
      <use xlink:href="#DejaVuSans-6e" x="352.4375"/>
      <use xlink:href="#DejaVuSans-63" x="415.816406"/>
      <use xlink:href="#DejaVuSans-65" x="470.796875"/>
     </g>
    </g>
   </g>
   <g id="patch_104">
    <path d="M 82.73625 424.311 
L 82.73625 58.311 
" style="fill: none; stroke: #000000; stroke-width: 0.8; stroke-linejoin: miter; stroke-linecap: square"/>
   </g>
   <g id="patch_105">
    <path d="M 494.894453 424.311 
L 494.894453 58.311 
" style="fill: none; stroke: #000000; stroke-width: 0.8; stroke-linejoin: miter; stroke-linecap: square"/>
   </g>
   <g id="patch_106">
    <path d="M 82.73625 424.311 
L 494.894453 424.311 
" style="fill: none; stroke: #000000; stroke-width: 0.8; stroke-linejoin: miter; stroke-linecap: square"/>
   </g>
   <g id="patch_107">
    <path d="M 82.73625 58.311 
L 494.894453 58.311 
" style="fill: none; stroke: #000000; stroke-width: 0.8; stroke-linejoin: miter; stroke-linecap: square"/>
   </g>
   <g id="text_10">
    <!-- Infomap Communities' Connections  -->
    <g transform="translate(71.236602 25.43625)scale(0.24 -0.24)">
     <defs>
      <path id="DejaVuSans-66" d="M 2375 4863 
L 2375 4384 
L 1825 4384 
Q 1516 4384 1395 4259 
Q 1275 4134 1275 3809 
L 1275 3500 
L 2222 3500 
L 2222 3053 
L 1275 3053 
L 1275 0 
L 697 0 
L 697 3053 
L 147 3053 
L 147 3500 
L 697 3500 
L 697 3744 
Q 697 4328 969 4595 
Q 1241 4863 1831 4863 
L 2375 4863 
z
" transform="scale(0.015625)"/>
      <path id="DejaVuSans-6f" d="M 1959 3097 
Q 1497 3097 1228 2736 
Q 959 2375 959 1747 
Q 959 1119 1226 758 
Q 1494 397 1959 397 
Q 2419 397 2687 759 
Q 2956 1122 2956 1747 
Q 2956 2369 2687 2733 
Q 2419 3097 1959 3097 
z
M 1959 3584 
Q 2709 3584 3137 3096 
Q 3566 2609 3566 1747 
Q 3566 888 3137 398 
Q 2709 -91 1959 -91 
Q 1206 -91 779 398 
Q 353 888 353 1747 
Q 353 2609 779 3096 
Q 1206 3584 1959 3584 
z
" transform="scale(0.015625)"/>
      <path id="DejaVuSans-6d" d="M 3328 2828 
Q 3544 3216 3844 3400 
Q 4144 3584 4550 3584 
Q 5097 3584 5394 3201 
Q 5691 2819 5691 2113 
L 5691 0 
L 5113 0 
L 5113 2094 
Q 5113 2597 4934 2840 
Q 4756 3084 4391 3084 
Q 3944 3084 3684 2787 
Q 3425 2491 3425 1978 
L 3425 0 
L 2847 0 
L 2847 2094 
Q 2847 2600 2669 2842 
Q 2491 3084 2119 3084 
Q 1678 3084 1418 2786 
Q 1159 2488 1159 1978 
L 1159 0 
L 581 0 
L 581 3500 
L 1159 3500 
L 1159 2956 
Q 1356 3278 1631 3431 
Q 1906 3584 2284 3584 
Q 2666 3584 2933 3390 
Q 3200 3197 3328 2828 
z
" transform="scale(0.015625)"/>
      <path id="DejaVuSans-61" d="M 2194 1759 
Q 1497 1759 1228 1600 
Q 959 1441 959 1056 
Q 959 750 1161 570 
Q 1363 391 1709 391 
Q 2188 391 2477 730 
Q 2766 1069 2766 1631 
L 2766 1759 
L 2194 1759 
z
M 3341 1997 
L 3341 0 
L 2766 0 
L 2766 531 
Q 2569 213 2275 61 
Q 1981 -91 1556 -91 
Q 1019 -91 701 211 
Q 384 513 384 1019 
Q 384 1609 779 1909 
Q 1175 2209 1959 2209 
L 2766 2209 
L 2766 2266 
Q 2766 2663 2505 2880 
Q 2244 3097 1772 3097 
Q 1472 3097 1187 3025 
Q 903 2953 641 2809 
L 641 3341 
Q 956 3463 1253 3523 
Q 1550 3584 1831 3584 
Q 2591 3584 2966 3190 
Q 3341 2797 3341 1997 
z
" transform="scale(0.015625)"/>
      <path id="DejaVuSans-70" d="M 1159 525 
L 1159 -1331 
L 581 -1331 
L 581 3500 
L 1159 3500 
L 1159 2969 
Q 1341 3281 1617 3432 
Q 1894 3584 2278 3584 
Q 2916 3584 3314 3078 
Q 3713 2572 3713 1747 
Q 3713 922 3314 415 
Q 2916 -91 2278 -91 
Q 1894 -91 1617 61 
Q 1341 213 1159 525 
z
M 3116 1747 
Q 3116 2381 2855 2742 
Q 2594 3103 2138 3103 
Q 1681 3103 1420 2742 
Q 1159 2381 1159 1747 
Q 1159 1113 1420 752 
Q 1681 391 2138 391 
Q 2594 391 2855 752 
Q 3116 1113 3116 1747 
z
" transform="scale(0.015625)"/>
      <path id="DejaVuSans-20" transform="scale(0.015625)"/>
      <path id="DejaVuSans-43" d="M 4122 4306 
L 4122 3641 
Q 3803 3938 3442 4084 
Q 3081 4231 2675 4231 
Q 1875 4231 1450 3742 
Q 1025 3253 1025 2328 
Q 1025 1406 1450 917 
Q 1875 428 2675 428 
Q 3081 428 3442 575 
Q 3803 722 4122 1019 
L 4122 359 
Q 3791 134 3420 21 
Q 3050 -91 2638 -91 
Q 1578 -91 968 557 
Q 359 1206 359 2328 
Q 359 3453 968 4101 
Q 1578 4750 2638 4750 
Q 3056 4750 3426 4639 
Q 3797 4528 4122 4306 
z
" transform="scale(0.015625)"/>
      <path id="DejaVuSans-69" d="M 603 3500 
L 1178 3500 
L 1178 0 
L 603 0 
L 603 3500 
z
M 603 4863 
L 1178 4863 
L 1178 4134 
L 603 4134 
L 603 4863 
z
" transform="scale(0.015625)"/>
      <path id="DejaVuSans-74" d="M 1172 4494 
L 1172 3500 
L 2356 3500 
L 2356 3053 
L 1172 3053 
L 1172 1153 
Q 1172 725 1289 603 
Q 1406 481 1766 481 
L 2356 481 
L 2356 0 
L 1766 0 
Q 1100 0 847 248 
Q 594 497 594 1153 
L 594 3053 
L 172 3053 
L 172 3500 
L 594 3500 
L 594 4494 
L 1172 4494 
z
" transform="scale(0.015625)"/>
      <path id="DejaVuSans-73" d="M 2834 3397 
L 2834 2853 
Q 2591 2978 2328 3040 
Q 2066 3103 1784 3103 
Q 1356 3103 1142 2972 
Q 928 2841 928 2578 
Q 928 2378 1081 2264 
Q 1234 2150 1697 2047 
L 1894 2003 
Q 2506 1872 2764 1633 
Q 3022 1394 3022 966 
Q 3022 478 2636 193 
Q 2250 -91 1575 -91 
Q 1294 -91 989 -36 
Q 684 19 347 128 
L 347 722 
Q 666 556 975 473 
Q 1284 391 1588 391 
Q 1994 391 2212 530 
Q 2431 669 2431 922 
Q 2431 1156 2273 1281 
Q 2116 1406 1581 1522 
L 1381 1569 
Q 847 1681 609 1914 
Q 372 2147 372 2553 
Q 372 3047 722 3315 
Q 1072 3584 1716 3584 
Q 2034 3584 2315 3537 
Q 2597 3491 2834 3397 
z
" transform="scale(0.015625)"/>
      <path id="DejaVuSans-27" d="M 1147 4666 
L 1147 2931 
L 616 2931 
L 616 4666 
L 1147 4666 
z
" transform="scale(0.015625)"/>
     </defs>
     <use xlink:href="#DejaVuSans-49"/>
     <use xlink:href="#DejaVuSans-6e" x="29.492188"/>
     <use xlink:href="#DejaVuSans-66" x="92.871094"/>
     <use xlink:href="#DejaVuSans-6f" x="128.076172"/>
     <use xlink:href="#DejaVuSans-6d" x="189.257812"/>
     <use xlink:href="#DejaVuSans-61" x="286.669922"/>
     <use xlink:href="#DejaVuSans-70" x="347.949219"/>
     <use xlink:href="#DejaVuSans-20" x="411.425781"/>
     <use xlink:href="#DejaVuSans-43" x="443.212891"/>
     <use xlink:href="#DejaVuSans-6f" x="513.037109"/>
     <use xlink:href="#DejaVuSans-6d" x="574.21875"/>
     <use xlink:href="#DejaVuSans-6d" x="671.630859"/>
     <use xlink:href="#DejaVuSans-75" x="769.042969"/>
     <use xlink:href="#DejaVuSans-6e" x="832.421875"/>
     <use xlink:href="#DejaVuSans-69" x="895.800781"/>
     <use xlink:href="#DejaVuSans-74" x="923.583984"/>
     <use xlink:href="#DejaVuSans-69" x="962.792969"/>
     <use xlink:href="#DejaVuSans-65" x="990.576172"/>
     <use xlink:href="#DejaVuSans-73" x="1052.099609"/>
     <use xlink:href="#DejaVuSans-27" x="1104.199219"/>
     <use xlink:href="#DejaVuSans-20" x="1131.689453"/>
     <use xlink:href="#DejaVuSans-43" x="1163.476562"/>
     <use xlink:href="#DejaVuSans-6f" x="1233.300781"/>
     <use xlink:href="#DejaVuSans-6e" x="1294.482422"/>
     <use xlink:href="#DejaVuSans-6e" x="1357.861328"/>
     <use xlink:href="#DejaVuSans-65" x="1421.240234"/>
     <use xlink:href="#DejaVuSans-63" x="1482.763672"/>
     <use xlink:href="#DejaVuSans-74" x="1537.744141"/>
     <use xlink:href="#DejaVuSans-69" x="1576.953125"/>
     <use xlink:href="#DejaVuSans-6f" x="1604.736328"/>
     <use xlink:href="#DejaVuSans-6e" x="1665.917969"/>
     <use xlink:href="#DejaVuSans-73" x="1729.296875"/>
     <use xlink:href="#DejaVuSans-20" x="1781.396484"/>
    </g>
    <!-- Up Till a Given Year, Ascedants -->
    <g transform="translate(103.115352 52.311)scale(0.24 -0.24)">
     <defs>
      <path id="DejaVuSans-55" d="M 556 4666 
L 1191 4666 
L 1191 1831 
Q 1191 1081 1462 751 
Q 1734 422 2344 422 
Q 2950 422 3222 751 
Q 3494 1081 3494 1831 
L 3494 4666 
L 4128 4666 
L 4128 1753 
Q 4128 841 3676 375 
Q 3225 -91 2344 -91 
Q 1459 -91 1007 375 
Q 556 841 556 1753 
L 556 4666 
z
" transform="scale(0.015625)"/>
      <path id="DejaVuSans-54" d="M -19 4666 
L 3928 4666 
L 3928 4134 
L 2272 4134 
L 2272 0 
L 1638 0 
L 1638 4134 
L -19 4134 
L -19 4666 
z
" transform="scale(0.015625)"/>
      <path id="DejaVuSans-6c" d="M 603 4863 
L 1178 4863 
L 1178 0 
L 603 0 
L 603 4863 
z
" transform="scale(0.015625)"/>
      <path id="DejaVuSans-47" d="M 3809 666 
L 3809 1919 
L 2778 1919 
L 2778 2438 
L 4434 2438 
L 4434 434 
Q 4069 175 3628 42 
Q 3188 -91 2688 -91 
Q 1594 -91 976 548 
Q 359 1188 359 2328 
Q 359 3472 976 4111 
Q 1594 4750 2688 4750 
Q 3144 4750 3555 4637 
Q 3966 4525 4313 4306 
L 4313 3634 
Q 3963 3931 3569 4081 
Q 3175 4231 2741 4231 
Q 1884 4231 1454 3753 
Q 1025 3275 1025 2328 
Q 1025 1384 1454 906 
Q 1884 428 2741 428 
Q 3075 428 3337 486 
Q 3600 544 3809 666 
z
" transform="scale(0.015625)"/>
      <path id="DejaVuSans-76" d="M 191 3500 
L 800 3500 
L 1894 563 
L 2988 3500 
L 3597 3500 
L 2284 0 
L 1503 0 
L 191 3500 
z
" transform="scale(0.015625)"/>
      <path id="DejaVuSans-59" d="M -13 4666 
L 666 4666 
L 1959 2747 
L 3244 4666 
L 3922 4666 
L 2272 2222 
L 2272 0 
L 1638 0 
L 1638 2222 
L -13 4666 
z
" transform="scale(0.015625)"/>
      <path id="DejaVuSans-2c" d="M 750 794 
L 1409 794 
L 1409 256 
L 897 -744 
L 494 -744 
L 750 256 
L 750 794 
z
" transform="scale(0.015625)"/>
      <path id="DejaVuSans-41" d="M 2188 4044 
L 1331 1722 
L 3047 1722 
L 2188 4044 
z
M 1831 4666 
L 2547 4666 
L 4325 0 
L 3669 0 
L 3244 1197 
L 1141 1197 
L 716 0 
L 50 0 
L 1831 4666 
z
" transform="scale(0.015625)"/>
      <path id="DejaVuSans-64" d="M 2906 2969 
L 2906 4863 
L 3481 4863 
L 3481 0 
L 2906 0 
L 2906 525 
Q 2725 213 2448 61 
Q 2172 -91 1784 -91 
Q 1150 -91 751 415 
Q 353 922 353 1747 
Q 353 2572 751 3078 
Q 1150 3584 1784 3584 
Q 2172 3584 2448 3432 
Q 2725 3281 2906 2969 
z
M 947 1747 
Q 947 1113 1208 752 
Q 1469 391 1925 391 
Q 2381 391 2643 752 
Q 2906 1113 2906 1747 
Q 2906 2381 2643 2742 
Q 2381 3103 1925 3103 
Q 1469 3103 1208 2742 
Q 947 2381 947 1747 
z
" transform="scale(0.015625)"/>
     </defs>
     <use xlink:href="#DejaVuSans-55"/>
     <use xlink:href="#DejaVuSans-70" x="73.193359"/>
     <use xlink:href="#DejaVuSans-20" x="136.669922"/>
     <use xlink:href="#DejaVuSans-54" x="168.457031"/>
     <use xlink:href="#DejaVuSans-69" x="226.416016"/>
     <use xlink:href="#DejaVuSans-6c" x="254.199219"/>
     <use xlink:href="#DejaVuSans-6c" x="281.982422"/>
     <use xlink:href="#DejaVuSans-20" x="309.765625"/>
     <use xlink:href="#DejaVuSans-61" x="341.552734"/>
     <use xlink:href="#DejaVuSans-20" x="402.832031"/>
     <use xlink:href="#DejaVuSans-47" x="434.619141"/>
     <use xlink:href="#DejaVuSans-69" x="512.109375"/>
     <use xlink:href="#DejaVuSans-76" x="539.892578"/>
     <use xlink:href="#DejaVuSans-65" x="599.072266"/>
     <use xlink:href="#DejaVuSans-6e" x="660.595703"/>
     <use xlink:href="#DejaVuSans-20" x="723.974609"/>
     <use xlink:href="#DejaVuSans-59" x="755.761719"/>
     <use xlink:href="#DejaVuSans-65" x="803.595703"/>
     <use xlink:href="#DejaVuSans-61" x="865.119141"/>
     <use xlink:href="#DejaVuSans-72" x="926.398438"/>
     <use xlink:href="#DejaVuSans-2c" x="967.511719"/>
     <use xlink:href="#DejaVuSans-20" x="999.298828"/>
     <use xlink:href="#DejaVuSans-41" x="1031.085938"/>
     <use xlink:href="#DejaVuSans-73" x="1099.494141"/>
     <use xlink:href="#DejaVuSans-63" x="1151.59375"/>
     <use xlink:href="#DejaVuSans-65" x="1206.574219"/>
     <use xlink:href="#DejaVuSans-64" x="1268.097656"/>
     <use xlink:href="#DejaVuSans-61" x="1331.574219"/>
     <use xlink:href="#DejaVuSans-6e" x="1392.853516"/>
     <use xlink:href="#DejaVuSans-74" x="1456.232422"/>
     <use xlink:href="#DejaVuSans-73" x="1495.441406"/>
    </g>
   </g>
  </g>
  <g id="axes_2">
   <g id="patch_108">
    <path d="M 581.21125 424.311 
L 993.369453 424.311 
L 993.369453 58.311 
L 581.21125 58.311 
z
" style="fill: #ffffff"/>
   </g>
   <g id="patch_109">
    <path d="M 599.945714 141263.11002 
L 612.08684 141263.11002 
L 612.08684 172.292279 
L 599.945714 172.292279 
z
" clip-path="url(#p318d1bb3cb)" style="fill: #ff00ff"/>
   </g>
   <g id="patch_110">
    <path d="M 612.08684 141263.11002 
L 612.117175 141263.11002 
L 612.117175 141263.11002 
L 612.08684 141263.11002 
z
" clip-path="url(#p318d1bb3cb)" style="fill: #ff00ff"/>
   </g>
   <g id="patch_111">
    <path d="M 612.117175 141263.11002 
L 612.149984 141263.11002 
L 612.149984 141263.11002 
L 612.117175 141263.11002 
z
" clip-path="url(#p318d1bb3cb)" style="fill: #ff00ff"/>
   </g>
   <g id="patch_112">
    <path d="M 612.149984 141263.11002 
L 612.185466 141263.11002 
L 612.185466 141263.11002 
L 612.149984 141263.11002 
z
" clip-path="url(#p318d1bb3cb)" style="fill: #ff00ff"/>
   </g>
   <g id="patch_113">
    <path d="M 612.185466 141263.11002 
L 612.223841 141263.11002 
L 612.223841 141263.11002 
L 612.185466 141263.11002 
z
" clip-path="url(#p318d1bb3cb)" style="fill: #ff00ff"/>
   </g>
   <g id="patch_114">
    <path d="M 612.223841 141263.11002 
L 612.265344 141263.11002 
L 612.265344 141263.11002 
L 612.223841 141263.11002 
z
" clip-path="url(#p318d1bb3cb)" style="fill: #ff00ff"/>
   </g>
   <g id="patch_115">
    <path d="M 612.265344 141263.11002 
L 612.31023 141263.11002 
L 612.31023 141263.11002 
L 612.265344 141263.11002 
z
" clip-path="url(#p318d1bb3cb)" style="fill: #ff00ff"/>
   </g>
   <g id="patch_116">
    <path d="M 612.31023 141263.11002 
L 612.358774 141263.11002 
L 612.358774 141263.11002 
L 612.31023 141263.11002 
z
" clip-path="url(#p318d1bb3cb)" style="fill: #ff00ff"/>
   </g>
   <g id="patch_117">
    <path d="M 612.358774 141263.11002 
L 612.411275 141263.11002 
L 612.411275 141263.11002 
L 612.358774 141263.11002 
z
" clip-path="url(#p318d1bb3cb)" style="fill: #ff00ff"/>
   </g>
   <g id="patch_118">
    <path d="M 612.411275 141263.11002 
L 612.468056 141263.11002 
L 612.468056 141263.11002 
L 612.411275 141263.11002 
z
" clip-path="url(#p318d1bb3cb)" style="fill: #ff00ff"/>
   </g>
   <g id="patch_119">
    <path d="M 612.468056 141263.11002 
L 612.529465 141263.11002 
L 612.529465 141263.11002 
L 612.468056 141263.11002 
z
" clip-path="url(#p318d1bb3cb)" style="fill: #ff00ff"/>
   </g>
   <g id="patch_120">
    <path d="M 612.529465 141263.11002 
L 612.595879 141263.11002 
L 612.595879 141263.11002 
L 612.529465 141263.11002 
z
" clip-path="url(#p318d1bb3cb)" style="fill: #ff00ff"/>
   </g>
   <g id="patch_121">
    <path d="M 612.595879 141263.11002 
L 612.667707 141263.11002 
L 612.667707 141263.11002 
L 612.595879 141263.11002 
z
" clip-path="url(#p318d1bb3cb)" style="fill: #ff00ff"/>
   </g>
   <g id="patch_122">
    <path d="M 612.667707 141263.11002 
L 612.74539 141263.11002 
L 612.74539 141263.11002 
L 612.667707 141263.11002 
z
" clip-path="url(#p318d1bb3cb)" style="fill: #ff00ff"/>
   </g>
   <g id="patch_123">
    <path d="M 612.74539 141263.11002 
L 612.829405 141263.11002 
L 612.829405 141263.11002 
L 612.74539 141263.11002 
z
" clip-path="url(#p318d1bb3cb)" style="fill: #ff00ff"/>
   </g>
   <g id="patch_124">
    <path d="M 612.829405 141263.11002 
L 612.920268 141263.11002 
L 612.920268 141263.11002 
L 612.829405 141263.11002 
z
" clip-path="url(#p318d1bb3cb)" style="fill: #ff00ff"/>
   </g>
   <g id="patch_125">
    <path d="M 612.920268 141263.11002 
L 613.018537 141263.11002 
L 613.018537 141263.11002 
L 612.920268 141263.11002 
z
" clip-path="url(#p318d1bb3cb)" style="fill: #ff00ff"/>
   </g>
   <g id="patch_126">
    <path d="M 613.018537 141263.11002 
L 613.124816 141263.11002 
L 613.124816 141263.11002 
L 613.018537 141263.11002 
z
" clip-path="url(#p318d1bb3cb)" style="fill: #ff00ff"/>
   </g>
   <g id="patch_127">
    <path d="M 613.124816 141263.11002 
L 613.239758 141263.11002 
L 613.239758 141263.11002 
L 613.124816 141263.11002 
z
" clip-path="url(#p318d1bb3cb)" style="fill: #ff00ff"/>
   </g>
   <g id="patch_128">
    <path d="M 613.239758 141263.11002 
L 613.364069 141263.11002 
L 613.364069 141263.11002 
L 613.239758 141263.11002 
z
" clip-path="url(#p318d1bb3cb)" style="fill: #ff00ff"/>
   </g>
   <g id="patch_129">
    <path d="M 613.364069 141263.11002 
L 613.498513 141263.11002 
L 613.498513 141263.11002 
L 613.364069 141263.11002 
z
" clip-path="url(#p318d1bb3cb)" style="fill: #ff00ff"/>
   </g>
   <g id="patch_130">
    <path d="M 613.498513 141263.11002 
L 613.643915 141263.11002 
L 613.643915 141263.11002 
L 613.498513 141263.11002 
z
" clip-path="url(#p318d1bb3cb)" style="fill: #ff00ff"/>
   </g>
   <g id="patch_131">
    <path d="M 613.643915 141263.11002 
L 613.80117 141263.11002 
L 613.80117 141263.11002 
L 613.643915 141263.11002 
z
" clip-path="url(#p318d1bb3cb)" style="fill: #ff00ff"/>
   </g>
   <g id="patch_132">
    <path d="M 613.80117 141263.11002 
L 613.971242 141263.11002 
L 613.971242 141263.11002 
L 613.80117 141263.11002 
z
" clip-path="url(#p318d1bb3cb)" style="fill: #ff00ff"/>
   </g>
   <g id="patch_133">
    <path d="M 613.971242 141263.11002 
L 614.155177 141263.11002 
L 614.155177 141263.11002 
L 613.971242 141263.11002 
z
" clip-path="url(#p318d1bb3cb)" style="fill: #ff00ff"/>
   </g>
   <g id="patch_134">
    <path d="M 614.155177 141263.11002 
L 614.354105 141263.11002 
L 614.354105 141263.11002 
L 614.155177 141263.11002 
z
" clip-path="url(#p318d1bb3cb)" style="fill: #ff00ff"/>
   </g>
   <g id="patch_135">
    <path d="M 614.354105 141263.11002 
L 614.569247 141263.11002 
L 614.569247 141263.11002 
L 614.354105 141263.11002 
z
" clip-path="url(#p318d1bb3cb)" style="fill: #ff00ff"/>
   </g>
   <g id="patch_136">
    <path d="M 614.569247 141263.11002 
L 614.801926 141263.11002 
L 614.801926 141263.11002 
L 614.569247 141263.11002 
z
" clip-path="url(#p318d1bb3cb)" style="fill: #ff00ff"/>
   </g>
   <g id="patch_137">
    <path d="M 614.801926 141263.11002 
L 615.053571 141263.11002 
L 615.053571 141263.11002 
L 614.801926 141263.11002 
z
" clip-path="url(#p318d1bb3cb)" style="fill: #ff00ff"/>
   </g>
   <g id="patch_138">
    <path d="M 615.053571 141263.11002 
L 615.325728 141263.11002 
L 615.325728 141263.11002 
L 615.053571 141263.11002 
z
" clip-path="url(#p318d1bb3cb)" style="fill: #ff00ff"/>
   </g>
   <g id="patch_139">
    <path d="M 615.325728 141263.11002 
L 615.620068 141263.11002 
L 615.620068 141263.11002 
L 615.325728 141263.11002 
z
" clip-path="url(#p318d1bb3cb)" style="fill: #ff00ff"/>
   </g>
   <g id="patch_140">
    <path d="M 615.620068 141263.11002 
L 615.9384 141263.11002 
L 615.9384 141263.11002 
L 615.620068 141263.11002 
z
" clip-path="url(#p318d1bb3cb)" style="fill: #ff00ff"/>
   </g>
   <g id="patch_141">
    <path d="M 615.9384 141263.11002 
L 616.28268 141263.11002 
L 616.28268 141263.11002 
L 615.9384 141263.11002 
z
" clip-path="url(#p318d1bb3cb)" style="fill: #ff00ff"/>
   </g>
   <g id="patch_142">
    <path d="M 616.28268 141263.11002 
L 616.655023 141263.11002 
L 616.655023 141263.11002 
L 616.28268 141263.11002 
z
" clip-path="url(#p318d1bb3cb)" style="fill: #ff00ff"/>
   </g>
   <g id="patch_143">
    <path d="M 616.655023 141263.11002 
L 617.057715 141263.11002 
L 617.057715 141263.11002 
L 616.655023 141263.11002 
z
" clip-path="url(#p318d1bb3cb)" style="fill: #ff00ff"/>
   </g>
   <g id="patch_144">
    <path d="M 617.057715 141263.11002 
L 617.493231 141263.11002 
L 617.493231 141263.11002 
L 617.057715 141263.11002 
z
" clip-path="url(#p318d1bb3cb)" style="fill: #ff00ff"/>
   </g>
   <g id="patch_145">
    <path d="M 617.493231 141263.11002 
L 617.964247 141263.11002 
L 617.964247 141263.11002 
L 617.493231 141263.11002 
z
" clip-path="url(#p318d1bb3cb)" style="fill: #ff00ff"/>
   </g>
   <g id="patch_146">
    <path d="M 617.964247 141263.11002 
L 618.473655 141263.11002 
L 618.473655 141263.11002 
L 617.964247 141263.11002 
z
" clip-path="url(#p318d1bb3cb)" style="fill: #ff00ff"/>
   </g>
   <g id="patch_147">
    <path d="M 618.473655 141263.11002 
L 619.024586 141263.11002 
L 619.024586 141263.11002 
L 618.473655 141263.11002 
z
" clip-path="url(#p318d1bb3cb)" style="fill: #ff00ff"/>
   </g>
   <g id="patch_148">
    <path d="M 619.024586 141263.11002 
L 619.620423 141263.11002 
L 619.620423 141263.11002 
L 619.024586 141263.11002 
z
" clip-path="url(#p318d1bb3cb)" style="fill: #ff00ff"/>
   </g>
   <g id="patch_149">
    <path d="M 619.620423 141263.11002 
L 620.264828 141263.11002 
L 620.264828 141263.11002 
L 619.620423 141263.11002 
z
" clip-path="url(#p318d1bb3cb)" style="fill: #ff00ff"/>
   </g>
   <g id="patch_150">
    <path d="M 620.264828 141263.11002 
L 620.961759 141263.11002 
L 620.961759 141263.11002 
L 620.264828 141263.11002 
z
" clip-path="url(#p318d1bb3cb)" style="fill: #ff00ff"/>
   </g>
   <g id="patch_151">
    <path d="M 620.961759 141263.11002 
L 621.715497 141263.11002 
L 621.715497 141263.11002 
L 620.961759 141263.11002 
z
" clip-path="url(#p318d1bb3cb)" style="fill: #ff00ff"/>
   </g>
   <g id="patch_152">
    <path d="M 621.715497 141263.11002 
L 622.530674 141263.11002 
L 622.530674 141263.11002 
L 621.715497 141263.11002 
z
" clip-path="url(#p318d1bb3cb)" style="fill: #ff00ff"/>
   </g>
   <g id="patch_153">
    <path d="M 622.530674 141263.11002 
L 623.412296 141263.11002 
L 623.412296 141263.11002 
L 622.530674 141263.11002 
z
" clip-path="url(#p318d1bb3cb)" style="fill: #ff00ff"/>
   </g>
   <g id="patch_154">
    <path d="M 623.412296 141263.11002 
L 624.365779 141263.11002 
L 624.365779 141263.11002 
L 623.412296 141263.11002 
z
" clip-path="url(#p318d1bb3cb)" style="fill: #ff00ff"/>
   </g>
   <g id="patch_155">
    <path d="M 624.365779 141263.11002 
L 625.396983 141263.11002 
L 625.396983 141263.11002 
L 624.365779 141263.11002 
z
" clip-path="url(#p318d1bb3cb)" style="fill: #ff00ff"/>
   </g>
   <g id="patch_156">
    <path d="M 625.396983 141263.11002 
L 626.51224 141263.11002 
L 626.51224 141263.11002 
L 625.396983 141263.11002 
z
" clip-path="url(#p318d1bb3cb)" style="fill: #ff00ff"/>
   </g>
   <g id="patch_157">
    <path d="M 626.51224 141263.11002 
L 627.718403 141263.11002 
L 627.718403 141263.11002 
L 626.51224 141263.11002 
z
" clip-path="url(#p318d1bb3cb)" style="fill: #ff00ff"/>
   </g>
   <g id="patch_158">
    <path d="M 627.718403 141263.11002 
L 629.022881 141263.11002 
L 629.022881 141263.11002 
L 627.718403 141263.11002 
z
" clip-path="url(#p318d1bb3cb)" style="fill: #ff00ff"/>
   </g>
   <g id="patch_159">
    <path d="M 629.022881 141263.11002 
L 630.433689 141263.11002 
L 630.433689 141263.11002 
L 629.022881 141263.11002 
z
" clip-path="url(#p318d1bb3cb)" style="fill: #ff00ff"/>
   </g>
   <g id="patch_160">
    <path d="M 630.433689 141263.11002 
L 631.959493 141263.11002 
L 631.959493 141263.11002 
L 630.433689 141263.11002 
z
" clip-path="url(#p318d1bb3cb)" style="fill: #ff00ff"/>
   </g>
   <g id="patch_161">
    <path d="M 631.959493 141263.11002 
L 633.609666 141263.11002 
L 633.609666 141263.11002 
L 631.959493 141263.11002 
z
" clip-path="url(#p318d1bb3cb)" style="fill: #ff00ff"/>
   </g>
   <g id="patch_162">
    <path d="M 633.609666 141263.11002 
L 635.394347 141263.11002 
L 635.394347 141263.11002 
L 633.609666 141263.11002 
z
" clip-path="url(#p318d1bb3cb)" style="fill: #ff00ff"/>
   </g>
   <g id="patch_163">
    <path d="M 635.394347 141263.11002 
L 637.324498 141263.11002 
L 637.324498 141263.11002 
L 635.394347 141263.11002 
z
" clip-path="url(#p318d1bb3cb)" style="fill: #ff00ff"/>
   </g>
   <g id="patch_164">
    <path d="M 637.324498 141263.11002 
L 639.411978 141263.11002 
L 639.411978 141263.11002 
L 637.324498 141263.11002 
z
" clip-path="url(#p318d1bb3cb)" style="fill: #ff00ff"/>
   </g>
   <g id="patch_165">
    <path d="M 639.411978 141263.11002 
L 641.669611 141263.11002 
L 641.669611 141263.11002 
L 639.411978 141263.11002 
z
" clip-path="url(#p318d1bb3cb)" style="fill: #ff00ff"/>
   </g>
   <g id="patch_166">
    <path d="M 641.669611 141263.11002 
L 644.111265 141263.11002 
L 644.111265 141263.11002 
L 641.669611 141263.11002 
z
" clip-path="url(#p318d1bb3cb)" style="fill: #ff00ff"/>
   </g>
   <g id="patch_167">
    <path d="M 644.111265 141263.11002 
L 646.75194 141263.11002 
L 646.75194 141263.11002 
L 644.111265 141263.11002 
z
" clip-path="url(#p318d1bb3cb)" style="fill: #ff00ff"/>
   </g>
   <g id="patch_168">
    <path d="M 646.75194 141263.11002 
L 649.607859 141263.11002 
L 649.607859 141263.11002 
L 646.75194 141263.11002 
z
" clip-path="url(#p318d1bb3cb)" style="fill: #ff00ff"/>
   </g>
   <g id="patch_169">
    <path d="M 649.607859 141263.11002 
L 652.696567 141263.11002 
L 652.696567 141263.11002 
L 649.607859 141263.11002 
z
" clip-path="url(#p318d1bb3cb)" style="fill: #ff00ff"/>
   </g>
   <g id="patch_170">
    <path d="M 652.696567 141263.11002 
L 656.037038 141263.11002 
L 656.037038 141263.11002 
L 652.696567 141263.11002 
z
" clip-path="url(#p318d1bb3cb)" style="fill: #ff00ff"/>
   </g>
   <g id="patch_171">
    <path d="M 656.037038 141263.11002 
L 659.649793 141263.11002 
L 659.649793 141263.11002 
L 656.037038 141263.11002 
z
" clip-path="url(#p318d1bb3cb)" style="fill: #ff00ff"/>
   </g>
   <g id="patch_172">
    <path d="M 659.649793 141263.11002 
L 663.557028 141263.11002 
L 663.557028 141263.11002 
L 659.649793 141263.11002 
z
" clip-path="url(#p318d1bb3cb)" style="fill: #ff00ff"/>
   </g>
   <g id="patch_173">
    <path d="M 663.557028 141263.11002 
L 667.782745 141263.11002 
L 667.782745 141263.11002 
L 663.557028 141263.11002 
z
" clip-path="url(#p318d1bb3cb)" style="fill: #ff00ff"/>
   </g>
   <g id="patch_174">
    <path d="M 667.782745 141263.11002 
L 672.352904 141263.11002 
L 672.352904 141263.11002 
L 667.782745 141263.11002 
z
" clip-path="url(#p318d1bb3cb)" style="fill: #ff00ff"/>
   </g>
   <g id="patch_175">
    <path d="M 672.352904 141263.11002 
L 677.295581 141263.11002 
L 677.295581 141263.11002 
L 672.352904 141263.11002 
z
" clip-path="url(#p318d1bb3cb)" style="fill: #ff00ff"/>
   </g>
   <g id="patch_176">
    <path d="M 677.295581 141263.11002 
L 682.641139 141263.11002 
L 682.641139 141263.11002 
L 677.295581 141263.11002 
z
" clip-path="url(#p318d1bb3cb)" style="fill: #ff00ff"/>
   </g>
   <g id="patch_177">
    <path d="M 682.641139 141263.11002 
L 688.422419 141263.11002 
L 688.422419 141263.11002 
L 682.641139 141263.11002 
z
" clip-path="url(#p318d1bb3cb)" style="fill: #ff00ff"/>
   </g>
   <g id="patch_178">
    <path d="M 688.422419 141263.11002 
L 694.674937 141263.11002 
L 694.674937 141263.11002 
L 688.422419 141263.11002 
z
" clip-path="url(#p318d1bb3cb)" style="fill: #ff00ff"/>
   </g>
   <g id="patch_179">
    <path d="M 694.674937 141263.11002 
L 701.437102 141263.11002 
L 701.437102 141263.11002 
L 694.674937 141263.11002 
z
" clip-path="url(#p318d1bb3cb)" style="fill: #ff00ff"/>
   </g>
   <g id="patch_180">
    <path d="M 701.437102 141263.11002 
L 708.750458 141263.11002 
L 708.750458 141263.11002 
L 701.437102 141263.11002 
z
" clip-path="url(#p318d1bb3cb)" style="fill: #ff00ff"/>
   </g>
   <g id="patch_181">
    <path d="M 708.750458 141263.11002 
L 716.659932 141263.11002 
L 716.659932 141263.11002 
L 708.750458 141263.11002 
z
" clip-path="url(#p318d1bb3cb)" style="fill: #ff00ff"/>
   </g>
   <g id="patch_182">
    <path d="M 716.659932 141263.11002 
L 725.214114 141263.11002 
L 725.214114 141263.11002 
L 716.659932 141263.11002 
z
" clip-path="url(#p318d1bb3cb)" style="fill: #ff00ff"/>
   </g>
   <g id="patch_183">
    <path d="M 725.214114 141263.11002 
L 734.465556 141263.11002 
L 734.465556 74.947364 
L 725.214114 74.947364 
z
" clip-path="url(#p318d1bb3cb)" style="fill: #ff00ff"/>
   </g>
   <g id="patch_184">
    <path d="M 734.465556 141263.11002 
L 744.471091 141263.11002 
L 744.471091 141263.11002 
L 734.465556 141263.11002 
z
" clip-path="url(#p318d1bb3cb)" style="fill: #ff00ff"/>
   </g>
   <g id="patch_185">
    <path d="M 744.471091 141263.11002 
L 755.292185 141263.11002 
L 755.292185 141263.11002 
L 744.471091 141263.11002 
z
" clip-path="url(#p318d1bb3cb)" style="fill: #ff00ff"/>
   </g>
   <g id="patch_186">
    <path d="M 755.292185 141263.11002 
L 766.995317 141263.11002 
L 766.995317 141263.11002 
L 755.292185 141263.11002 
z
" clip-path="url(#p318d1bb3cb)" style="fill: #ff00ff"/>
   </g>
   <g id="patch_187">
    <path d="M 766.995317 141263.11002 
L 779.652382 141263.11002 
L 779.652382 141263.11002 
L 766.995317 141263.11002 
z
" clip-path="url(#p318d1bb3cb)" style="fill: #ff00ff"/>
   </g>
   <g id="patch_188">
    <path d="M 779.652382 141263.11002 
L 793.341136 141263.11002 
L 793.341136 141263.11002 
L 779.652382 141263.11002 
z
" clip-path="url(#p318d1bb3cb)" style="fill: #ff00ff"/>
   </g>
   <g id="patch_189">
    <path d="M 793.341136 141263.11002 
L 808.145672 141263.11002 
L 808.145672 141263.11002 
L 793.341136 141263.11002 
z
" clip-path="url(#p318d1bb3cb)" style="fill: #ff00ff"/>
   </g>
   <g id="patch_190">
    <path d="M 808.145672 141263.11002 
L 824.156939 141263.11002 
L 824.156939 141263.11002 
L 808.145672 141263.11002 
z
" clip-path="url(#p318d1bb3cb)" style="fill: #ff00ff"/>
   </g>
   <g id="patch_191">
    <path d="M 824.156939 141263.11002 
L 841.473298 141263.11002 
L 841.473298 141263.11002 
L 824.156939 141263.11002 
z
" clip-path="url(#p318d1bb3cb)" style="fill: #ff00ff"/>
   </g>
   <g id="patch_192">
    <path d="M 841.473298 141263.11002 
L 852.079464 141263.11002 
L 852.079464 154.623324 
L 841.473298 154.623324 
z
" clip-path="url(#p318d1bb3cb)" style="fill: #ff00ff"/>
   </g>
   <g id="patch_193">
    <path d="M 852.079464 141263.11002 
L 859.288613 141263.11002 
L 859.288613 141263.11002 
L 852.079464 141263.11002 
z
" clip-path="url(#p318d1bb3cb)" style="fill: #ff00ff"/>
   </g>
   <g id="patch_194">
    <path d="M 859.288613 141263.11002 
L 866.497761 141263.11002 
L 866.497761 141263.11002 
L 859.288613 141263.11002 
z
" clip-path="url(#p318d1bb3cb)" style="fill: #ff00ff"/>
   </g>
   <g id="patch_195">
    <path d="M 866.497761 141263.11002 
L 873.70691 141263.11002 
L 873.70691 141263.11002 
L 866.497761 141263.11002 
z
" clip-path="url(#p318d1bb3cb)" style="fill: #ff00ff"/>
   </g>
   <g id="patch_196">
    <path d="M 873.70691 141263.11002 
L 880.916058 141263.11002 
L 880.916058 141263.11002 
L 873.70691 141263.11002 
z
" clip-path="url(#p318d1bb3cb)" style="fill: #ff00ff"/>
   </g>
   <g id="patch_197">
    <path d="M 880.916058 141263.11002 
L 888.125207 141263.11002 
L 888.125207 230.125801 
L 880.916058 230.125801 
z
" clip-path="url(#p318d1bb3cb)" style="fill: #ff00ff"/>
   </g>
   <g id="patch_198">
    <path d="M 888.125207 141263.11002 
L 895.334355 141263.11002 
L 895.334355 141263.11002 
L 888.125207 141263.11002 
z
" clip-path="url(#p318d1bb3cb)" style="fill: #ff00ff"/>
   </g>
   <g id="patch_199">
    <path d="M 895.334355 141263.11002 
L 902.543504 141263.11002 
L 902.543504 141263.11002 
L 895.334355 141263.11002 
z
" clip-path="url(#p318d1bb3cb)" style="fill: #ff00ff"/>
   </g>
   <g id="patch_200">
    <path d="M 902.543504 141263.11002 
L 909.752652 141263.11002 
L 909.752652 141263.11002 
L 902.543504 141263.11002 
z
" clip-path="url(#p318d1bb3cb)" style="fill: #ff00ff"/>
   </g>
   <g id="patch_201">
    <path d="M 909.752652 141263.11002 
L 916.961801 141263.11002 
L 916.961801 309.280151 
L 909.752652 309.280151 
z
" clip-path="url(#p318d1bb3cb)" style="fill: #ff00ff"/>
   </g>
   <g id="patch_202">
    <path d="M 916.961801 141263.11002 
L 924.17095 141263.11002 
L 924.17095 141263.11002 
L 916.961801 141263.11002 
z
" clip-path="url(#p318d1bb3cb)" style="fill: #ff00ff"/>
   </g>
   <g id="patch_203">
    <path d="M 924.17095 141263.11002 
L 931.380098 141263.11002 
L 931.380098 141263.11002 
L 924.17095 141263.11002 
z
" clip-path="url(#p318d1bb3cb)" style="fill: #ff00ff"/>
   </g>
   <g id="patch_204">
    <path d="M 931.380098 141263.11002 
L 938.589247 141263.11002 
L 938.589247 331.085806 
L 931.380098 331.085806 
z
" clip-path="url(#p318d1bb3cb)" style="fill: #ff00ff"/>
   </g>
   <g id="patch_205">
    <path d="M 938.589247 141263.11002 
L 945.798395 141263.11002 
L 945.798395 141263.11002 
L 938.589247 141263.11002 
z
" clip-path="url(#p318d1bb3cb)" style="fill: #ff00ff"/>
   </g>
   <g id="patch_206">
    <path d="M 945.798395 141263.11002 
L 953.007544 141263.11002 
L 953.007544 407.674636 
L 945.798395 407.674636 
z
" clip-path="url(#p318d1bb3cb)" style="fill: #ff00ff"/>
   </g>
   <g id="patch_207">
    <path d="M 953.007544 141263.11002 
L 960.216692 141263.11002 
L 960.216692 141263.11002 
L 953.007544 141263.11002 
z
" clip-path="url(#p318d1bb3cb)" style="fill: #ff00ff"/>
   </g>
   <g id="patch_208">
    <path d="M 960.216692 141263.11002 
L 967.425841 141263.11002 
L 967.425841 141263.11002 
L 960.216692 141263.11002 
z
" clip-path="url(#p318d1bb3cb)" style="fill: #ff00ff"/>
   </g>
   <g id="patch_209">
    <path d="M 967.425841 141263.11002 
L 974.634989 141263.11002 
L 974.634989 141263.11002 
L 967.425841 141263.11002 
z
" clip-path="url(#p318d1bb3cb)" style="fill: #ff00ff"/>
   </g>
   <g id="matplotlib.axis_3">
    <g id="xtick_3">
     <g id="line2d_15">
      <path d="M 611.714672 424.311 
L 611.714672 58.311 
" clip-path="url(#p318d1bb3cb)" style="fill: none; stroke-dasharray: 2.96,1.28; stroke-dashoffset: 0; stroke: #b0b0b0; stroke-width: 0.8"/>
     </g>
     <g id="line2d_16">
      <g>
       <use xlink:href="#m687f289da1" x="611.714672" y="424.311" style="stroke: #000000; stroke-width: 0.8"/>
      </g>
     </g>
     <g id="text_11">
      <!-- $\mathdefault{0}$ -->
      <g transform="translate(605.954672 458.488187)scale(0.18 -0.18)">
       <use xlink:href="#DejaVuSans-30" transform="translate(0 0.78125)"/>
      </g>
     </g>
    </g>
    <g id="xtick_4">
     <g id="line2d_17">
      <path d="M 729.404259 424.311 
L 729.404259 58.311 
" clip-path="url(#p318d1bb3cb)" style="fill: none; stroke-dasharray: 2.96,1.28; stroke-dashoffset: 0; stroke: #b0b0b0; stroke-width: 0.8"/>
     </g>
     <g id="line2d_18">
      <g>
       <use xlink:href="#m687f289da1" x="729.404259" y="424.311" style="stroke: #000000; stroke-width: 0.8"/>
      </g>
     </g>
     <g id="text_12">
      <!-- $\mathdefault{10^{0}}$ -->
      <g transform="translate(713.564259 458.488187)scale(0.18 -0.18)">
       <use xlink:href="#DejaVuSans-31" transform="translate(0 0.765625)"/>
       <use xlink:href="#DejaVuSans-30" transform="translate(63.623047 0.765625)"/>
       <use xlink:href="#DejaVuSans-30" transform="translate(128.203125 39.046875)scale(0.7)"/>
      </g>
     </g>
    </g>
    <g id="text_13">
     <!-- OutDegree -->
     <g transform="translate(732.766914 481.4285)scale(0.2 -0.2)">
      <use xlink:href="#DejaVuSans-4f"/>
      <use xlink:href="#DejaVuSans-75" x="78.710938"/>
      <use xlink:href="#DejaVuSans-74" x="142.089844"/>
      <use xlink:href="#DejaVuSans-44" x="181.298828"/>
      <use xlink:href="#DejaVuSans-65" x="258.300781"/>
      <use xlink:href="#DejaVuSans-67" x="319.824219"/>
      <use xlink:href="#DejaVuSans-72" x="383.300781"/>
      <use xlink:href="#DejaVuSans-65" x="422.164062"/>
      <use xlink:href="#DejaVuSans-65" x="483.6875"/>
     </g>
    </g>
   </g>
   <g id="matplotlib.axis_4">
    <g id="ytick_6">
     <g id="line2d_19">
      <path d="M 581.21125 351.65635 
L 993.369453 351.65635 
" clip-path="url(#p318d1bb3cb)" style="fill: none; stroke-dasharray: 2.96,1.28; stroke-dashoffset: 0; stroke: #b0b0b0; stroke-width: 0.8"/>
     </g>
     <g id="line2d_20">
      <g>
       <use xlink:href="#me3f7af5527" x="581.21125" y="351.65635" style="stroke: #000000; stroke-width: 0.8"/>
      </g>
     </g>
     <g id="text_14">
      <!-- $\mathdefault{10^{1}}$ -->
      <g transform="translate(529.03125 358.494943)scale(0.18 -0.18)">
       <use xlink:href="#DejaVuSans-31" transform="translate(0 0.684375)"/>
       <use xlink:href="#DejaVuSans-30" transform="translate(63.623047 0.684375)"/>
       <use xlink:href="#DejaVuSans-31" transform="translate(128.203125 38.965625)scale(0.7)"/>
      </g>
     </g>
    </g>
    <g id="ytick_7">
     <g id="line2d_21">
      <path d="M 581.21125 210.885667 
L 993.369453 210.885667 
" clip-path="url(#p318d1bb3cb)" style="fill: none; stroke-dasharray: 2.96,1.28; stroke-dashoffset: 0; stroke: #b0b0b0; stroke-width: 0.8"/>
     </g>
     <g id="line2d_22">
      <g>
       <use xlink:href="#me3f7af5527" x="581.21125" y="210.885667" style="stroke: #000000; stroke-width: 0.8"/>
      </g>
     </g>
     <g id="text_15">
      <!-- $\mathdefault{10^{2}}$ -->
      <g transform="translate(529.03125 217.72426)scale(0.18 -0.18)">
       <use xlink:href="#DejaVuSans-31" transform="translate(0 0.765625)"/>
       <use xlink:href="#DejaVuSans-30" transform="translate(63.623047 0.765625)"/>
       <use xlink:href="#DejaVuSans-32" transform="translate(128.203125 39.046875)scale(0.7)"/>
      </g>
     </g>
    </g>
    <g id="ytick_8">
     <g id="line2d_23">
      <path d="M 581.21125 70.114984 
L 993.369453 70.114984 
" clip-path="url(#p318d1bb3cb)" style="fill: none; stroke-dasharray: 2.96,1.28; stroke-dashoffset: 0; stroke: #b0b0b0; stroke-width: 0.8"/>
     </g>
     <g id="line2d_24">
      <g>
       <use xlink:href="#me3f7af5527" x="581.21125" y="70.114984" style="stroke: #000000; stroke-width: 0.8"/>
      </g>
     </g>
     <g id="text_16">
      <!-- $\mathdefault{10^{3}}$ -->
      <g transform="translate(529.03125 76.953577)scale(0.18 -0.18)">
       <use xlink:href="#DejaVuSans-31" transform="translate(0 0.765625)"/>
       <use xlink:href="#DejaVuSans-30" transform="translate(63.623047 0.765625)"/>
       <use xlink:href="#DejaVuSans-33" transform="translate(128.203125 39.046875)scale(0.7)"/>
      </g>
     </g>
    </g>
    <g id="ytick_9">
     <g id="line2d_25">
      <defs>
       <path id="m7acbae0ede" d="M 0 0 
L -7 0 
" style="stroke: #000000; stroke-width: 0.6"/>
      </defs>
      <g>
       <use xlink:href="#m7acbae0ede" x="581.21125" y="407.674636" style="stroke: #000000; stroke-width: 0.6"/>
      </g>
     </g>
    </g>
    <g id="ytick_10">
     <g id="line2d_26">
      <g>
       <use xlink:href="#m7acbae0ede" x="581.21125" y="394.032548" style="stroke: #000000; stroke-width: 0.6"/>
      </g>
     </g>
    </g>
    <g id="ytick_11">
     <g id="line2d_27">
      <g>
       <use xlink:href="#m7acbae0ede" x="581.21125" y="382.88615" style="stroke: #000000; stroke-width: 0.6"/>
      </g>
     </g>
    </g>
    <g id="ytick_12">
     <g id="line2d_28">
      <g>
       <use xlink:href="#m7acbae0ede" x="581.21125" y="373.462004" style="stroke: #000000; stroke-width: 0.6"/>
      </g>
     </g>
    </g>
    <g id="ytick_13">
     <g id="line2d_29">
      <g>
       <use xlink:href="#m7acbae0ede" x="581.21125" y="365.298438" style="stroke: #000000; stroke-width: 0.6"/>
      </g>
     </g>
    </g>
    <g id="ytick_14">
     <g id="line2d_30">
      <g>
       <use xlink:href="#m7acbae0ede" x="581.21125" y="358.097663" style="stroke: #000000; stroke-width: 0.6"/>
      </g>
     </g>
    </g>
    <g id="ytick_15">
     <g id="line2d_31">
      <g>
       <use xlink:href="#m7acbae0ede" x="581.21125" y="309.280151" style="stroke: #000000; stroke-width: 0.6"/>
      </g>
     </g>
    </g>
    <g id="ytick_16">
     <g id="line2d_32">
      <g>
       <use xlink:href="#m7acbae0ede" x="581.21125" y="284.491665" style="stroke: #000000; stroke-width: 0.6"/>
      </g>
     </g>
    </g>
    <g id="ytick_17">
     <g id="line2d_33">
      <g>
       <use xlink:href="#m7acbae0ede" x="581.21125" y="266.903953" style="stroke: #000000; stroke-width: 0.6"/>
      </g>
     </g>
    </g>
    <g id="ytick_18">
     <g id="line2d_34">
      <g>
       <use xlink:href="#m7acbae0ede" x="581.21125" y="253.261865" style="stroke: #000000; stroke-width: 0.6"/>
      </g>
     </g>
    </g>
    <g id="ytick_19">
     <g id="line2d_35">
      <g>
       <use xlink:href="#m7acbae0ede" x="581.21125" y="242.115467" style="stroke: #000000; stroke-width: 0.6"/>
      </g>
     </g>
    </g>
    <g id="ytick_20">
     <g id="line2d_36">
      <g>
       <use xlink:href="#m7acbae0ede" x="581.21125" y="232.691321" style="stroke: #000000; stroke-width: 0.6"/>
      </g>
     </g>
    </g>
    <g id="ytick_21">
     <g id="line2d_37">
      <g>
       <use xlink:href="#m7acbae0ede" x="581.21125" y="224.527755" style="stroke: #000000; stroke-width: 0.6"/>
      </g>
     </g>
    </g>
    <g id="ytick_22">
     <g id="line2d_38">
      <g>
       <use xlink:href="#m7acbae0ede" x="581.21125" y="217.32698" style="stroke: #000000; stroke-width: 0.6"/>
      </g>
     </g>
    </g>
    <g id="ytick_23">
     <g id="line2d_39">
      <g>
       <use xlink:href="#m7acbae0ede" x="581.21125" y="168.509468" style="stroke: #000000; stroke-width: 0.6"/>
      </g>
     </g>
    </g>
    <g id="ytick_24">
     <g id="line2d_40">
      <g>
       <use xlink:href="#m7acbae0ede" x="581.21125" y="143.720982" style="stroke: #000000; stroke-width: 0.6"/>
      </g>
     </g>
    </g>
    <g id="ytick_25">
     <g id="line2d_41">
      <g>
       <use xlink:href="#m7acbae0ede" x="581.21125" y="126.13327" style="stroke: #000000; stroke-width: 0.6"/>
      </g>
     </g>
    </g>
    <g id="ytick_26">
     <g id="line2d_42">
      <g>
       <use xlink:href="#m7acbae0ede" x="581.21125" y="112.491182" style="stroke: #000000; stroke-width: 0.6"/>
      </g>
     </g>
    </g>
    <g id="ytick_27">
     <g id="line2d_43">
      <g>
       <use xlink:href="#m7acbae0ede" x="581.21125" y="101.344784" style="stroke: #000000; stroke-width: 0.6"/>
      </g>
     </g>
    </g>
    <g id="ytick_28">
     <g id="line2d_44">
      <g>
       <use xlink:href="#m7acbae0ede" x="581.21125" y="91.920638" style="stroke: #000000; stroke-width: 0.6"/>
      </g>
     </g>
    </g>
    <g id="ytick_29">
     <g id="line2d_45">
      <g>
       <use xlink:href="#m7acbae0ede" x="581.21125" y="83.757072" style="stroke: #000000; stroke-width: 0.6"/>
      </g>
     </g>
    </g>
    <g id="ytick_30">
     <g id="line2d_46">
      <g>
       <use xlink:href="#m7acbae0ede" x="581.21125" y="76.556297" style="stroke: #000000; stroke-width: 0.6"/>
      </g>
     </g>
    </g>
    <g id="text_17">
     <!-- Occurence -->
     <g transform="translate(520.871875 294.545375)rotate(-90)scale(0.2 -0.2)">
      <use xlink:href="#DejaVuSans-4f"/>
      <use xlink:href="#DejaVuSans-63" x="78.710938"/>
      <use xlink:href="#DejaVuSans-63" x="133.691406"/>
      <use xlink:href="#DejaVuSans-75" x="188.671875"/>
      <use xlink:href="#DejaVuSans-72" x="252.050781"/>
      <use xlink:href="#DejaVuSans-65" x="290.914062"/>
      <use xlink:href="#DejaVuSans-6e" x="352.4375"/>
      <use xlink:href="#DejaVuSans-63" x="415.816406"/>
      <use xlink:href="#DejaVuSans-65" x="470.796875"/>
     </g>
    </g>
   </g>
   <g id="patch_210">
    <path d="M 581.21125 424.311 
L 581.21125 58.311 
" style="fill: none; stroke: #000000; stroke-width: 0.8; stroke-linejoin: miter; stroke-linecap: square"/>
   </g>
   <g id="patch_211">
    <path d="M 993.369453 424.311 
L 993.369453 58.311 
" style="fill: none; stroke: #000000; stroke-width: 0.8; stroke-linejoin: miter; stroke-linecap: square"/>
   </g>
   <g id="patch_212">
    <path d="M 581.21125 424.311 
L 993.369453 424.311 
" style="fill: none; stroke: #000000; stroke-width: 0.8; stroke-linejoin: miter; stroke-linecap: square"/>
   </g>
   <g id="patch_213">
    <path d="M 581.21125 58.311 
L 993.369453 58.311 
" style="fill: none; stroke: #000000; stroke-width: 0.8; stroke-linejoin: miter; stroke-linecap: square"/>
   </g>
   <g id="text_18">
    <!-- Infomap Communities' Connections  -->
    <g transform="translate(569.711602 25.43625)scale(0.24 -0.24)">
     <use xlink:href="#DejaVuSans-49"/>
     <use xlink:href="#DejaVuSans-6e" x="29.492188"/>
     <use xlink:href="#DejaVuSans-66" x="92.871094"/>
     <use xlink:href="#DejaVuSans-6f" x="128.076172"/>
     <use xlink:href="#DejaVuSans-6d" x="189.257812"/>
     <use xlink:href="#DejaVuSans-61" x="286.669922"/>
     <use xlink:href="#DejaVuSans-70" x="347.949219"/>
     <use xlink:href="#DejaVuSans-20" x="411.425781"/>
     <use xlink:href="#DejaVuSans-43" x="443.212891"/>
     <use xlink:href="#DejaVuSans-6f" x="513.037109"/>
     <use xlink:href="#DejaVuSans-6d" x="574.21875"/>
     <use xlink:href="#DejaVuSans-6d" x="671.630859"/>
     <use xlink:href="#DejaVuSans-75" x="769.042969"/>
     <use xlink:href="#DejaVuSans-6e" x="832.421875"/>
     <use xlink:href="#DejaVuSans-69" x="895.800781"/>
     <use xlink:href="#DejaVuSans-74" x="923.583984"/>
     <use xlink:href="#DejaVuSans-69" x="962.792969"/>
     <use xlink:href="#DejaVuSans-65" x="990.576172"/>
     <use xlink:href="#DejaVuSans-73" x="1052.099609"/>
     <use xlink:href="#DejaVuSans-27" x="1104.199219"/>
     <use xlink:href="#DejaVuSans-20" x="1131.689453"/>
     <use xlink:href="#DejaVuSans-43" x="1163.476562"/>
     <use xlink:href="#DejaVuSans-6f" x="1233.300781"/>
     <use xlink:href="#DejaVuSans-6e" x="1294.482422"/>
     <use xlink:href="#DejaVuSans-6e" x="1357.861328"/>
     <use xlink:href="#DejaVuSans-65" x="1421.240234"/>
     <use xlink:href="#DejaVuSans-63" x="1482.763672"/>
     <use xlink:href="#DejaVuSans-74" x="1537.744141"/>
     <use xlink:href="#DejaVuSans-69" x="1576.953125"/>
     <use xlink:href="#DejaVuSans-6f" x="1604.736328"/>
     <use xlink:href="#DejaVuSans-6e" x="1665.917969"/>
     <use xlink:href="#DejaVuSans-73" x="1729.296875"/>
     <use xlink:href="#DejaVuSans-20" x="1781.396484"/>
    </g>
    <!-- Up Till a Given Year, Descendants -->
    <g transform="translate(585.570352 52.311)scale(0.24 -0.24)">
     <use xlink:href="#DejaVuSans-55"/>
     <use xlink:href="#DejaVuSans-70" x="73.193359"/>
     <use xlink:href="#DejaVuSans-20" x="136.669922"/>
     <use xlink:href="#DejaVuSans-54" x="168.457031"/>
     <use xlink:href="#DejaVuSans-69" x="226.416016"/>
     <use xlink:href="#DejaVuSans-6c" x="254.199219"/>
     <use xlink:href="#DejaVuSans-6c" x="281.982422"/>
     <use xlink:href="#DejaVuSans-20" x="309.765625"/>
     <use xlink:href="#DejaVuSans-61" x="341.552734"/>
     <use xlink:href="#DejaVuSans-20" x="402.832031"/>
     <use xlink:href="#DejaVuSans-47" x="434.619141"/>
     <use xlink:href="#DejaVuSans-69" x="512.109375"/>
     <use xlink:href="#DejaVuSans-76" x="539.892578"/>
     <use xlink:href="#DejaVuSans-65" x="599.072266"/>
     <use xlink:href="#DejaVuSans-6e" x="660.595703"/>
     <use xlink:href="#DejaVuSans-20" x="723.974609"/>
     <use xlink:href="#DejaVuSans-59" x="755.761719"/>
     <use xlink:href="#DejaVuSans-65" x="803.595703"/>
     <use xlink:href="#DejaVuSans-61" x="865.119141"/>
     <use xlink:href="#DejaVuSans-72" x="926.398438"/>
     <use xlink:href="#DejaVuSans-2c" x="967.511719"/>
     <use xlink:href="#DejaVuSans-20" x="999.298828"/>
     <use xlink:href="#DejaVuSans-44" x="1031.085938"/>
     <use xlink:href="#DejaVuSans-65" x="1108.087891"/>
     <use xlink:href="#DejaVuSans-73" x="1169.611328"/>
     <use xlink:href="#DejaVuSans-63" x="1221.710938"/>
     <use xlink:href="#DejaVuSans-65" x="1276.691406"/>
     <use xlink:href="#DejaVuSans-6e" x="1338.214844"/>
     <use xlink:href="#DejaVuSans-64" x="1401.59375"/>
     <use xlink:href="#DejaVuSans-61" x="1465.070312"/>
     <use xlink:href="#DejaVuSans-6e" x="1526.349609"/>
     <use xlink:href="#DejaVuSans-74" x="1589.728516"/>
     <use xlink:href="#DejaVuSans-73" x="1628.9375"/>
    </g>
   </g>
  </g>
 </g>
 <defs>
  <clipPath id="p3a61265a16">
   <rect x="82.73625" y="58.311" width="412.158203" height="366"/>
  </clipPath>
  <clipPath id="p318d1bb3cb">
   <rect x="581.21125" y="58.311" width="412.158203" height="366"/>
  </clipPath>
 </defs>
</svg>
