<?xml version="1.0" encoding="utf-8" standalone="no"?>
<!DOCTYPE svg PUBLIC "-//W3C//DTD SVG 1.1//EN"
  "http://www.w3.org/Graphics/SVG/1.1/DTD/svg11.dtd">
<svg xmlns:xlink="http://www.w3.org/1999/xlink" width="1020.627227pt" height="492.787875pt" viewBox="0 0 1020.627227 492.787875" xmlns="http://www.w3.org/2000/svg" version="1.1">
 <metadata>
  <rdf:RDF xmlns:dc="http://purl.org/dc/elements/1.1/" xmlns:cc="http://creativecommons.org/ns#" xmlns:rdf="http://www.w3.org/1999/02/22-rdf-syntax-ns#">
   <cc:Work>
    <dc:type rdf:resource="http://purl.org/dc/dcmitype/StillImage"/>
    <dc:date>2022-05-08T17:31:36.320760</dc:date>
    <dc:format>image/svg+xml</dc:format>
    <dc:creator>
     <cc:Agent>
      <dc:title>Matplotlib v3.5.1, https://matplotlib.org/</dc:title>
     </cc:Agent>
    </dc:creator>
   </cc:Work>
  </rdf:RDF>
 </metadata>
 <defs>
  <style type="text/css">*{stroke-linejoin: round; stroke-linecap: butt}</style>
 </defs>
 <g id="figure_1">
  <g id="patch_1">
   <path d="M 0 492.787875 
L 1020.627227 492.787875 
L 1020.627227 0 
L 0 0 
L 0 492.787875 
z
" style="fill: none"/>
  </g>
  <g id="axes_1">
   <g id="patch_2">
    <path d="M 82.73625 424.311 
L 494.769453 424.311 
L 494.769453 58.311 
L 82.73625 58.311 
z
" style="fill: #ffffff"/>
   </g>
   <g id="patch_3">
    <path d="M 101.465032 424.311 
L 112.971999 424.311 
L 112.971999 80.115354 
L 101.465032 80.115354 
z
" clip-path="url(#paf6f555d16)" style="fill: #ff00ff"/>
   </g>
   <g id="patch_4">
    <path d="M 112.971999 424.311 
L 113.001603 424.311 
L 113.001603 424.311 
L 112.971999 424.311 
z
" clip-path="url(#paf6f555d16)" style="fill: #ff00ff"/>
   </g>
   <g id="patch_5">
    <path d="M 113.001603 424.311 
L 113.03369 424.311 
L 113.03369 424.311 
L 113.001603 424.311 
z
" clip-path="url(#paf6f555d16)" style="fill: #ff00ff"/>
   </g>
   <g id="patch_6">
    <path d="M 113.03369 424.311 
L 113.068471 424.311 
L 113.068471 424.311 
L 113.03369 424.311 
z
" clip-path="url(#paf6f555d16)" style="fill: #ff00ff"/>
   </g>
   <g id="patch_7">
    <path d="M 113.068471 424.311 
L 113.106171 424.311 
L 113.106171 424.311 
L 113.068471 424.311 
z
" clip-path="url(#paf6f555d16)" style="fill: #ff00ff"/>
   </g>
   <g id="patch_8">
    <path d="M 113.106171 424.311 
L 113.147035 424.311 
L 113.147035 424.311 
L 113.106171 424.311 
z
" clip-path="url(#paf6f555d16)" style="fill: #ff00ff"/>
   </g>
   <g id="patch_9">
    <path d="M 113.147035 424.311 
L 113.191329 424.311 
L 113.191329 424.311 
L 113.147035 424.311 
z
" clip-path="url(#paf6f555d16)" style="fill: #ff00ff"/>
   </g>
   <g id="patch_10">
    <path d="M 113.191329 424.311 
L 113.23934 424.311 
L 113.23934 424.311 
L 113.191329 424.311 
z
" clip-path="url(#paf6f555d16)" style="fill: #ff00ff"/>
   </g>
   <g id="patch_11">
    <path d="M 113.23934 424.311 
L 113.291381 424.311 
L 113.291381 424.311 
L 113.23934 424.311 
z
" clip-path="url(#paf6f555d16)" style="fill: #ff00ff"/>
   </g>
   <g id="patch_12">
    <path d="M 113.291381 424.311 
L 113.347789 424.311 
L 113.347789 424.311 
L 113.291381 424.311 
z
" clip-path="url(#paf6f555d16)" style="fill: #ff00ff"/>
   </g>
   <g id="patch_13">
    <path d="M 113.347789 424.311 
L 113.408931 424.311 
L 113.408931 424.311 
L 113.347789 424.311 
z
" clip-path="url(#paf6f555d16)" style="fill: #ff00ff"/>
   </g>
   <g id="patch_14">
    <path d="M 113.408931 424.311 
L 113.475205 424.311 
L 113.475205 424.311 
L 113.408931 424.311 
z
" clip-path="url(#paf6f555d16)" style="fill: #ff00ff"/>
   </g>
   <g id="patch_15">
    <path d="M 113.475205 424.311 
L 113.54704 424.311 
L 113.54704 424.311 
L 113.475205 424.311 
z
" clip-path="url(#paf6f555d16)" style="fill: #ff00ff"/>
   </g>
   <g id="patch_16">
    <path d="M 113.54704 424.311 
L 113.624905 424.311 
L 113.624905 424.311 
L 113.54704 424.311 
z
" clip-path="url(#paf6f555d16)" style="fill: #ff00ff"/>
   </g>
   <g id="patch_17">
    <path d="M 113.624905 424.311 
L 113.709305 424.311 
L 113.709305 424.311 
L 113.624905 424.311 
z
" clip-path="url(#paf6f555d16)" style="fill: #ff00ff"/>
   </g>
   <g id="patch_18">
    <path d="M 113.709305 424.311 
L 113.800788 424.311 
L 113.800788 424.311 
L 113.709305 424.311 
z
" clip-path="url(#paf6f555d16)" style="fill: #ff00ff"/>
   </g>
   <g id="patch_19">
    <path d="M 113.800788 424.311 
L 113.899949 424.311 
L 113.899949 424.311 
L 113.800788 424.311 
z
" clip-path="url(#paf6f555d16)" style="fill: #ff00ff"/>
   </g>
   <g id="patch_20">
    <path d="M 113.899949 424.311 
L 114.007433 424.311 
L 114.007433 424.311 
L 113.899949 424.311 
z
" clip-path="url(#paf6f555d16)" style="fill: #ff00ff"/>
   </g>
   <g id="patch_21">
    <path d="M 114.007433 424.311 
L 114.123937 424.311 
L 114.123937 424.311 
L 114.007433 424.311 
z
" clip-path="url(#paf6f555d16)" style="fill: #ff00ff"/>
   </g>
   <g id="patch_22">
    <path d="M 114.123937 424.311 
L 114.250219 424.311 
L 114.250219 424.311 
L 114.123937 424.311 
z
" clip-path="url(#paf6f555d16)" style="fill: #ff00ff"/>
   </g>
   <g id="patch_23">
    <path d="M 114.250219 424.311 
L 114.387099 424.311 
L 114.387099 424.311 
L 114.250219 424.311 
z
" clip-path="url(#paf6f555d16)" style="fill: #ff00ff"/>
   </g>
   <g id="patch_24">
    <path d="M 114.387099 424.311 
L 114.535467 424.311 
L 114.535467 424.311 
L 114.387099 424.311 
z
" clip-path="url(#paf6f555d16)" style="fill: #ff00ff"/>
   </g>
   <g id="patch_25">
    <path d="M 114.535467 424.311 
L 114.696288 424.311 
L 114.696288 424.311 
L 114.535467 424.311 
z
" clip-path="url(#paf6f555d16)" style="fill: #ff00ff"/>
   </g>
   <g id="patch_26">
    <path d="M 114.696288 424.311 
L 114.870605 424.311 
L 114.870605 424.311 
L 114.696288 424.311 
z
" clip-path="url(#paf6f555d16)" style="fill: #ff00ff"/>
   </g>
   <g id="patch_27">
    <path d="M 114.870605 424.311 
L 115.059553 424.311 
L 115.059553 424.311 
L 114.870605 424.311 
z
" clip-path="url(#paf6f555d16)" style="fill: #ff00ff"/>
   </g>
   <g id="patch_28">
    <path d="M 115.059553 424.311 
L 115.264358 424.311 
L 115.264358 424.311 
L 115.059553 424.311 
z
" clip-path="url(#paf6f555d16)" style="fill: #ff00ff"/>
   </g>
   <g id="patch_29">
    <path d="M 115.264358 424.311 
L 115.486352 424.311 
L 115.486352 424.311 
L 115.264358 424.311 
z
" clip-path="url(#paf6f555d16)" style="fill: #ff00ff"/>
   </g>
   <g id="patch_30">
    <path d="M 115.486352 424.311 
L 115.726977 424.311 
L 115.726977 424.311 
L 115.486352 424.311 
z
" clip-path="url(#paf6f555d16)" style="fill: #ff00ff"/>
   </g>
   <g id="patch_31">
    <path d="M 115.726977 424.311 
L 115.987798 424.311 
L 115.987798 424.311 
L 115.726977 424.311 
z
" clip-path="url(#paf6f555d16)" style="fill: #ff00ff"/>
   </g>
   <g id="patch_32">
    <path d="M 115.987798 424.311 
L 116.270508 424.311 
L 116.270508 424.311 
L 115.987798 424.311 
z
" clip-path="url(#paf6f555d16)" style="fill: #ff00ff"/>
   </g>
   <g id="patch_33">
    <path d="M 116.270508 424.311 
L 116.576945 424.311 
L 116.576945 424.311 
L 116.270508 424.311 
z
" clip-path="url(#paf6f555d16)" style="fill: #ff00ff"/>
   </g>
   <g id="patch_34">
    <path d="M 116.576945 424.311 
L 116.9091 424.311 
L 116.9091 424.311 
L 116.576945 424.311 
z
" clip-path="url(#paf6f555d16)" style="fill: #ff00ff"/>
   </g>
   <g id="patch_35">
    <path d="M 116.9091 424.311 
L 117.269132 424.311 
L 117.269132 424.311 
L 116.9091 424.311 
z
" clip-path="url(#paf6f555d16)" style="fill: #ff00ff"/>
   </g>
   <g id="patch_36">
    <path d="M 117.269132 424.311 
L 117.65938 424.311 
L 117.65938 424.311 
L 117.269132 424.311 
z
" clip-path="url(#paf6f555d16)" style="fill: #ff00ff"/>
   </g>
   <g id="patch_37">
    <path d="M 117.65938 424.311 
L 118.082381 424.311 
L 118.082381 424.311 
L 117.65938 424.311 
z
" clip-path="url(#paf6f555d16)" style="fill: #ff00ff"/>
   </g>
   <g id="patch_38">
    <path d="M 118.082381 424.311 
L 118.540883 424.311 
L 118.540883 424.311 
L 118.082381 424.311 
z
" clip-path="url(#paf6f555d16)" style="fill: #ff00ff"/>
   </g>
   <g id="patch_39">
    <path d="M 118.540883 424.311 
L 119.037866 424.311 
L 119.037866 424.311 
L 118.540883 424.311 
z
" clip-path="url(#paf6f555d16)" style="fill: #ff00ff"/>
   </g>
   <g id="patch_40">
    <path d="M 119.037866 424.311 
L 119.576559 424.311 
L 119.576559 424.311 
L 119.037866 424.311 
z
" clip-path="url(#paf6f555d16)" style="fill: #ff00ff"/>
   </g>
   <g id="patch_41">
    <path d="M 119.576559 424.311 
L 120.160462 424.311 
L 120.160462 424.311 
L 119.576559 424.311 
z
" clip-path="url(#paf6f555d16)" style="fill: #ff00ff"/>
   </g>
   <g id="patch_42">
    <path d="M 120.160462 424.311 
L 120.793371 424.311 
L 120.793371 424.311 
L 120.160462 424.311 
z
" clip-path="url(#paf6f555d16)" style="fill: #ff00ff"/>
   </g>
   <g id="patch_43">
    <path d="M 120.793371 424.311 
L 121.479398 424.311 
L 121.479398 424.311 
L 120.793371 424.311 
z
" clip-path="url(#paf6f555d16)" style="fill: #ff00ff"/>
   </g>
   <g id="patch_44">
    <path d="M 121.479398 424.311 
L 122.223001 424.311 
L 122.223001 424.311 
L 121.479398 424.311 
z
" clip-path="url(#paf6f555d16)" style="fill: #ff00ff"/>
   </g>
   <g id="patch_45">
    <path d="M 122.223001 424.311 
L 123.029013 424.311 
L 123.029013 424.311 
L 122.223001 424.311 
z
" clip-path="url(#paf6f555d16)" style="fill: #ff00ff"/>
   </g>
   <g id="patch_46">
    <path d="M 123.029013 424.311 
L 123.90267 424.311 
L 123.90267 424.311 
L 123.029013 424.311 
z
" clip-path="url(#paf6f555d16)" style="fill: #ff00ff"/>
   </g>
   <g id="patch_47">
    <path d="M 123.90267 424.311 
L 124.849651 424.311 
L 124.849651 424.311 
L 123.90267 424.311 
z
" clip-path="url(#paf6f555d16)" style="fill: #ff00ff"/>
   </g>
   <g id="patch_48">
    <path d="M 124.849651 424.311 
L 125.876109 424.311 
L 125.876109 424.311 
L 124.849651 424.311 
z
" clip-path="url(#paf6f555d16)" style="fill: #ff00ff"/>
   </g>
   <g id="patch_49">
    <path d="M 125.876109 424.311 
L 126.988715 424.311 
L 126.988715 424.311 
L 125.876109 424.311 
z
" clip-path="url(#paf6f555d16)" style="fill: #ff00ff"/>
   </g>
   <g id="patch_50">
    <path d="M 126.988715 424.311 
L 128.194698 424.311 
L 128.194698 424.311 
L 126.988715 424.311 
z
" clip-path="url(#paf6f555d16)" style="fill: #ff00ff"/>
   </g>
   <g id="patch_51">
    <path d="M 128.194698 424.311 
L 129.501895 424.311 
L 129.501895 424.311 
L 128.194698 424.311 
z
" clip-path="url(#paf6f555d16)" style="fill: #ff00ff"/>
   </g>
   <g id="patch_52">
    <path d="M 129.501895 424.311 
L 130.918802 424.311 
L 130.918802 424.311 
L 129.501895 424.311 
z
" clip-path="url(#paf6f555d16)" style="fill: #ff00ff"/>
   </g>
   <g id="patch_53">
    <path d="M 130.918802 424.311 
L 132.454625 424.311 
L 132.454625 424.311 
L 130.918802 424.311 
z
" clip-path="url(#paf6f555d16)" style="fill: #ff00ff"/>
   </g>
   <g id="patch_54">
    <path d="M 132.454625 424.311 
L 134.119345 424.311 
L 134.119345 424.311 
L 132.454625 424.311 
z
" clip-path="url(#paf6f555d16)" style="fill: #ff00ff"/>
   </g>
   <g id="patch_55">
    <path d="M 134.119345 424.311 
L 135.92378 424.311 
L 135.92378 424.311 
L 134.119345 424.311 
z
" clip-path="url(#paf6f555d16)" style="fill: #ff00ff"/>
   </g>
   <g id="patch_56">
    <path d="M 135.92378 424.311 
L 137.879656 424.311 
L 137.879656 424.311 
L 135.92378 424.311 
z
" clip-path="url(#paf6f555d16)" style="fill: #ff00ff"/>
   </g>
   <g id="patch_57">
    <path d="M 137.879656 424.311 
L 139.999682 424.311 
L 139.999682 424.311 
L 137.879656 424.311 
z
" clip-path="url(#paf6f555d16)" style="fill: #ff00ff"/>
   </g>
   <g id="patch_58">
    <path d="M 139.999682 424.311 
L 142.297635 424.311 
L 142.297635 424.311 
L 139.999682 424.311 
z
" clip-path="url(#paf6f555d16)" style="fill: #ff00ff"/>
   </g>
   <g id="patch_59">
    <path d="M 142.297635 424.311 
L 144.788448 424.311 
L 144.788448 424.311 
L 142.297635 424.311 
z
" clip-path="url(#paf6f555d16)" style="fill: #ff00ff"/>
   </g>
   <g id="patch_60">
    <path d="M 144.788448 424.311 
L 147.488308 424.311 
L 147.488308 424.311 
L 144.788448 424.311 
z
" clip-path="url(#paf6f555d16)" style="fill: #ff00ff"/>
   </g>
   <g id="patch_61">
    <path d="M 147.488308 424.311 
L 150.414759 424.311 
L 150.414759 424.311 
L 147.488308 424.311 
z
" clip-path="url(#paf6f555d16)" style="fill: #ff00ff"/>
   </g>
   <g id="patch_62">
    <path d="M 150.414759 424.311 
L 153.586818 424.311 
L 153.586818 424.311 
L 150.414759 424.311 
z
" clip-path="url(#paf6f555d16)" style="fill: #ff00ff"/>
   </g>
   <g id="patch_63">
    <path d="M 153.586818 424.311 
L 157.025097 424.311 
L 157.025097 424.311 
L 153.586818 424.311 
z
" clip-path="url(#paf6f555d16)" style="fill: #ff00ff"/>
   </g>
   <g id="patch_64">
    <path d="M 157.025097 424.311 
L 160.751941 424.311 
L 160.751941 424.311 
L 157.025097 424.311 
z
" clip-path="url(#paf6f555d16)" style="fill: #ff00ff"/>
   </g>
   <g id="patch_65">
    <path d="M 160.751941 424.311 
L 164.791568 424.311 
L 164.791568 424.311 
L 160.751941 424.311 
z
" clip-path="url(#paf6f555d16)" style="fill: #ff00ff"/>
   </g>
   <g id="patch_66">
    <path d="M 164.791568 424.311 
L 169.170228 424.311 
L 169.170228 424.311 
L 164.791568 424.311 
z
" clip-path="url(#paf6f555d16)" style="fill: #ff00ff"/>
   </g>
   <g id="patch_67">
    <path d="M 169.170228 424.311 
L 173.916375 424.311 
L 173.916375 424.311 
L 169.170228 424.311 
z
" clip-path="url(#paf6f555d16)" style="fill: #ff00ff"/>
   </g>
   <g id="patch_68">
    <path d="M 173.916375 424.311 
L 179.060852 424.311 
L 179.060852 424.311 
L 173.916375 424.311 
z
" clip-path="url(#paf6f555d16)" style="fill: #ff00ff"/>
   </g>
   <g id="patch_69">
    <path d="M 179.060852 424.311 
L 184.637088 424.311 
L 184.637088 424.311 
L 179.060852 424.311 
z
" clip-path="url(#paf6f555d16)" style="fill: #ff00ff"/>
   </g>
   <g id="patch_70">
    <path d="M 184.637088 424.311 
L 190.681322 424.311 
L 190.681322 424.311 
L 184.637088 424.311 
z
" clip-path="url(#paf6f555d16)" style="fill: #ff00ff"/>
   </g>
   <g id="patch_71">
    <path d="M 190.681322 424.311 
L 197.232829 424.311 
L 197.232829 424.311 
L 190.681322 424.311 
z
" clip-path="url(#paf6f555d16)" style="fill: #ff00ff"/>
   </g>
   <g id="patch_72">
    <path d="M 197.232829 424.311 
L 204.334183 424.311 
L 204.334183 424.311 
L 197.232829 424.311 
z
" clip-path="url(#paf6f555d16)" style="fill: #ff00ff"/>
   </g>
   <g id="patch_73">
    <path d="M 204.334183 424.311 
L 212.031533 424.311 
L 212.031533 424.311 
L 204.334183 424.311 
z
" clip-path="url(#paf6f555d16)" style="fill: #ff00ff"/>
   </g>
   <g id="patch_74">
    <path d="M 212.031533 424.311 
L 220.374897 424.311 
L 220.374897 424.311 
L 212.031533 424.311 
z
" clip-path="url(#paf6f555d16)" style="fill: #ff00ff"/>
   </g>
   <g id="patch_75">
    <path d="M 220.374897 424.311 
L 229.418494 424.311 
L 229.418494 75.739571 
L 220.374897 75.739571 
z
" clip-path="url(#paf6f555d16)" style="fill: #ff00ff"/>
   </g>
   <g id="patch_76">
    <path d="M 229.418494 424.311 
L 239.221093 424.311 
L 239.221093 424.311 
L 229.418494 424.311 
z
" clip-path="url(#paf6f555d16)" style="fill: #ff00ff"/>
   </g>
   <g id="patch_77">
    <path d="M 239.221093 424.311 
L 249.846393 424.311 
L 249.846393 424.311 
L 239.221093 424.311 
z
" clip-path="url(#paf6f555d16)" style="fill: #ff00ff"/>
   </g>
   <g id="patch_78">
    <path d="M 249.846393 424.311 
L 261.363442 424.311 
L 261.363442 424.311 
L 249.846393 424.311 
z
" clip-path="url(#paf6f555d16)" style="fill: #ff00ff"/>
   </g>
   <g id="patch_79">
    <path d="M 261.363442 424.311 
L 273.847081 424.311 
L 273.847081 424.311 
L 261.363442 424.311 
z
" clip-path="url(#paf6f555d16)" style="fill: #ff00ff"/>
   </g>
   <g id="patch_80">
    <path d="M 273.847081 424.311 
L 287.378434 424.311 
L 287.378434 424.311 
L 273.847081 424.311 
z
" clip-path="url(#paf6f555d16)" style="fill: #ff00ff"/>
   </g>
   <g id="patch_81">
    <path d="M 287.378434 424.311 
L 302.045431 424.311 
L 302.045431 424.311 
L 287.378434 424.311 
z
" clip-path="url(#paf6f555d16)" style="fill: #ff00ff"/>
   </g>
   <g id="patch_82">
    <path d="M 302.045431 424.311 
L 317.943384 424.311 
L 317.943384 424.311 
L 302.045431 424.311 
z
" clip-path="url(#paf6f555d16)" style="fill: #ff00ff"/>
   </g>
   <g id="patch_83">
    <path d="M 317.943384 424.311 
L 335.175603 424.311 
L 335.175603 424.311 
L 317.943384 424.311 
z
" clip-path="url(#paf6f555d16)" style="fill: #ff00ff"/>
   </g>
   <g id="patch_84">
    <path d="M 335.175603 424.311 
L 342.524428 424.311 
L 342.524428 118.008388 
L 335.175603 118.008388 
z
" clip-path="url(#paf6f555d16)" style="fill: #ff00ff"/>
   </g>
   <g id="patch_85">
    <path d="M 342.524428 424.311 
L 349.551598 424.311 
L 349.551598 424.311 
L 342.524428 424.311 
z
" clip-path="url(#paf6f555d16)" style="fill: #ff00ff"/>
   </g>
   <g id="patch_86">
    <path d="M 349.551598 424.311 
L 356.578769 424.311 
L 356.578769 424.311 
L 349.551598 424.311 
z
" clip-path="url(#paf6f555d16)" style="fill: #ff00ff"/>
   </g>
   <g id="patch_87">
    <path d="M 356.578769 424.311 
L 363.60594 424.311 
L 363.60594 424.311 
L 356.578769 424.311 
z
" clip-path="url(#paf6f555d16)" style="fill: #ff00ff"/>
   </g>
   <g id="patch_88">
    <path d="M 363.60594 424.311 
L 370.63311 424.311 
L 370.63311 424.311 
L 363.60594 424.311 
z
" clip-path="url(#paf6f555d16)" style="fill: #ff00ff"/>
   </g>
   <g id="patch_89">
    <path d="M 370.63311 424.311 
L 377.660281 424.311 
L 377.660281 182.118769 
L 370.63311 182.118769 
z
" clip-path="url(#paf6f555d16)" style="fill: #ff00ff"/>
   </g>
   <g id="patch_90">
    <path d="M 377.660281 424.311 
L 384.687452 424.311 
L 384.687452 424.311 
L 377.660281 424.311 
z
" clip-path="url(#paf6f555d16)" style="fill: #ff00ff"/>
   </g>
   <g id="patch_91">
    <path d="M 384.687452 424.311 
L 391.714623 424.311 
L 391.714623 424.311 
L 384.687452 424.311 
z
" clip-path="url(#paf6f555d16)" style="fill: #ff00ff"/>
   </g>
   <g id="patch_92">
    <path d="M 391.714623 424.311 
L 398.741793 424.311 
L 398.741793 164.328547 
L 391.714623 164.328547 
z
" clip-path="url(#paf6f555d16)" style="fill: #ff00ff"/>
   </g>
   <g id="patch_93">
    <path d="M 398.741793 424.311 
L 405.768964 424.311 
L 405.768964 424.311 
L 398.741793 424.311 
z
" clip-path="url(#paf6f555d16)" style="fill: #ff00ff"/>
   </g>
   <g id="patch_94">
    <path d="M 405.768964 424.311 
L 412.796135 424.311 
L 412.796135 424.311 
L 405.768964 424.311 
z
" clip-path="url(#paf6f555d16)" style="fill: #ff00ff"/>
   </g>
   <g id="patch_95">
    <path d="M 412.796135 424.311 
L 419.823305 424.311 
L 419.823305 215.960463 
L 412.796135 215.960463 
z
" clip-path="url(#paf6f555d16)" style="fill: #ff00ff"/>
   </g>
   <g id="patch_96">
    <path d="M 419.823305 424.311 
L 426.850476 424.311 
L 426.850476 424.311 
L 419.823305 424.311 
z
" clip-path="url(#paf6f555d16)" style="fill: #ff00ff"/>
   </g>
   <g id="patch_97">
    <path d="M 426.850476 424.311 
L 433.877647 424.311 
L 433.877647 234.354758 
L 426.850476 234.354758 
z
" clip-path="url(#paf6f555d16)" style="fill: #ff00ff"/>
   </g>
   <g id="patch_98">
    <path d="M 433.877647 424.311 
L 440.904818 424.311 
L 440.904818 424.311 
L 433.877647 424.311 
z
" clip-path="url(#paf6f555d16)" style="fill: #ff00ff"/>
   </g>
   <g id="patch_99">
    <path d="M 440.904818 424.311 
L 447.931988 424.311 
L 447.931988 262.280621 
L 440.904818 262.280621 
z
" clip-path="url(#paf6f555d16)" style="fill: #ff00ff"/>
   </g>
   <g id="patch_100">
    <path d="M 447.931988 424.311 
L 454.959159 424.311 
L 454.959159 424.311 
L 447.931988 424.311 
z
" clip-path="url(#paf6f555d16)" style="fill: #ff00ff"/>
   </g>
   <g id="patch_101">
    <path d="M 454.959159 424.311 
L 461.98633 424.311 
L 461.98633 262.280621 
L 454.959159 262.280621 
z
" clip-path="url(#paf6f555d16)" style="fill: #ff00ff"/>
   </g>
   <g id="patch_102">
    <path d="M 461.98633 424.311 
L 469.0135 424.311 
L 469.0135 284.446626 
L 461.98633 284.446626 
z
" clip-path="url(#paf6f555d16)" style="fill: #ff00ff"/>
   </g>
   <g id="patch_103">
    <path d="M 469.0135 424.311 
L 476.040671 424.311 
L 476.040671 284.446626 
L 469.0135 284.446626 
z
" clip-path="url(#paf6f555d16)" style="fill: #ff00ff"/>
   </g>
   <g id="matplotlib.axis_1">
    <g id="xtick_1">
     <g id="line2d_1">
      <path d="M 112.619271 424.311 
L 112.619271 58.311 
" clip-path="url(#paf6f555d16)" style="fill: none; stroke-dasharray: 2.96,1.28; stroke-dashoffset: 0; stroke: #b0b0b0; stroke-width: 0.8"/>
     </g>
     <g id="line2d_2">
      <defs>
       <path id="m99679ef79d" d="M 0 0 
L 0 17 
" style="stroke: #000000; stroke-width: 0.8"/>
      </defs>
      <g>
       <use xlink:href="#m99679ef79d" x="112.619271" y="424.311" style="stroke: #000000; stroke-width: 0.8"/>
      </g>
     </g>
     <g id="text_1">
      <!-- $\mathdefault{0}$ -->
      <g transform="translate(106.859271 458.488187)scale(0.18 -0.18)">
       <defs>
        <path id="DejaVuSans-30" d="M 2034 4250 
Q 1547 4250 1301 3770 
Q 1056 3291 1056 2328 
Q 1056 1369 1301 889 
Q 1547 409 2034 409 
Q 2525 409 2770 889 
Q 3016 1369 3016 2328 
Q 3016 3291 2770 3770 
Q 2525 4250 2034 4250 
z
M 2034 4750 
Q 2819 4750 3233 4129 
Q 3647 3509 3647 2328 
Q 3647 1150 3233 529 
Q 2819 -91 2034 -91 
Q 1250 -91 836 529 
Q 422 1150 422 2328 
Q 422 3509 836 4129 
Q 1250 4750 2034 4750 
z
" transform="scale(0.015625)"/>
       </defs>
       <use xlink:href="#DejaVuSans-30" transform="translate(0 0.78125)"/>
      </g>
     </g>
    </g>
    <g id="xtick_2">
     <g id="line2d_3">
      <path d="M 224.161663 424.311 
L 224.161663 58.311 
" clip-path="url(#paf6f555d16)" style="fill: none; stroke-dasharray: 2.96,1.28; stroke-dashoffset: 0; stroke: #b0b0b0; stroke-width: 0.8"/>
     </g>
     <g id="line2d_4">
      <g>
       <use xlink:href="#m99679ef79d" x="224.161663" y="424.311" style="stroke: #000000; stroke-width: 0.8"/>
      </g>
     </g>
     <g id="text_2">
      <!-- $\mathdefault{10^{0}}$ -->
      <g transform="translate(208.321663 458.488187)scale(0.18 -0.18)">
       <defs>
        <path id="DejaVuSans-31" d="M 794 531 
L 1825 531 
L 1825 4091 
L 703 3866 
L 703 4441 
L 1819 4666 
L 2450 4666 
L 2450 531 
L 3481 531 
L 3481 0 
L 794 0 
L 794 531 
z
" transform="scale(0.015625)"/>
       </defs>
       <use xlink:href="#DejaVuSans-31" transform="translate(0 0.765625)"/>
       <use xlink:href="#DejaVuSans-30" transform="translate(63.623047 0.765625)"/>
       <use xlink:href="#DejaVuSans-30" transform="translate(128.203125 39.046875)scale(0.7)"/>
      </g>
     </g>
    </g>
    <g id="xtick_3">
     <g id="line2d_5">
      <path d="M 476.040671 424.311 
L 476.040671 58.311 
" clip-path="url(#paf6f555d16)" style="fill: none; stroke-dasharray: 2.96,1.28; stroke-dashoffset: 0; stroke: #b0b0b0; stroke-width: 0.8"/>
     </g>
     <g id="line2d_6">
      <g>
       <use xlink:href="#m99679ef79d" x="476.040671" y="424.311" style="stroke: #000000; stroke-width: 0.8"/>
      </g>
     </g>
     <g id="text_3">
      <!-- $\mathdefault{10^{1}}$ -->
      <g transform="translate(460.200671 458.488187)scale(0.18 -0.18)">
       <use xlink:href="#DejaVuSans-31" transform="translate(0 0.684375)"/>
       <use xlink:href="#DejaVuSans-30" transform="translate(63.623047 0.684375)"/>
       <use xlink:href="#DejaVuSans-31" transform="translate(128.203125 38.965625)scale(0.7)"/>
      </g>
     </g>
    </g>
    <g id="text_4">
     <!-- InDegree -->
     <g transform="translate(243.071602 481.4285)scale(0.2 -0.2)">
      <defs>
       <path id="DejaVuSans-49" d="M 628 4666 
L 1259 4666 
L 1259 0 
L 628 0 
L 628 4666 
z
" transform="scale(0.015625)"/>
       <path id="DejaVuSans-6e" d="M 3513 2113 
L 3513 0 
L 2938 0 
L 2938 2094 
Q 2938 2591 2744 2837 
Q 2550 3084 2163 3084 
Q 1697 3084 1428 2787 
Q 1159 2491 1159 1978 
L 1159 0 
L 581 0 
L 581 3500 
L 1159 3500 
L 1159 2956 
Q 1366 3272 1645 3428 
Q 1925 3584 2291 3584 
Q 2894 3584 3203 3211 
Q 3513 2838 3513 2113 
z
" transform="scale(0.015625)"/>
       <path id="DejaVuSans-44" d="M 1259 4147 
L 1259 519 
L 2022 519 
Q 2988 519 3436 956 
Q 3884 1394 3884 2338 
Q 3884 3275 3436 3711 
Q 2988 4147 2022 4147 
L 1259 4147 
z
M 628 4666 
L 1925 4666 
Q 3281 4666 3915 4102 
Q 4550 3538 4550 2338 
Q 4550 1131 3912 565 
Q 3275 0 1925 0 
L 628 0 
L 628 4666 
z
" transform="scale(0.015625)"/>
       <path id="DejaVuSans-65" d="M 3597 1894 
L 3597 1613 
L 953 1613 
Q 991 1019 1311 708 
Q 1631 397 2203 397 
Q 2534 397 2845 478 
Q 3156 559 3463 722 
L 3463 178 
Q 3153 47 2828 -22 
Q 2503 -91 2169 -91 
Q 1331 -91 842 396 
Q 353 884 353 1716 
Q 353 2575 817 3079 
Q 1281 3584 2069 3584 
Q 2775 3584 3186 3129 
Q 3597 2675 3597 1894 
z
M 3022 2063 
Q 3016 2534 2758 2815 
Q 2500 3097 2075 3097 
Q 1594 3097 1305 2825 
Q 1016 2553 972 2059 
L 3022 2063 
z
" transform="scale(0.015625)"/>
       <path id="DejaVuSans-67" d="M 2906 1791 
Q 2906 2416 2648 2759 
Q 2391 3103 1925 3103 
Q 1463 3103 1205 2759 
Q 947 2416 947 1791 
Q 947 1169 1205 825 
Q 1463 481 1925 481 
Q 2391 481 2648 825 
Q 2906 1169 2906 1791 
z
M 3481 434 
Q 3481 -459 3084 -895 
Q 2688 -1331 1869 -1331 
Q 1566 -1331 1297 -1286 
Q 1028 -1241 775 -1147 
L 775 -588 
Q 1028 -725 1275 -790 
Q 1522 -856 1778 -856 
Q 2344 -856 2625 -561 
Q 2906 -266 2906 331 
L 2906 616 
Q 2728 306 2450 153 
Q 2172 0 1784 0 
Q 1141 0 747 490 
Q 353 981 353 1791 
Q 353 2603 747 3093 
Q 1141 3584 1784 3584 
Q 2172 3584 2450 3431 
Q 2728 3278 2906 2969 
L 2906 3500 
L 3481 3500 
L 3481 434 
z
" transform="scale(0.015625)"/>
       <path id="DejaVuSans-72" d="M 2631 2963 
Q 2534 3019 2420 3045 
Q 2306 3072 2169 3072 
Q 1681 3072 1420 2755 
Q 1159 2438 1159 1844 
L 1159 0 
L 581 0 
L 581 3500 
L 1159 3500 
L 1159 2956 
Q 1341 3275 1631 3429 
Q 1922 3584 2338 3584 
Q 2397 3584 2469 3576 
Q 2541 3569 2628 3553 
L 2631 2963 
z
" transform="scale(0.015625)"/>
      </defs>
      <use xlink:href="#DejaVuSans-49"/>
      <use xlink:href="#DejaVuSans-6e" x="29.492188"/>
      <use xlink:href="#DejaVuSans-44" x="92.871094"/>
      <use xlink:href="#DejaVuSans-65" x="169.873047"/>
      <use xlink:href="#DejaVuSans-67" x="231.396484"/>
      <use xlink:href="#DejaVuSans-72" x="294.873047"/>
      <use xlink:href="#DejaVuSans-65" x="333.736328"/>
      <use xlink:href="#DejaVuSans-65" x="395.259766"/>
     </g>
    </g>
   </g>
   <g id="matplotlib.axis_2">
    <g id="ytick_1">
     <g id="line2d_7">
      <path d="M 82.73625 424.311 
L 494.769453 424.311 
" clip-path="url(#paf6f555d16)" style="fill: none; stroke-dasharray: 2.96,1.28; stroke-dashoffset: 0; stroke: #b0b0b0; stroke-width: 0.8"/>
     </g>
     <g id="line2d_8">
      <defs>
       <path id="m0fb927dfde" d="M 0 0 
L -17 0 
" style="stroke: #000000; stroke-width: 0.8"/>
      </defs>
      <g>
       <use xlink:href="#m0fb927dfde" x="82.73625" y="424.311" style="stroke: #000000; stroke-width: 0.8"/>
      </g>
     </g>
     <g id="text_5">
      <!-- $\mathdefault{0}$ -->
      <g transform="translate(50.71625 431.149594)scale(0.18 -0.18)">
       <use xlink:href="#DejaVuSans-30" transform="translate(0 0.78125)"/>
      </g>
     </g>
    </g>
    <g id="ytick_2">
     <g id="line2d_9">
      <path d="M 82.73625 354.378813 
L 494.769453 354.378813 
" clip-path="url(#paf6f555d16)" style="fill: none; stroke-dasharray: 2.96,1.28; stroke-dashoffset: 0; stroke: #b0b0b0; stroke-width: 0.8"/>
     </g>
     <g id="line2d_10">
      <g>
       <use xlink:href="#m0fb927dfde" x="82.73625" y="354.378813" style="stroke: #000000; stroke-width: 0.8"/>
      </g>
     </g>
     <g id="text_6">
      <!-- $\mathdefault{10^{0}}$ -->
      <g transform="translate(30.55625 361.217407)scale(0.18 -0.18)">
       <use xlink:href="#DejaVuSans-31" transform="translate(0 0.765625)"/>
       <use xlink:href="#DejaVuSans-30" transform="translate(63.623047 0.765625)"/>
       <use xlink:href="#DejaVuSans-30" transform="translate(128.203125 39.046875)scale(0.7)"/>
      </g>
     </g>
    </g>
    <g id="ytick_3">
     <g id="line2d_11">
      <path d="M 82.73625 196.461723 
L 494.769453 196.461723 
" clip-path="url(#paf6f555d16)" style="fill: none; stroke-dasharray: 2.96,1.28; stroke-dashoffset: 0; stroke: #b0b0b0; stroke-width: 0.8"/>
     </g>
     <g id="line2d_12">
      <g>
       <use xlink:href="#m0fb927dfde" x="82.73625" y="196.461723" style="stroke: #000000; stroke-width: 0.8"/>
      </g>
     </g>
     <g id="text_7">
      <!-- $\mathdefault{10^{1}}$ -->
      <g transform="translate(30.55625 203.300317)scale(0.18 -0.18)">
       <use xlink:href="#DejaVuSans-31" transform="translate(0 0.684375)"/>
       <use xlink:href="#DejaVuSans-30" transform="translate(63.623047 0.684375)"/>
       <use xlink:href="#DejaVuSans-31" transform="translate(128.203125 38.965625)scale(0.7)"/>
      </g>
     </g>
    </g>
    <g id="ytick_4">
     <g id="line2d_13">
      <path d="M 82.73625 70.583786 
L 494.769453 70.583786 
" clip-path="url(#paf6f555d16)" style="fill: none; stroke-dasharray: 2.96,1.28; stroke-dashoffset: 0; stroke: #b0b0b0; stroke-width: 0.8"/>
     </g>
     <g id="line2d_14">
      <g>
       <use xlink:href="#m0fb927dfde" x="82.73625" y="70.583786" style="stroke: #000000; stroke-width: 0.8"/>
      </g>
     </g>
     <g id="text_8">
      <!-- $\mathdefault{10^{2}}$ -->
      <g transform="translate(30.55625 77.42238)scale(0.18 -0.18)">
       <defs>
        <path id="DejaVuSans-32" d="M 1228 531 
L 3431 531 
L 3431 0 
L 469 0 
L 469 531 
Q 828 903 1448 1529 
Q 2069 2156 2228 2338 
Q 2531 2678 2651 2914 
Q 2772 3150 2772 3378 
Q 2772 3750 2511 3984 
Q 2250 4219 1831 4219 
Q 1534 4219 1204 4116 
Q 875 4013 500 3803 
L 500 4441 
Q 881 4594 1212 4672 
Q 1544 4750 1819 4750 
Q 2544 4750 2975 4387 
Q 3406 4025 3406 3419 
Q 3406 3131 3298 2873 
Q 3191 2616 2906 2266 
Q 2828 2175 2409 1742 
Q 1991 1309 1228 531 
z
" transform="scale(0.015625)"/>
       </defs>
       <use xlink:href="#DejaVuSans-31" transform="translate(0 0.765625)"/>
       <use xlink:href="#DejaVuSans-30" transform="translate(63.623047 0.765625)"/>
       <use xlink:href="#DejaVuSans-32" transform="translate(128.203125 39.046875)scale(0.7)"/>
      </g>
     </g>
    </g>
    <g id="text_9">
     <!-- Occurence -->
     <g transform="translate(22.396875 294.545375)rotate(-90)scale(0.2 -0.2)">
      <defs>
       <path id="DejaVuSans-4f" d="M 2522 4238 
Q 1834 4238 1429 3725 
Q 1025 3213 1025 2328 
Q 1025 1447 1429 934 
Q 1834 422 2522 422 
Q 3209 422 3611 934 
Q 4013 1447 4013 2328 
Q 4013 3213 3611 3725 
Q 3209 4238 2522 4238 
z
M 2522 4750 
Q 3503 4750 4090 4092 
Q 4678 3434 4678 2328 
Q 4678 1225 4090 567 
Q 3503 -91 2522 -91 
Q 1538 -91 948 565 
Q 359 1222 359 2328 
Q 359 3434 948 4092 
Q 1538 4750 2522 4750 
z
" transform="scale(0.015625)"/>
       <path id="DejaVuSans-63" d="M 3122 3366 
L 3122 2828 
Q 2878 2963 2633 3030 
Q 2388 3097 2138 3097 
Q 1578 3097 1268 2742 
Q 959 2388 959 1747 
Q 959 1106 1268 751 
Q 1578 397 2138 397 
Q 2388 397 2633 464 
Q 2878 531 3122 666 
L 3122 134 
Q 2881 22 2623 -34 
Q 2366 -91 2075 -91 
Q 1284 -91 818 406 
Q 353 903 353 1747 
Q 353 2603 823 3093 
Q 1294 3584 2113 3584 
Q 2378 3584 2631 3529 
Q 2884 3475 3122 3366 
z
" transform="scale(0.015625)"/>
       <path id="DejaVuSans-75" d="M 544 1381 
L 544 3500 
L 1119 3500 
L 1119 1403 
Q 1119 906 1312 657 
Q 1506 409 1894 409 
Q 2359 409 2629 706 
Q 2900 1003 2900 1516 
L 2900 3500 
L 3475 3500 
L 3475 0 
L 2900 0 
L 2900 538 
Q 2691 219 2414 64 
Q 2138 -91 1772 -91 
Q 1169 -91 856 284 
Q 544 659 544 1381 
z
M 1991 3584 
L 1991 3584 
z
" transform="scale(0.015625)"/>
      </defs>
      <use xlink:href="#DejaVuSans-4f"/>
      <use xlink:href="#DejaVuSans-63" x="78.710938"/>
      <use xlink:href="#DejaVuSans-63" x="133.691406"/>
      <use xlink:href="#DejaVuSans-75" x="188.671875"/>
      <use xlink:href="#DejaVuSans-72" x="252.050781"/>
      <use xlink:href="#DejaVuSans-65" x="290.914062"/>
      <use xlink:href="#DejaVuSans-6e" x="352.4375"/>
      <use xlink:href="#DejaVuSans-63" x="415.816406"/>
      <use xlink:href="#DejaVuSans-65" x="470.796875"/>
     </g>
    </g>
   </g>
   <g id="patch_104">
    <path d="M 82.73625 424.311 
L 82.73625 58.311 
" style="fill: none; stroke: #000000; stroke-width: 0.8; stroke-linejoin: miter; stroke-linecap: square"/>
   </g>
   <g id="patch_105">
    <path d="M 494.769453 424.311 
L 494.769453 58.311 
" style="fill: none; stroke: #000000; stroke-width: 0.8; stroke-linejoin: miter; stroke-linecap: square"/>
   </g>
   <g id="patch_106">
    <path d="M 82.73625 424.311 
L 494.769453 424.311 
" style="fill: none; stroke: #000000; stroke-width: 0.8; stroke-linejoin: miter; stroke-linecap: square"/>
   </g>
   <g id="patch_107">
    <path d="M 82.73625 58.311 
L 494.769453 58.311 
" style="fill: none; stroke: #000000; stroke-width: 0.8; stroke-linejoin: miter; stroke-linecap: square"/>
   </g>
   <g id="text_10">
    <!-- Multilevel Communities' Connections  -->
    <g transform="translate(62.678477 25.43625)scale(0.24 -0.24)">
     <defs>
      <path id="DejaVuSans-4d" d="M 628 4666 
L 1569 4666 
L 2759 1491 
L 3956 4666 
L 4897 4666 
L 4897 0 
L 4281 0 
L 4281 4097 
L 3078 897 
L 2444 897 
L 1241 4097 
L 1241 0 
L 628 0 
L 628 4666 
z
" transform="scale(0.015625)"/>
      <path id="DejaVuSans-6c" d="M 603 4863 
L 1178 4863 
L 1178 0 
L 603 0 
L 603 4863 
z
" transform="scale(0.015625)"/>
      <path id="DejaVuSans-74" d="M 1172 4494 
L 1172 3500 
L 2356 3500 
L 2356 3053 
L 1172 3053 
L 1172 1153 
Q 1172 725 1289 603 
Q 1406 481 1766 481 
L 2356 481 
L 2356 0 
L 1766 0 
Q 1100 0 847 248 
Q 594 497 594 1153 
L 594 3053 
L 172 3053 
L 172 3500 
L 594 3500 
L 594 4494 
L 1172 4494 
z
" transform="scale(0.015625)"/>
      <path id="DejaVuSans-69" d="M 603 3500 
L 1178 3500 
L 1178 0 
L 603 0 
L 603 3500 
z
M 603 4863 
L 1178 4863 
L 1178 4134 
L 603 4134 
L 603 4863 
z
" transform="scale(0.015625)"/>
      <path id="DejaVuSans-76" d="M 191 3500 
L 800 3500 
L 1894 563 
L 2988 3500 
L 3597 3500 
L 2284 0 
L 1503 0 
L 191 3500 
z
" transform="scale(0.015625)"/>
      <path id="DejaVuSans-20" transform="scale(0.015625)"/>
      <path id="DejaVuSans-43" d="M 4122 4306 
L 4122 3641 
Q 3803 3938 3442 4084 
Q 3081 4231 2675 4231 
Q 1875 4231 1450 3742 
Q 1025 3253 1025 2328 
Q 1025 1406 1450 917 
Q 1875 428 2675 428 
Q 3081 428 3442 575 
Q 3803 722 4122 1019 
L 4122 359 
Q 3791 134 3420 21 
Q 3050 -91 2638 -91 
Q 1578 -91 968 557 
Q 359 1206 359 2328 
Q 359 3453 968 4101 
Q 1578 4750 2638 4750 
Q 3056 4750 3426 4639 
Q 3797 4528 4122 4306 
z
" transform="scale(0.015625)"/>
      <path id="DejaVuSans-6f" d="M 1959 3097 
Q 1497 3097 1228 2736 
Q 959 2375 959 1747 
Q 959 1119 1226 758 
Q 1494 397 1959 397 
Q 2419 397 2687 759 
Q 2956 1122 2956 1747 
Q 2956 2369 2687 2733 
Q 2419 3097 1959 3097 
z
M 1959 3584 
Q 2709 3584 3137 3096 
Q 3566 2609 3566 1747 
Q 3566 888 3137 398 
Q 2709 -91 1959 -91 
Q 1206 -91 779 398 
Q 353 888 353 1747 
Q 353 2609 779 3096 
Q 1206 3584 1959 3584 
z
" transform="scale(0.015625)"/>
      <path id="DejaVuSans-6d" d="M 3328 2828 
Q 3544 3216 3844 3400 
Q 4144 3584 4550 3584 
Q 5097 3584 5394 3201 
Q 5691 2819 5691 2113 
L 5691 0 
L 5113 0 
L 5113 2094 
Q 5113 2597 4934 2840 
Q 4756 3084 4391 3084 
Q 3944 3084 3684 2787 
Q 3425 2491 3425 1978 
L 3425 0 
L 2847 0 
L 2847 2094 
Q 2847 2600 2669 2842 
Q 2491 3084 2119 3084 
Q 1678 3084 1418 2786 
Q 1159 2488 1159 1978 
L 1159 0 
L 581 0 
L 581 3500 
L 1159 3500 
L 1159 2956 
Q 1356 3278 1631 3431 
Q 1906 3584 2284 3584 
Q 2666 3584 2933 3390 
Q 3200 3197 3328 2828 
z
" transform="scale(0.015625)"/>
      <path id="DejaVuSans-73" d="M 2834 3397 
L 2834 2853 
Q 2591 2978 2328 3040 
Q 2066 3103 1784 3103 
Q 1356 3103 1142 2972 
Q 928 2841 928 2578 
Q 928 2378 1081 2264 
Q 1234 2150 1697 2047 
L 1894 2003 
Q 2506 1872 2764 1633 
Q 3022 1394 3022 966 
Q 3022 478 2636 193 
Q 2250 -91 1575 -91 
Q 1294 -91 989 -36 
Q 684 19 347 128 
L 347 722 
Q 666 556 975 473 
Q 1284 391 1588 391 
Q 1994 391 2212 530 
Q 2431 669 2431 922 
Q 2431 1156 2273 1281 
Q 2116 1406 1581 1522 
L 1381 1569 
Q 847 1681 609 1914 
Q 372 2147 372 2553 
Q 372 3047 722 3315 
Q 1072 3584 1716 3584 
Q 2034 3584 2315 3537 
Q 2597 3491 2834 3397 
z
" transform="scale(0.015625)"/>
      <path id="DejaVuSans-27" d="M 1147 4666 
L 1147 2931 
L 616 2931 
L 616 4666 
L 1147 4666 
z
" transform="scale(0.015625)"/>
     </defs>
     <use xlink:href="#DejaVuSans-4d"/>
     <use xlink:href="#DejaVuSans-75" x="86.279297"/>
     <use xlink:href="#DejaVuSans-6c" x="149.658203"/>
     <use xlink:href="#DejaVuSans-74" x="177.441406"/>
     <use xlink:href="#DejaVuSans-69" x="216.650391"/>
     <use xlink:href="#DejaVuSans-6c" x="244.433594"/>
     <use xlink:href="#DejaVuSans-65" x="272.216797"/>
     <use xlink:href="#DejaVuSans-76" x="333.740234"/>
     <use xlink:href="#DejaVuSans-65" x="392.919922"/>
     <use xlink:href="#DejaVuSans-6c" x="454.443359"/>
     <use xlink:href="#DejaVuSans-20" x="482.226562"/>
     <use xlink:href="#DejaVuSans-43" x="514.013672"/>
     <use xlink:href="#DejaVuSans-6f" x="583.837891"/>
     <use xlink:href="#DejaVuSans-6d" x="645.019531"/>
     <use xlink:href="#DejaVuSans-6d" x="742.431641"/>
     <use xlink:href="#DejaVuSans-75" x="839.84375"/>
     <use xlink:href="#DejaVuSans-6e" x="903.222656"/>
     <use xlink:href="#DejaVuSans-69" x="966.601562"/>
     <use xlink:href="#DejaVuSans-74" x="994.384766"/>
     <use xlink:href="#DejaVuSans-69" x="1033.59375"/>
     <use xlink:href="#DejaVuSans-65" x="1061.376953"/>
     <use xlink:href="#DejaVuSans-73" x="1122.900391"/>
     <use xlink:href="#DejaVuSans-27" x="1175"/>
     <use xlink:href="#DejaVuSans-20" x="1202.490234"/>
     <use xlink:href="#DejaVuSans-43" x="1234.277344"/>
     <use xlink:href="#DejaVuSans-6f" x="1304.101562"/>
     <use xlink:href="#DejaVuSans-6e" x="1365.283203"/>
     <use xlink:href="#DejaVuSans-6e" x="1428.662109"/>
     <use xlink:href="#DejaVuSans-65" x="1492.041016"/>
     <use xlink:href="#DejaVuSans-63" x="1553.564453"/>
     <use xlink:href="#DejaVuSans-74" x="1608.544922"/>
     <use xlink:href="#DejaVuSans-69" x="1647.753906"/>
     <use xlink:href="#DejaVuSans-6f" x="1675.537109"/>
     <use xlink:href="#DejaVuSans-6e" x="1736.71875"/>
     <use xlink:href="#DejaVuSans-73" x="1800.097656"/>
     <use xlink:href="#DejaVuSans-20" x="1852.197266"/>
    </g>
    <!-- 2 Year Interval, Ascedants -->
    <g transform="translate(132.522227 52.311)scale(0.24 -0.24)">
     <defs>
      <path id="DejaVuSans-59" d="M -13 4666 
L 666 4666 
L 1959 2747 
L 3244 4666 
L 3922 4666 
L 2272 2222 
L 2272 0 
L 1638 0 
L 1638 2222 
L -13 4666 
z
" transform="scale(0.015625)"/>
      <path id="DejaVuSans-61" d="M 2194 1759 
Q 1497 1759 1228 1600 
Q 959 1441 959 1056 
Q 959 750 1161 570 
Q 1363 391 1709 391 
Q 2188 391 2477 730 
Q 2766 1069 2766 1631 
L 2766 1759 
L 2194 1759 
z
M 3341 1997 
L 3341 0 
L 2766 0 
L 2766 531 
Q 2569 213 2275 61 
Q 1981 -91 1556 -91 
Q 1019 -91 701 211 
Q 384 513 384 1019 
Q 384 1609 779 1909 
Q 1175 2209 1959 2209 
L 2766 2209 
L 2766 2266 
Q 2766 2663 2505 2880 
Q 2244 3097 1772 3097 
Q 1472 3097 1187 3025 
Q 903 2953 641 2809 
L 641 3341 
Q 956 3463 1253 3523 
Q 1550 3584 1831 3584 
Q 2591 3584 2966 3190 
Q 3341 2797 3341 1997 
z
" transform="scale(0.015625)"/>
      <path id="DejaVuSans-2c" d="M 750 794 
L 1409 794 
L 1409 256 
L 897 -744 
L 494 -744 
L 750 256 
L 750 794 
z
" transform="scale(0.015625)"/>
      <path id="DejaVuSans-41" d="M 2188 4044 
L 1331 1722 
L 3047 1722 
L 2188 4044 
z
M 1831 4666 
L 2547 4666 
L 4325 0 
L 3669 0 
L 3244 1197 
L 1141 1197 
L 716 0 
L 50 0 
L 1831 4666 
z
" transform="scale(0.015625)"/>
      <path id="DejaVuSans-64" d="M 2906 2969 
L 2906 4863 
L 3481 4863 
L 3481 0 
L 2906 0 
L 2906 525 
Q 2725 213 2448 61 
Q 2172 -91 1784 -91 
Q 1150 -91 751 415 
Q 353 922 353 1747 
Q 353 2572 751 3078 
Q 1150 3584 1784 3584 
Q 2172 3584 2448 3432 
Q 2725 3281 2906 2969 
z
M 947 1747 
Q 947 1113 1208 752 
Q 1469 391 1925 391 
Q 2381 391 2643 752 
Q 2906 1113 2906 1747 
Q 2906 2381 2643 2742 
Q 2381 3103 1925 3103 
Q 1469 3103 1208 2742 
Q 947 2381 947 1747 
z
" transform="scale(0.015625)"/>
     </defs>
     <use xlink:href="#DejaVuSans-32"/>
     <use xlink:href="#DejaVuSans-20" x="63.623047"/>
     <use xlink:href="#DejaVuSans-59" x="95.410156"/>
     <use xlink:href="#DejaVuSans-65" x="143.244141"/>
     <use xlink:href="#DejaVuSans-61" x="204.767578"/>
     <use xlink:href="#DejaVuSans-72" x="266.046875"/>
     <use xlink:href="#DejaVuSans-20" x="307.160156"/>
     <use xlink:href="#DejaVuSans-49" x="338.947266"/>
     <use xlink:href="#DejaVuSans-6e" x="368.439453"/>
     <use xlink:href="#DejaVuSans-74" x="431.818359"/>
     <use xlink:href="#DejaVuSans-65" x="471.027344"/>
     <use xlink:href="#DejaVuSans-72" x="532.550781"/>
     <use xlink:href="#DejaVuSans-76" x="573.664062"/>
     <use xlink:href="#DejaVuSans-61" x="632.84375"/>
     <use xlink:href="#DejaVuSans-6c" x="694.123047"/>
     <use xlink:href="#DejaVuSans-2c" x="721.90625"/>
     <use xlink:href="#DejaVuSans-20" x="753.693359"/>
     <use xlink:href="#DejaVuSans-41" x="785.480469"/>
     <use xlink:href="#DejaVuSans-73" x="853.888672"/>
     <use xlink:href="#DejaVuSans-63" x="905.988281"/>
     <use xlink:href="#DejaVuSans-65" x="960.96875"/>
     <use xlink:href="#DejaVuSans-64" x="1022.492188"/>
     <use xlink:href="#DejaVuSans-61" x="1085.96875"/>
     <use xlink:href="#DejaVuSans-6e" x="1147.248047"/>
     <use xlink:href="#DejaVuSans-74" x="1210.626953"/>
     <use xlink:href="#DejaVuSans-73" x="1249.835938"/>
    </g>
   </g>
  </g>
  <g id="axes_2">
   <g id="patch_108">
    <path d="M 581.33625 424.311 
L 993.369453 424.311 
L 993.369453 58.311 
L 581.33625 58.311 
z
" style="fill: #ffffff"/>
   </g>
   <g id="patch_109">
    <path d="M 600.065032 167135.177553 
L 611.571999 167135.177553 
L 611.571999 83.475896 
L 600.065032 83.475896 
z
" clip-path="url(#pd46851547f)" style="fill: #ff00ff"/>
   </g>
   <g id="patch_110">
    <path d="M 611.571999 167135.177553 
L 611.601603 167135.177553 
L 611.601603 167135.177553 
L 611.571999 167135.177553 
z
" clip-path="url(#pd46851547f)" style="fill: #ff00ff"/>
   </g>
   <g id="patch_111">
    <path d="M 611.601603 167135.177553 
L 611.63369 167135.177553 
L 611.63369 167135.177553 
L 611.601603 167135.177553 
z
" clip-path="url(#pd46851547f)" style="fill: #ff00ff"/>
   </g>
   <g id="patch_112">
    <path d="M 611.63369 167135.177553 
L 611.668471 167135.177553 
L 611.668471 167135.177553 
L 611.63369 167135.177553 
z
" clip-path="url(#pd46851547f)" style="fill: #ff00ff"/>
   </g>
   <g id="patch_113">
    <path d="M 611.668471 167135.177553 
L 611.706171 167135.177553 
L 611.706171 167135.177553 
L 611.668471 167135.177553 
z
" clip-path="url(#pd46851547f)" style="fill: #ff00ff"/>
   </g>
   <g id="patch_114">
    <path d="M 611.706171 167135.177553 
L 611.747035 167135.177553 
L 611.747035 167135.177553 
L 611.706171 167135.177553 
z
" clip-path="url(#pd46851547f)" style="fill: #ff00ff"/>
   </g>
   <g id="patch_115">
    <path d="M 611.747035 167135.177553 
L 611.791329 167135.177553 
L 611.791329 167135.177553 
L 611.747035 167135.177553 
z
" clip-path="url(#pd46851547f)" style="fill: #ff00ff"/>
   </g>
   <g id="patch_116">
    <path d="M 611.791329 167135.177553 
L 611.83934 167135.177553 
L 611.83934 167135.177553 
L 611.791329 167135.177553 
z
" clip-path="url(#pd46851547f)" style="fill: #ff00ff"/>
   </g>
   <g id="patch_117">
    <path d="M 611.83934 167135.177553 
L 611.891381 167135.177553 
L 611.891381 167135.177553 
L 611.83934 167135.177553 
z
" clip-path="url(#pd46851547f)" style="fill: #ff00ff"/>
   </g>
   <g id="patch_118">
    <path d="M 611.891381 167135.177553 
L 611.947789 167135.177553 
L 611.947789 167135.177553 
L 611.891381 167135.177553 
z
" clip-path="url(#pd46851547f)" style="fill: #ff00ff"/>
   </g>
   <g id="patch_119">
    <path d="M 611.947789 167135.177553 
L 612.008931 167135.177553 
L 612.008931 167135.177553 
L 611.947789 167135.177553 
z
" clip-path="url(#pd46851547f)" style="fill: #ff00ff"/>
   </g>
   <g id="patch_120">
    <path d="M 612.008931 167135.177553 
L 612.075205 167135.177553 
L 612.075205 167135.177553 
L 612.008931 167135.177553 
z
" clip-path="url(#pd46851547f)" style="fill: #ff00ff"/>
   </g>
   <g id="patch_121">
    <path d="M 612.075205 167135.177553 
L 612.14704 167135.177553 
L 612.14704 167135.177553 
L 612.075205 167135.177553 
z
" clip-path="url(#pd46851547f)" style="fill: #ff00ff"/>
   </g>
   <g id="patch_122">
    <path d="M 612.14704 167135.177553 
L 612.224905 167135.177553 
L 612.224905 167135.177553 
L 612.14704 167135.177553 
z
" clip-path="url(#pd46851547f)" style="fill: #ff00ff"/>
   </g>
   <g id="patch_123">
    <path d="M 612.224905 167135.177553 
L 612.309305 167135.177553 
L 612.309305 167135.177553 
L 612.224905 167135.177553 
z
" clip-path="url(#pd46851547f)" style="fill: #ff00ff"/>
   </g>
   <g id="patch_124">
    <path d="M 612.309305 167135.177553 
L 612.400788 167135.177553 
L 612.400788 167135.177553 
L 612.309305 167135.177553 
z
" clip-path="url(#pd46851547f)" style="fill: #ff00ff"/>
   </g>
   <g id="patch_125">
    <path d="M 612.400788 167135.177553 
L 612.499949 167135.177553 
L 612.499949 167135.177553 
L 612.400788 167135.177553 
z
" clip-path="url(#pd46851547f)" style="fill: #ff00ff"/>
   </g>
   <g id="patch_126">
    <path d="M 612.499949 167135.177553 
L 612.607433 167135.177553 
L 612.607433 167135.177553 
L 612.499949 167135.177553 
z
" clip-path="url(#pd46851547f)" style="fill: #ff00ff"/>
   </g>
   <g id="patch_127">
    <path d="M 612.607433 167135.177553 
L 612.723937 167135.177553 
L 612.723937 167135.177553 
L 612.607433 167135.177553 
z
" clip-path="url(#pd46851547f)" style="fill: #ff00ff"/>
   </g>
   <g id="patch_128">
    <path d="M 612.723937 167135.177553 
L 612.850219 167135.177553 
L 612.850219 167135.177553 
L 612.723937 167135.177553 
z
" clip-path="url(#pd46851547f)" style="fill: #ff00ff"/>
   </g>
   <g id="patch_129">
    <path d="M 612.850219 167135.177553 
L 612.987099 167135.177553 
L 612.987099 167135.177553 
L 612.850219 167135.177553 
z
" clip-path="url(#pd46851547f)" style="fill: #ff00ff"/>
   </g>
   <g id="patch_130">
    <path d="M 612.987099 167135.177553 
L 613.135467 167135.177553 
L 613.135467 167135.177553 
L 612.987099 167135.177553 
z
" clip-path="url(#pd46851547f)" style="fill: #ff00ff"/>
   </g>
   <g id="patch_131">
    <path d="M 613.135467 167135.177553 
L 613.296288 167135.177553 
L 613.296288 167135.177553 
L 613.135467 167135.177553 
z
" clip-path="url(#pd46851547f)" style="fill: #ff00ff"/>
   </g>
   <g id="patch_132">
    <path d="M 613.296288 167135.177553 
L 613.470605 167135.177553 
L 613.470605 167135.177553 
L 613.296288 167135.177553 
z
" clip-path="url(#pd46851547f)" style="fill: #ff00ff"/>
   </g>
   <g id="patch_133">
    <path d="M 613.470605 167135.177553 
L 613.659553 167135.177553 
L 613.659553 167135.177553 
L 613.470605 167135.177553 
z
" clip-path="url(#pd46851547f)" style="fill: #ff00ff"/>
   </g>
   <g id="patch_134">
    <path d="M 613.659553 167135.177553 
L 613.864358 167135.177553 
L 613.864358 167135.177553 
L 613.659553 167135.177553 
z
" clip-path="url(#pd46851547f)" style="fill: #ff00ff"/>
   </g>
   <g id="patch_135">
    <path d="M 613.864358 167135.177553 
L 614.086352 167135.177553 
L 614.086352 167135.177553 
L 613.864358 167135.177553 
z
" clip-path="url(#pd46851547f)" style="fill: #ff00ff"/>
   </g>
   <g id="patch_136">
    <path d="M 614.086352 167135.177553 
L 614.326977 167135.177553 
L 614.326977 167135.177553 
L 614.086352 167135.177553 
z
" clip-path="url(#pd46851547f)" style="fill: #ff00ff"/>
   </g>
   <g id="patch_137">
    <path d="M 614.326977 167135.177553 
L 614.587798 167135.177553 
L 614.587798 167135.177553 
L 614.326977 167135.177553 
z
" clip-path="url(#pd46851547f)" style="fill: #ff00ff"/>
   </g>
   <g id="patch_138">
    <path d="M 614.587798 167135.177553 
L 614.870508 167135.177553 
L 614.870508 167135.177553 
L 614.587798 167135.177553 
z
" clip-path="url(#pd46851547f)" style="fill: #ff00ff"/>
   </g>
   <g id="patch_139">
    <path d="M 614.870508 167135.177553 
L 615.176945 167135.177553 
L 615.176945 167135.177553 
L 614.870508 167135.177553 
z
" clip-path="url(#pd46851547f)" style="fill: #ff00ff"/>
   </g>
   <g id="patch_140">
    <path d="M 615.176945 167135.177553 
L 615.5091 167135.177553 
L 615.5091 167135.177553 
L 615.176945 167135.177553 
z
" clip-path="url(#pd46851547f)" style="fill: #ff00ff"/>
   </g>
   <g id="patch_141">
    <path d="M 615.5091 167135.177553 
L 615.869132 167135.177553 
L 615.869132 167135.177553 
L 615.5091 167135.177553 
z
" clip-path="url(#pd46851547f)" style="fill: #ff00ff"/>
   </g>
   <g id="patch_142">
    <path d="M 615.869132 167135.177553 
L 616.25938 167135.177553 
L 616.25938 167135.177553 
L 615.869132 167135.177553 
z
" clip-path="url(#pd46851547f)" style="fill: #ff00ff"/>
   </g>
   <g id="patch_143">
    <path d="M 616.25938 167135.177553 
L 616.682381 167135.177553 
L 616.682381 167135.177553 
L 616.25938 167135.177553 
z
" clip-path="url(#pd46851547f)" style="fill: #ff00ff"/>
   </g>
   <g id="patch_144">
    <path d="M 616.682381 167135.177553 
L 617.140883 167135.177553 
L 617.140883 167135.177553 
L 616.682381 167135.177553 
z
" clip-path="url(#pd46851547f)" style="fill: #ff00ff"/>
   </g>
   <g id="patch_145">
    <path d="M 617.140883 167135.177553 
L 617.637866 167135.177553 
L 617.637866 167135.177553 
L 617.140883 167135.177553 
z
" clip-path="url(#pd46851547f)" style="fill: #ff00ff"/>
   </g>
   <g id="patch_146">
    <path d="M 617.637866 167135.177553 
L 618.176559 167135.177553 
L 618.176559 167135.177553 
L 617.637866 167135.177553 
z
" clip-path="url(#pd46851547f)" style="fill: #ff00ff"/>
   </g>
   <g id="patch_147">
    <path d="M 618.176559 167135.177553 
L 618.760462 167135.177553 
L 618.760462 167135.177553 
L 618.176559 167135.177553 
z
" clip-path="url(#pd46851547f)" style="fill: #ff00ff"/>
   </g>
   <g id="patch_148">
    <path d="M 618.760462 167135.177553 
L 619.393371 167135.177553 
L 619.393371 167135.177553 
L 618.760462 167135.177553 
z
" clip-path="url(#pd46851547f)" style="fill: #ff00ff"/>
   </g>
   <g id="patch_149">
    <path d="M 619.393371 167135.177553 
L 620.079398 167135.177553 
L 620.079398 167135.177553 
L 619.393371 167135.177553 
z
" clip-path="url(#pd46851547f)" style="fill: #ff00ff"/>
   </g>
   <g id="patch_150">
    <path d="M 620.079398 167135.177553 
L 620.823001 167135.177553 
L 620.823001 167135.177553 
L 620.079398 167135.177553 
z
" clip-path="url(#pd46851547f)" style="fill: #ff00ff"/>
   </g>
   <g id="patch_151">
    <path d="M 620.823001 167135.177553 
L 621.629013 167135.177553 
L 621.629013 167135.177553 
L 620.823001 167135.177553 
z
" clip-path="url(#pd46851547f)" style="fill: #ff00ff"/>
   </g>
   <g id="patch_152">
    <path d="M 621.629013 167135.177553 
L 622.50267 167135.177553 
L 622.50267 167135.177553 
L 621.629013 167135.177553 
z
" clip-path="url(#pd46851547f)" style="fill: #ff00ff"/>
   </g>
   <g id="patch_153">
    <path d="M 622.50267 167135.177553 
L 623.449651 167135.177553 
L 623.449651 167135.177553 
L 622.50267 167135.177553 
z
" clip-path="url(#pd46851547f)" style="fill: #ff00ff"/>
   </g>
   <g id="patch_154">
    <path d="M 623.449651 167135.177553 
L 624.476109 167135.177553 
L 624.476109 167135.177553 
L 623.449651 167135.177553 
z
" clip-path="url(#pd46851547f)" style="fill: #ff00ff"/>
   </g>
   <g id="patch_155">
    <path d="M 624.476109 167135.177553 
L 625.588715 167135.177553 
L 625.588715 167135.177553 
L 624.476109 167135.177553 
z
" clip-path="url(#pd46851547f)" style="fill: #ff00ff"/>
   </g>
   <g id="patch_156">
    <path d="M 625.588715 167135.177553 
L 626.794698 167135.177553 
L 626.794698 167135.177553 
L 625.588715 167135.177553 
z
" clip-path="url(#pd46851547f)" style="fill: #ff00ff"/>
   </g>
   <g id="patch_157">
    <path d="M 626.794698 167135.177553 
L 628.101895 167135.177553 
L 628.101895 167135.177553 
L 626.794698 167135.177553 
z
" clip-path="url(#pd46851547f)" style="fill: #ff00ff"/>
   </g>
   <g id="patch_158">
    <path d="M 628.101895 167135.177553 
L 629.518802 167135.177553 
L 629.518802 167135.177553 
L 628.101895 167135.177553 
z
" clip-path="url(#pd46851547f)" style="fill: #ff00ff"/>
   </g>
   <g id="patch_159">
    <path d="M 629.518802 167135.177553 
L 631.054625 167135.177553 
L 631.054625 167135.177553 
L 629.518802 167135.177553 
z
" clip-path="url(#pd46851547f)" style="fill: #ff00ff"/>
   </g>
   <g id="patch_160">
    <path d="M 631.054625 167135.177553 
L 632.719345 167135.177553 
L 632.719345 167135.177553 
L 631.054625 167135.177553 
z
" clip-path="url(#pd46851547f)" style="fill: #ff00ff"/>
   </g>
   <g id="patch_161">
    <path d="M 632.719345 167135.177553 
L 634.52378 167135.177553 
L 634.52378 167135.177553 
L 632.719345 167135.177553 
z
" clip-path="url(#pd46851547f)" style="fill: #ff00ff"/>
   </g>
   <g id="patch_162">
    <path d="M 634.52378 167135.177553 
L 636.479656 167135.177553 
L 636.479656 167135.177553 
L 634.52378 167135.177553 
z
" clip-path="url(#pd46851547f)" style="fill: #ff00ff"/>
   </g>
   <g id="patch_163">
    <path d="M 636.479656 167135.177553 
L 638.599682 167135.177553 
L 638.599682 167135.177553 
L 636.479656 167135.177553 
z
" clip-path="url(#pd46851547f)" style="fill: #ff00ff"/>
   </g>
   <g id="patch_164">
    <path d="M 638.599682 167135.177553 
L 640.897635 167135.177553 
L 640.897635 167135.177553 
L 638.599682 167135.177553 
z
" clip-path="url(#pd46851547f)" style="fill: #ff00ff"/>
   </g>
   <g id="patch_165">
    <path d="M 640.897635 167135.177553 
L 643.388448 167135.177553 
L 643.388448 167135.177553 
L 640.897635 167135.177553 
z
" clip-path="url(#pd46851547f)" style="fill: #ff00ff"/>
   </g>
   <g id="patch_166">
    <path d="M 643.388448 167135.177553 
L 646.088308 167135.177553 
L 646.088308 167135.177553 
L 643.388448 167135.177553 
z
" clip-path="url(#pd46851547f)" style="fill: #ff00ff"/>
   </g>
   <g id="patch_167">
    <path d="M 646.088308 167135.177553 
L 649.014759 167135.177553 
L 649.014759 167135.177553 
L 646.088308 167135.177553 
z
" clip-path="url(#pd46851547f)" style="fill: #ff00ff"/>
   </g>
   <g id="patch_168">
    <path d="M 649.014759 167135.177553 
L 652.186818 167135.177553 
L 652.186818 167135.177553 
L 649.014759 167135.177553 
z
" clip-path="url(#pd46851547f)" style="fill: #ff00ff"/>
   </g>
   <g id="patch_169">
    <path d="M 652.186818 167135.177553 
L 655.625097 167135.177553 
L 655.625097 167135.177553 
L 652.186818 167135.177553 
z
" clip-path="url(#pd46851547f)" style="fill: #ff00ff"/>
   </g>
   <g id="patch_170">
    <path d="M 655.625097 167135.177553 
L 659.351941 167135.177553 
L 659.351941 167135.177553 
L 655.625097 167135.177553 
z
" clip-path="url(#pd46851547f)" style="fill: #ff00ff"/>
   </g>
   <g id="patch_171">
    <path d="M 659.351941 167135.177553 
L 663.391568 167135.177553 
L 663.391568 167135.177553 
L 659.351941 167135.177553 
z
" clip-path="url(#pd46851547f)" style="fill: #ff00ff"/>
   </g>
   <g id="patch_172">
    <path d="M 663.391568 167135.177553 
L 667.770228 167135.177553 
L 667.770228 167135.177553 
L 663.391568 167135.177553 
z
" clip-path="url(#pd46851547f)" style="fill: #ff00ff"/>
   </g>
   <g id="patch_173">
    <path d="M 667.770228 167135.177553 
L 672.516375 167135.177553 
L 672.516375 167135.177553 
L 667.770228 167135.177553 
z
" clip-path="url(#pd46851547f)" style="fill: #ff00ff"/>
   </g>
   <g id="patch_174">
    <path d="M 672.516375 167135.177553 
L 677.660852 167135.177553 
L 677.660852 167135.177553 
L 672.516375 167135.177553 
z
" clip-path="url(#pd46851547f)" style="fill: #ff00ff"/>
   </g>
   <g id="patch_175">
    <path d="M 677.660852 167135.177553 
L 683.237088 167135.177553 
L 683.237088 167135.177553 
L 677.660852 167135.177553 
z
" clip-path="url(#pd46851547f)" style="fill: #ff00ff"/>
   </g>
   <g id="patch_176">
    <path d="M 683.237088 167135.177553 
L 689.281322 167135.177553 
L 689.281322 167135.177553 
L 683.237088 167135.177553 
z
" clip-path="url(#pd46851547f)" style="fill: #ff00ff"/>
   </g>
   <g id="patch_177">
    <path d="M 689.281322 167135.177553 
L 695.832829 167135.177553 
L 695.832829 167135.177553 
L 689.281322 167135.177553 
z
" clip-path="url(#pd46851547f)" style="fill: #ff00ff"/>
   </g>
   <g id="patch_178">
    <path d="M 695.832829 167135.177553 
L 702.934183 167135.177553 
L 702.934183 167135.177553 
L 695.832829 167135.177553 
z
" clip-path="url(#pd46851547f)" style="fill: #ff00ff"/>
   </g>
   <g id="patch_179">
    <path d="M 702.934183 167135.177553 
L 710.631533 167135.177553 
L 710.631533 167135.177553 
L 702.934183 167135.177553 
z
" clip-path="url(#pd46851547f)" style="fill: #ff00ff"/>
   </g>
   <g id="patch_180">
    <path d="M 710.631533 167135.177553 
L 718.974897 167135.177553 
L 718.974897 167135.177553 
L 710.631533 167135.177553 
z
" clip-path="url(#pd46851547f)" style="fill: #ff00ff"/>
   </g>
   <g id="patch_181">
    <path d="M 718.974897 167135.177553 
L 728.018494 167135.177553 
L 728.018494 74.947364 
L 718.974897 74.947364 
z
" clip-path="url(#pd46851547f)" style="fill: #ff00ff"/>
   </g>
   <g id="patch_182">
    <path d="M 728.018494 167135.177553 
L 737.821093 167135.177553 
L 737.821093 167135.177553 
L 728.018494 167135.177553 
z
" clip-path="url(#pd46851547f)" style="fill: #ff00ff"/>
   </g>
   <g id="patch_183">
    <path d="M 737.821093 167135.177553 
L 748.446393 167135.177553 
L 748.446393 167135.177553 
L 737.821093 167135.177553 
z
" clip-path="url(#pd46851547f)" style="fill: #ff00ff"/>
   </g>
   <g id="patch_184">
    <path d="M 748.446393 167135.177553 
L 759.963442 167135.177553 
L 759.963442 167135.177553 
L 748.446393 167135.177553 
z
" clip-path="url(#pd46851547f)" style="fill: #ff00ff"/>
   </g>
   <g id="patch_185">
    <path d="M 759.963442 167135.177553 
L 772.447081 167135.177553 
L 772.447081 167135.177553 
L 759.963442 167135.177553 
z
" clip-path="url(#pd46851547f)" style="fill: #ff00ff"/>
   </g>
   <g id="patch_186">
    <path d="M 772.447081 167135.177553 
L 785.978434 167135.177553 
L 785.978434 167135.177553 
L 772.447081 167135.177553 
z
" clip-path="url(#pd46851547f)" style="fill: #ff00ff"/>
   </g>
   <g id="patch_187">
    <path d="M 785.978434 167135.177553 
L 800.645431 167135.177553 
L 800.645431 167135.177553 
L 785.978434 167135.177553 
z
" clip-path="url(#pd46851547f)" style="fill: #ff00ff"/>
   </g>
   <g id="patch_188">
    <path d="M 800.645431 167135.177553 
L 816.543384 167135.177553 
L 816.543384 167135.177553 
L 800.645431 167135.177553 
z
" clip-path="url(#pd46851547f)" style="fill: #ff00ff"/>
   </g>
   <g id="patch_189">
    <path d="M 816.543384 167135.177553 
L 833.775603 167135.177553 
L 833.775603 167135.177553 
L 816.543384 167135.177553 
z
" clip-path="url(#pd46851547f)" style="fill: #ff00ff"/>
   </g>
   <g id="patch_190">
    <path d="M 833.775603 167135.177553 
L 841.124428 167135.177553 
L 841.124428 166.393591 
L 833.775603 166.393591 
z
" clip-path="url(#pd46851547f)" style="fill: #ff00ff"/>
   </g>
   <g id="patch_191">
    <path d="M 841.124428 167135.177553 
L 848.151598 167135.177553 
L 848.151598 167135.177553 
L 841.124428 167135.177553 
z
" clip-path="url(#pd46851547f)" style="fill: #ff00ff"/>
   </g>
   <g id="patch_192">
    <path d="M 848.151598 167135.177553 
L 855.178769 167135.177553 
L 855.178769 167135.177553 
L 848.151598 167135.177553 
z
" clip-path="url(#pd46851547f)" style="fill: #ff00ff"/>
   </g>
   <g id="patch_193">
    <path d="M 855.178769 167135.177553 
L 862.20594 167135.177553 
L 862.20594 167135.177553 
L 855.178769 167135.177553 
z
" clip-path="url(#pd46851547f)" style="fill: #ff00ff"/>
   </g>
   <g id="patch_194">
    <path d="M 862.20594 167135.177553 
L 869.23311 167135.177553 
L 869.23311 167135.177553 
L 862.20594 167135.177553 
z
" clip-path="url(#pd46851547f)" style="fill: #ff00ff"/>
   </g>
   <g id="patch_195">
    <path d="M 869.23311 167135.177553 
L 876.260281 167135.177553 
L 876.260281 221.949643 
L 869.23311 221.949643 
z
" clip-path="url(#pd46851547f)" style="fill: #ff00ff"/>
   </g>
   <g id="patch_196">
    <path d="M 876.260281 167135.177553 
L 883.287452 167135.177553 
L 883.287452 167135.177553 
L 876.260281 167135.177553 
z
" clip-path="url(#pd46851547f)" style="fill: #ff00ff"/>
   </g>
   <g id="patch_197">
    <path d="M 883.287452 167135.177553 
L 890.314623 167135.177553 
L 890.314623 167135.177553 
L 883.287452 167135.177553 
z
" clip-path="url(#pd46851547f)" style="fill: #ff00ff"/>
   </g>
   <g id="patch_198">
    <path d="M 890.314623 167135.177553 
L 897.341793 167135.177553 
L 897.341793 202.52496 
L 890.314623 202.52496 
z
" clip-path="url(#pd46851547f)" style="fill: #ff00ff"/>
   </g>
   <g id="patch_199">
    <path d="M 897.341793 167135.177553 
L 904.368964 167135.177553 
L 904.368964 167135.177553 
L 897.341793 167135.177553 
z
" clip-path="url(#pd46851547f)" style="fill: #ff00ff"/>
   </g>
   <g id="patch_200">
    <path d="M 904.368964 167135.177553 
L 911.396135 167135.177553 
L 911.396135 167135.177553 
L 904.368964 167135.177553 
z
" clip-path="url(#pd46851547f)" style="fill: #ff00ff"/>
   </g>
   <g id="patch_201">
    <path d="M 911.396135 167135.177553 
L 918.423305 167135.177553 
L 918.423305 266.77355 
L 911.396135 266.77355 
z
" clip-path="url(#pd46851547f)" style="fill: #ff00ff"/>
   </g>
   <g id="patch_202">
    <path d="M 918.423305 167135.177553 
L 925.450476 167135.177553 
L 925.450476 167135.177553 
L 918.423305 167135.177553 
z
" clip-path="url(#pd46851547f)" style="fill: #ff00ff"/>
   </g>
   <g id="patch_203">
    <path d="M 925.450476 167135.177553 
L 932.477647 167135.177553 
L 932.477647 266.77355 
L 925.450476 266.77355 
z
" clip-path="url(#pd46851547f)" style="fill: #ff00ff"/>
   </g>
   <g id="patch_204">
    <path d="M 932.477647 167135.177553 
L 939.504818 167135.177553 
L 939.504818 167135.177553 
L 932.477647 167135.177553 
z
" clip-path="url(#pd46851547f)" style="fill: #ff00ff"/>
   </g>
   <g id="patch_205">
    <path d="M 939.504818 167135.177553 
L 946.531988 167135.177553 
L 946.531988 277.935421 
L 939.504818 277.935421 
z
" clip-path="url(#pd46851547f)" style="fill: #ff00ff"/>
   </g>
   <g id="patch_206">
    <path d="M 946.531988 167135.177553 
L 953.559159 167135.177553 
L 953.559159 167135.177553 
L 946.531988 167135.177553 
z
" clip-path="url(#pd46851547f)" style="fill: #ff00ff"/>
   </g>
   <g id="patch_207">
    <path d="M 953.559159 167135.177553 
L 960.58633 167135.177553 
L 960.58633 167135.177553 
L 953.559159 167135.177553 
z
" clip-path="url(#pd46851547f)" style="fill: #ff00ff"/>
   </g>
   <g id="patch_208">
    <path d="M 960.58633 167135.177553 
L 967.6135 167135.177553 
L 967.6135 407.674636 
L 960.58633 407.674636 
z
" clip-path="url(#pd46851547f)" style="fill: #ff00ff"/>
   </g>
   <g id="patch_209">
    <path d="M 967.6135 167135.177553 
L 974.640671 167135.177553 
L 974.640671 167135.177553 
L 967.6135 167135.177553 
z
" clip-path="url(#pd46851547f)" style="fill: #ff00ff"/>
   </g>
   <g id="matplotlib.axis_3">
    <g id="xtick_4">
     <g id="line2d_15">
      <path d="M 611.219271 424.311 
L 611.219271 58.311 
" clip-path="url(#pd46851547f)" style="fill: none; stroke-dasharray: 2.96,1.28; stroke-dashoffset: 0; stroke: #b0b0b0; stroke-width: 0.8"/>
     </g>
     <g id="line2d_16">
      <g>
       <use xlink:href="#m99679ef79d" x="611.219271" y="424.311" style="stroke: #000000; stroke-width: 0.8"/>
      </g>
     </g>
     <g id="text_11">
      <!-- $\mathdefault{0}$ -->
      <g transform="translate(605.459271 458.488187)scale(0.18 -0.18)">
       <use xlink:href="#DejaVuSans-30" transform="translate(0 0.78125)"/>
      </g>
     </g>
    </g>
    <g id="xtick_5">
     <g id="line2d_17">
      <path d="M 722.761663 424.311 
L 722.761663 58.311 
" clip-path="url(#pd46851547f)" style="fill: none; stroke-dasharray: 2.96,1.28; stroke-dashoffset: 0; stroke: #b0b0b0; stroke-width: 0.8"/>
     </g>
     <g id="line2d_18">
      <g>
       <use xlink:href="#m99679ef79d" x="722.761663" y="424.311" style="stroke: #000000; stroke-width: 0.8"/>
      </g>
     </g>
     <g id="text_12">
      <!-- $\mathdefault{10^{0}}$ -->
      <g transform="translate(706.921663 458.488187)scale(0.18 -0.18)">
       <use xlink:href="#DejaVuSans-31" transform="translate(0 0.765625)"/>
       <use xlink:href="#DejaVuSans-30" transform="translate(63.623047 0.765625)"/>
       <use xlink:href="#DejaVuSans-30" transform="translate(128.203125 39.046875)scale(0.7)"/>
      </g>
     </g>
    </g>
    <g id="xtick_6">
     <g id="line2d_19">
      <path d="M 974.640671 424.311 
L 974.640671 58.311 
" clip-path="url(#pd46851547f)" style="fill: none; stroke-dasharray: 2.96,1.28; stroke-dashoffset: 0; stroke: #b0b0b0; stroke-width: 0.8"/>
     </g>
     <g id="line2d_20">
      <g>
       <use xlink:href="#m99679ef79d" x="974.640671" y="424.311" style="stroke: #000000; stroke-width: 0.8"/>
      </g>
     </g>
     <g id="text_13">
      <!-- $\mathdefault{10^{1}}$ -->
      <g transform="translate(958.800671 458.488187)scale(0.18 -0.18)">
       <use xlink:href="#DejaVuSans-31" transform="translate(0 0.684375)"/>
       <use xlink:href="#DejaVuSans-30" transform="translate(63.623047 0.684375)"/>
       <use xlink:href="#DejaVuSans-31" transform="translate(128.203125 38.965625)scale(0.7)"/>
      </g>
     </g>
    </g>
    <g id="text_14">
     <!-- OutDegree -->
     <g transform="translate(732.829414 481.4285)scale(0.2 -0.2)">
      <use xlink:href="#DejaVuSans-4f"/>
      <use xlink:href="#DejaVuSans-75" x="78.710938"/>
      <use xlink:href="#DejaVuSans-74" x="142.089844"/>
      <use xlink:href="#DejaVuSans-44" x="181.298828"/>
      <use xlink:href="#DejaVuSans-65" x="258.300781"/>
      <use xlink:href="#DejaVuSans-67" x="319.824219"/>
      <use xlink:href="#DejaVuSans-72" x="383.300781"/>
      <use xlink:href="#DejaVuSans-65" x="422.164062"/>
      <use xlink:href="#DejaVuSans-65" x="483.6875"/>
     </g>
    </g>
   </g>
   <g id="matplotlib.axis_4">
    <g id="ytick_5">
     <g id="line2d_21">
      <path d="M 581.33625 407.674636 
L 993.369453 407.674636 
" clip-path="url(#pd46851547f)" style="fill: none; stroke-dasharray: 2.96,1.28; stroke-dashoffset: 0; stroke: #b0b0b0; stroke-width: 0.8"/>
     </g>
     <g id="line2d_22">
      <g>
       <use xlink:href="#m0fb927dfde" x="581.33625" y="407.674636" style="stroke: #000000; stroke-width: 0.8"/>
      </g>
     </g>
     <g id="text_15">
      <!-- $\mathdefault{10^{0}}$ -->
      <g transform="translate(529.15625 414.51323)scale(0.18 -0.18)">
       <use xlink:href="#DejaVuSans-31" transform="translate(0 0.765625)"/>
       <use xlink:href="#DejaVuSans-30" transform="translate(63.623047 0.765625)"/>
       <use xlink:href="#DejaVuSans-30" transform="translate(128.203125 39.046875)scale(0.7)"/>
      </g>
     </g>
    </g>
    <g id="ytick_6">
     <g id="line2d_23">
      <path d="M 581.33625 240.947133 
L 993.369453 240.947133 
" clip-path="url(#pd46851547f)" style="fill: none; stroke-dasharray: 2.96,1.28; stroke-dashoffset: 0; stroke: #b0b0b0; stroke-width: 0.8"/>
     </g>
     <g id="line2d_24">
      <g>
       <use xlink:href="#m0fb927dfde" x="581.33625" y="240.947133" style="stroke: #000000; stroke-width: 0.8"/>
      </g>
     </g>
     <g id="text_16">
      <!-- $\mathdefault{10^{1}}$ -->
      <g transform="translate(529.15625 247.785727)scale(0.18 -0.18)">
       <use xlink:href="#DejaVuSans-31" transform="translate(0 0.684375)"/>
       <use xlink:href="#DejaVuSans-30" transform="translate(63.623047 0.684375)"/>
       <use xlink:href="#DejaVuSans-31" transform="translate(128.203125 38.965625)scale(0.7)"/>
      </g>
     </g>
    </g>
    <g id="ytick_7">
     <g id="line2d_25">
      <path d="M 581.33625 74.219631 
L 993.369453 74.219631 
" clip-path="url(#pd46851547f)" style="fill: none; stroke-dasharray: 2.96,1.28; stroke-dashoffset: 0; stroke: #b0b0b0; stroke-width: 0.8"/>
     </g>
     <g id="line2d_26">
      <g>
       <use xlink:href="#m0fb927dfde" x="581.33625" y="74.219631" style="stroke: #000000; stroke-width: 0.8"/>
      </g>
     </g>
     <g id="text_17">
      <!-- $\mathdefault{10^{2}}$ -->
      <g transform="translate(529.15625 81.058224)scale(0.18 -0.18)">
       <use xlink:href="#DejaVuSans-31" transform="translate(0 0.765625)"/>
       <use xlink:href="#DejaVuSans-30" transform="translate(63.623047 0.765625)"/>
       <use xlink:href="#DejaVuSans-32" transform="translate(128.203125 39.046875)scale(0.7)"/>
      </g>
     </g>
    </g>
    <g id="ytick_8">
     <g id="line2d_27">
      <defs>
       <path id="mf8f3236033" d="M 0 0 
L -7 0 
" style="stroke: #000000; stroke-width: 0.6"/>
      </defs>
      <g>
       <use xlink:href="#mf8f3236033" x="581.33625" y="423.832201" style="stroke: #000000; stroke-width: 0.6"/>
      </g>
     </g>
    </g>
    <g id="ytick_9">
     <g id="line2d_28">
      <g>
       <use xlink:href="#mf8f3236033" x="581.33625" y="415.303669" style="stroke: #000000; stroke-width: 0.6"/>
      </g>
     </g>
    </g>
    <g id="ytick_10">
     <g id="line2d_29">
      <g>
       <use xlink:href="#mf8f3236033" x="581.33625" y="357.484657" style="stroke: #000000; stroke-width: 0.6"/>
      </g>
     </g>
    </g>
    <g id="ytick_11">
     <g id="line2d_30">
      <g>
       <use xlink:href="#mf8f3236033" x="581.33625" y="328.125401" style="stroke: #000000; stroke-width: 0.6"/>
      </g>
     </g>
    </g>
    <g id="ytick_12">
     <g id="line2d_31">
      <g>
       <use xlink:href="#mf8f3236033" x="581.33625" y="307.294677" style="stroke: #000000; stroke-width: 0.6"/>
      </g>
     </g>
    </g>
    <g id="ytick_13">
     <g id="line2d_32">
      <g>
       <use xlink:href="#mf8f3236033" x="581.33625" y="291.137113" style="stroke: #000000; stroke-width: 0.6"/>
      </g>
     </g>
    </g>
    <g id="ytick_14">
     <g id="line2d_33">
      <g>
       <use xlink:href="#mf8f3236033" x="581.33625" y="277.935421" style="stroke: #000000; stroke-width: 0.6"/>
      </g>
     </g>
    </g>
    <g id="ytick_15">
     <g id="line2d_34">
      <g>
       <use xlink:href="#mf8f3236033" x="581.33625" y="266.77355" style="stroke: #000000; stroke-width: 0.6"/>
      </g>
     </g>
    </g>
    <g id="ytick_16">
     <g id="line2d_35">
      <g>
       <use xlink:href="#mf8f3236033" x="581.33625" y="257.104698" style="stroke: #000000; stroke-width: 0.6"/>
      </g>
     </g>
    </g>
    <g id="ytick_17">
     <g id="line2d_36">
      <g>
       <use xlink:href="#mf8f3236033" x="581.33625" y="248.576166" style="stroke: #000000; stroke-width: 0.6"/>
      </g>
     </g>
    </g>
    <g id="ytick_18">
     <g id="line2d_37">
      <g>
       <use xlink:href="#mf8f3236033" x="581.33625" y="190.757154" style="stroke: #000000; stroke-width: 0.6"/>
      </g>
     </g>
    </g>
    <g id="ytick_19">
     <g id="line2d_38">
      <g>
       <use xlink:href="#mf8f3236033" x="581.33625" y="161.397898" style="stroke: #000000; stroke-width: 0.6"/>
      </g>
     </g>
    </g>
    <g id="ytick_20">
     <g id="line2d_39">
      <g>
       <use xlink:href="#mf8f3236033" x="581.33625" y="140.567174" style="stroke: #000000; stroke-width: 0.6"/>
      </g>
     </g>
    </g>
    <g id="ytick_21">
     <g id="line2d_40">
      <g>
       <use xlink:href="#mf8f3236033" x="581.33625" y="124.40961" style="stroke: #000000; stroke-width: 0.6"/>
      </g>
     </g>
    </g>
    <g id="ytick_22">
     <g id="line2d_41">
      <g>
       <use xlink:href="#mf8f3236033" x="581.33625" y="111.207919" style="stroke: #000000; stroke-width: 0.6"/>
      </g>
     </g>
    </g>
    <g id="ytick_23">
     <g id="line2d_42">
      <g>
       <use xlink:href="#mf8f3236033" x="581.33625" y="100.046048" style="stroke: #000000; stroke-width: 0.6"/>
      </g>
     </g>
    </g>
    <g id="ytick_24">
     <g id="line2d_43">
      <g>
       <use xlink:href="#mf8f3236033" x="581.33625" y="90.377195" style="stroke: #000000; stroke-width: 0.6"/>
      </g>
     </g>
    </g>
    <g id="ytick_25">
     <g id="line2d_44">
      <g>
       <use xlink:href="#mf8f3236033" x="581.33625" y="81.848663" style="stroke: #000000; stroke-width: 0.6"/>
      </g>
     </g>
    </g>
    <g id="text_18">
     <!-- Occurence -->
     <g transform="translate(520.996875 294.545375)rotate(-90)scale(0.2 -0.2)">
      <use xlink:href="#DejaVuSans-4f"/>
      <use xlink:href="#DejaVuSans-63" x="78.710938"/>
      <use xlink:href="#DejaVuSans-63" x="133.691406"/>
      <use xlink:href="#DejaVuSans-75" x="188.671875"/>
      <use xlink:href="#DejaVuSans-72" x="252.050781"/>
      <use xlink:href="#DejaVuSans-65" x="290.914062"/>
      <use xlink:href="#DejaVuSans-6e" x="352.4375"/>
      <use xlink:href="#DejaVuSans-63" x="415.816406"/>
      <use xlink:href="#DejaVuSans-65" x="470.796875"/>
     </g>
    </g>
   </g>
   <g id="patch_210">
    <path d="M 581.33625 424.311 
L 581.33625 58.311 
" style="fill: none; stroke: #000000; stroke-width: 0.8; stroke-linejoin: miter; stroke-linecap: square"/>
   </g>
   <g id="patch_211">
    <path d="M 993.369453 424.311 
L 993.369453 58.311 
" style="fill: none; stroke: #000000; stroke-width: 0.8; stroke-linejoin: miter; stroke-linecap: square"/>
   </g>
   <g id="patch_212">
    <path d="M 581.33625 424.311 
L 993.369453 424.311 
" style="fill: none; stroke: #000000; stroke-width: 0.8; stroke-linejoin: miter; stroke-linecap: square"/>
   </g>
   <g id="patch_213">
    <path d="M 581.33625 58.311 
L 993.369453 58.311 
" style="fill: none; stroke: #000000; stroke-width: 0.8; stroke-linejoin: miter; stroke-linecap: square"/>
   </g>
   <g id="text_19">
    <!-- Multilevel Communities' Connections  -->
    <g transform="translate(561.278477 25.43625)scale(0.24 -0.24)">
     <use xlink:href="#DejaVuSans-4d"/>
     <use xlink:href="#DejaVuSans-75" x="86.279297"/>
     <use xlink:href="#DejaVuSans-6c" x="149.658203"/>
     <use xlink:href="#DejaVuSans-74" x="177.441406"/>
     <use xlink:href="#DejaVuSans-69" x="216.650391"/>
     <use xlink:href="#DejaVuSans-6c" x="244.433594"/>
     <use xlink:href="#DejaVuSans-65" x="272.216797"/>
     <use xlink:href="#DejaVuSans-76" x="333.740234"/>
     <use xlink:href="#DejaVuSans-65" x="392.919922"/>
     <use xlink:href="#DejaVuSans-6c" x="454.443359"/>
     <use xlink:href="#DejaVuSans-20" x="482.226562"/>
     <use xlink:href="#DejaVuSans-43" x="514.013672"/>
     <use xlink:href="#DejaVuSans-6f" x="583.837891"/>
     <use xlink:href="#DejaVuSans-6d" x="645.019531"/>
     <use xlink:href="#DejaVuSans-6d" x="742.431641"/>
     <use xlink:href="#DejaVuSans-75" x="839.84375"/>
     <use xlink:href="#DejaVuSans-6e" x="903.222656"/>
     <use xlink:href="#DejaVuSans-69" x="966.601562"/>
     <use xlink:href="#DejaVuSans-74" x="994.384766"/>
     <use xlink:href="#DejaVuSans-69" x="1033.59375"/>
     <use xlink:href="#DejaVuSans-65" x="1061.376953"/>
     <use xlink:href="#DejaVuSans-73" x="1122.900391"/>
     <use xlink:href="#DejaVuSans-27" x="1175"/>
     <use xlink:href="#DejaVuSans-20" x="1202.490234"/>
     <use xlink:href="#DejaVuSans-43" x="1234.277344"/>
     <use xlink:href="#DejaVuSans-6f" x="1304.101562"/>
     <use xlink:href="#DejaVuSans-6e" x="1365.283203"/>
     <use xlink:href="#DejaVuSans-6e" x="1428.662109"/>
     <use xlink:href="#DejaVuSans-65" x="1492.041016"/>
     <use xlink:href="#DejaVuSans-63" x="1553.564453"/>
     <use xlink:href="#DejaVuSans-74" x="1608.544922"/>
     <use xlink:href="#DejaVuSans-69" x="1647.753906"/>
     <use xlink:href="#DejaVuSans-6f" x="1675.537109"/>
     <use xlink:href="#DejaVuSans-6e" x="1736.71875"/>
     <use xlink:href="#DejaVuSans-73" x="1800.097656"/>
     <use xlink:href="#DejaVuSans-20" x="1852.197266"/>
    </g>
    <!-- 2 Year Interval, Descendants -->
    <g transform="translate(615.102227 52.311)scale(0.24 -0.24)">
     <use xlink:href="#DejaVuSans-32"/>
     <use xlink:href="#DejaVuSans-20" x="63.623047"/>
     <use xlink:href="#DejaVuSans-59" x="95.410156"/>
     <use xlink:href="#DejaVuSans-65" x="143.244141"/>
     <use xlink:href="#DejaVuSans-61" x="204.767578"/>
     <use xlink:href="#DejaVuSans-72" x="266.046875"/>
     <use xlink:href="#DejaVuSans-20" x="307.160156"/>
     <use xlink:href="#DejaVuSans-49" x="338.947266"/>
     <use xlink:href="#DejaVuSans-6e" x="368.439453"/>
     <use xlink:href="#DejaVuSans-74" x="431.818359"/>
     <use xlink:href="#DejaVuSans-65" x="471.027344"/>
     <use xlink:href="#DejaVuSans-72" x="532.550781"/>
     <use xlink:href="#DejaVuSans-76" x="573.664062"/>
     <use xlink:href="#DejaVuSans-61" x="632.84375"/>
     <use xlink:href="#DejaVuSans-6c" x="694.123047"/>
     <use xlink:href="#DejaVuSans-2c" x="721.90625"/>
     <use xlink:href="#DejaVuSans-20" x="753.693359"/>
     <use xlink:href="#DejaVuSans-44" x="785.480469"/>
     <use xlink:href="#DejaVuSans-65" x="862.482422"/>
     <use xlink:href="#DejaVuSans-73" x="924.005859"/>
     <use xlink:href="#DejaVuSans-63" x="976.105469"/>
     <use xlink:href="#DejaVuSans-65" x="1031.085938"/>
     <use xlink:href="#DejaVuSans-6e" x="1092.609375"/>
     <use xlink:href="#DejaVuSans-64" x="1155.988281"/>
     <use xlink:href="#DejaVuSans-61" x="1219.464844"/>
     <use xlink:href="#DejaVuSans-6e" x="1280.744141"/>
     <use xlink:href="#DejaVuSans-74" x="1344.123047"/>
     <use xlink:href="#DejaVuSans-73" x="1383.332031"/>
    </g>
   </g>
  </g>
 </g>
 <defs>
  <clipPath id="paf6f555d16">
   <rect x="82.73625" y="58.311" width="412.033203" height="366"/>
  </clipPath>
  <clipPath id="pd46851547f">
   <rect x="581.33625" y="58.311" width="412.033203" height="366"/>
  </clipPath>
 </defs>
</svg>
